<svg xmlns="http://www.w3.org/2000/svg" xmlns:xlink="http://www.w3.org/1999/xlink" width="16" height="16" viewBox="0 0 16 16"><defs><style>.a{fill:#22aee4;}.b{clip-path:url(#a);}</style><clipPath id="a"><rect class="a" width="16" height="16" transform="translate(5930 2245)"/></clipPath></defs><g class="b" transform="translate(-5930 -2245)"><g transform="translate(5930 2245)"><path class="a" d="M15.969,9.906a3.28,3.28,0,0,0-5.716-2.2,7.059,7.059,0,0,0-1.085-.445,3.937,3.937,0,1,0-4.217,0,7.041,7.041,0,0,0-4.919,6.71v1.563A.469.469,0,0,0,.5,16H13.625a.469.469,0,0,0,.469-.469V13.969a7.022,7.022,0,0,0-.082-1.061A3.286,3.286,0,0,0,15.969,9.906ZM4.063,3.938a3,3,0,1,1,3,3A3,3,0,0,1,4.063,3.938Zm9.094,10.031v1.094H.969V13.969A6.083,6.083,0,0,1,9.726,8.494a3.281,3.281,0,0,0,2.962,4.693,3.3,3.3,0,0,0,.414-.026A6.066,6.066,0,0,1,13.156,13.969Zm.209-1.819-.034.01a2.317,2.317,0,1,1,.034-.01Z"/><path class="a" d="M13.625,9.438h-.469V8.969a.469.469,0,0,0-.937,0v.469H11.75a.469.469,0,0,0,0,.938h.469v.469a.469.469,0,0,0,.938,0v-.469h.469a.469.469,0,0,0,0-.937Z"/></g></g></svg>