<svg xmlns="http://www.w3.org/2000/svg" xmlns:xlink="http://www.w3.org/1999/xlink" width="24" height="24" viewBox="0 0 24 24"><defs><style>.a{fill:#fff;}.b{clip-path:url(#a);}</style><clipPath id="a"><rect class="a" width="24" height="24" transform="translate(5179 15687)"/></clipPath></defs><g class="b" transform="translate(-5179 -15687)"><g transform="translate(5179 15688.172)"><path class="a" d="M13.023,8.586a5.859,5.859,0,1,0,5.859,5.859A5.866,5.866,0,0,0,13.023,8.586Zm0,9.844a3.984,3.984,0,1,1,3.984-3.984A3.989,3.989,0,0,1,13.023,18.43Z" transform="translate(-1.023 -2.398)"/><path class="a" d="M21.188,4.742H17.739a.29.29,0,0,1-.258-.156l-.954-2-.008-.016a2.155,2.155,0,0,0-1.938-1.2H9.486a2.155,2.155,0,0,0-1.938,1.2l-.008.016L6.586,4.586a.29.29,0,0,1-.258.156H2.813A2.816,2.816,0,0,0,0,7.555V20.211a2.816,2.816,0,0,0,2.813,2.813H21.188A2.816,2.816,0,0,0,24,20.211V7.555A2.816,2.816,0,0,0,21.188,4.742Zm.938,15.469a.939.939,0,0,1-.937.938H2.813a.939.939,0,0,1-.937-.937V7.555a.939.939,0,0,1,.938-.937H6.328a2.155,2.155,0,0,0,1.938-1.2L8.274,5.4,9.228,3.4a.29.29,0,0,1,.258-.156H14.58a.29.29,0,0,1,.258.156L15.793,5.4l.008.016a2.155,2.155,0,0,0,1.938,1.2h3.449a.939.939,0,0,1,.938.938Z" transform="translate(0 -1.367)"/><rect class="a" width="1.875" height="1.875" transform="translate(18.375 7.125)"/></g></g></svg>