<svg xmlns="http://www.w3.org/2000/svg" xmlns:xlink="http://www.w3.org/1999/xlink" width="23" height="23" viewBox="0 0 23 23"><defs><style>.a,.c{fill:#fff;}.a{stroke:#707070;}.b{clip-path:url(#a);}</style><clipPath id="a"><rect class="a" width="23" height="23" transform="translate(0.013 -0.266)"/></clipPath></defs><g class="b" transform="translate(-0.013 0.266)"><g transform="translate(0.184 1.238)"><path class="c" d="M24.848,12.5l0,5.062a.723.723,0,0,1-.212.512l-3.621,3.62L19.994,20.67,23.4,17.262l0-4.762Z" transform="translate(-13.27 -6.712)"/><path class="c" d="M10.129,2.5a10.136,10.136,0,0,1,10.013,8.682h3.01L19.534,14.8l-3.617-3.617H18.68a8.667,8.667,0,1,0-1.7,6.787l1.14.89A10.129,10.129,0,1,1,10.129,2.5Z" transform="translate(0 -2.5)"/></g></g></svg>