<svg xmlns="http://www.w3.org/2000/svg" xmlns:xlink="http://www.w3.org/1999/xlink" width="23" height="23" viewBox="0 0 23 23"><defs><style>.a,.c{fill:#fff;}.a{stroke:#707070;}.b{clip-path:url(#a);}</style><clipPath id="a"><rect class="a" width="23" height="23" transform="translate(0.329 -0.266)"/></clipPath></defs><g class="b" transform="translate(-0.329 0.266)"><g transform="translate(-0.155 -0.209)"><circle class="c" cx="0.904" cy="0.904" r="0.904" transform="translate(16.55 8.591)"/><path class="c" d="M19.534,1.809H18.359V.9A.9.9,0,0,0,16.55.9v.9H12.435V.9a.9.9,0,0,0-1.809,0v.9H6.557V.9A.9.9,0,0,0,4.748.9v.9H3.617A3.622,3.622,0,0,0,0,5.426V19.534a3.622,3.622,0,0,0,3.617,3.617h6.918a.9.9,0,1,0,0-1.809H3.617a1.811,1.811,0,0,1-1.809-1.809V5.426A1.811,1.811,0,0,1,3.617,3.617h1.13v.9a.9.9,0,0,0,1.809,0v-.9h4.07v.9a.9.9,0,1,0,1.809,0v-.9H16.55v.9a.9.9,0,0,0,1.809,0v-.9h1.176a1.811,1.811,0,0,1,1.809,1.809v5.155a.9.9,0,0,0,1.809,0V5.426A3.622,3.622,0,0,0,19.534,1.809Z"/><path class="c" d="M37.112,31.641a5.471,5.471,0,1,0,5.471,5.471A5.478,5.478,0,0,0,37.112,31.641Zm0,9.134a3.663,3.663,0,1,1,3.663-3.663A3.667,3.667,0,0,1,37.112,40.775Z" transform="translate(-19.432 -19.432)"/><path class="c" d="M45.692,40.526h-.407v-.95a.9.9,0,0,0-1.809,0V41.43a.9.9,0,0,0,.9.9h1.311a.9.9,0,1,0,0-1.809Z" transform="translate(-26.701 -23.75)"/><circle class="c" cx="0.904" cy="0.904" r="0.904" transform="translate(12.616 8.591)"/><circle class="c" cx="0.904" cy="0.904" r="0.904" transform="translate(8.682 12.525)"/><circle class="c" cx="0.904" cy="0.904" r="0.904" transform="translate(4.748 8.591)"/><circle class="c" cx="0.904" cy="0.904" r="0.904" transform="translate(4.748 12.525)"/><circle class="c" cx="0.904" cy="0.904" r="0.904" transform="translate(4.748 16.459)"/><circle class="c" cx="0.904" cy="0.904" r="0.904" transform="translate(8.682 16.459)"/><circle class="c" cx="0.904" cy="0.904" r="0.904" transform="translate(8.682 8.591)"/></g></g></svg>