<svg xmlns="http://www.w3.org/2000/svg" xmlns:xlink="http://www.w3.org/1999/xlink" width="23" height="23" viewBox="0 0 23 23"><defs><style>.a,.c{fill:#fff;}.a{stroke:#707070;}.b{clip-path:url(#a);}</style><clipPath id="a"><rect class="a" width="23" height="23" transform="translate(-0.392 -0.266)"/></clipPath></defs><g class="b" transform="translate(0.393 0.266)"><g transform="translate(-0.06 -0.209)"><path class="c" d="M21.072,5.788H16.279V4.7a4.7,4.7,0,0,0-9.405,0V5.788H2.08A2.082,2.082,0,0,0,0,7.868v13.2a2.082,2.082,0,0,0,2.08,2.08H21.072a2.082,2.082,0,0,0,2.08-2.08V7.868A2.082,2.082,0,0,0,21.072,5.788ZM8.32,4.7a3.256,3.256,0,0,1,6.511,0V5.788H8.32ZM21.7,21.072a.634.634,0,0,1-.633.633H2.08a.634.634,0,0,1-.633-.633V7.868a.634.634,0,0,1,.633-.633H21.072a.634.634,0,0,1,.633.633Z"/><path class="c" d="M25.97,28.14a1.085,1.085,0,1,1,1.085-1.085.723.723,0,0,0,1.447,0,2.536,2.536,0,0,0-1.809-2.426v-.468a.723.723,0,1,0-1.447,0v.468a2.532,2.532,0,0,0,.723,4.959,1.085,1.085,0,1,1-1.085,1.085.723.723,0,1,0-1.447,0A2.536,2.536,0,0,0,25.246,33.1v.468a.723.723,0,0,0,1.447,0V33.1a2.532,2.532,0,0,0-.723-4.959Z" transform="translate(-14.394 -14.394)"/></g></g></svg>