<svg xmlns="http://www.w3.org/2000/svg" xmlns:xlink="http://www.w3.org/1999/xlink" width="16" height="16" viewBox="0 0 16 16"><defs><style>.a{fill:#fff;}.b{clip-path:url(#a);}</style><clipPath id="a"><rect class="a" width="16" height="16" transform="translate(7045 1892)"/></clipPath></defs><g class="b" transform="translate(-7045 -1892)"><g transform="translate(7045 1892)"><path d="M14.286,0H1.714A1.713,1.713,0,0,0,0,1.714v9.143a1.713,1.713,0,0,0,1.714,1.714H3.743l-.311,2.8a.571.571,0,0,0,.951.485l3.646-3.281h6.257A1.713,1.713,0,0,0,16,10.858V1.714A1.715,1.715,0,0,0,14.286,0Zm.569,10.858a.572.572,0,0,1-.573.573H7.811a.573.573,0,0,0-.382.147L4.734,14l.214-1.935a.574.574,0,0,0-.506-.633.405.405,0,0,0-.064,0H1.714a.572.572,0,0,1-.573-.573V1.714a.572.572,0,0,1,.573-.573H14.286a.572.572,0,0,1,.573.573l0,9.143Z"/><path d="M5.665,6.843a.931.931,0,0,1-.08.358,1.289,1.289,0,0,1-.258.378,1.321,1.321,0,0,1-.449.3A1.621,1.621,0,0,1,4.242,8a2.072,2.072,0,0,1-.5-.054,1.34,1.34,0,0,1-.408-.164A1.374,1.374,0,0,1,3,7.489a1.788,1.788,0,0,1-.234-.365,1.989,1.989,0,0,1-.147-.432,2.281,2.281,0,0,1-.05-.489,2.176,2.176,0,0,1,.121-.75,1.61,1.61,0,0,1,.348-.569,1.481,1.481,0,0,1,.532-.358A1.7,1.7,0,0,1,4.218,4.4a1.638,1.638,0,0,1,.75.167,1.378,1.378,0,0,1,.506.415.815.815,0,0,1,.174.469.309.309,0,0,1-.084.214.268.268,0,0,1-.208.094.287.287,0,0,1-.2-.064A.912.912,0,0,1,5,5.477a1.046,1.046,0,0,0-.325-.385.8.8,0,0,0-.459-.127.834.834,0,0,0-.69.328,1.5,1.5,0,0,0-.258.937,1.7,1.7,0,0,0,.114.673.853.853,0,0,0,.321.4.906.906,0,0,0,.489.134.851.851,0,0,0,.512-.151.924.924,0,0,0,.318-.442.778.778,0,0,1,.11-.224.252.252,0,0,1,.214-.087.3.3,0,0,1,.214.087A.276.276,0,0,1,5.665,6.843Z"/><path d="M6.887,4.8v.961a1.451,1.451,0,0,1,.241-.224.784.784,0,0,1,.261-.124,1.117,1.117,0,0,1,.3-.04.894.894,0,0,1,.439.1.754.754,0,0,1,.3.3.736.736,0,0,1,.094.261,1.977,1.977,0,0,1,.023.331V7.61a.425.425,0,0,1-.09.295.3.3,0,0,1-.234.1c-.214,0-.321-.131-.321-.4V6.519a.987.987,0,0,0-.094-.479.364.364,0,0,0-.352-.167.536.536,0,0,0-.311.1.594.594,0,0,0-.208.268,1.761,1.761,0,0,0-.054.516V7.61A.438.438,0,0,1,6.8,7.9a.3.3,0,0,1-.241.1c-.214,0-.321-.131-.321-.4V4.8a.436.436,0,0,1,.084-.295.287.287,0,0,1,.234-.1.3.3,0,0,1,.241.1A.4.4,0,0,1,6.887,4.8Z"/><path d="M10.821,7.633a2.032,2.032,0,0,1-.455.275A1.289,1.289,0,0,1,9.873,8a.962.962,0,0,1-.439-.1.7.7,0,0,1-.392-.633.656.656,0,0,1,.167-.452.865.865,0,0,1,.462-.251c.04-.01.144-.03.3-.064s.3-.064.418-.09.241-.06.378-.1a.668.668,0,0,0-.1-.375.459.459,0,0,0-.378-.121.779.779,0,0,0-.372.07.6.6,0,0,0-.214.208,2.112,2.112,0,0,1-.127.181c-.023.03-.077.044-.157.044a.272.272,0,0,1-.187-.07.227.227,0,0,1-.08-.177.546.546,0,0,1,.121-.331.849.849,0,0,1,.378-.264,1.675,1.675,0,0,1,.636-.1,1.8,1.8,0,0,1,.67.1.622.622,0,0,1,.345.318,1.4,1.4,0,0,1,.1.579v.385c0,.107,0,.224,0,.355a1.329,1.329,0,0,0,.06.382,1.2,1.2,0,0,1,.06.254.232.232,0,0,1-.094.181.32.32,0,0,1-.211.08.286.286,0,0,1-.2-.094A2.606,2.606,0,0,1,10.821,7.633ZM10.78,6.7a3.781,3.781,0,0,1-.415.11c-.181.04-.3.067-.375.084a.46.46,0,0,0-.2.107.272.272,0,0,0-.094.221.335.335,0,0,0,.11.251.4.4,0,0,0,.291.1.75.75,0,0,0,.355-.084.559.559,0,0,0,.238-.218,1,1,0,0,0,.087-.482V6.7Z"/><path d="M11.986,5.424h.07V5.035c0-.1,0-.187.007-.244a.362.362,0,0,1,.047-.154.284.284,0,0,1,.11-.107.32.32,0,0,1,.382.054.261.261,0,0,1,.084.151,1.579,1.579,0,0,1,.017.251v.439h.238a.311.311,0,0,1,.211.064.223.223,0,0,1,.074.167.189.189,0,0,1-.1.184.691.691,0,0,1-.295.054h-.121V7.084a2.105,2.105,0,0,0,.01.234.245.245,0,0,0,.057.134.194.194,0,0,0,.151.05.806.806,0,0,0,.154-.02.777.777,0,0,1,.151-.02.184.184,0,0,1,.141.064.207.207,0,0,1,.064.154.264.264,0,0,1-.171.241,1.132,1.132,0,0,1-.492.084.855.855,0,0,1-.459-.1.459.459,0,0,1-.2-.281,1.863,1.863,0,0,1-.05-.482V5.892h-.084a.316.316,0,0,1-.214-.067.212.212,0,0,1-.074-.167.215.215,0,0,1,.077-.167A.345.345,0,0,1,11.986,5.424Z"/></g></g></svg>