<svg xmlns="http://www.w3.org/2000/svg" xmlns:xlink="http://www.w3.org/1999/xlink" width="12" height="12" viewBox="0 0 12 12"><defs><style>.a{fill:rgba(0,0,0,0.3);}.b{clip-path:url(#a);}</style><clipPath id="a"><rect class="a" width="12" height="12" transform="translate(4298 -414)"/></clipPath></defs><g class="b" transform="translate(-4298 414)"><g transform="translate(4298 -413.993)"><path class="a" d="M6.873,6.015l4.932-4.9a.594.594,0,0,0,0-.846.608.608,0,0,0-.855,0l-4.928,4.9L1.05.191a.605.605,0,0,0-.855.857l4.97,4.97L.177,10.978a.6.6,0,0,0,0,.846.608.608,0,0,0,.855,0L6.015,6.869l4.953,4.954a.605.605,0,1,0,.855-.857Z" transform="translate(0 -0.013)"/></g></g></svg>