<svg xmlns="http://www.w3.org/2000/svg" xmlns:xlink="http://www.w3.org/1999/xlink" width="19" height="19" viewBox="0 0 19 19"><defs><style>.a,.c{fill:red;}.a{stroke:#707070;}.b{clip-path:url(#a);}</style><clipPath id="a"><rect class="a" width="19" height="19" transform="translate(21592 3208)"/></clipPath></defs><g class="b" transform="translate(-21592 -3208)"><g transform="translate(21592 3208)"><path class="c" d="M15.429,2.155H12.313V1.629A1.631,1.631,0,0,0,10.684,0H8.316A1.631,1.631,0,0,0,6.687,1.629v.526H3.571A1.977,1.977,0,0,0,1.6,4.13V5.26a.371.371,0,0,0,.371.371H3.021l.941,11.174A2.4,2.4,0,0,0,6.349,19h6.3a2.4,2.4,0,0,0,2.387-2.195l.941-11.174h1.054A.371.371,0,0,0,17.4,5.26V4.13a1.977,1.977,0,0,0-1.975-1.975Zm-8-.526A.888.888,0,0,1,8.316.742h2.368a.888.888,0,0,1,.887.887v.526H7.429Zm9.232,3.26H11.144a.371.371,0,0,0,0,.742h4.09L14.3,16.743a1.663,1.663,0,0,1-1.648,1.515h-6.3A1.664,1.664,0,0,1,4.7,16.743L3.766,5.631H7.879a.371.371,0,0,0,0-.742H2.338V4.13A1.234,1.234,0,0,1,3.571,2.9H15.429A1.234,1.234,0,0,1,16.662,4.13v.759Z"/><path class="c" d="M7.383,8.513a.371.371,0,0,0-.525.525l2.117,2.117L6.858,13.271a.371.371,0,1,0,.525.525L9.5,11.679,11.617,13.8a.371.371,0,0,0,.525-.525l-2.117-2.117,2.117-2.117a.371.371,0,0,0-.525-.525L9.5,10.629Z"/><path class="c" d="M9.195,5.4a.371.371,0,1,0,.2-.485.374.374,0,0,0-.2.485Z"/></g></g></svg>