<svg xmlns="http://www.w3.org/2000/svg" xmlns:xlink="http://www.w3.org/1999/xlink" width="16" height="16" viewBox="0 0 16 16"><defs><style>.a{fill:#22aee4;}.b{clip-path:url(#a);}</style><clipPath id="a"><rect class="a" width="16" height="16" transform="translate(37 277)"/></clipPath></defs><g class="b" transform="translate(-37 -277)"><g transform="translate(37 277)"><path class="a" d="M3.733,10.933a.8.8,0,1,0,.8.8A.8.8,0,0,0,3.733,10.933Zm0,1.067A.267.267,0,1,1,4,11.733.267.267,0,0,1,3.733,12Z"/><path class="a" d="M12.267,10.933a.8.8,0,1,0,.8.8A.8.8,0,0,0,12.267,10.933Zm0,1.067a.267.267,0,1,1,.267-.267A.267.267,0,0,1,12.267,12Z"/><path class="a" d="M15.8,7.137,13.96,5.069a.8.8,0,0,0-.6-.269H10.933V3.2a.8.8,0,0,0-.8-.8H.8a.8.8,0,0,0-.8.8v6.933a.267.267,0,0,0,.267.267H.533v.8a.8.8,0,0,0,.8.8h.555a1.864,1.864,0,0,0,3.691,0h4.843a1.864,1.864,0,0,0,3.691,0H15.2a.8.8,0,0,0,.8-.8V7.669A.8.8,0,0,0,15.8,7.137ZM.533,9.867V3.2A.267.267,0,0,1,.8,2.933h9.333A.267.267,0,0,1,10.4,3.2V9.867Zm1.355,1.6H1.333a.267.267,0,0,1-.267-.267v-.8H2.43A1.862,1.862,0,0,0,1.888,11.467Zm1.845,1.6a1.333,1.333,0,1,1,1.333-1.333A1.333,1.333,0,0,1,3.733,13.067Zm2.667-1.6H5.579A1.862,1.862,0,0,0,5.037,10.4H6.4Zm2.4,0H6.933V10.4H8.8Zm1.621,0H9.333V10.4h1.629A1.862,1.862,0,0,0,10.421,11.467Zm1.845,1.6A1.333,1.333,0,1,1,13.6,11.733,1.333,1.333,0,0,1,12.267,13.067Zm3.2-1.867a.267.267,0,0,1-.267.267H14.112a1.868,1.868,0,0,0-1.845-1.6H10.933V5.333H12V8a.8.8,0,0,0,.8.8h2.667Zm0-2.933H12.8A.267.267,0,0,1,12.533,8V5.333h.827a.267.267,0,0,1,.2.089L15.4,7.492a.267.267,0,0,1,.068.177v.6Z"/></g></g></svg>