<svg xmlns="http://www.w3.org/2000/svg" xmlns:xlink="http://www.w3.org/1999/xlink" width="16" height="16" viewBox="0 0 16 16"><defs><style>.a{fill:#22aee4;}.b{clip-path:url(#a);}</style><clipPath id="a"><rect class="a" width="16" height="16" transform="translate(69 355)"/></clipPath></defs><g class="b" transform="translate(-69 -355)"><g transform="translate(68.981 354.963)"><path class="a" d="M10.365,3.4l-.095-.155a.852.852,0,0,0-.612-.4V1.769a.219.219,0,0,0-.219-.219H9.272V.883A.847.847,0,0,0,8.426.038H7.612a.847.847,0,0,0-.846.845v.666H6.6a.219.219,0,0,0-.219.219V2.837H6.374a.848.848,0,0,0-.733.423L5.5,3.512a14.021,14.021,0,0,0-1.873,7v4.057A1.474,1.474,0,0,0,5.1,16.038h5.847a1.474,1.474,0,0,0,1.472-1.472V10.691A14,14,0,0,0,10.364,3.4ZM5.316,14.345V10.963h6.66v.944H6.35a.219.219,0,0,0,0,.439h5.626v.746H6.35a.219.219,0,0,0,0,.439h5.626v.815ZM7.2.883A.408.408,0,0,1,7.612.476h.814a.408.408,0,0,1,.407.407V1.55H7.2Zm-.386,1.1h2.4v.849h-2.4ZM10.942,15.6H5.1a1.035,1.035,0,0,1-1.034-1.034V10.509A13.583,13.583,0,0,1,5.876,3.731l.145-.252a.408.408,0,0,1,.353-.2H9.548a.41.41,0,0,1,.348.195l.095.155a13.558,13.558,0,0,1,1.983,6.9H5.1a.219.219,0,0,0-.219.219v3.82a.219.219,0,0,0,.219.219h6.857A1.035,1.035,0,0,1,10.942,15.6Z"/><path class="a" d="M8.729,9.449h1.4a.848.848,0,0,0,.833-1A12.7,12.7,0,0,0,9.384,4.2.219.219,0,0,0,9.2,4.09H8.729a.847.847,0,0,0-.846.846V8.6A.847.847,0,0,0,8.729,9.449ZM8.322,4.937a.408.408,0,0,1,.407-.407H9.07a12.255,12.255,0,0,1,1.46,4,.41.41,0,0,1-.089.337.406.406,0,0,1-.312.146h-1.4A.408.408,0,0,1,8.322,8.6Z"/></g></g></svg>