<svg xmlns="http://www.w3.org/2000/svg" xmlns:xlink="http://www.w3.org/1999/xlink" width="16" height="16" viewBox="0 0 16 16"><defs><style>.a{fill:rgba(0,0,0,0.5);}.b{clip-path:url(#a);}</style><clipPath id="a"><rect class="a" width="16" height="16" transform="translate(37 497)"/></clipPath></defs><g class="b" transform="translate(-37 -497)"><g transform="translate(37 497)"><path class="a" d="M13.367,6.9A4.344,4.344,0,0,0,13.6,5.329C13.6,1.9,11.608,0,8,0S2.4,1.9,2.4,5.329A4.338,4.338,0,0,0,2.633,6.9,2.047,2.047,0,0,0,1.6,8.561c0,.863.3,1.173.995,1.245C2.841,13.275,5.16,16,8,16s5.159-2.725,5.405-6.195c.694-.072.995-.382.995-1.245A2.048,2.048,0,0,0,13.367,6.9ZM8,.8c3.185,0,4.8,1.523,4.8,4.529A3.884,3.884,0,0,1,12.665,6.5,11.81,11.81,0,0,0,8,5.6a11.81,11.81,0,0,0-4.665.9A3.883,3.883,0,0,1,3.2,5.329C3.2,2.323,4.815.8,8,.8ZM8,15.2c-2.4,0-4.366-2.368-4.6-5.388,1.017-.054,2.512-.265,4.6-.265s3.588.21,4.6.265C12.366,12.832,10.4,15.2,8,15.2Zm5.558-6.239a1.241,1.241,0,0,1-.533.064c-.361,0-.824-.041-1.411-.092C10.669,8.85,9.493,8.748,8,8.748s-2.669.1-3.614.185c-.587.051-1.05.092-1.411.092a1.705,1.705,0,0,1-.52-.051s0,0,0,0A.924.924,0,0,1,2.4,8.561C2.4,7.287,5.351,6.4,8,6.4s5.6.887,5.6,2.161A1.429,1.429,0,0,1,13.558,8.961Z"/><path class="a" d="M9.6,2.4H6.4a.8.8,0,0,0-.8.8V4a.8.8,0,0,0,.8.8H9.6a.8.8,0,0,0,.8-.8V3.2A.8.8,0,0,0,9.6,2.4ZM9.6,4H6.4V3.2H9.6Z"/></g></g></svg>