<svg xmlns="http://www.w3.org/2000/svg" xmlns:xlink="http://www.w3.org/1999/xlink" width="16" height="16" viewBox="0 0 16 16"><defs><style>.a{fill:#22aee4;}.b{clip-path:url(#a);}</style><clipPath id="a"><rect class="a" width="16" height="16" transform="translate(69 273)"/></clipPath></defs><g class="b" transform="translate(-69 -273)"><g transform="translate(69 273)"><path class="a" d="M15.369,10.894,8.333,7.177V6.707l.009,0c1.108-.274,1.853-.965,1.853-1.853A1.853,1.853,0,0,0,8.342,3,1.825,1.825,0,0,0,6.5,4.618a.257.257,0,0,0,0,.043s0,0,0,.005a.334.334,0,0,0,.667,0h0a1.039,1.039,0,0,1,.29-.624,1.235,1.235,0,0,1,.893-.376A1.187,1.187,0,0,1,9.528,4.853a.935.935,0,0,1-.31.68,2.246,2.246,0,0,1-1.036.525l-.515.159v.116h0v.844L.632,10.894A1.113,1.113,0,0,0,0,11.872,1.2,1.2,0,0,0,1.257,13H14.743A1.2,1.2,0,0,0,16,11.872,1.112,1.112,0,0,0,15.369,10.894Zm-.625,1.439H1.257a.545.545,0,0,1-.59-.461.451.451,0,0,1,.271-.387h0l0,0L8,7.755l7.058,3.728,0,0h0a.451.451,0,0,1,.271.387A.545.545,0,0,1,14.743,12.333Z"/></g></g></svg>