<svg xmlns="http://www.w3.org/2000/svg" xmlns:xlink="http://www.w3.org/1999/xlink" width="19" height="19" viewBox="0 0 19 19"><defs><style>.a,.c{fill:#00c319;}.a{stroke:#707070;}.b{clip-path:url(#a);}</style><clipPath id="a"><rect class="a" width="19" height="19" transform="translate(21554 3198)"/></clipPath></defs><g class="b" transform="translate(-21554 -3198)"><path class="c" d="M17.661,4.148a2.183,2.183,0,0,0-2.537-.4V2.179A2.181,2.181,0,0,0,12.945,0H2.179A2.181,2.181,0,0,0,0,2.179V16.821A2.181,2.181,0,0,0,2.179,19H12.945a2.181,2.181,0,0,0,2.179-2.179V10.148L17.852,7.42a2.179,2.179,0,0,0,0-3.081Zm-9.6,8.19,1.587,1.6-2.161.573Zm2.428,1.212-2.04-2.059L14.338,5.62l2.041,2.041Zm3.763,3.271a1.309,1.309,0,0,1-1.307,1.307H2.179A1.309,1.309,0,0,1,.872,16.821V2.179A1.309,1.309,0,0,1,2.179.872H12.945a1.309,1.309,0,0,1,1.307,1.307V4.474L7.526,11.181a.435.435,0,0,0-.114.2l-.958,3.637a.436.436,0,0,0,.533.532l3.612-.958a.435.435,0,0,0,.2-.113l3.456-3.456ZM17.236,6.8l-.241.241L14.955,5l.243-.242a1.309,1.309,0,0,1,1.847,0l.191.191a1.309,1.309,0,0,1,0,1.849Zm0,0" transform="translate(21554.254 3198)"/></g></svg>