<svg xmlns="http://www.w3.org/2000/svg" xmlns:xlink="http://www.w3.org/1999/xlink" width="16" height="16" viewBox="0 0 16 16"><defs><style>.a{fill:#22aee4;}.b{clip-path:url(#a);}</style><clipPath id="a"><rect class="a" width="16" height="16" transform="translate(37 709)"/></clipPath></defs><g class="b" transform="translate(-37 -709)"><g transform="translate(37 709)"><path class="a" d="M11.825,10.306,9.806,9.858V9.22A3.092,3.092,0,0,0,11.1,6.71V6.542l.354-.442a3.108,3.108,0,0,0,.678-1.934V4.129a4.129,4.129,0,0,0-8.258,0v.037A3.108,3.108,0,0,0,4.549,6.1l.354.442V6.71a3.092,3.092,0,0,0,1.29,2.51v.638l-2.018.448a3.335,3.335,0,0,0-2.627,3.275V16h12.9V13.581A3.334,3.334,0,0,0,11.825,10.306Zm-1.428.211.589.982L8.412,12.687l1.27-2.329ZM8,12.365,6.71,10V9.521a3.062,3.062,0,0,0,2.581,0V10ZM4.9,3.579V5.71a2.588,2.588,0,0,1-.516-1.544V4.129a3.613,3.613,0,0,1,7.226,0v.037A2.589,2.589,0,0,1,11.1,5.71V3.579l-1.586.2a12.271,12.271,0,0,1-3.021,0ZM5.419,6.71V4.163l1.006.126a12.753,12.753,0,0,0,3.149,0l1.006-.126V6.71a2.581,2.581,0,1,1-5.161,0ZM5.6,10.517l.714-.159,1.27,2.329L5.014,11.5Zm6.267,4.966V14.452h-.516v1.032H8a.258.258,0,1,0-.259-.258A.258.258,0,0,0,8,15.484H4.645V14.452H4.129v1.032H2.064v-1.9A2.821,2.821,0,0,1,4.287,10.81l.622-.138-.633,1.055L8,13.446l3.724-1.719-.633-1.055.622.138a2.821,2.821,0,0,1,2.223,2.771v1.9Z"/><circle class="a" cx="0.258" cy="0.258" r="0.258" transform="translate(7.742 13.935)"/></g></g></svg>