<svg xmlns="http://www.w3.org/2000/svg" xmlns:xlink="http://www.w3.org/1999/xlink" width="16" height="16" viewBox="0 0 16 16"><defs><style>.a{fill:#22aee4;}.b{clip-path:url(#a);}</style><clipPath id="a"><rect class="a" width="16" height="16" transform="translate(69 314)"/></clipPath></defs><g class="b" transform="translate(-69 -314)"><g transform="translate(69 314)"><path class="a" d="M15.667,3.333H12.441a3.133,3.133,0,0,0-.074-.908A3.148,3.148,0,0,0,10.3.193L10.208.162A3.249,3.249,0,0,0,9.154,0a3.159,3.159,0,0,0-2.6,1.368L.85,9.544a4.005,4.005,0,0,0-.242.347L.566,9.95l0,0A3.992,3.992,0,0,0,4,16H8.333a.333.333,0,1,0,0-.667H8.261L9.076,14h.591a.333.333,0,1,0,0-.667H9.483L10.3,12H11a.333.333,0,1,0,0-.667h-.294L11.52,10H12a.333.333,0,1,0,0-.667h-.072L12.743,8h.591a.333.333,0,0,0,0-.667H13.15L13.965,6h.369a.333.333,0,0,0,.333-.333.33.33,0,0,0-.3-.326L15.187,4h.48a.333.333,0,1,0,0-.667ZM7.1,1.748A2.519,2.519,0,0,1,9.208.667,2.477,2.477,0,0,1,10,.795l.092.031a2.482,2.482,0,0,1,1.631,1.761,2.507,2.507,0,0,1-.3,1.919L7.305,11.056A3.327,3.327,0,0,0,4,8a3.973,3.973,0,0,0-1.455.278ZM7.48,15.333H4a3.322,3.322,0,0,1-2.8-5.12l.116-.167A3.323,3.323,0,0,1,4,8.667,2.667,2.667,0,0,1,4,14a2,2,0,0,1,0-4,1.333,1.333,0,0,1,.262.026l-.447.654A1.333,1.333,0,0,0,4,13.333a2,2,0,0,0,0-4,2.667,2.667,0,0,0,0,5.333,3.325,3.325,0,0,0,2.958-1.829l.012.007,5.016-7.986A3.138,3.138,0,0,0,12.338,4h2.067Zm-3.2-4.145.592-.867A1.333,1.333,0,0,1,4,12.667a.667.667,0,0,1,0-1.333A.335.335,0,0,0,4.275,11.188Z"/></g></g></svg>