<svg xmlns="http://www.w3.org/2000/svg" xmlns:xlink="http://www.w3.org/1999/xlink" width="16" height="16" viewBox="0 0 16 16"><defs><style>.a{fill:rgba(0,0,0,0.5);}.b{clip-path:url(#a);}</style><clipPath id="a"><rect class="a" width="16" height="16" transform="translate(37 656)"/></clipPath></defs><g class="b" transform="translate(-37 -656)"><g transform="translate(37 656)"><path class="a" d="M9.845,11.3H8.968a.234.234,0,1,0,0,.469h.877a.234.234,0,0,0,0-.469Z"/><path class="a" d="M15.008,8.794,13.732,8.3l-.651-.651a.233.233,0,0,0-.151-.068V7.065a2.417,2.417,0,0,0,.613-1.208.671.671,0,0,0,.164-.013.694.694,0,0,0,.538-.688V4.985a.7.7,0,0,0-.206-.5,3.1,3.1,0,0,0-.5-2.657,2.835,2.835,0,0,0-2.4-.821,3.139,3.139,0,0,0-1.8.664,1.235,1.235,0,0,0-.482.164A1.247,1.247,0,0,0,8.3,3a5.853,5.853,0,0,0,.163,1.361.7.7,0,0,0-.382.629v.168a.694.694,0,0,0,.538.688.669.669,0,0,0,.164.013,2.417,2.417,0,0,0,.613,1.208v.518a.233.233,0,0,0-.151.068L8.59,8.3l-1.276.492A1.552,1.552,0,0,0,7,8.958a.234.234,0,1,0,.263.388,1.084,1.084,0,0,1,.219-.114l1.184-.457.906,1.358a.67.67,0,0,0,.494.3c.022,0,.045,0,.067,0a.669.669,0,0,0,.33-.087l-.194,4.408a.234.234,0,0,0,.224.244h.01a.234.234,0,0,0,.234-.224l.18-4.092H11.4l.18,4.092a.234.234,0,0,0,.234.224h.01a.234.234,0,0,0,.224-.244l-.194-4.408a.669.669,0,0,0,.33.087c.022,0,.045,0,.067,0a.671.671,0,0,0,.494-.3l.906-1.358,1.184.457a1.079,1.079,0,0,1,.422.294l-.81.81a1.54,1.54,0,0,0-.454,1.1v3.333a.234.234,0,0,0,.469,0V11.431a1.074,1.074,0,0,1,.317-.765l.711-.711a1.08,1.08,0,0,1,.037.328l-.182,4.471a.234.234,0,0,0,.225.244h.01a.234.234,0,0,0,.234-.225L16,10.3A1.55,1.55,0,0,0,15.008,8.794ZM9.237,5.761a.456.456,0,0,0-.475-.372.2.2,0,0,1-.055,0,.227.227,0,0,1-.163-.229V4.988a.222.222,0,0,1,.165-.223.2.2,0,0,1,.2.077.327.327,0,0,0,.449.07,1.7,1.7,0,0,0,.384-.376.234.234,0,0,0-.376-.28,1.244,1.244,0,0,1-.183.2.67.67,0,0,0-.254-.136A5.39,5.39,0,0,1,8.764,3a.821.821,0,0,1,.329-.75.761.761,0,0,1,.35-.112A.237.237,0,0,0,9.6,2.071a2.64,2.64,0,0,1,1.569-.593,2.393,2.393,0,0,1,2.016.66A2.588,2.588,0,0,1,13.6,4.294a1.016,1.016,0,0,0-.2.014l-.22-.529a.235.235,0,0,0-.276-.137c-.022.006-2.186.554-3.094-.576a.234.234,0,1,0-.365.294c.927,1.154,2.766.9,3.378.78l.17.409a.385.385,0,0,0,.445.228.506.506,0,0,1,.175-.013.221.221,0,0,1,.166.22v.171a.227.227,0,0,1-.163.229.2.2,0,0,1-.055,0,.457.457,0,0,0-.475.372,1.956,1.956,0,0,1-3.847,0ZM10.277,9.9a.2.2,0,0,1-.314-.031L9.05,8.5l.367-.367,1.4,1.226Zm.661.31.014-.322.208-.208.208.208.014.322Zm.223-1.173L9.86,7.9V7.453a2.426,2.426,0,0,0,2.6,0V7.9Zm1.2.833a.2.2,0,0,1-.314.031L11.5,9.363l1.4-1.226.367.367Z"/><path class="a" d="M7.433,10.022l-1.144-.5L5.663,8.9a.233.233,0,0,0-.151-.068V8.46A2.421,2.421,0,0,0,6.564,6.884a.673.673,0,0,0,.185-.018.7.7,0,0,0,.518-.683V6.012a.7.7,0,0,0-.3-.576,2.65,2.65,0,0,0,.081-.649A2.733,2.733,0,0,0,5.731,2.469,1.52,1.52,0,0,0,4.181,1a1.52,1.52,0,0,0-1.55,1.467A2.733,2.733,0,0,0,1.316,4.787a2.65,2.65,0,0,0,.081.647.7.7,0,0,0-.3.581v.168a.7.7,0,0,0,.518.683.672.672,0,0,0,.185.018A2.421,2.421,0,0,0,2.851,8.46v.369A.233.233,0,0,0,2.7,8.9l-.626.626-1.144.5A1.56,1.56,0,0,0,0,11.508L.14,14.774A.234.234,0,0,0,.374,15h.01a.234.234,0,0,0,.224-.244L.47,11.488a1.079,1.079,0,0,1,.149-.59l.615.738a1.3,1.3,0,0,1,.3.833v2.295a.234.234,0,1,0,.469,0V12.469a1.773,1.773,0,0,0-.41-1.133L.94,10.551a1.063,1.063,0,0,1,.178-.1l1-.435.7,1.144a.454.454,0,0,0,.681.107l.447-.381v3.877a.234.234,0,0,0,.469,0V10.886l.447.381a.454.454,0,0,0,.681-.107l.7-1.144,1,.435a1.064,1.064,0,0,1,.178.1l-.654.785a1.773,1.773,0,0,0-.41,1.133v2.295a.234.234,0,0,0,.469,0V12.469a1.3,1.3,0,0,1,.3-.833l.615-.738a1.079,1.079,0,0,1,.149.59l-.138,3.265A.234.234,0,0,0,7.979,15h.01a.234.234,0,0,0,.234-.224l.138-3.265A1.56,1.56,0,0,0,7.433,10.022ZM4.181,1.471a1.074,1.074,0,0,1,1.044.749,2.972,2.972,0,0,0-2.087,0A1.074,1.074,0,0,1,4.181,1.471ZM2.258,6.788a.456.456,0,0,0-.475-.372.2.2,0,0,1-.061-.005.229.229,0,0,1-.157-.227V6.015a.222.222,0,0,1,.165-.223.2.2,0,0,1,.2.077.327.327,0,0,0,.449.071A1.7,1.7,0,0,0,2.76,5.57a.234.234,0,0,0-.375-.281,1.243,1.243,0,0,1-.179.192.672.672,0,0,0-.354-.156,2.183,2.183,0,0,1-.068-.539A2.347,2.347,0,0,1,4.181,2.5a2.347,2.347,0,0,1,2.4,2.287,2.182,2.182,0,0,1-.068.538,1.075,1.075,0,0,0-.182.03l-.176-.145a.45.45,0,0,0-.313-.1A3.9,3.9,0,0,1,2.825,4.091a.234.234,0,0,0-.36.3A3.35,3.35,0,0,0,4.412,5.465a5.737,5.737,0,0,0,1.447.11l.275.226a.234.234,0,0,0,.266.022.517.517,0,0,1,.231-.031.221.221,0,0,1,.166.22v.171a.229.229,0,0,1-.157.227.2.2,0,0,1-.061.005.457.457,0,0,0-.475.372,1.956,1.956,0,0,1-3.847,0ZM3.209,10.9,2.5,9.755l.361-.361.971.971Zm.972-.853-.862-.862V8.7a2.423,2.423,0,0,0,1.724,0v.485Zm.972.853-.627-.535L5.5,9.394l.361.361Z"/><path class="a" d="M3.3,12.336H2.646a.234.234,0,1,0,0,.469H3.3a.234.234,0,1,0,0-.469Z"/></g></g></svg>