<svg xmlns="http://www.w3.org/2000/svg" xmlns:xlink="http://www.w3.org/1999/xlink" width="20" height="20" viewBox="0 0 20 20"><defs><style>.a{fill:#fff;}.b{fill:#f1c571;}.c{clip-path:url(#a);}</style><clipPath id="a"><rect class="a" width="12" height="12" transform="translate(7842 4169)"/></clipPath></defs><g transform="translate(-7839 -4165)"><circle class="b" cx="10" cy="10" r="10" transform="translate(7839 4165)"/><g class="c" transform="translate(1)"><g transform="translate(7842 4169)"><path class="a" d="M11.626,1.46,10.539.373a1.276,1.276,0,0,0-1.8,0L.647,8.464a.358.358,0,0,0-.1.185L.006,11.584a.352.352,0,0,0,.41.41l2.936-.544a.358.358,0,0,0,.185-.1l8.09-8.091A1.274,1.274,0,0,0,11.626,1.46ZM.79,11.21l.329-1.776,1.447,1.447Zm2.5-.6-1.9-1.9,6.919-6.92,1.9,1.9Zm7.842-7.842-.426.426-1.9-1.9L9.234.87a.572.572,0,0,1,.808,0l1.087,1.087A.571.571,0,0,1,11.129,2.765Z"/></g></g></g></svg>