<svg xmlns="http://www.w3.org/2000/svg" xmlns:xlink="http://www.w3.org/1999/xlink" width="20" height="20" viewBox="0 0 20 20"><defs><style>.a{fill:#fff;}.b{fill:#f1c571;}.c{clip-path:url(#a);}</style><clipPath id="a"><rect class="a" width="12" height="12" transform="translate(7781 4268)"/></clipPath></defs><g transform="translate(-7777 -4264)"><circle class="b" cx="10" cy="10" r="10" transform="translate(7777 4264)"/><g class="c"><g transform="translate(7781 4268)"><path class="a" d="M6,0a6,6,0,1,0,6,6A6,6,0,0,0,6,0ZM6,11.063A5.063,5.063,0,1,1,11.063,6,5.06,5.06,0,0,1,6,11.063Z"/><path class="a" d="M8.053,7.39,6.663,6l1.39-1.39a.469.469,0,1,0-.663-.663L6,5.337,4.61,3.947a.469.469,0,1,0-.663.663L5.337,6,3.947,7.39a.469.469,0,1,0,.663.663L6,6.663l1.39,1.39a.469.469,0,1,0,.663-.663Z"/></g></g></g></svg>