<svg xmlns="http://www.w3.org/2000/svg" xmlns:xlink="http://www.w3.org/1999/xlink" width="20" height="20" viewBox="0 0 20 20"><defs><style>.a{fill:#fff;}.b{fill:#f1c571;}.c{clip-path:url(#a);}.d{fill:none;}</style><clipPath id="a"><rect class="a" width="12" height="12"/></clipPath></defs><g transform="translate(-7762 -4165)"><circle class="b" cx="10" cy="10" r="10" transform="translate(7762 4165)"/><g class="c" transform="translate(7765 4169)"><g transform="translate(0 0.727)"><path class="a" d="M3.867,7.217h6.375a.349.349,0,0,0,.338-.255L11.986,2.04a.356.356,0,0,0-.056-.309.35.35,0,0,0-.281-.141H3.056L2.805.458A.356.356,0,0,0,2.461.186H.352a.352.352,0,0,0,0,.7H2.18c.045.2,1.2,5.412,1.27,5.712a1.055,1.055,0,0,0,.42,2.023h6.375a.352.352,0,1,0,0-.7H3.867a.352.352,0,0,1,0-.7ZM11.182,2.3l-1.2,4.219H4.148L3.211,2.3h7.971Zm0,0" transform="translate(0 -0.027)"/><rect class="d" width="12" height="10.547"/><path class="a" d="M4.1,10.9A1.055,1.055,0,1,0,5.156,9.844,1.056,1.056,0,0,0,4.1,10.9Zm1.055-.352A.352.352,0,1,1,4.8,10.9a.351.351,0,0,1,.352-.352Zm0,0" transform="translate(-0.586 -1.406)"/><path class="a" d="M9.9,10.9a1.055,1.055,0,1,0,1.055-1.055A1.056,1.056,0,0,0,9.9,10.9Zm1.055-.352a.352.352,0,1,1-.352.352.351.351,0,0,1,.352-.352Zm0,0" transform="translate(-1.414 -1.406)"/><path class="a" d="M7.427,6.354a.187.187,0,0,1-.267,0L6.084,5.279a.283.283,0,0,1,0-.4l.134-.136a.283.283,0,0,1,.4,0l.673.673L9.107,3.6a.283.283,0,0,1,.4,0l.134.136a.283.283,0,0,1,0,.4Z" transform="translate(-0.857 -0.502)"/></g></g></g></svg>