<svg xmlns="http://www.w3.org/2000/svg" xmlns:xlink="http://www.w3.org/1999/xlink" width="16" height="16" viewBox="0 0 16 16"><defs><style>.a{fill:#22aee4;}.b{clip-path:url(#a);}</style><clipPath id="a"><rect class="a" width="16" height="16" transform="translate(5930 2211)"/></clipPath></defs><g class="b" transform="translate(-5930 -2211)"><g transform="translate(5930 2211)"><path class="a" d="M14.667,3.333H11.333V2.667A1.335,1.335,0,0,0,10,1.333H6A1.335,1.335,0,0,0,4.667,2.667v.667H1.333A1.335,1.335,0,0,0,0,4.667v8.667a1.335,1.335,0,0,0,1.333,1.333H14.667A1.335,1.335,0,0,0,16,13.333V4.667A1.335,1.335,0,0,0,14.667,3.333ZM5.333,2.667A.668.668,0,0,1,6,2h4a.668.668,0,0,1,.667.667v.667H5.333Zm10,10.667a.668.668,0,0,1-.667.667H1.333a.668.668,0,0,1-.667-.667V8.481a1.318,1.318,0,0,0,.667.185H6.667v1A.333.333,0,0,0,7,10H9a.333.333,0,0,0,.333-.333v-1h5.333a1.318,1.318,0,0,0,.667-.185v4.852Zm-8-4V8H8.667V9.333Zm8-2A.668.668,0,0,1,14.667,8H9.333V7.667A.333.333,0,0,0,9,7.333H7a.333.333,0,0,0-.333.333V8H1.333a.668.668,0,0,1-.667-.667V4.667A.668.668,0,0,1,1.333,4H14.667a.668.668,0,0,1,.667.667Z"/></g></g></svg>