<svg xmlns="http://www.w3.org/2000/svg" xmlns:xlink="http://www.w3.org/1999/xlink" width="16" height="16" viewBox="0 0 16 16"><defs><style>.a{fill:#22aee4;}.b{clip-path:url(#a);}</style><clipPath id="a"><rect class="a" width="16" height="16" transform="translate(37 277)"/></clipPath></defs><g class="b" transform="translate(-37 -277)"><g transform="translate(36.467 276.467)"><path class="a" d="M15.2,2.133H13.867V1.6a1.067,1.067,0,0,0-2.133,0v.533H9.6V1.6a1.067,1.067,0,1,0-2.133,0v.533H5.333V1.6A1.067,1.067,0,1,0,3.2,1.6v.533H1.867A1.333,1.333,0,0,0,.533,3.467V14.133a1.333,1.333,0,0,0,1.333,1.333H9.333a.267.267,0,0,0,0-.533H1.867a.8.8,0,0,1-.8-.8V5.867H16V10.4a.267.267,0,0,0,.533,0V3.467A1.333,1.333,0,0,0,15.2,2.133ZM12.267,1.6a.533.533,0,1,1,1.067,0V3.2a.533.533,0,1,1-1.067,0ZM8,1.6a.533.533,0,0,1,1.067,0V3.2A.533.533,0,0,1,8,3.2Zm-4.267,0A.533.533,0,1,1,4.8,1.6V3.2a.533.533,0,0,1-1.067,0ZM16,5.333H1.067V3.467a.8.8,0,0,1,.8-.8H3.2V3.2a1.067,1.067,0,0,0,2.133,0V2.667H7.467V3.2A1.067,1.067,0,0,0,9.6,3.2V2.667h2.133V3.2a1.067,1.067,0,0,0,2.133,0V2.667H15.2a.8.8,0,0,1,.8.8Z"/><path class="a" d="M8,7.733A.533.533,0,0,0,7.467,7.2H6.4a.533.533,0,0,0-.533.533v.8a.533.533,0,0,0,.533.533H7.467A.533.533,0,0,0,8,8.533Zm-1.6.8v-.8H7.467v.8Z"/><path class="a" d="M4.8,7.733A.533.533,0,0,0,4.267,7.2H3.2a.533.533,0,0,0-.533.533v.8a.533.533,0,0,0,.533.533H4.267A.533.533,0,0,0,4.8,8.533Zm-1.6.8v-.8H4.267v.8Z"/><path class="a" d="M13.867,9.067a.533.533,0,0,0,.533-.533v-.8a.533.533,0,0,0-.533-.533H12.8a.533.533,0,0,0-.533.533v.8a.533.533,0,0,0,.533.533ZM12.8,7.733h1.067v.8H12.8Z"/><path class="a" d="M8,10.133A.533.533,0,0,0,7.467,9.6H6.4a.533.533,0,0,0-.533.533v.8a.533.533,0,0,0,.533.533H7.467A.533.533,0,0,0,8,10.933Zm-1.6.8v-.8H7.467v.8Z"/><path class="a" d="M4.8,10.133A.533.533,0,0,0,4.267,9.6H3.2a.533.533,0,0,0-.533.533v.8a.533.533,0,0,0,.533.533H4.267a.533.533,0,0,0,.533-.533Zm-1.6.8v-.8H4.267v.8Z"/><path class="a" d="M7.467,12H6.4a.533.533,0,0,0-.533.533v.8a.533.533,0,0,0,.533.533H7.467A.533.533,0,0,0,8,13.333v-.8A.533.533,0,0,0,7.467,12ZM6.4,13.333v-.8H7.467v.8Z"/><path class="a" d="M9.6,9.067h1.067a.533.533,0,0,0,.533-.533v-.8a.533.533,0,0,0-.533-.533H9.6a.533.533,0,0,0-.533.533v.8A.533.533,0,0,0,9.6,9.067Zm0-1.333h1.067v.8H9.6Z"/><path class="a" d="M9.067,10.933a.533.533,0,0,0,.533.533.267.267,0,0,0,0-.533v-.8h1.067a.267.267,0,1,0,0-.533H9.6a.533.533,0,0,0-.533.533Z"/><path class="a" d="M4.267,12H3.2a.533.533,0,0,0-.533.533v.8a.533.533,0,0,0,.533.533H4.267a.533.533,0,0,0,.533-.533v-.8A.533.533,0,0,0,4.267,12ZM3.2,13.333v-.8H4.267v.8Z"/><path class="a" d="M13.067,9.6a3.467,3.467,0,1,0,3.467,3.467A3.467,3.467,0,0,0,13.067,9.6Zm0,6.4A2.933,2.933,0,1,1,16,13.067,2.933,2.933,0,0,1,13.067,16Z"/><path class="a" d="M14.607,11.949l-2.074,2.074-.943-.943a.267.267,0,1,0-.377.377l1.131,1.131a.267.267,0,0,0,.377,0l2.263-2.263a.267.267,0,1,0-.377-.377Z"/></g></g></svg>