<svg xmlns="http://www.w3.org/2000/svg" xmlns:xlink="http://www.w3.org/1999/xlink" width="16" height="16" viewBox="0 0 16 16"><defs><style>.a{fill:rgba(0,0,0,0.5);}.b{clip-path:url(#a);}</style><clipPath id="a"><rect class="a" width="16" height="16" transform="translate(37 358)"/></clipPath></defs><g class="b" transform="translate(-37 -358)"><g transform="translate(37 358)"><path class="a" d="M1.773,13h.014a.234.234,0,0,0,.22-.248A74.1,74.1,0,0,1,2.116,2.469,1.06,1.06,0,0,1,3.064,1.5c.246-.026.5-.05.743-.072v.406a.792.792,0,0,0,1.584,0V1.315c.226-.013.455-.024.684-.033v.554a.792.792,0,0,0,1.584,0V1.243c.228,0,.456,0,.684,0v.592a.792.792,0,0,0,1.584,0V1.282c.229.009.457.021.683.033v.521a.792.792,0,0,0,1.584,0V1.429c.247.022.5.046.743.072a1.06,1.06,0,0,1,.948.967c.038.475.073.964.1,1.452a.234.234,0,0,0,.234.22h.014a.234.234,0,0,0,.22-.248c-.03-.491-.064-.983-.1-1.461a1.529,1.529,0,0,0-1.366-1.4c-.263-.028-.529-.053-.792-.077V.792a.792.792,0,0,0-1.584,0V.845c-.226-.013-.455-.023-.683-.033V.792A.792.792,0,0,0,8.342.775c-.228,0-.457,0-.684,0A.792.792,0,0,0,6.074.792v.02c-.229.009-.457.02-.684.033V.792a.792.792,0,0,0-1.584,0V.959c-.264.023-.53.049-.792.077a1.529,1.529,0,0,0-1.366,1.4A74.582,74.582,0,0,0,1.539,12.78.234.234,0,0,0,1.773,13ZM11.078.792a.323.323,0,0,1,.646,0V1.836a.323.323,0,0,1-.646,0ZM8.81.792a.323.323,0,0,1,.646,0V1.836a.323.323,0,0,1-.646,0Zm-2.267,0a.323.323,0,0,1,.646,0V1.836a.323.323,0,0,1-.646,0Zm-2.268,0a.323.323,0,0,1,.646,0V1.836a.323.323,0,0,1-.646,0Z"/><path class="a" d="M14.5,4.812a.234.234,0,1,0-.468.023,73.949,73.949,0,0,1-.152,9.472,1.06,1.06,0,0,1-.948.967,47.286,47.286,0,0,1-9.873,0,1.06,1.06,0,0,1-.948-.967c-.015-.186-.03-.385-.047-.624a.234.234,0,0,0-.468.034c.017.24.032.44.048.628a1.529,1.529,0,0,0,1.366,1.4A47.675,47.675,0,0,0,8,16a47.692,47.692,0,0,0,4.985-.261,1.529,1.529,0,0,0,1.366-1.4A74.417,74.417,0,0,0,14.5,4.812Z"/><path class="a" d="M12.606,4.359H5.636a.234.234,0,1,0,0,.469h6.97a.234.234,0,1,0,0-.469Z"/><path class="a" d="M4.409,4.359H3.353a.234.234,0,1,0,0,.469H4.409a.234.234,0,0,0,0-.469Z"/><path class="a" d="M4.115,3.9V3.478a.234.234,0,1,0-.469,0V3.9a.234.234,0,1,0,.469,0Z"/><path class="a" d="M12.606,6.587H5.636a.234.234,0,1,0,0,.469h6.97a.234.234,0,1,0,0-.469Z"/><path class="a" d="M4.409,6.587H3.353a.234.234,0,1,0,0,.469H4.409a.234.234,0,0,0,0-.469Z"/><path class="a" d="M4.115,6.129V5.706a.234.234,0,1,0-.469,0v.423a.234.234,0,0,0,.469,0Z"/><path class="a" d="M12.606,8.815H5.636a.234.234,0,1,0,0,.469h6.97a.234.234,0,1,0,0-.469Z"/><path class="a" d="M4.409,8.815H3.353a.234.234,0,0,0,0,.469H4.409a.234.234,0,0,0,0-.469Z"/><path class="a" d="M4.115,8.357V7.934a.234.234,0,1,0-.469,0v.423a.234.234,0,1,0,.469,0Z"/><path class="a" d="M12.606,11.043H5.636a.234.234,0,1,0,0,.469h6.97a.234.234,0,1,0,0-.469Z"/><path class="a" d="M4.409,11.043H3.353a.234.234,0,1,0,0,.469H4.409a.234.234,0,1,0,0-.469Z"/><path class="a" d="M4.115,10.585v-.423a.234.234,0,1,0-.469,0v.423a.234.234,0,1,0,.469,0Z"/><path class="a" d="M12.606,13.271H5.636a.234.234,0,1,0,0,.469h6.97a.234.234,0,1,0,0-.469Z"/><path class="a" d="M3.119,13.505a.234.234,0,0,0,.234.234H4.409a.234.234,0,1,0,0-.469H3.353a.234.234,0,0,0-.234.234Z"/><path class="a" d="M4.115,12.813V12.39a.234.234,0,1,0-.469,0v.423a.234.234,0,1,0,.469,0Z"/></g></g></svg>