<svg xmlns="http://www.w3.org/2000/svg" xmlns:xlink="http://www.w3.org/1999/xlink" width="16" height="16" viewBox="0 0 16 16"><defs><style>.a{fill:rgba(0,0,0,0.5);}.b{clip-path:url(#a);}</style><clipPath id="a"><rect class="a" width="16" height="16" transform="translate(37 550)"/></clipPath></defs><g class="b" transform="translate(-37 -550)"><g transform="translate(36.543 549.543)"><path class="a" d="M16.229,13.257H.686a.229.229,0,0,1-.229-.229V10.7a.229.229,0,0,1,.183-.224,2.057,2.057,0,0,0,0-4.032.229.229,0,0,1-.183-.224V3.886a.229.229,0,0,1,.229-.229H16.229a.229.229,0,0,1,.229.229V6.217a.229.229,0,0,1-.183.224,2.057,2.057,0,0,0,0,4.032.229.229,0,0,1,.183.224v2.331A.229.229,0,0,1,16.229,13.257ZM.914,12.8H16V10.877a2.514,2.514,0,0,1,0-4.839V4.114H.914V6.038a2.514,2.514,0,0,1,0,4.839Z"/><path class="a" d="M11.886,4.945a.229.229,0,0,1-.229-.229V3.886a.229.229,0,1,1,.457,0v.831A.229.229,0,0,1,11.886,4.945Z"/><path class="a" d="M11.886,7.023a.229.229,0,0,1-.229-.229V5.964a.229.229,0,1,1,.457,0v.831A.229.229,0,0,1,11.886,7.023Z"/><path class="a" d="M11.886,9.1a.229.229,0,0,1-.229-.229V8.042a.229.229,0,1,1,.457,0v.831A.229.229,0,0,1,11.886,9.1Z"/><path class="a" d="M11.886,11.179a.229.229,0,0,1-.229-.229V10.12a.229.229,0,1,1,.457,0v.831A.229.229,0,0,1,11.886,11.179Z"/><path class="a" d="M11.886,13.257a.229.229,0,0,1-.229-.229V12.2a.229.229,0,0,1,.457,0v.831A.229.229,0,0,1,11.886,13.257Z"/><path class="a" d="M4.784,10.867a.229.229,0,0,1-.162-.39L8.858,6.238a.229.229,0,1,1,.323.323L4.945,10.8a.229.229,0,0,1-.162.067Z"/><path class="a" d="M8.316,10.976A1.056,1.056,0,1,1,9.371,9.92a1.056,1.056,0,0,1-1.056,1.056Zm0-1.655a.6.6,0,1,0,.6.6A.6.6,0,0,0,8.316,9.321Z"/><path class="a" d="M5.4,8.036A1.056,1.056,0,1,1,6.454,6.98,1.056,1.056,0,0,1,5.4,8.036Zm0-1.655a.6.6,0,1,0,.6.6.6.6,0,0,0-.6-.6Z"/></g></g></svg>