<svg xmlns="http://www.w3.org/2000/svg" xmlns:xlink="http://www.w3.org/1999/xlink" width="16" height="16" viewBox="0 0 16 16"><defs><style>.a{fill:rgba(0,0,0,0.5);}.b{clip-path:url(#a);}</style><clipPath id="a"><rect class="a" width="16" height="16" transform="translate(5930 2142)"/></clipPath></defs><g class="b" transform="translate(-5930 -2142)"><g transform="translate(5930 2142)"><rect class="a" width="16" height="0.533" transform="translate(0 15.467)"/><path class="a" d="M1.067,14.933H3.733A.267.267,0,0,0,4,14.667v-4.8A.267.267,0,0,0,3.733,9.6H1.067A.267.267,0,0,0,.8,9.867v4.8A.267.267,0,0,0,1.067,14.933Zm.267-4.8H3.467V14.4H1.333Z"/><path class="a" d="M8.533,14.933H11.2a.267.267,0,0,0,.267-.267v-8A.267.267,0,0,0,11.2,6.4H8.533a.267.267,0,0,0-.267.267v8A.267.267,0,0,0,8.533,14.933Zm.267-8h2.133V14.4H8.8Z"/><path class="a" d="M4.8,14.933H7.467a.267.267,0,0,0,.267-.267V3.467A.267.267,0,0,0,7.467,3.2H4.8a.267.267,0,0,0-.267.267v11.2A.267.267,0,0,0,4.8,14.933Zm.267-11.2H7.2V14.4H5.067Z"/><path class="a" d="M12.267,14.933h2.667a.267.267,0,0,0,.267-.267V.267A.267.267,0,0,0,14.933,0H12.267A.267.267,0,0,0,12,.267v14.4A.267.267,0,0,0,12.267,14.933Zm.267-14.4h2.133V14.4H12.533Z"/></g></g></svg>