<svg xmlns="http://www.w3.org/2000/svg" xmlns:xlink="http://www.w3.org/1999/xlink" width="17" height="17" viewBox="0 0 17 17"><defs><style>.a{fill:rgba(0,0,0,0.5);}.b{clip-path:url(#a);}</style><clipPath id="a"><path class="a" d="M15.786,17a1.207,1.207,0,0,1-.859-.356l-2.356-2.355-.01-.011-.011-.012a7.891,7.891,0,1,1,1.717-1.716l.022.022,2.356,2.355A1.214,1.214,0,0,1,15.786,17ZM7.893,2.255a5.638,5.638,0,1,0,5.638,5.638A5.644,5.644,0,0,0,7.893,2.255Z" transform="translate(-0.111)"/></clipPath></defs><g transform="translate(0.111)"><path class="a" d="M15.786,17a1.207,1.207,0,0,1-.859-.356l-2.356-2.355-.01-.011-.011-.012a7.891,7.891,0,1,1,1.717-1.716l.022.022,2.356,2.355A1.214,1.214,0,0,1,15.786,17ZM7.893,2.255a5.638,5.638,0,1,0,5.638,5.638A5.644,5.644,0,0,0,7.893,2.255Z" transform="translate(-0.111)"/></g></svg>