<svg xmlns="http://www.w3.org/2000/svg" xmlns:xlink="http://www.w3.org/1999/xlink" width="16" height="16" viewBox="0 0 16 16"><defs><style>.a,.c{fill:rgba(0,0,0,0.5);}.a{stroke:#707070;}.b{clip-path:url(#a);}</style><clipPath id="a"><rect class="a" width="16" height="16" transform="translate(7546 5229)"/></clipPath></defs><g class="b" transform="translate(-7546 -5229)"><g transform="translate(7546 5229)"><path class="c" d="M14.957,6.261h-1.3a5.887,5.887,0,0,0-.426-1.029l.92-.92a1.045,1.045,0,0,0,0-1.477l-.984-.984a1.07,1.07,0,0,0-1.476,0l-.92.92a5.9,5.9,0,0,0-1.029-.426v-1.3A1.045,1.045,0,0,0,8.7,0H7.3A1.045,1.045,0,0,0,6.261,1.043v1.3a5.913,5.913,0,0,0-1.029.426l-.92-.92a1.045,1.045,0,0,0-1.476,0l-.985.984a1.046,1.046,0,0,0,0,1.476l.92.92a5.9,5.9,0,0,0-.426,1.029h-1.3A1.045,1.045,0,0,0,0,7.3V8.7A1.045,1.045,0,0,0,1.043,9.739h1.3a5.914,5.914,0,0,0,.426,1.029l-.92.92a1.045,1.045,0,0,0,0,1.476l.984.985a1.046,1.046,0,0,0,1.476,0l.92-.92a5.9,5.9,0,0,0,1.029.426v1.3A1.045,1.045,0,0,0,7.3,16H8.7a1.045,1.045,0,0,0,1.043-1.043v-1.3a5.9,5.9,0,0,0,1.029-.426l.92.92a1.07,1.07,0,0,0,1.476,0l.984-.984a1.045,1.045,0,0,0,0-1.476l-.92-.92a5.9,5.9,0,0,0,.426-1.029h1.3A1.045,1.045,0,0,0,16,8.7V7.3A1.045,1.045,0,0,0,14.957,6.261ZM15.3,8.7a.348.348,0,0,1-.348.348H13.391a.348.348,0,0,0-.337.261,5.228,5.228,0,0,1-.558,1.347.348.348,0,0,0,.054.423l1.106,1.106a.349.349,0,0,1,0,.493l-.984.984a.358.358,0,0,1-.493,0l-1.106-1.106a.348.348,0,0,0-.423-.054,5.21,5.21,0,0,1-1.346.558.347.347,0,0,0-.261.336v1.565A.348.348,0,0,1,8.7,15.3H7.3a.348.348,0,0,1-.348-.348V13.391a.348.348,0,0,0-.261-.337A5.215,5.215,0,0,1,5.349,12.5a.344.344,0,0,0-.177-.048.348.348,0,0,0-.246.1L3.82,13.657a.349.349,0,0,1-.493,0l-.984-.984a.348.348,0,0,1,0-.493l1.106-1.106a.347.347,0,0,0,.054-.423A5.222,5.222,0,0,1,2.945,9.3a.347.347,0,0,0-.336-.261H1.043A.348.348,0,0,1,.7,8.7V7.3a.348.348,0,0,1,.348-.348H2.609A.348.348,0,0,0,2.945,6.7,5.215,5.215,0,0,1,3.5,5.349a.347.347,0,0,0-.054-.423L2.343,3.82a.349.349,0,0,1,0-.493l.984-.984a.349.349,0,0,1,.493,0L4.926,3.449a.347.347,0,0,0,.423.054A5.222,5.222,0,0,1,6.7,2.945a.348.348,0,0,0,.261-.337V1.043A.348.348,0,0,1,7.3.7H8.7a.348.348,0,0,1,.348.348V2.609a.348.348,0,0,0,.261.337,5.21,5.21,0,0,1,1.346.558.347.347,0,0,0,.423-.054L12.18,2.343a.357.357,0,0,1,.493,0l.984.984a.349.349,0,0,1,0,.493L12.551,4.926a.348.348,0,0,0-.054.423A5.223,5.223,0,0,1,13.055,6.7a.347.347,0,0,0,.336.261h1.565A.348.348,0,0,1,15.3,7.3Z"/><path class="c" d="M8,4.87A3.13,3.13,0,1,0,11.13,8,3.134,3.134,0,0,0,8,4.87Zm0,5.565A2.435,2.435,0,1,1,10.435,8,2.437,2.437,0,0,1,8,10.435Z"/></g></g></svg>