<svg xmlns="http://www.w3.org/2000/svg" xmlns:xlink="http://www.w3.org/1999/xlink" width="16" height="16" viewBox="0 0 16 16"><defs><style>.a{fill:#22aee4;}.b{clip-path:url(#a);}</style><clipPath id="a"><rect class="a" width="16" height="16" transform="translate(5930 2176)"/></clipPath></defs><g class="b" transform="translate(-5930 -2176)"><g transform="translate(5930 2176)"><path class="a" d="M12.2,8.5a2.99,2.99,0,0,0-1.987-5.528,3.205,3.205,0,0,0-4.431,0A2.99,2.99,0,0,0,3.8,8.5,5.326,5.326,0,0,0,0,13.6a.319.319,0,0,0,.319.319H15.681A.319.319,0,0,0,16,13.6,5.326,5.326,0,0,0,12.2,8.5ZM10.71,3.575A2.353,2.353,0,1,1,9.657,8.044,3.207,3.207,0,0,0,10.71,3.575ZM6,3.676a2.594,2.594,0,0,1,.52-.486,2.565,2.565,0,0,1,2.956,0,2.594,2.594,0,0,1,.52.486,2.573,2.573,0,1,1-4,0ZM2.964,5.927A2.355,2.355,0,0,1,5.29,3.575,3.207,3.207,0,0,0,6.343,8.044,2.352,2.352,0,0,1,2.964,5.927ZM.648,13.278a4.688,4.688,0,0,1,3.98-4.31,5.727,5.727,0,0,0-2.349,4.31H.648Zm2.27,0a5.1,5.1,0,0,1,2.99-4.323,5.082,5.082,0,0,1,4.183,0,5.1,5.1,0,0,1,2.99,4.323H2.918Zm10.8,0a5.727,5.727,0,0,0-2.349-4.31,4.688,4.688,0,0,1,3.98,4.31H13.72Z"/><path class="a" d="M6.116,9.72a.319.319,0,0,0-.437-.11A4.55,4.55,0,0,0,3.6,12.435a.319.319,0,1,0,.62.149,3.908,3.908,0,0,1,1.788-2.426A.319.319,0,0,0,6.116,9.72Z"/><path class="a" d="M8.05,8.978a.318.318,0,0,0-.055-.005H7.943a4.541,4.541,0,0,0-1,.121.319.319,0,1,0,.147.62,3.894,3.894,0,0,1,.683-.1q.109-.006.218-.006a.319.319,0,0,0,.055-.632Z"/></g></g></svg>