<svg xmlns="http://www.w3.org/2000/svg" xmlns:xlink="http://www.w3.org/1999/xlink" width="50" height="50" viewBox="0 0 50 50"><defs><style>.a,.c{fill:#ffa800;}.a{stroke:#707070;}.b{clip-path:url(#a);}</style><clipPath id="a"><rect class="a" width="50" height="50" transform="translate(11401 1662)"/></clipPath></defs><g class="b" transform="translate(-11401 -1662)"><g transform="translate(11401 1662)"><path class="c" d="M25,0A25,25,0,1,0,50,25,25.027,25.027,0,0,0,25,0Zm0,46.127A21.127,21.127,0,1,1,46.127,25,21.152,21.152,0,0,1,25,46.127Z"/><g transform="translate(13.381 13.207)"><path class="c" d="M42.711,30.813H34.965V23.067a1.937,1.937,0,1,0-3.873,0v7.746H23.346a1.937,1.937,0,0,0,0,3.873h7.746v7.746a1.937,1.937,0,0,0,3.873,0V34.686h7.746a1.937,1.937,0,1,0,0-3.873Z" transform="translate(-21.41 -21.131)"/></g></g></g></svg>