<svg xmlns="http://www.w3.org/2000/svg" xmlns:xlink="http://www.w3.org/1999/xlink" width="16" height="16" viewBox="0 0 16 16"><defs><style>.a{fill:rgba(0,0,0,0.5);}.b{clip-path:url(#a);}</style><clipPath id="a"><rect class="a" width="16" height="16" transform="translate(37 603)"/></clipPath></defs><g class="b" transform="translate(-37 -603)"><path class="a" d="M16.193.813,11.1,0h-.059a.137.137,0,0,0-.059,0L5.956.8.93.008A.366.366,0,0,0,.637.084.346.346,0,0,0,.511.36V11.912a.375.375,0,0,0,.31.36l5.085.8c.017,0,.042.008.059.008a.143.143,0,0,0,.059-.008l5.035-.8,5.035.8c.017,0,.042.008.059.008A.4.4,0,0,0,16.385,13a.346.346,0,0,0,.126-.276V1.173A.385.385,0,0,0,16.193.813ZM5.6,12.289,1.231,11.6V.787L5.6,1.474Zm5.085-.687-4.364.687V1.483L10.681.8Zm5.093.687L11.409,11.6V.787l4.364.687V12.289Z" transform="translate(36.488 604.459)"/></g></svg>