<svg xmlns="http://www.w3.org/2000/svg" xmlns:xlink="http://www.w3.org/1999/xlink" width="536" height="374" viewBox="0 0 536 374"><defs><style>.a,.p,.q,.r{fill:#22aee4;}.a,.ac,.ad,.e,.o{opacity:0.1;}.b{fill:#444053;}.c{fill:none;stroke:#444053;stroke-miterlimit:10;}.d{fill:#d2d4de;}.f{fill:#30374e;}.g{fill:#dfe3ef;}.ac,.h{fill:#fff;}.i{fill:url(#a);}.j{fill:#65617d;}.k{fill:#fbbebe;}.l{fill:#e7effd;}.m{fill:#3f3d56;}.n{fill:#e3a79f;}.p{opacity:0.2;}.aa,.q{opacity:0.5;}.s{fill:url(#b);}.t{fill:#2d293d;}.u{fill:#575988;}.v,.w{opacity:0.05;}.x{fill:#ffcdd3;}.y{fill:#dce6f2;}.z{fill:#656691;}.aa,.ab{fill:#6c63ff;}.ad{fill:#7adaf4;}.ae{fill:#efb7b9;}.af{fill:#925978;}.ag{fill:#4c4981;}</style><linearGradient id="a" x1="-5.452" y1="1" x2="-5.452" y2="-0.001" gradientUnits="objectBoundingBox"><stop offset="0" stop-color="gray" stop-opacity="0.251"/><stop offset="0.54" stop-color="gray" stop-opacity="0.122"/><stop offset="1" stop-color="gray" stop-opacity="0.102"/></linearGradient><linearGradient id="b" x1="-8.359" y1="0.872" x2="-8.359" y2="-0.14" xlink:href="#a"/></defs><g transform="translate(0.013 -16.682)"><path class="a" d="M308.022,122.027c-33.7,5.644-67.449,2.6-99.939-1.6s-64.9-9.573-98.674-8.532c-21.711.677-45.861,4.957-60.884,18.091C34.074,142.627,32.006,159.9,32.143,175.523c.1,11.756,1.2,23.929,9.137,33.374,5.508,6.562,13.928,11.32,20.295,17.385,22.182,21.107,15.891,53.8,1.845,81.5-6.608,12.987-14.683,25.742-19.115,39.056s-4.871,27.674,3.483,38.72c8.278,10.927,24.113,17.229,40.589,20.6,33.458,6.851,70.592,3.314,106.509-1.6,79.493-10.951,158.123-28.663,236.47-46.323,29.012-6.538,58.151-13.11,86.063-22.726,15.5-5.331,31.268-12.04,41.193-22.646,12.6-13.47,12.71-32.063.264-43.345-20.856-18.9-67.581-15.364-83.8-36.887-8.939-11.837-5.3-27.749,1.529-41.745,14.631-30.017,43.3-59.49,39.173-89.654-2.832-20.719-22.834-38.061-49.406-42.858-27.846-5.028-63.437,3.366-79.187,23.962C370.945,103.533,337.775,117.046,308.022,122.027Z" transform="translate(-32.15 -40.267)"/><path class="b" d="M903.26,173l.142.241c-12.79,15.967-13.635,40.759-13.687,40.971L887.02,211.1C887.067,210.871,890.385,189.071,903.26,173Z" transform="translate(-483.556 -101.546)"/><path class="c" d="M930.625,228.943s-6.914-14.5-.76-23.943" transform="translate(-504.833 -118.22)"/><path class="c" d="M949.743,178.26s-9.505,9.081-8.293,14.131" transform="translate(-512.241 -104.323)"/><path class="c" d="M935.637,169.976s-8.911,1.6-10.157-1.326" transform="translate(-503.864 -99.249)"/><path class="c" d="M922.46,148.67s4.5,5.961,5.664,4.625" transform="translate(-502.27 -88.699)"/><path class="c" d="M900.984,159.26s-.028,13.333-3.634,14.277" transform="translate(-489.011 -94.291)"/><path class="c" d="M842.17,188.916s14.414,1.232,21.064-6.206" transform="translate(-459.874 -106.673)"/><path class="c" d="M882.5,125.88s-3.488,13.527-13.107,17.165" transform="translate(-474.247 -76.665)"/><path class="c" d="M823.85,159.539s10.2,3.544,18.978-5.489" transform="translate(-450.2 -91.54)"/><path class="c" d="M824.67,125.574s8.467.057,10.454-2.7" transform="translate(-450.633 -75.076)"/><ellipse class="a" cx="166.845" cy="7.943" rx="166.845" ry="7.943" transform="translate(152.122 374.796)"/><path class="d" d="M578.627,732.281v3.691H469.48v-3a35.87,35.87,0,0,0,2.468-66.25H577.886a35.911,35.911,0,0,0,.741,65.561Z" transform="translate(-263.081 -361.134)"/><path class="e" d="M580.658,666.72a35.931,35.931,0,0,0-19.823,23.787H494.553A35.931,35.931,0,0,0,474.73,666.72Z" transform="translate(-265.853 -361.329)"/><path class="d" d="M204.68,626.89V647.6c0,11.445,8.373,20.719,18.7,20.719H544.5c10.331,0,18.7-9.274,18.7-20.719V626.89Z" transform="translate(-123.258 -340.312)"/><path class="e" d="M578.627,801.385v3.691H469.48v-3a35.75,35.75,0,0,0,8.42-4.484h94.035A35.924,35.924,0,0,0,578.627,801.385Z" transform="translate(-263.081 -430.237)"/><rect class="d" width="181.278" height="10.935" rx="5.468" transform="translate(170.331 368.504)"/><path class="f" d="M563.205,124.934a18.7,18.7,0,0,0-18.7-18.7H223.384a18.7,18.7,0,0,0-18.7,18.7V355.99H563.205Z" transform="translate(-123.258 -66.289)"/><path class="g" d="M564.372,153.222V351.765a9.208,9.208,0,0,1-9.208,9.208H234.618a9.2,9.2,0,0,1-9.208-9.208V153.222A9.208,9.208,0,0,1,234.618,144H555.164a9.213,9.213,0,0,1,9.208,9.222Z" transform="translate(-134.204 -86.233)"/><circle class="h" cx="4.319" cy="4.319" r="4.319" transform="translate(256.366 44.543)"/><circle class="h" cx="10.648" cy="10.648" r="10.648" transform="translate(250.037 297.492)"/><path class="h" d="M564.368,153.222H225.41A9.2,9.2,0,0,1,234.618,144H555.159a9.2,9.2,0,0,1,9.208,9.222Z" transform="translate(-134.204 -86.233)"/><circle class="g" cx="2.303" cy="2.303" r="2.303" transform="translate(98.11 60.08)"/><circle class="g" cx="2.303" cy="2.303" r="2.303" transform="translate(105.015 60.08)"/><circle class="g" cx="2.303" cy="2.303" r="2.303" transform="translate(111.92 60.08)"/><rect class="h" width="273.562" height="159.865" transform="translate(123.12 92.886)"/><path class="i" d="M978.512,638.67c.1-.269-.651-1.779-.651-1.855s-.769-.916-.769-1.383-1.024-1.487-1.024-1.487a2.566,2.566,0,0,1-1.515-1.8c-.146-1.237-1.642-1.26-1.647-1.26h0V630.6a4,4,0,0,0-.179-1.449,1.472,1.472,0,0,0-.85-.717,3.192,3.192,0,0,0-.472-1.26,1.416,1.416,0,0,1-.349-1.336c.151-.472-.2-1.657-.944-1.831s-1.543-.444-1.543-.444l-.2.033-.1-.033a4.879,4.879,0,0,1-.524.066.66.66,0,0,1-.425-.142,8.685,8.685,0,0,0-2.638-.788,6.249,6.249,0,0,1-1.444-.472l-1.071-.816a6.986,6.986,0,0,1-.944-1.293h0a5.27,5.27,0,0,1-.227-.651h0a5.884,5.884,0,0,0,.944-1.274l.071-.146a.6.6,0,0,0,.16,0l.066-.028a1.047,1.047,0,0,0,.529-.633h0a1.035,1.035,0,0,0,.047-.16v-.057a.948.948,0,0,0,0-.113.28.28,0,0,0,0-.061.946.946,0,0,0,0-.113v-.2h0c.024-.175.043-.349.08-.524h0a9.953,9.953,0,0,1,.84-1.86h0a2.2,2.2,0,0,0,.113-.269c.038-.1.071-.2.1-.3a.676.676,0,0,0,0-.094,1.368,1.368,0,0,1,.052-.222.211.211,0,0,0,0-.1c0-.1.028-.208.038-.311a3.774,3.774,0,0,0-.255-1.737c-.184-.472-.472-.883-.651-1.345-.288-.7-.363-1.5-.713-2.171a2.591,2.591,0,0,0-3.1-1.265c-.543.2-1.01.595-1.562.769a5.192,5.192,0,0,1-2.284-.047,2.84,2.84,0,0,0-2.213.382c-.708.571-.9,1.647-1.562,2.28-.279.264-.623.43-.916.675a1.486,1.486,0,0,0-.472.628v.052a.478.478,0,0,0,0,.066.4.4,0,0,0,0,.076v.052a1.193,1.193,0,0,0,0,.132h0a1.091,1.091,0,0,0,.024.123v.033a.666.666,0,0,0,.033.1h0l.042.113.028.057a.143.143,0,0,0,0,.047,3.057,3.057,0,0,1,.231.576.646.646,0,0,1,0,.378,1.1,1.1,0,0,1-.278.363,5.219,5.219,0,0,0-1.123,1.8c-.028.075-.052.156-.08.231h.033a1.188,1.188,0,0,0,.217.047h.127a2.009,2.009,0,0,0,.505-.038l.127-.028a2.973,2.973,0,0,0,.505-.189v.241a5.876,5.876,0,0,0,3.266,5.258v.16a1.256,1.256,0,0,1,0,.132l-.066-.061s-.472-.222-.873.42a2.831,2.831,0,0,1-1.222.944s-4.531.718-4.72,1.312l-2.114.123s-.746.1-.821,1.657-.472,1.7-.472,1.7a5.9,5.9,0,0,0-.8,2.327,1.289,1.289,0,0,1-.675,1.185l-.1,1.416a.944.944,0,0,0-1.043.84,3.4,3.4,0,0,1-.623,1.416s-1.369,1.137-1.444,2.1l-.849.519s-1.963-.444-2.412-1.237l-.142-.127h0a6.721,6.721,0,0,0-.821-.727.609.609,0,0,1,.038.4l-.146-.16-.241-.491s-2.926-3.36-4.79-3.6h0a1.175,1.175,0,0,0-.84.812c-.236.8-.472,2.133.132,2.789l2.95,3.143.076.057.642.821c-.109.26-.2.51-.278.741h0a.533.533,0,0,1-.047.146v.047l-.042.137a.1.1,0,0,1-.024.08v.047c-.071.25-.113.439-.137.547l-.165-.052.161.071h0a.2.2,0,0,0,0,.052l.151.066c.873.382,5.225,2.289,5.451,2.582a3.148,3.148,0,0,0,3.384.472,3.568,3.568,0,0,0,1.817-2,21.121,21.121,0,0,0,1.473-2.242c.047-.293,1.17-.642,1.17-.642s.1,3.3-.472,4.526a58.123,58.123,0,0,0-1.642,6.57.808.808,0,0,1,.212,0l-.061.312a.745.745,0,0,1,.264,0c-.08.614-.538,3.445-.538,3.445a7.261,7.261,0,0,1-.4,1.732,12.437,12.437,0,0,0-.279,2.766l-.4,1.685s.052.113.151.288h0a4.248,4.248,0,0,0,1.147,1.477,2.909,2.909,0,0,1-.2.769,2.726,2.726,0,0,0-.2,1.189,14.911,14.911,0,0,0-.373,2.45,9.211,9.211,0,0,1-.274,1.888l-.472,4.3a40.789,40.789,0,0,0-.151,4.72,9.01,9.01,0,0,1-.1,2.4s.3,2.945.227,3.266a5.76,5.76,0,0,0-.227,2.473,12.086,12.086,0,0,1,.1,2.87s.151,2.77.326,3.658a6.257,6.257,0,0,1-.052,2.029,16.412,16.412,0,0,1-.25,1.888,2.077,2.077,0,0,0,.6,2.6c1.322,1.288.5,1.086.5,1.086s-1.048-.519-.944.543.283.75.3.722l-.245.812.175.024c-.047.057-.094.118-.146.175a3.854,3.854,0,0,1-.5.519,1.085,1.085,0,0,0-.326.717A19.465,19.465,0,0,1,937.7,705.5a10.58,10.58,0,0,0-2.025,1.359c-.307.335-.255.609.382.816a9.652,9.652,0,0,0,5.4.1,6.3,6.3,0,0,0,2.643-1.7,3.809,3.809,0,0,1,2.114-.349c1.048.2,3.139-1.161,3.139-1.161l-.038-.349-.113-1.01a.8.8,0,0,1-.175-.618,3.3,3.3,0,0,0-.085-.887,1.423,1.423,0,0,0-.057-.288l.193-.038s-.25-1.26.2-1.506.321-3.488.321-3.488a3.968,3.968,0,0,0-.868-.864c-.3-.128-.029-1.661,0-1.855s.472-4.035.472-4.035a5.192,5.192,0,0,1,.052-1.727,8.463,8.463,0,0,0-.25-2.52.472.472,0,0,1,.123-.548c.274-.3.175-2.94.175-2.94s-.023-1.336-.023-1.685a6.1,6.1,0,0,1,.571-2.025,3.952,3.952,0,0,0,.1-1.732h0v-.373a19.307,19.307,0,0,1,.472-2.143c.326-1.038.7-2.87.7-2.87l2.317-6.036v-.071a9.463,9.463,0,0,1,1.071,3.809,21.751,21.751,0,0,1,.2,2.794,32.873,32.873,0,0,0,.227,3.384s.321,4.007.321,4.182a24.433,24.433,0,0,0,.651,3.733c.25.472-.25,1.888-.4,2.053a31.026,31.026,0,0,0,.047,3.776s-.373,2.87-.448,3.464a14.186,14.186,0,0,0-.123,3.776c.25.906.151,1.01.151,1.01s.9.916.373.991a1.369,1.369,0,0,0-1,1.8,23.515,23.515,0,0,0,1.1,2.648l.415-.085v.293l.028,1.473a8.717,8.717,0,0,1,.075,1.732c-.071.236-.175,1.345-.222,1.921a1.989,1.989,0,0,1-.028.354s0,1.312,2.766.916,3.261-1.482,3.261-1.482v-.137c.043-.25.132-.783.2-1.076a7.761,7.761,0,0,0-.793-2.176,4.553,4.553,0,0,0-.4-1.487,1.276,1.276,0,0,1-.2-.519,1.7,1.7,0,0,0-.061-.3l.184.033s-.146-.868.425-1.137a.821.821,0,0,0,.349-1.09,8.315,8.315,0,0,1,.222-1.633.812.812,0,0,1,.2-.788,9.931,9.931,0,0,0,.623-2.771l.052-9.35a8.994,8.994,0,0,0-.024-2.322c-.2-.67-.4-1.954-.128-2.3s.028-1.949.028-1.949a20.013,20.013,0,0,1,.373-4.248c.373-.859.25-6.159.25-6.159l.1-3.488s.812-.765.618-4.781a6.826,6.826,0,0,1,2,.033c.274.222,2.039,1.364,3.087.647a14.981,14.981,0,0,0,1.241-.968l-.439-7.415c.274.415.444.689.444.689,0-1.038,2.936-4.4,2.936-4.4a47.2,47.2,0,0,1,3.337-3.955,12.479,12.479,0,0,0,1.77-2.643,10.614,10.614,0,0,1,.595-1.237C979.3,640.128,978.408,638.943,978.512,638.67Zm-6.428,2.6a5.053,5.053,0,0,0-2.36,2.152,1.491,1.491,0,0,1-.33.665,2.369,2.369,0,0,0-.033-.472,50.946,50.946,0,0,1-.283-5.1,14.831,14.831,0,0,0,.1-2.45h0l.028-.038a12.528,12.528,0,0,0,2.062,3.379s.274.793.595.816.222,1.048.222,1.048Z" transform="translate(-505.48 -329.256)"/><path class="j" d="M936.21,673.786s.911-4.762,3.832-4.786l2.133,4.389-1.416.982A13.426,13.426,0,0,1,936.21,673.786Z" transform="translate(-509.53 -362.576)"/><path class="e" d="M942.186,673.41l-1.416.982a16.738,16.738,0,0,1-3.728-.312,4.656,4.656,0,0,1-.812-.274v-.08a10.327,10.327,0,0,1,.552-1.751c.09-.212.189-.434.3-.651a4.4,4.4,0,0,1,1.85-2.03,2.451,2.451,0,0,1,.972-.255h.132l.042.094.722,1.487Z" transform="translate(-509.54 -362.597)"/><path class="j" d="M997.712,704.95a16.311,16.311,0,0,1,3.337-.071c.269.222,2.015,1.35,3.044.637s.345-3.19.345-3.3-.1-3.606-.1-3.606l-1.841-2.478-2.308-4.347-4.72-.472.123,6.9v3.53Z" transform="translate(-540.821 -374.118)"/><path class="e" d="M997.712,704.95a16.311,16.311,0,0,1,3.337-.071c.269.222,2.015,1.35,3.044.637s.345-3.19.345-3.3-.1-3.606-.1-3.606l-1.841-2.478-2.308-4.347-4.72-.472.123,6.9v3.53Z" transform="translate(-540.821 -374.118)"/><path class="k" d="M935.177,663.684s-.241,2.992-2.11,3.039c0,0-.529-.316-1.237-.85-1.642-1.227-4.248-3.582-3.521-5.777,1.029-3.139,6.036,2.652,6.036,2.652l.387.43Z" transform="translate(-505.292 -357.391)"/><path class="e" d="M939.077,668.175s-.241,2.992-2.11,3.039c0,0-.529-.316-1.237-.849l-.161-.2a2.432,2.432,0,0,0,1.019.274,1.369,1.369,0,0,0,1.336-.84,10.186,10.186,0,0,0,.519-1.189,3.811,3.811,0,0,0,.189-.736Z" transform="translate(-509.192 -361.88)"/><path class="l" d="M938.448,673.323l-.42-.543-1.416-1.817-.722-.944a2.482,2.482,0,0,0,1.024.278,1.378,1.378,0,0,0,1.331-.845,10.512,10.512,0,0,0,.519-1.185c.231-.666.227-1.005.146-1.119a6.966,6.966,0,0,1,.807.732h0l.137.128.047.1.713,1.416v.061C940.695,670.053,940.935,672.917,938.448,673.323Z" transform="translate(-509.361 -361.6)"/><path class="j" d="M957.174,809.677s-2.062,1.35-3.1,1.152a3.691,3.691,0,0,0-2.086.345,6.2,6.2,0,0,1-2.6,1.694,9.557,9.557,0,0,1-5.324-.1c-.628-.208-.68-.472-.378-.812a10.46,10.46,0,0,1,2-1.35,19.213,19.213,0,0,0,3.511-2.992,1.071,1.071,0,0,1,.316-.713,3.783,3.783,0,0,0,.472-.514c.264-.312.51-.637.51-.637l6.065.193s.1.439.184.887a3.269,3.269,0,0,1,.085.883.8.8,0,0,0,.17.613l.109,1Z" transform="translate(-513.385 -434.546)"/><path class="j" d="M992.47,811.9c-.075.3-.16.821-.2,1.071v.132s-.472,1.081-3.214,1.473-2.723-.906-2.723-.906a2.875,2.875,0,0,1,.028-.349,18.018,18.018,0,0,1,.217-1.888,8.939,8.939,0,0,0-.076-1.718l-.028-1.463v-1.019l4.512-.472a9.253,9.253,0,0,0,.146,1.005,1.356,1.356,0,0,0,.2.514,4.522,4.522,0,0,1,.392,1.473A7.686,7.686,0,0,1,992.47,811.9Z" transform="translate(-535.995 -435.079)"/><path class="e" d="M963.807,805.944s.1.439.184.887c-.656.118-3.516.614-4.248.269a11.028,11.028,0,0,0-2.553-.614l.028-.1c.264-.312.51-.637.51-.637Z" transform="translate(-520.608 -434.546)"/><path class="e" d="M991.229,807.729a17.746,17.746,0,0,0-4.639.472v-1.019l4.512-.472a9.308,9.308,0,0,0,.127,1.019Z" transform="translate(-536.132 -435.053)"/><path class="m" d="M977.867,713.383l-.094,3.46s.123,5.277-.245,6.135a19.828,19.828,0,0,0-.368,4.2s.245,1.6-.028,1.94-.071,1.619.123,2.28a8.875,8.875,0,0,1,.024,2.308l-.047,9.279a10.041,10.041,0,0,1-.613,2.747.793.793,0,0,0-.194.783,8.165,8.165,0,0,0-.222,1.624.812.812,0,0,1-.344,1.076c-.566.274-.42,1.133-.42,1.133-1.345-.321-5.192.538-5.192.538a22.537,22.537,0,0,1-1.081-2.629,1.354,1.354,0,0,1,.982-1.789c.515-.076-.368-.982-.368-.982s.1-.123-.151-1.005a14.1,14.1,0,0,1,.123-3.733l.444-3.431a31.06,31.06,0,0,1-.047-3.776,3.276,3.276,0,0,0,.392-2.034,24.386,24.386,0,0,1-.637-3.71c0-.175-.321-4.149-.321-4.149s-.293-2.771-.222-3.36a21.569,21.569,0,0,0-.193-2.77,9.438,9.438,0,0,0-1.057-3.776l-.024.071L965.8,719.8s-.368,1.817-.685,2.832a18.874,18.874,0,0,0-.472,2.133v.368h0a3.922,3.922,0,0,1-.094,1.718,5.987,5.987,0,0,0-.566,2.01c0,.344.024,1.671.024,1.671a11.285,11.285,0,0,1-.17,2.917.472.472,0,0,0-.123.543,8.53,8.53,0,0,1,.245,2.5,5.154,5.154,0,0,0-.052,1.718s-.392,3.8-.439,4-.321,1.718-.024,1.841a3.934,3.934,0,0,1,.854.859s.127,3.214-.316,3.46-.2,1.5-.2,1.5-3.559.689-4.366.293a11.293,11.293,0,0,0-2.553-.614l.245-.807c0,.028-.179.293-.293-.713s.906-.543.906-.543.812.2-.472-1.076a2.093,2.093,0,0,1-.59-2.577,16.115,16.115,0,0,0,.245-1.888,6.328,6.328,0,0,0,.052-2.015c-.175-.883-.321-3.634-.321-3.634a13.181,13.181,0,0,0-.1-2.832,6.022,6.022,0,0,1,.222-2.454c.075-.321-.222-3.238-.222-3.238a9.093,9.093,0,0,0,.1-2.36,40.856,40.856,0,0,1,.146-4.72l.444-4.248a9.174,9.174,0,0,0,.269-1.888,15.366,15.366,0,0,1,.368-2.426,2.728,2.728,0,0,1,.194-1.18,8.816,8.816,0,0,0,.344-2.11l2.36-5.4,1.152-4.762,15.575-.146s.057.415.151,1.166.226,1.859.373,3.228c.137,1.246.288,2.714.43,4.342C978.849,712.467,977.867,713.383,977.867,713.383Z" transform="translate(-520.217 -377.931)"/><path class="k" d="M989.487,634.517l-3.634,3.88s-4.663-1.888-4.172-2.5a3.637,3.637,0,0,0,.052-1.888c-.175-1.359-.543-2.921-.543-2.921s8.146-1.326,7.462.047a2.251,2.251,0,0,0-.052,1.628A5.977,5.977,0,0,0,989.487,634.517Z" transform="translate(-533.281 -342.301)"/><path class="e" d="M988.652,631.123c-.25.5-.373.552-.217,1.09-1.062,1.142-2.417,2.393-4.1,2.393a5.783,5.783,0,0,1-2.6-.609c-.175-1.359-.543-2.921-.543-2.921S989.336,629.75,988.652,631.123Z" transform="translate(-533.281 -342.304)"/><path class="k" d="M987.149,620.108a5.843,5.843,0,1,1-11.681,0v-.08a5.843,5.843,0,0,1,11.681.08Z" transform="translate(-530.258 -333.802)"/><path class="e" d="M983.628,704.538c-.769,0-3.346.028-6.225.071h-1.015c-3.412.052-6.777-.614-8.127-.472-2.87.269,1.029-2.652,1.029-2.652a23.963,23.963,0,0,0,6.541.661l.826-.042a35.323,35.323,0,0,0,6.608-.8C983.354,702.065,983.486,703.164,983.628,704.538Z" transform="translate(-525.897 -379.393)"/><path class="n" d="M983.628,704.223c-.769,0-3.346.028-6.225.076h-1.015c-3.412.057-6.777-.609-8.127-.472-2.87.269,1.029-2.652,1.029-2.652a23.959,23.959,0,0,0,6.541.661l.826-.043a35.323,35.323,0,0,0,6.608-.8C983.354,701.75,983.486,702.854,983.628,704.223Z" transform="translate(-525.897 -379.229)"/><path class="e" d="M975.57,641.448l-4.493,2.11-3.507,26.949s2.063-.944,3.238-.345,4.809.052,4.809.052,2.653-.151,3.044.146,5.008-1.227,5.008-1.227.831-1.888.194-2.162.2-3.19.2-3.19l-.392-19.436-.788-2.5-2.11-1.274-2.143,1.708-1.034.151Z" transform="translate(-526.089 -347.545)"/><path class="l" d="M975.6,640.813l-4.493,2.11-3.483,26.949s2.063-.944,3.238-.345,4.809.047,4.809.047,2.652-.146,3.044.146,5.008-1.227,5.008-1.227.831-1.888.193-2.157.2-3.19.2-3.19l-.392-19.436-.788-2.506-2.11-1.274-2.166,1.718-1.034.146Z" transform="translate(-526.115 -347.208)"/><path class="e" d="M980.437,644.033s1.3,1.548,1.279,1.888S981.64,647,981.64,647l-.982,1.992s-.538,2.478-.538,2.992-.859,4.979-.859,4.979l-1.034,6.872-1.3,9.01,1.322,2.28,1.572-1.326,2.086-16.047.444-3.167s.472-5.692.472-6.282a19.674,19.674,0,0,0-.274-2.133,2.519,2.519,0,0,1,1.647-1.817c1.326-.345-.1-.076-.1-.076l-.76-.613-.665.269S980.828,643.349,980.437,644.033Z" transform="translate(-531.031 -349.168)"/><path class="m" d="M980.121,643.728s1.3,1.548,1.274,1.888-.071,1.081-.071,1.081l-.982,1.987s-.543,2.483-.543,3-.859,4.979-.859,4.979l-1.029,6.872-1.3,9.005,1.326,2.284,1.572-1.326,2.086-16.047.444-3.167s.472-5.692.472-6.282a20.16,20.16,0,0,0-.269-2.138,2.508,2.508,0,0,1,1.647-1.812c1.326-.34-.1-.075-.1-.075l-.76-.614-.665.269S980.513,643.044,980.121,643.728Z" transform="translate(-530.863 -349.01)"/><path class="e" d="M981.132,638.68s-.2.151-.245,1.133A19.5,19.5,0,0,1,980.15,643s2.553-1.765,3.828-1.567Z" transform="translate(-532.732 -346.611)"/><path class="l" d="M981.132,638.06s-.2.146-.245,1.128a19.486,19.486,0,0,1-.736,3.191s2.553-1.765,3.828-1.572Z" transform="translate(-532.732 -346.285)"/><path class="e" d="M992.5,637l-4.026,3.535a40.415,40.415,0,0,1,3.828,2.5c.439.491.883-4.809.883-4.809Z" transform="translate(-537.125 -345.723)"/><path class="l" d="M992.806,636.4l-4.026,3.53a40.582,40.582,0,0,1,3.828,2.506c.439.491.887-4.809.887-4.809Z" transform="translate(-537.289 -345.407)"/><path class="e" d="M969.434,638.64s-.439-.217-.859.42a2.758,2.758,0,0,1-1.2.944s-4.465.713-4.635,1.3l-2.086.123s-.736.1-.812,1.643-.472,1.694-.472,1.694a5.861,5.861,0,0,0-.783,2.308,1.279,1.279,0,0,1-.661,1.175l3.068,7.976s.094,3.3-.472,4.493a56.1,56.1,0,0,0-1.619,6.527s.439-.1.415.194-.538,3.511-.538,3.511a7.145,7.145,0,0,1-.4,1.718,12.467,12.467,0,0,0-.269,2.747l-.392,1.671s.944,2.086,2.36,1.793,4-5.866,4-5.866L965.725,667,967,661.063l.368-4.026.59-8.911.859-5.89S969.779,639.06,969.434,638.64Z" transform="translate(-520.888 -346.482)"/><path class="j" d="M969.119,638.018s-.444-.222-.859.415a2.743,2.743,0,0,1-1.2.944s-4.465.713-4.635,1.3l-2.086.123s-.736.1-.812,1.647-.472,1.694-.472,1.694a5.864,5.864,0,0,0-.784,2.3,1.293,1.293,0,0,1-.665,1.18l3.068,7.976s.1,3.3-.472,4.488a55.15,55.15,0,0,0-1.624,6.532s.444-.1.42.193-.543,3.511-.543,3.511a7.082,7.082,0,0,1-.392,1.718,12.442,12.442,0,0,0-.269,2.747l-.392,1.671s.944,2.086,2.36,1.789,4-5.867,4-5.867l1.642-6.008,1.274-5.942.368-4.026.59-8.906.859-5.89S969.482,638.433,969.119,638.018Z" transform="translate(-520.719 -346.154)"/><path class="e" d="M942.028,673.231l-1.416.982a16.739,16.739,0,0,1-3.729-.312l-.793-.354-.161-.066.165.052a3.242,3.242,0,0,0,1.963.066c2.015-.675,1.794-4,1.713-4.753V668.7h0a1.065,1.065,0,0,0,.09.127l.09.094h0l.713,1.416v.061Z" transform="translate(-509.382 -362.417)"/><path class="j" d="M947.134,658l-.689.2-.094,1.416a.944.944,0,0,0-1.034.835,3.4,3.4,0,0,1-.613,1.416s-1.35,1.128-1.416,2.081l-.836.519s-1.94-.444-2.36-1.227c0,0,.883,6.329-3.832,4.786,0,0,5.277,2.3,5.522,2.624a3.092,3.092,0,0,0,3.337.472,3.564,3.564,0,0,0,1.794-1.987,22.082,22.082,0,0,0,1.472-2.284c.057-.293,1.152-.637,1.152-.637l2.114-5.107Z" transform="translate(-509.556 -356.764)"/><path class="e" d="M995.256,639.638l.713-3.238a3.865,3.865,0,0,0,.637,1.3l1.057.812a6.094,6.094,0,0,0,1.416.472,8.411,8.411,0,0,1,2.6.783c.241.269,1.227.076,1.227.076s.812.269,1.524.439,1.053,1.35.906,1.817a1.416,1.416,0,0,0,.345,1.326,3.183,3.183,0,0,1,.443,1.251,1.416,1.416,0,0,1,.831.713,4.974,4.974,0,0,1,.175,1.718l-3.653,5.154a15.042,15.042,0,0,1-.1,2.426c-.146.444.514,7.953.514,7.953l.765,12.908a14.427,14.427,0,0,1-1.227.944c-.222.1-.444-4.564-.444-4.72s-5.664-8.5-5.664-8.5a7.636,7.636,0,0,1-.76-1.5c0-.269-.713-2.747-.713-2.747l-1.081-4.786Z" transform="translate(-540.451 -345.322)"/><path class="j" d="M1007.775,646.814v.283l-3.662,5.135h0a14.95,14.95,0,0,1-.095,2.426,50.652,50.652,0,0,0,.274,5.069c.123,1.567.241,2.884.241,2.884l.321,5.475.439,7.434a13.72,13.72,0,0,1-1.227.944c-.222.1-.444-4.564-.444-4.72s-5.664-8.5-5.664-8.5a7.64,7.64,0,0,1-.76-1.5c0-.269-.713-2.747-.713-2.747l-1.076-4.786.472-14.631.415-3.238a7.075,7.075,0,0,0,.944,1.3l1.052.812a6.121,6.121,0,0,0,1.416.472,8.409,8.409,0,0,1,2.6.784c.241.269,1.227.076,1.227.076s.807.269,1.52.439,1.057,1.35.911,1.817a1.416,1.416,0,0,0,.34,1.326,3.112,3.112,0,0,1,.444,1.251,1.416,1.416,0,0,1,.835.713A4.02,4.02,0,0,1,1007.775,646.814Z" transform="translate(-540.789 -345.296)"/><path class="e" d="M958.05,797.06c.123,0,5.277.2,5.192,1.034S958.05,797.06,958.05,797.06Z" transform="translate(-521.062 -429.958)"/><path class="e" d="M960.5,800s3.46.562,2.549,1.081S960.5,800,960.5,800Z" transform="translate(-522.356 -431.51)"/><path class="e" d="M987.74,795.92s5.744.472,4.885,1.128a7.21,7.21,0,0,1-2.992.76A26.476,26.476,0,0,1,987.74,795.92Z" transform="translate(-536.739 -429.356)"/><path class="e" d="M986.29,801.28s3.191.538,3.3,1.152S986.29,801.28,986.29,801.28Z" transform="translate(-535.974 -432.186)"/><path class="e" d="M990,770s2.921.689,3.091,1.156Z" transform="translate(-537.933 -415.669)"/><path class="e" d="M965.388,774.45s-1.52.439-.047,1.321S965.388,774.45,965.388,774.45Z" transform="translate(-524.573 -418.019)"/><path class="e" d="M980.46,723.83c.175,0,2.832-.883,3.776-.472a6.246,6.246,0,0,0,2.086.392Z" transform="translate(-532.895 -390.983)"/><path class="e" d="M977.314,728.879l-.024.245-2.284,5.989s-.368,1.817-.684,2.832a18.838,18.838,0,0,0-.472,2.133l2.025-12.559Z" transform="translate(-529.405 -393.238)"/><path class="m" d="M987.024,705.186h-.977l-.557-2.473.826-.043Z" transform="translate(-535.551 -380.116)"/><path class="k" d="M1002.215,699.015l-.609.5-2.039,1.68s-5.522,2.945-7.047.146c-1.34-2.464,4.923-4.248,6.428-4.606l.321-.08Z" transform="translate(-539.165 -376.943)"/><path class="e" d="M963.3,650.54s1.081.472,1.326,1.175S963.3,650.54,963.3,650.54Z" transform="translate(-523.834 -352.864)"/><path class="e" d="M955.008,666.14s-1.572,1.911-.944,2.648S955.008,666.14,955.008,666.14Z" transform="translate(-518.879 -361.076)"/><path class="e" d="M1014.014,652.83s-1.472.146-1.524,1.416Z" transform="translate(-549.808 -354.07)"/><path class="e" d="M986.81,690.15c.146-.146,3.53-5.154,4.319-4.72Z" transform="translate(-536.248 -371.215)"/><path class="e" d="M987.151,620.1a5.852,5.852,0,0,1-.689,2.761h-.042c-.373-.08-.566-.51-.85-.779a1.142,1.142,0,0,0-1.321-.184,1.331,1.331,0,0,0-.651,1.255c-.189-.784-.127-1.619-.312-2.407s-.732-1.586-1.487-1.6c-.321,0-.7.123-.944-.123-.141-.146-.17-.378-.278-.552-.533-.873-2.171-.43-2.832,0a17.387,17.387,0,0,1-2.275,1.543,5.843,5.843,0,0,1,11.681.08Z" transform="translate(-530.26 -333.803)"/><path class="m" d="M978.928,614.629c.109.179.137.411.279.557.236.241.614.118.944.123.75,0,1.3.812,1.482,1.6s.123,1.624.312,2.407a1.336,1.336,0,0,1,.651-1.26,1.147,1.147,0,0,1,1.321.189c.283.269.472.7.849.779s.727-.279.859-.67a11.384,11.384,0,0,0,.212-1.222,15.117,15.117,0,0,1,.944-2.119,3.866,3.866,0,0,0-.028-2.742c-.184-.472-.472-.873-.642-1.336-.283-.7-.359-1.487-.7-2.152a2.535,2.535,0,0,0-3.054-1.255c-.533.2-1,.585-1.539.76a5.046,5.046,0,0,1-2.251-.047,2.779,2.779,0,0,0-2.185.382c-.694.566-.883,1.633-1.539,2.261-.274.26-.613.429-.9.67a1.227,1.227,0,0,0-.505,1c.042.51.538.972.354,1.44a1.119,1.119,0,0,1-.269.359,5.129,5.129,0,0,0-1.189,2.025c1.312.411,2.733-1.038,3.776-1.723C976.757,614.2,978.395,613.761,978.928,614.629Z" transform="translate(-528.602 -330.121)"/><path class="e" d="M1009.51,699.015l-.609.5a17.96,17.96,0,0,0-2.752-2.69l.094-.089.321-.08Z" transform="translate(-546.461 -376.943)"/><path class="l" d="M1010.275,697.227s-.217.543-.448,1.019-.472.9-.472.552c-.028-.689-2.874-3-2.874-3l.387-.378.472-.434Z" transform="translate(-546.635 -376.061)"/><path class="e" d="M1010.39,688.784l.321,5.475c-.76-1.185-2.832-4.248-4.2-4.125l3.266-3.752a4.9,4.9,0,0,0,.373-.472C1010.271,687.482,1010.39,688.784,1010.39,688.784Z" transform="translate(-546.651 -371.473)"/><path class="e" d="M1010.7,697.217s-.217.543-.448,1.019c-.854-1.175-2.029-2.563-2.969-2.832l.472-.434Z" transform="translate(-547.057 -376.051)"/><path class="j" d="M1012.887,657.66l.883.689s1.473,0,1.619,1.251a2.5,2.5,0,0,0,1.5,1.793s1.005,1.005,1.005,1.472.76,1.3.76,1.374.736,1.567.637,1.841.783,1.444.514,1.888a11.34,11.34,0,0,0-.59,1.227,12.353,12.353,0,0,1-1.742,2.624,47.248,47.248,0,0,0-3.3,3.927s-2.9,3.337-2.9,4.37c0,0-2.832-4.72-4.493-4.588l3.266-3.776s.566-.614.59-.982a4.794,4.794,0,0,1,2.308-2.133s.123-1.01-.2-1.034-.59-.807-.59-.807-2.157-2.553-2.185-4.172S1012.887,657.66,1012.887,657.66Z" transform="translate(-546.793 -356.562)"/><path class="e" d="M1020.595,662.6s-2.062,1.525-1.624,2.015S1020.595,662.6,1020.595,662.6Z" transform="translate(-553.198 -359.213)"/><path class="e" d="M1022.68,675.3s3.828-1.227,4.248,0Z" transform="translate(-555.189 -365.617)"/><path class="e" d="M957.174,813.679s-2.062,1.35-3.1,1.152a3.69,3.69,0,0,0-2.086.345,6.2,6.2,0,0,1-2.6,1.694,9.559,9.559,0,0,1-5.324-.1c-.628-.208-.68-.472-.378-.812,1.444.288,4.663.859,5.531.444a23.288,23.288,0,0,0,2.747-1.718s2.11-.3,2.407-.3a25.887,25.887,0,0,0,2.756-1.057Z" transform="translate(-513.385 -438.549)"/><path class="e" d="M992.267,819.92v.132s-.472,1.081-3.214,1.473-2.723-.906-2.723-.906a2.862,2.862,0,0,1,.028-.349C987.2,820.595,989.081,820.958,992.267,819.92Z" transform="translate(-535.995 -442.028)"/><path class="e" d="M964.784,662s0,5.593-.472,6.136S964.784,662,964.784,662Z" transform="translate(-524.299 -358.887)"/><path class="e" d="M1012.34,665.8l.708,2S1013.331,665.838,1012.34,665.8Z" transform="translate(-549.729 -360.898)"/><g class="o" transform="translate(443.723 281.978)"><path d="M975.087,618.766c.179-.472-.293-.911-.354-1.416a.945.945,0,0,0-.076.444c.028.373.307.717.378,1.062A.661.661,0,0,0,975.087,618.766Z" transform="translate(-973.553 -617.35)"/><path d="M982,625.805c-.179-.774-.127-1.6-.3-2.36s-.736-1.581-1.487-1.6c-.326,0-.7.118-.944-.123-.142-.146-.17-.378-.278-.557-.538-.868-2.171-.429-2.832,0-1.005.67-2.383,2.067-3.672,1.751a4.688,4.688,0,0,0-.165.472c1.312.411,2.733-1.038,3.776-1.723.67-.472,2.308-.887,2.832,0,.108.179.137.411.279.557.236.241.614.118.944.123.75,0,1.3.812,1.482,1.6s.123,1.624.311,2.407a1.3,1.3,0,0,1,.057-.552Z" transform="translate(-972.32 -619.104)"/><path d="M996.526,629.122c-.137.387-.472.746-.864.665s-.562-.51-.845-.779a1.157,1.157,0,0,0-1.326-.184,1.345,1.345,0,0,0-.651,1.189,1.308,1.308,0,0,1,.58-.713,1.147,1.147,0,0,1,1.322.189c.283.269.472.7.849.779s.727-.278.859-.67a3.492,3.492,0,0,0,.137-.7C996.568,628.97,996.549,629.046,996.526,629.122Z" transform="translate(-983.155 -623.34)"/><path d="M1001.949,621.908a16.653,16.653,0,0,0-.944,2.124,3.938,3.938,0,0,0-.075.472,15.593,15.593,0,0,1,.944-2.114,3.782,3.782,0,0,0,.227-1.019,3.947,3.947,0,0,1-.151.538Z" transform="translate(-987.427 -619.473)"/></g><rect class="g" width="34.926" height="36.209" transform="translate(148.828 107.898)"/><rect class="g" width="34.926" height="36.209" transform="translate(193.665 107.898)"/><rect class="p" width="34.926" height="36.209" transform="translate(238.502 107.898)"/><rect class="p" width="34.926" height="36.209" transform="translate(283.339 107.898)"/><rect class="p" width="34.926" height="36.209" transform="translate(328.176 107.898)"/><rect class="a" width="34.926" height="36.209" transform="matrix(0.797, -0.603, 0.603, 0.797, 332.372, 115.461)"/><path class="h" d="M377.974,257.54a5.834,5.834,0,1,0,5.833,5.829A5.834,5.834,0,0,0,377.974,257.54Zm4.012,7.4c-.227-.076-.661-.1-.826-.293-.08-.1-.028-.472-.028-.472a1.742,1.742,0,0,0,.868-.17c.109-.066.061-.076,0-.17a3.454,3.454,0,0,1-.184-1.727,1.416,1.416,0,0,0-.562-1.246,1.774,1.774,0,0,0-.878-.194,1.953,1.953,0,0,0-.708.113c-1.189.472-.472,2.053-.9,2.954-.071.156-.17.208,0,.3a2.189,2.189,0,0,0,.812.175v.392c-.033.137-.33.231-.444.264a3.448,3.448,0,0,0-.472.16.113.113,0,0,0,0,.212,2.059,2.059,0,0,1,.326.08,3.068,3.068,0,0,1,1.288.7,1.92,1.92,0,0,1,.562,1.251.349.349,0,0,1-.156.326l-.16.1a.076.076,0,0,1-.118-.066,1.888,1.888,0,0,0-1.284-1.826c-.382-.132-.788-.142-1.166-.274-.118-.038-.345-.09-.392-.217a1.417,1.417,0,0,1-.052-.415c0-.109,0-.217,0-.321s.179-.217.217-.283a2.148,2.148,0,0,0,.194-.878c.245.066.274-.382.316-.524s.142-.585-.071-.661a1.143,1.143,0,0,0,.118-.411,2.493,2.493,0,0,0-.033-1.1,1.742,1.742,0,0,0-1.661-1.161,1.779,1.779,0,0,0-1.779,1.062,2.323,2.323,0,0,0-.08,1.109,1.359,1.359,0,0,0,.132.505c-.179.08-.127.472-.094.6s.085.656.34.585a4.154,4.154,0,0,0,.109.68.973.973,0,0,0,.231.392c.047.057.076.061.071.132a2.879,2.879,0,0,1-.052.67c-.057.212-.524.3-.713.34a4.069,4.069,0,0,0-1.161.326,5.046,5.046,0,1,1,8.982-.59,1.3,1.3,0,0,0-.628-.425Z" transform="translate(-211.683 -145.894)"/><path class="q" d="M380.281,304.715v-6.452l2.973,2.973.741-.769-4.248-4.248-4.248,4.248.746.741,2.973-2.945v6.452Z" transform="translate(-213.457 -166.265)"/><path class="q" d="M475.281,304.715v-6.452l2.973,2.973.741-.769-4.248-4.248-4.248,4.248.741.741,2.978-2.945v6.452Z" transform="translate(-263.62 -166.265)"/><path class="h" d="M476.881,266.851a.127.127,0,0,0-.2,0l-2.421,3.214a.123.123,0,0,0,.085.2l4.248.368a.123.123,0,0,0,.118-.184l-1.822-3.587Zm2.761,1.708a.127.127,0,0,0-.2,0l-.651.661a.113.113,0,0,0,0,.142l.67,1.3a.123.123,0,0,0,.094.061l1.185.1a.123.123,0,0,0,.118-.184l-1.2-2.067Zm.288-1.043a.623.623,0,1,0-.592-.407.628.628,0,0,0,.592.407Z" transform="translate(-265.588 -150.497)"/><path class="h" d="M478.145,260.74l-1.732-.151-.16-1.765a.717.717,0,0,0-.779-.647l-7.821.708a.713.713,0,0,0-.647.774l.7,7.806a.713.713,0,0,0,.779.642l.411-.033-.038.439a.708.708,0,0,0,.651.769l7.825.684a.717.717,0,0,0,.774-.651l.689-7.806a.708.708,0,0,0-.651-.769Zm-9.68,4.512a.184.184,0,0,1-.193-.16l-.472-5.267a.175.175,0,0,1,.161-.194l7.349-.661a.184.184,0,0,1,.193.16l.127,1.392-5.31-.472a.713.713,0,0,0-.774.647l-.392,4.484-.689.066ZM478,261.679l-.472,5.267a.179.179,0,0,1-.194.16l-.472-.042L470,266.469a.18.18,0,0,1-.165-.194l.1-1.156.363-4.106a.175.175,0,0,1,.189-.165l5.215.472.779.071,1.359.118A.175.175,0,0,1,478,261.679Z" transform="translate(-261.774 -146.228)"/><rect class="g" width="79.763" height="59.468" transform="translate(148.828 179.975)"/><path class="r" d="M405.377,434.247a28.011,28.011,0,0,0-37.153,26.468,1.987,1.987,0,1,1-3.974,0,31.99,31.99,0,0,1,42.293-30.272" transform="translate(-207.516 -236.008)"/><path class="h" d="M452.556,432.35a32.033,32.033,0,0,1,21.659,30.272,1.987,1.987,0,0,1-3.974,0,28.054,28.054,0,0,0-18.85-26.468" transform="translate(-253.529 -237.912)"/><path class="r" d="M427.806,466.53h-.033a3.478,3.478,0,0,0-2.912,1.6,3.478,3.478,0,0,0-2.912-1.6h-.033a3.464,3.464,0,0,0-3.436,3.464,7.452,7.452,0,0,0,1.468,4.073,25.364,25.364,0,0,0,4.913,4.72,25.866,25.866,0,0,0,4.913-4.72,7.452,7.452,0,0,0,1.468-4.073,3.464,3.464,0,0,0-3.436-3.464Z" transform="translate(-236.152 -255.943)"/><rect class="g" width="121.008" height="89.99" transform="translate(250.589 155.081)"/><rect class="h" width="4.956" height="16.609" transform="translate(263.044 222.899)"/><rect class="h" width="4.956" height="37.167" transform="translate(272.484 202.311)"/><rect class="g" width="4.956" height="55.692" transform="translate(281.923 183.757)"/><rect class="h" width="4.956" height="68.907" transform="translate(291.362 170.519)"/><rect class="r" width="4.956" height="68.907" transform="translate(281.923 170.519)"/><rect class="r" width="4.956" height="37.875" transform="translate(300.802 201.602)"/><rect class="h" width="4.956" height="47.669" transform="translate(310.241 191.794)"/><rect class="h" width="4.956" height="62.536" transform="translate(319.68 176.902)"/><rect class="p" width="4.956" height="27.846" transform="translate(329.12 211.646)"/><rect class="p" width="4.956" height="40.707" transform="translate(338.559 198.766)"/><rect class="p" width="4.956" height="55.692" transform="translate(347.998 183.757)"/><rect class="p" width="4.956" height="55.692" transform="translate(357.438 183.757)"/><path class="r" d="M816.01,306l4.852-2.728,2.275,1.364,45.469,218.861-2.723.519-5.682-4.932Z" transform="translate(-430.887 -159.04)"/><path class="e" d="M826.29,303.27l45.021,220.744,2.723-.519L828.565,304.634Z" transform="translate(-436.315 -159.04)"/><path class="j" d="M755.38,328.62l34.6,3.313v2.676l-34.421-3Z" transform="translate(-398.872 -173.118)"/><path class="r" d="M762.622,397.7h36.7v3.917H762.15Z" transform="translate(-402.447 -209.499)"/><path class="r" d="M770.28,468.483l37.045-1.473,4.635,1.473v2.511l-32.915,1.732h-8.462Z" transform="translate(-406.74 -245.995)"/><path class="e" d="M789.322,472.169l32.443-2.039v2.511l-32.915,1.732Z" transform="translate(-416.545 -247.641)"/><path class="e" d="M770.28,470.13l9.236,2.039-.472,2.2h-8.462Z" transform="translate(-406.74 -247.641)"/><path class="r" d="M777.39,544.495l40.9-3.795,4.507,1.175v2.62l-36.535,3.837-8.873.788Z" transform="translate(-410.494 -284.795)"/><path class="e" d="M795.86,547.442l32.627-3.28,4.064-.972v2.619l-36.535,3.837Z" transform="translate(-420.247 -286.11)"/><path class="e" d="M776.23,552.681l9.265-.481.156,2.2-8.873.788Z" transform="translate(-409.882 -290.862)"/><path class="r" d="M781.51,620.066l46.125-6.126,3.955,1.572V618.5L791.8,624.488h-9.35Z" transform="translate(-412.67 -323.358)"/><path class="e" d="M803.32,624.354l39.787-7.084v2.992l-39.787,5.985Z" transform="translate(-424.186 -325.115)"/><path class="e" d="M782.68,632.332l9.741-.052v1.893h-9.35Z" transform="translate(-413.287 -333.036)"/><path class="r" d="M787.28,696.865l50.595-9.435,4.479,2.634v2.081l-44.393,10.77-9.151.694Z" transform="translate(-415.716 -361.889)"/><path class="e" d="M809.91,703.719,854.3,693.01v2.081l-44.393,10.77Z" transform="translate(-427.666 -364.835)"/><path class="e" d="M789.39,716.186l9.685-.486v2.143l-9.151.694Z" transform="translate(-416.83 -376.816)"/><path class="r" d="M757.632,297.49l-4.092.911,14.782,235.342,4.318,1.591h3.412Z" transform="translate(-397.901 -155.988)"/><path class="e" d="M757.98,297.934l17.005,237.4H778.4L759.977,297.49Z" transform="translate(-400.245 -155.988)"/><rect class="h" width="34.926" height="36.209" transform="matrix(0.797, -0.603, 0.603, 0.797, 336.644, 113.976)"/><rect class="g" width="34.926" height="36.209" transform="matrix(0.797, -0.603, 0.603, 0.797, 336.644, 113.976)"/><path class="q" d="M808.358,284.686l-3.889-5.154,4.163.576.127-1.062-5.947-.826L802,284.181l1.038.146.595-4.144,3.894,5.144Z" transform="translate(-438.663 -156.788)"/><path class="h" d="M786.187,257.226a5.47,5.47,0,0,1-8.708-5.192.439.439,0,0,1,.5-.368.444.444,0,0,1,.368.505,4.529,4.529,0,1,0,2.114-3.176l1.034,1.364a.444.444,0,0,1-.7.533l-1.312-1.732a.444.444,0,0,1,.085-.618,5.475,5.475,0,0,1,6.608,8.727Z" transform="translate(-425.681 -140.616)"/><path class="h" d="M781.75,257.2l3.351-.08a.826.826,0,1,1,.042,1.647.8.8,0,0,1-.264-.038l-3.2-.991a.274.274,0,0,1-.179-.345A.279.279,0,0,1,781.75,257.2Z" transform="translate(-427.829 -145.676)"/><path class="s" d="M808.642,372.738c-.349-1.265-.576-2.36-.576-2.36a4.974,4.974,0,0,0-.647-2.412v-.349h0l-.1-2.568a8.77,8.77,0,0,1,.6-1.369c.43-.826-.146-3.776-.146-3.776s-1.888-4.106-1.557-6.768-3.974-11.61-3.974-11.61a11.443,11.443,0,0,1,.269-2.615,2.011,2.011,0,0,0,.028-.547.307.307,0,0,0,0-.066h0a20.282,20.282,0,0,0-1.633-4.96l-.052-6.239a18.361,18.361,0,0,0-.887-8.585c-.571-1.7-.944-3.068-1.189-4.125-.028-.118-.052-.236-.076-.345,2.936-.566,5.192-1.029,5.192-1.029s-1.992-7.108-3.2-8.316-2.284-5.121-2.284-5.121-.8-5.045.118-6.565a9.784,9.784,0,0,0,.944-4.078s2.162-1.7,2.412-2.426a11.868,11.868,0,0,0,.618-3.214c-.033-.85-.34-1.6-.264-2.053s-.732-2.129-.392-2.95a2.126,2.126,0,0,0,.118-.784v-.024h0a11,11,0,0,0-.274-2.1,6,6,0,0,0-2.247-1.095l-.057-.189-.146-.5a2.022,2.022,0,0,0-.222-.118V273.3l-.047-.727.288-1.652c.571-2.874-3.242-3.153-3.242-3.153a2.006,2.006,0,0,0-1.147-.906c-.774-.241.038,4.285.406,4.564a17.246,17.246,0,0,1,1.591,2.289h0l.066.113a1.633,1.633,0,0,0-.165.189l.184.982.028.151a3.942,3.942,0,0,0-.566,1.057,2.218,2.218,0,0,1,.618,1.59,5.1,5.1,0,0,0,.3,1.963c-.042-.042-.552-.557-1.034-.406s-1.831.609-1.831.609-1.015.217-.911.439-.647,1.237-.647,1.237l-2.832-2.487c-.028-.08-.061-.156-.09-.236a6.514,6.514,0,0,1-.278-1.123,6.547,6.547,0,0,0,.864-.316,1.887,1.887,0,0,0,.741-.514,2.949,2.949,0,0,0,.392-1.194,17.6,17.6,0,0,1,.944-2.308,7.392,7.392,0,0,0,.392-4.092,2.718,2.718,0,0,0-.472-1.175c-.472-.595-1.293-.816-1.888-1.284s-1.015-1.2-1.718-1.543a3.275,3.275,0,0,0-2.086-.1,11.228,11.228,0,0,0-3.856,1.6,1.982,1.982,0,0,1-1.279.472,1.747,1.747,0,0,1-.944-.651s0-.028,0-.038l-.028-.038a4.781,4.781,0,0,0-.349,2.067,1.915,1.915,0,0,0,.028.326.865.865,0,0,0,0,.113.717.717,0,0,1,0,.1h0a.819.819,0,0,1,0,.146,1.062,1.062,0,0,1-.245.378,2.368,2.368,0,0,0-.208.311.992.992,0,0,1,.033-.113,1.642,1.642,0,0,0-.255.878.891.891,0,0,0,.231.609,2.991,2.991,0,0,0,.472.34,4.919,4.919,0,0,0-.047.916,5.3,5.3,0,0,0,2.751,4.422c.038.075.071.151.1.231a6.571,6.571,0,0,1,.614,2.964.6.6,0,0,1-.028.222l-.094.118h0s-4.517.217-5.621-.708-2.6,2.459-2.6,2.459-1.609.378-1.944.076-2.228.042-2.228.042a4.092,4.092,0,0,0-2.865-.944,8.387,8.387,0,0,0-2.119-1.071h-.057a2.36,2.36,0,0,0-1.024-.09,20.863,20.863,0,0,1-2.983-2.714c-.689-.963-3.913-4.5-3.932-4.517V273l-.057-.533a1.621,1.621,0,0,1-.278.033l-.066-.179a9.8,9.8,0,0,0-.717-1.482s0-.675.165-.85a13.144,13.144,0,0,0-.184-2.634s-2.18-4.606-3.842-1.038c0,0-3.3,2.393-.359,4.918,0,0,1.156.5,1.336.944.118.283.533,1.057.812,1.572l.127.231-.033.028.061.439v.17c-.524.326-.873.642-.779.868a4.976,4.976,0,0,1,.373,1.194s4.13,4.781,4.72,6.872c0,0,10.8,5.871,14.3,6.188l-.472,3.157s-.113,1.888-.042,2.563-.274,3.738-.274,3.738-.429,4.507-.916,5.154-.288,3.337-.288,3.337a22.617,22.617,0,0,1-.547,3.837,9.759,9.759,0,0,0,0,3.818s-1.6,4.1,2.506,1.2c0,0,2.067-.208,4.446-.382v1.227c.057,2.313.165,5.5.363,7.905.349,4.248,1.973,12.635,1.973,12.635l.161,4.248a6.129,6.129,0,0,0-.076,1.218,7.876,7.876,0,0,0,1.3,4.2l.434,2.832a11,11,0,0,1,.892,2.94,1.64,1.64,0,0,1-.023.274,1.743,1.743,0,0,0,0,.434,23.846,23.846,0,0,0,.9,4.323s.165,3.091.637,3.252-.472,1.8-.722,2.28v-.085l-.052.094a2.266,2.266,0,0,0-.118.788,1.132,1.132,0,0,0,.557,1.067c.9.5,1.392.944.651,1.142a8.027,8.027,0,0,0-.807.2c0-.033-.033-.071-.042-.1a.472.472,0,0,0-.288.552,2.36,2.36,0,0,0,.316,1.038,11.291,11.291,0,0,0,1.345,2.237l.354-.052a1.777,1.777,0,0,1-.194.392,1.457,1.457,0,0,1-.505.472,1.709,1.709,0,0,1-.623.245,1.77,1.77,0,0,0-1.288.689,1.364,1.364,0,0,0,.241,2.119l3.36,1.015s5.7.463,5.366-.8-.581-2.36-.581-2.36a5.121,5.121,0,0,0-.547-2.251,3.016,3.016,0,0,0-.217-.326l.2-.028s.307-2.832.84-3.4c.127-.127.151-.227.118-.3.052-.156-.1-.241-.288-.283a.6.6,0,0,1-.033.113,2.834,2.834,0,0,0-.557-.042s-.241-1.473.34-2.034a.566.566,0,0,0,.1-.444,2.4,2.4,0,0,0-.085-.6.12.12,0,0,0,0,.033,21.954,21.954,0,0,0-1.468-3.422,4.247,4.247,0,0,1,.255-1.888c.349-.543-.33-7.306-.33-7.306a22.686,22.686,0,0,0-.472-4.79,5.4,5.4,0,0,1,.382-3.337v-.094h0s-.028-.2-.075-.514v.033c-.128-.864-.363-2.426-.524-3.148-.222-1.024-.179-5.966-.179-5.966l.75-2.138,1.624,3.573,1.76,4.781a4.14,4.14,0,0,1,.878,2.029v.151a2.565,2.565,0,0,0,0,.326,2.9,2.9,0,0,0,.548,1.708s.505,2.27,1.175,2.832a2.592,2.592,0,0,1,.713,1.68,28.15,28.15,0,0,0,1.307,3.856,5.739,5.739,0,0,1,.415,2.242h0v.123s.151,1.18.189,2.181v.326a3.7,3.7,0,0,1-.1.75.166.166,0,0,0,0,.047v-.17a8.408,8.408,0,0,0-.156,2.077,5.316,5.316,0,0,0,1.015,3.4c1.307,1.388,2.086,1.175,2.086,1.175s-.533,1.817-1.26,2.2a.287.287,0,0,0-.075.057c0-.035,0-.069,0-.1a.859.859,0,0,0-.194.675A4.786,4.786,0,0,0,801.081,369a1.482,1.482,0,0,0,.642.34l-.113.076a1.893,1.893,0,0,1-.25.132,1.346,1.346,0,0,1-.378.113,1.779,1.779,0,0,0-1.288.689,1.368,1.368,0,0,0,.245,2.119l3.356,1.015S809,374,808.642,372.738Z" transform="translate(-412.182 -149.686)"/><path class="t" d="M821.909,492.455l-3.252-1.019a1.391,1.391,0,0,1-.236-2.119,1.714,1.714,0,0,1,1.246-.689,1.492,1.492,0,0,0,.6-.241,1.417,1.417,0,0,0,.472-.472,2.36,2.36,0,0,0,.316-1.255s3.483-1.166,4.484-.17a2.464,2.464,0,0,1,.472.609,5.191,5.191,0,0,1,.533,2.247s.227,1.114.566,2.36S821.909,492.455,821.909,492.455Z" transform="translate(-447.132 -266.251)"/><path class="t" d="M855.039,487.86l-3.252-1.019a1.4,1.4,0,0,1-.241-2.119,1.685,1.685,0,0,1,1.246-.689,1.076,1.076,0,0,0,.363-.113,2.011,2.011,0,0,0,.241-.127,2.046,2.046,0,0,0,.812-1.742s3.478-1.166,4.484-.17a2.478,2.478,0,0,1,.354.444,5.136,5.136,0,0,1,.632,2.416s.222,1.114.562,2.36S855.039,487.86,855.039,487.86Z" transform="translate(-464.625 -263.824)"/><path class="e" d="M828.651,486.47a2.467,2.467,0,0,1,.472.609h0l-5.253.816a2.36,2.36,0,0,0,.316-1.255S827.641,485.474,828.651,486.47Z" transform="translate(-450.211 -266.248)"/><path class="e" d="M861.27,482.283l.038.986c-.769,1.388-4.748,1.241-5.928.609a2.02,2.02,0,0,0,.241-.127,2.045,2.045,0,0,0,.812-1.742s3.479-1.166,4.484-.17a2.478,2.478,0,0,1,.354.444Z" transform="translate(-466.849 -263.808)"/><path class="u" d="M836.778,415.828a8.959,8.959,0,0,0-.576,1.369l.137,3.54c-.84,1.515-5.522,1.2-6.183.42s-1.416-2.865-.708-3.252,1.218-2.2,1.218-2.2-.755.212-2.02-1.18-1.029-4.583-.835-5.357a15.879,15.879,0,0,0-.127-3.3,6.6,6.6,0,0,0-.406-2.36,29.15,29.15,0,0,1-1.27-3.856,2.643,2.643,0,0,0-.694-1.68c-.651-.557-1.142-2.832-1.142-2.832a2.964,2.964,0,0,1-.524-1.888,3.891,3.891,0,0,0-.849-2.3l-1.713-4.786-1.572-3.578-.727,2.138s-.038,4.941.184,5.966.595,3.752.595,3.752a5.52,5.52,0,0,0-.368,3.337,23.321,23.321,0,0,1,.472,4.786s.665,6.759.326,7.306a4.323,4.323,0,0,0-.241,1.888s1.992,3.875,1.416,4.436-.326,2.034-.326,2.034,1.255-.052.736.51-.812,3.4-.812,3.4l-5.4.835a11.469,11.469,0,0,1-1.3-2.237c-.779-1.633.08-1.487.793-1.694s.241-.637-.632-1.142-.425-1.737-.425-1.737,1.218-2.247.76-2.407-.618-3.257-.618-3.257-1.038-3.639-.849-4.635-.85-3.337-.85-3.337l-.42-2.832a7.769,7.769,0,0,1-1.194-5.3l-.165-4.352s-1.581-8.382-1.926-12.635c-.217-2.723-.33-6.447-.382-8.774-.028-1.3-.038-2.166-.038-2.166l19.294-2.775a15.911,15.911,0,0,0,.472,2.865c.236,1.057.6,2.421,1.152,4.125a18.9,18.9,0,0,1,.868,8.59l.061,6.239s1.888,4.106,1.562,5.55a12.077,12.077,0,0,0-.26,2.615s4.163,8.967,3.861,11.62,1.515,6.768,1.515,6.768S837.2,415,836.778,415.828Z" transform="translate(-441.894 -201.723)"/><path class="v" d="M843.47,424.43l5.867-1.01S846.127,426.955,843.47,424.43Z" transform="translate(-460.56 -233.257)"/><path class="e" d="M852.564,411.28s.283,2.077-.944,2.912C851.6,414.192,853.871,413.744,852.564,411.28Z" transform="translate(-464.864 -226.863)"/><path class="e" d="M844.675,397.25s-4.776,4.248-6.579,3.979S844.675,397.25,844.675,397.25Z" transform="translate(-457.588 -219.473)"/><path class="e" d="M823.915,430.2s-3.71,1-3.776,2.5S823.915,430.2,823.915,430.2Z" transform="translate(-448.24 -236.826)"/><path class="v" d="M826.932,469.75s-5.253,1.189-3.724,1.8a25.626,25.626,0,0,0,4.012,1.057S828.928,472.634,826.932,469.75Z" transform="translate(-449.714 -257.654)"/><g class="w" transform="translate(366.216 164.572)"><path d="M820.58,475.08a1.043,1.043,0,0,1-.514-.75l-.052.1s-.444,1.227.43,1.732l.283.175c.156-.038.326-.066.472-.113C821.925,476.015,821.453,475.59,820.58,475.08Z" transform="translate(-814.331 -424.712)"/><path d="M835.462,473.544c.142-.137.123-.472,0-.944a2.53,2.53,0,0,0-.25,1.307A1.067,1.067,0,0,1,835.462,473.544Z" transform="translate(-822.412 -423.799)"/><path d="M831.877,427.4a6.135,6.135,0,0,0-.3,1.666,6.653,6.653,0,0,1,.368-1.152S831.92,427.716,831.877,427.4Z" transform="translate(-820.498 -399.931)"/><path d="M857.59,420.876a2.278,2.278,0,0,0,.033-.5c-.057.34-.09.651-.113.944C857.534,421.145,857.562,421.022,857.59,420.876Z" transform="translate(-834.19 -396.225)"/><path d="M833.107,460.071a3,3,0,0,0,.094-1,3.439,3.439,0,0,0-.212,1.265A1.246,1.246,0,0,1,833.107,460.071Z" transform="translate(-821.242 -416.654)"/><path d="M827.71,479a17.491,17.491,0,0,0-.51,2.78l-5.4.835a11.468,11.468,0,0,1-1.3-2.237c-.071-.146-.123-.274-.17-.392-.316.161-.434.505.033,1.473a11.139,11.139,0,0,0,1.3,2.242l5.395-.84s.3-2.832.812-3.4C828.126,479.194,827.951,479.066,827.71,479Z" transform="translate(-814.41 -427.178)"/><path d="M813.924,413.254s.165,3.091.623,3.252h0c.208-.524.34-1.015.137-1.086-.472-.165-.618-3.257-.618-3.257s-1.038-3.639-.854-4.635-.845-3.337-.845-3.337l-.425-2.832a7.759,7.759,0,0,1-1.189-5.3l-.17-4.347s-1.581-8.382-1.921-12.635c-.222-2.723-.33-6.447-.382-8.774,0-.42,0-.793-.024-1.1H808.1s0,.864.038,2.171c.052,2.322.165,6.046.382,8.769.344,4.248,1.926,12.635,1.926,12.635l.165,4.352a7.769,7.769,0,0,0,1.218,5.338l.42,2.832s1.034,2.36.85,3.337S813.924,413.254,813.924,413.254Z" transform="translate(-808.1 -369.2)"/><path d="M853.831,480.55a5.282,5.282,0,0,1-.944-2.1c-.538.524.175,2.44.8,3.181s5.338,1.1,6.178-.415l-.033-.854C858.674,481.607,854.454,481.291,853.831,480.55Z" transform="translate(-831.649 -426.888)"/><path d="M868.486,471.568a8.407,8.407,0,0,0-.576,1.369l.024.628a9.816,9.816,0,0,1,.415-.916,2.757,2.757,0,0,0,.151-1.119Z" transform="translate(-839.682 -423.234)"/><path d="M852.281,466.353a8.756,8.756,0,0,0,.4-1.086s-.755.212-2.025-1.18c-.92-1.01-1.043-2.978-.944-4.248-.2.769-.434,3.969.831,5.357A3.157,3.157,0,0,0,852.281,466.353Z" transform="translate(-829.99 -417.061)"/><path d="M839.76,425.514a23.829,23.829,0,0,1,.193,2.652,1.684,1.684,0,0,1,.076-.42,15.567,15.567,0,0,0-.127-3.3,6.714,6.714,0,0,0-.406-2.36,30,30,0,0,1-1.274-3.856,2.638,2.638,0,0,0-.694-1.68c-.647-.557-1.138-2.832-1.138-2.832a2.911,2.911,0,0,1-.524-1.888,3.916,3.916,0,0,0-.854-2.3l-1.709-4.786-1.576-3.578-.727,2.1v.684l.59-1.737,1.576,3.578,1.708,4.781a3.916,3.916,0,0,1,.854,2.3,2.93,2.93,0,0,0,.519,1.888s.472,2.27,1.142,2.832a2.629,2.629,0,0,1,.694,1.676,29.416,29.416,0,0,0,1.27,3.861A6.819,6.819,0,0,1,839.76,425.514Z" transform="translate(-820.192 -386.076)"/></g><path class="x" d="M845.74,273.109l-.274,1.647.047.732.038.533-1.864.264-.227-.378h0a16.625,16.625,0,0,0-1.539-2.294c-.359-.278-1.152-4.8-.4-4.564a1.968,1.968,0,0,1,1.081.9S846.3,270.234,845.74,273.109Z" transform="translate(-459.366 -151.954)"/><path class="e" d="M848.071,283.018l-1.864.264-.227-.378h0a1.647,1.647,0,0,1,2.053-.42Z" transform="translate(-461.886 -158.938)"/><path class="y" d="M848.47,284.1l-2.445.67-.066-.368-.179-.982a1.7,1.7,0,0,1,2.36-.42l.142.5Z" transform="translate(-461.78 -159.152)"/><path class="x" d="M759.678,272.618l-2.577,1.515-.26-.472c-.269-.514-.675-1.293-.788-1.572-.175-.43-1.293-.944-1.293-.944-2.86-2.53.34-4.918.34-4.918,1.6-3.563,3.724,1.043,3.724,1.043A11.894,11.894,0,0,1,759,269.9c-.184.175-.161.85-.161.85a9.8,9.8,0,0,1,.694,1.482C759.631,272.485,759.678,272.618,759.678,272.618Z" transform="translate(-413.091 -149.759)"/><path class="e" d="M763.337,280.862l-2.577,1.515-.26-.472c.359-.326,1.638-1.444,2.072-1.416a3.534,3.534,0,0,0,.623,0C763.289,280.73,763.337,280.862,763.337,280.862Z" transform="translate(-416.749 -157.987)"/><path class="y" d="M763.74,281.817l-2.9,1.548-.08-.637-.061-.434s1.661-1.539,2.166-1.5a2.6,2.6,0,0,0,.774-.033l.057.533Z" transform="translate(-416.855 -158.129)"/><path class="x" d="M824.459,290.2s-12.847,1.954-10.468,1.076a3.182,3.182,0,0,0,2.36-2.893,6.779,6.779,0,0,0-.595-2.969,12.665,12.665,0,0,0-1.241-2.284s9.657-5.805,7.872-.8a7.958,7.958,0,0,0-.472,2.36,6.635,6.635,0,0,0,.344,2.36A7.08,7.08,0,0,0,824.459,290.2Z" transform="translate(-444.839 -157.877)"/><path class="e" d="M823.342,282.332a7.952,7.952,0,0,0-.472,2.36c-.9.817-1.921.8-3.228.854-1.005.038-2.11.326-2.931-.132a12.677,12.677,0,0,0-1.241-2.284S825.126,277.324,823.342,282.332Z" transform="translate(-445.775 -157.882)"/><circle class="x" cx="5.338" cy="5.338" r="5.338" transform="translate(368.166 117.326)"/><path class="e" d="M824.459,297.209s-12.847,1.954-10.468,1.076a3.181,3.181,0,0,0,2.36-2.893,7.177,7.177,0,0,1,2.709-1.572,3.875,3.875,0,0,1,2.336-.127,3.3,3.3,0,0,1,.864.363,7.08,7.08,0,0,0,2.2,3.153Z" transform="translate(-444.839 -164.873)"/><path class="e" d="M848.671,284.922l-2.445.67-.066-.368a2.18,2.18,0,0,1,2.36-.9Z" transform="translate(-461.981 -159.97)"/><path class="e" d="M763.808,282.435l-2.9,1.548-.08-.637a21.923,21.923,0,0,1,2.936-1.416Z" transform="translate(-416.924 -158.746)"/><path class="e" d="M827.9,366.555c-4.97.982-12.04,2.284-13.182,1.982a32.98,32.98,0,0,0-6.537.085c-.028-1.3-.038-2.166-.038-2.166l19.285-2.766A15.905,15.905,0,0,0,827.9,366.555Z" transform="translate(-441.905 -201.799)"/><path class="z" d="M807,322.193s-16.349,3.46-18.138,2.988-10.855.472-10.855.472c-3.974,2.893-2.426-1.208-2.426-1.208a9.976,9.976,0,0,1,0-3.818,23.246,23.246,0,0,0,.538-3.847s-.194-2.685.274-3.332.878-5.154.878-5.154.33-3.068.264-3.738.033-2.563.033-2.563l.472-3.157c-3.379-.321-13.843-6.206-13.843-6.206-.576-2.086-4.578-6.872-4.578-6.872a5.058,5.058,0,0,0-.359-1.2c-.3-.708,3.681-2.3,3.681-2.3s3.148,3.563,3.813,4.526a20.339,20.339,0,0,0,2.888,2.714,2.153,2.153,0,0,1,.991.094.21.21,0,0,1,.052,0h0a7.98,7.98,0,0,1,2.053,1.076,3.889,3.889,0,0,1,2.77.944s1.831-.34,2.157-.038,1.888-.071,1.888-.071,1.44-3.379,2.511-2.454,5.442.713,5.442.713a6.408,6.408,0,0,1,2.832-1.732,3.879,3.879,0,0,1,2.336-.127,3.017,3.017,0,0,1,.944.411l2.752,2.5s.727-1.015.628-1.237.883-.434.883-.434,1.284-.472,1.77-.609.944.363,1.005.406a5.191,5.191,0,0,1-.3-1.959,2.242,2.242,0,0,0-.6-1.6c1.416-3.917,5.088-.826,5.088-.826a7.646,7.646,0,0,1,.156,2.917c-.316.821.472,2.5.382,2.945a19.772,19.772,0,0,0,.26,2.058,12.235,12.235,0,0,1-.595,3.209c-.241.732-2.332,2.426-2.332,2.426a9.851,9.851,0,0,1-.944,4.078c-.911,1.515-.109,6.56-.109,6.56s1.052,3.913,2.218,5.126S807,322.193,807,322.193Z" transform="translate(-416.087 -158.879)"/><path class="e" d="M804.6,303.321s-.552-1.458-1.005-1.576a10.6,10.6,0,0,1-1.322-.533l.269-.562s1.7.4,1.987.878A3.882,3.882,0,0,1,804.6,303.321Z" transform="translate(-438.805 -168.604)"/><path class="e" d="M783.31,298.89c-.076.472-4.049,1.01-4.049,1.01l1.94-2.1h.052A7.982,7.982,0,0,1,783.31,298.89Z" transform="translate(-426.655 -167.103)"/><circle class="u" cx="0.359" cy="0.359" r="0.359" transform="translate(344.511 125.701)"/><circle class="u" cx="0.359" cy="0.359" r="0.359" transform="translate(344.997 126.402)"/><circle class="u" cx="0.359" cy="0.359" r="0.359" transform="translate(345.473 127.05)"/><circle class="u" cx="0.359" cy="0.359" r="0.359" transform="translate(345.969 127.751)"/><circle class="u" cx="0.293" cy="0.293" r="0.293" transform="translate(388.3 126.146)"/><circle class="u" cx="0.293" cy="0.293" r="0.293" transform="translate(388.37 126.809)"/><circle class="u" cx="0.293" cy="0.293" r="0.293" transform="translate(388.437 127.467)"/><path class="e" d="M808.24,332.06c-.047-.052,10.553,12.323,18.119,4.644C826.359,336.7,814.021,338.866,808.24,332.06Z" transform="translate(-441.957 -185.14)"/><path class="e" d="M796.47,346.59s6.055-.066,6.759,1.647l.066,1.812a1.147,1.147,0,0,1-1.123.042c-.623-.307-4.352-2.025-5.607-1.081Z" transform="translate(-435.743 -192.795)"/><path class="z" d="M796.71,346.58s5.791-.066,6.461,1.572l.066,1.727a1.109,1.109,0,0,1-1.076.038c-.595-.288-4.163-1.926-5.361-1.029Z" transform="translate(-435.869 -192.79)"/><path class="e" d="M802.4,318.49a19.415,19.415,0,0,0,2.5,3.936,15.773,15.773,0,0,0,3.809,3.4S802.532,319.321,802.4,318.49Z" transform="translate(-438.874 -177.994)"/><path class="e" d="M797.63,303.76s1.18,4.319,3.837,5.7Z" transform="translate(-436.355 -170.238)"/><path class="e" d="M794.318,304.818c-.028-.08-.765,3.478,3.559,5.267C797.877,310.1,796.05,309.543,794.318,304.818Z" transform="translate(-434.572 -170.796)"/><path class="e" d="M850.109,296.472c-.066,0,2.152,1.3,2.761,1.888C852.888,298.384,851.383,296.331,850.109,296.472Z" transform="translate(-464.065 -166.401)"/><path class="t" d="M815.6,277.591a.846.846,0,0,0,.953.8,10.783,10.783,0,0,0,4.8-.642,1.827,1.827,0,0,0,.717-.514,3.013,3.013,0,0,0,.382-1.194,16.773,16.773,0,0,1,.9-2.308,7.637,7.637,0,0,0,.373-4.087,2.794,2.794,0,0,0-.472-1.175c-.472-.6-1.251-.821-1.841-1.289s-.986-1.2-1.666-1.548a3.11,3.11,0,0,0-2.02-.1,10.644,10.644,0,0,0-3.7,1.553,1.86,1.86,0,0,1-1.237.472,1.728,1.728,0,0,1-.944-.67,4.927,4.927,0,0,0-.307,2.336,1.115,1.115,0,0,1,0,.354,1.062,1.062,0,0,1-.236.378,1.358,1.358,0,0,0-.189,1.685c.179.2.472.3.628.5.312.363.231.906.245,1.388a.7.7,0,0,0,.132.472.684.684,0,0,0,.665.132,1.888,1.888,0,0,1,.7-.094,1.189,1.189,0,0,1,.628.448A8.293,8.293,0,0,1,815.6,277.591Z" transform="translate(-443.355 -150.037)"/><g class="o" transform="translate(367.559 116.83)"><path d="M822.266,282.124a1.824,1.824,0,0,1-.713.514,10.8,10.8,0,0,1-4.809.637,1.086,1.086,0,0,1-.5-.094,1.11,1.11,0,0,1-.444-.7,8.364,8.364,0,0,0-1.482-3.106,1.156,1.156,0,0,0-.628-.444,1.789,1.789,0,0,0-.7.094.7.7,0,0,1-.665-.132.727.727,0,0,1-.137-.472,2.064,2.064,0,0,0-.245-1.388c-.175-.2-.444-.3-.628-.505a1.048,1.048,0,0,1-.142-1.067,1.232,1.232,0,0,0,0,1.416c.184.2.472.3.628.5.316.363.236.906.245,1.388a.726.726,0,0,0,.137.472.68.68,0,0,0,.666.132,1.888,1.888,0,0,1,.7-.094,1.189,1.189,0,0,1,.628.448,8.31,8.31,0,0,1,1.482,3.1,1.133,1.133,0,0,0,.444.708,1.146,1.146,0,0,0,.505.094,10.849,10.849,0,0,0,4.809-.642,1.779,1.779,0,0,0,.713-.514,1.413,1.413,0,0,0,.217-.439Z" transform="translate(-810.946 -272.17)"/><path d="M812.252,271.091a.732.732,0,0,0,.151-.278.944.944,0,0,0,0-.349,4.99,4.99,0,0,1,.175-1.94l-.028-.033a4.933,4.933,0,0,0-.311,2.336A1.24,1.24,0,0,1,812.252,271.091Z" transform="translate(-811.612 -268.49)"/></g><path class="e" d="M819.12,297.7s6.7.628,7.259-.4" transform="translate(-447.703 -166.841)"/><path class="e" d="M846.35,291.245s3.7-.142,4.573,1.218" transform="translate(-462.081 -163.65)"/><rect class="h" width="34.926" height="36.209" transform="matrix(1, 0.002, -0.002, 1, 391.167, 292.967)"/><rect class="h" width="34.926" height="36.209" transform="matrix(1, 0.002, -0.002, 1, 391.167, 292.967)"/><path class="aa" d="M893.591,696.726v-6.447l2.969,2.978.746-.769-4.248-4.248-4.248,4.248.741.741,2.978-2.94v6.452Z" transform="translate(-484.501 -372.7)"/><path class="g" d="M885.544,653.466h5.791V647.68h-.415a5.385,5.385,0,0,0-5.39,5.385C885.53,653.193,885.535,653.339,885.544,653.466Z" transform="translate(-482.769 -351.348)"/><path class="g" d="M888.491,658.216a5.39,5.39,0,1,0,4.616-8.746v5.772H887.32A5.371,5.371,0,0,0,888.491,658.216Z" transform="translate(-483.714 -352.278)"/><path class="r" d="M221.923,105.412c-3.044,6.287-8.023,13.446-13.654,10.709s-9.836-14.329-6.792-20.616,10.091-9.17,15.754-6.433S224.972,99.121,221.923,105.412Z" transform="translate(-121.028 -56.683)"/><path class="ab" d="M219.543,151.359s-1.1-.179-.68-1.09a1.5,1.5,0,0,1,.132-.231,2.591,2.591,0,0,0,.359-.845,2.731,2.731,0,0,0,.061-.321,4.3,4.3,0,0,0-.052-1.463l3-.2s-1.166,1-1.029,1.51a.321.321,0,0,0,.137.184.657.657,0,0,0,.2.085,1.894,1.894,0,0,1,.227.066c.788.274.472.675.472.675C222.247,151,219.543,151.359,219.543,151.359Z" transform="translate(-130.697 -87.928)"/><path class="b" d="M222.124,150.564l-2.114.288a2.735,2.735,0,0,0,.061-.321c.533,0,1.378-.1,1.916-.151a.321.321,0,0,0,.137.184Z" transform="translate(-131.353 -89.602)"/><path class="ab" d="M219.543,153.423s-1.1-.179-.68-1.09a3.3,3.3,0,0,0,1.3.052,2.884,2.884,0,0,0,1.732-1.265c.788.274.472.675.472.675C222.247,153.069,219.543,153.423,219.543,153.423Z" transform="translate(-130.697 -89.992)"/><path class="e" d="M219.543,153.423s-1.1-.179-.68-1.09a3.3,3.3,0,0,0,1.3.052,2.884,2.884,0,0,0,1.732-1.265c.788.274.472.675.472.675C222.247,153.069,219.543,153.423,219.543,153.423Z" transform="translate(-130.697 -89.992)"/><path class="ac" d="M218.99,91.569s-3.351-.4-4.3,1.827a2.775,2.775,0,0,1,1.2.071,1.708,1.708,0,0,0,.783.151A4.493,4.493,0,0,1,218.99,91.569Z" transform="translate(-128.544 -58.532)"/><path class="r" d="M180.3,166.485a8.637,8.637,0,0,1-1.888,1.567c-.194.123-.4.245-.6.359-5.338,2.936-14.773,2.988-19.195-.911a12.643,12.643,0,0,1-3.95-13.555c.08-.217.165-.429.26-.647a10.284,10.284,0,0,1,1.713-2.686c3.356-3.8,8.967-4.578,13.777-2.284a12.183,12.183,0,0,1,1.241.675c.194.113.387.241.576.368a13.871,13.871,0,0,1,1.416,1.09c.245.217.472.439.741.665l.061.057a36.891,36.891,0,0,1,4.186,4.455c.387.5.755,1,1.081,1.506a11.012,11.012,0,0,1,.651,1.057,9.3,9.3,0,0,1,1.388,4.72,2.362,2.362,0,0,1-.033.472v.071a5.234,5.234,0,0,1-.519,1.732A6.1,6.1,0,0,1,180.3,166.485Z" transform="translate(-96.506 -87.838)"/><path class="ad" d="M180.3,166.485a8.637,8.637,0,0,1-1.888,1.567c-.194.123-.4.245-.6.359-5.338,2.936-14.773,2.988-19.195-.911a12.643,12.643,0,0,1-3.95-13.555c.08-.217.165-.429.26-.647a10.284,10.284,0,0,1,1.713-2.686c3.356-3.8,8.967-4.578,13.777-2.284a12.183,12.183,0,0,1,1.241.675c.194.113.387.241.576.368a13.871,13.871,0,0,1,1.416,1.09c.245.217.472.439.741.665l.061.057a36.891,36.891,0,0,1,4.186,4.455c.387.5.755,1,1.081,1.506a11.012,11.012,0,0,1,.651,1.057,9.3,9.3,0,0,1,1.388,4.72,2.362,2.362,0,0,1-.033.472v.071a5.234,5.234,0,0,1-.519,1.732A6.1,6.1,0,0,1,180.3,166.485Z" transform="translate(-96.506 -87.838)"/><path class="ab" d="M213.2,183.316a1.419,1.419,0,0,1-.189-.189,2.572,2.572,0,0,0-.717-.571,2.479,2.479,0,0,0-.3-.146,3.9,3.9,0,0,0-.944-.283,3.385,3.385,0,0,0-.472-.057l.425-2.029v-.028l.184-.883a5.658,5.658,0,0,0,.425.741c.217.33.472.651.755.656a.345.345,0,0,0,.208-.085.58.58,0,0,0,.137-.17c.047-.076.085-.142.127-.2.472-.68.769-.25.769-.25a1.657,1.657,0,0,1,.84,1.477,1.442,1.442,0,0,0,.028.283,7.447,7.447,0,0,1-.047,1.373S213.964,183.963,213.2,183.316Z" transform="translate(-126.374 -104.783)"/><path class="b" d="M213.877,184.014a2.479,2.479,0,0,0-.3-.146c.1-.439.231-1.1.321-1.619a.182.182,0,0,1,.024-.109c.024-.038,0-.109.028-.156a.345.345,0,0,0,.208-.085l-.042.321v.127Z" transform="translate(-127.958 -106.245)"/><path class="ab" d="M215.729,183.938a3.43,3.43,0,0,0,.4-1.241,2.647,2.647,0,0,0-.09-.779c-.024-.08-.042-.151-.071-.227a2.327,2.327,0,0,0-.595-1c.472-.68.769-.25.769-.25a1.657,1.657,0,0,1,.84,1.477,1.441,1.441,0,0,0,.028.283,7.449,7.449,0,0,1-.047,1.373S216.493,184.584,215.729,183.938Z" transform="translate(-128.903 -105.404)"/><path class="e" d="M215.729,183.938a3.43,3.43,0,0,0,.4-1.241,2.647,2.647,0,0,0-.09-.779c-.024-.08-.042-.151-.071-.227a2.327,2.327,0,0,0-.595-1c.472-.68.769-.25.769-.25a1.657,1.657,0,0,1,.84,1.477,1.441,1.441,0,0,0,.028.283,7.449,7.449,0,0,1-.047,1.373S216.493,184.584,215.729,183.938Z" transform="translate(-128.903 -105.404)"/><path class="ac" d="M157.154,166.71s-1.284,3.12.609,4.635a2.7,2.7,0,0,1,.392-1.142,1.68,1.68,0,0,0,.354-.717,4.474,4.474,0,0,1-1.355-2.775Z" transform="translate(-97.938 -98.224)"/><path class="r" d="M238.421,123.026a34.577,34.577,0,0,1-8.283,4.064,10.143,10.143,0,0,1-5.928.312,5.357,5.357,0,0,1-2.011-1.156,5.984,5.984,0,0,1-1.015-1.208c-2-3.12-1.959-8.6-.378-13.357,1.1-3.3,2.936-6.23,5.347-7.773,5.881-3.776,13.394-2.553,16.783,2.728S244.3,119.255,238.421,123.026Z" transform="translate(-131.163 -63.904)"/><path class="ad" d="M238.421,123.026a34.577,34.577,0,0,1-8.283,4.064,10.143,10.143,0,0,1-5.928.312,5.357,5.357,0,0,1-2.011-1.156,5.984,5.984,0,0,1-1.015-1.208c-2-3.12-1.959-8.6-.378-13.357,1.1-3.3,2.936-6.23,5.347-7.773,5.881-3.776,13.394-2.553,16.783,2.728S244.3,119.255,238.421,123.026Z" transform="translate(-131.163 -63.904)"/><path class="ab" d="M224.218,156.285c-.755,1.052-3.238-.071-3.238-.071s-.845-.732,0-1.284a1.83,1.83,0,0,1,.236-.127,2.8,2.8,0,0,0,.75-.533c.076-.08.151-.16.217-.245a4.219,4.219,0,0,0,.533-.831,3.364,3.364,0,0,0,.184-.444l2.662,1.416a6.038,6.038,0,0,0-.835.2c-.382.123-.76.307-.831.547a.3.3,0,0,0,0,.227.562.562,0,0,0,.127.175,2.327,2.327,0,0,1,.156.175C224.713,156.12,224.218,156.285,224.218,156.285Z" transform="translate(-131.667 -90.853)"/><path class="b" d="M225.409,156.566l-1.949-.84c.076-.08.151-.16.217-.245.472.26,1.227.637,1.713.873A.3.3,0,0,0,225.409,156.566Z" transform="translate(-133.175 -92.295)"/><path class="ab" d="M224.218,158.725c-.755,1.053-3.238-.071-3.238-.071s-.845-.732,0-1.284a3.422,3.422,0,0,0,1.086.722,2.856,2.856,0,0,0,2.133-.179C224.713,158.559,224.218,158.725,224.218,158.725Z" transform="translate(-131.667 -93.293)"/><path class="e" d="M224.218,158.725c-.755,1.053-3.238-.071-3.238-.071s-.845-.732,0-1.284a3.422,3.422,0,0,0,1.086.722,2.856,2.856,0,0,0,2.133-.179C224.713,158.559,224.218,158.725,224.218,158.725Z" transform="translate(-131.667 -93.293)"/><path class="ac" d="M252.721,105.686s-2.648-2.1-4.621-.689a2.719,2.719,0,0,1,.986.689,1.713,1.713,0,0,0,.595.538A4.479,4.479,0,0,1,252.721,105.686Z" transform="translate(-146.186 -65.381)"/><g class="o" transform="translate(52.676 53.501)"><path d="M145.192,138.453a2.653,2.653,0,0,0-.387,1.137c-1.888-1.506-.609-4.63-.609-4.63a4.507,4.507,0,0,0,1.35,2.78A1.681,1.681,0,0,1,145.192,138.453Z" transform="translate(-143.773 -134.96)"/><path d="M197.61,150.316l.614-2.936a6.14,6.14,0,0,0,.425.736,5.3,5.3,0,0,1-.566,2.256A4.419,4.419,0,0,0,197.61,150.316Z" transform="translate(-172.201 -141.518)"/><path d="M175.165,151.184c-.08.1-.17.212-.26.316a8.666,8.666,0,0,1-1.888,1.567c-.189.127-.392.245-.6.359-4.578,2.52-12.167,2.917-17.029.519a10.384,10.384,0,0,1,1.973-3.332c3.356-3.8,8.967-4.578,13.777-2.284a13.89,13.89,0,0,1,3.224,2.133C174.627,150.7,174.9,150.934,175.165,151.184Z" transform="translate(-149.907 -141.339)"/><path d="M200.239,151.562a1.192,1.192,0,0,1-.189-.189,2.733,2.733,0,0,0-.717-.571c-.094-.052-.2-.1-.3-.146a4.084,4.084,0,0,0-.944-.283,4.419,4.419,0,0,0-.472-.057l.614-2.936a6.142,6.142,0,0,0,.425.736c.217.33.5.651.755.656a.321.321,0,0,0,.208-.085.524.524,0,0,0,.137-.17l.123-.2c.472-.68.774-.255.774-.255,1.213.439.821,3.134.821,3.134S201,152.213,200.239,151.562Z" transform="translate(-172.206 -141.518)"/><path d="M200.917,152.259c-.094-.052-.2-.1-.3-.146.123-.519.274-1.355.373-1.888a.321.321,0,0,0,.208-.085Z" transform="translate(-173.79 -142.976)"/><path d="M202.763,152.181a3.436,3.436,0,0,0,.4-1.237,2.884,2.884,0,0,0-.76-2.006c.472-.68.774-.255.774-.255,1.213.439.821,3.134.821,3.134S203.523,152.832,202.763,152.181Z" transform="translate(-174.73 -142.137)"/><path class="e" d="M202.763,152.181a3.436,3.436,0,0,0,.4-1.237,2.884,2.884,0,0,0-.76-2.006c.472-.68.774-.255.774-.255,1.213.439.821,3.134.821,3.134S203.523,152.832,202.763,152.181Z" transform="translate(-174.73 -142.137)"/><path class="e" d="M144.845,139.59c-1.888-1.506-.609-4.63-.609-4.63a4.507,4.507,0,0,0,1.35,2.78,1.68,1.68,0,0,1-.354.713A2.653,2.653,0,0,0,144.845,139.59Z" transform="translate(-143.794 -134.96)"/></g><path class="r" d="M168.159,133.528l-.189.208a8.659,8.659,0,0,1-1.7,1.359l-.179.113c-.137.085-.278.165-.42.245-4.621,2.539-12.3,2.922-17.156.472a9.594,9.594,0,0,1-2.039-1.359c-5.244-4.621-6.136-12.181-1.982-16.892,3.36-3.8,8.967-4.578,13.781-2.28.151.071.3.142.448.222A14.042,14.042,0,0,1,161.5,117.5a38.929,38.929,0,0,1,4.989,5.192c.307.392.6.788.868,1.185.076.1.142.217.212.321.132.194.255.392.373.59s.184.316.274.472a9.246,9.246,0,0,1,1.392,4.72,5.3,5.3,0,0,1-.566,2.256A5.9,5.9,0,0,1,168.159,133.528Z" transform="translate(-90.098 -70.446)"/><path class="ab" d="M201.069,150.322a1.189,1.189,0,0,1-.189-.189,2.64,2.64,0,0,0-.717-.571,2.481,2.481,0,0,0-.3-.146,4.083,4.083,0,0,0-.944-.283,4.422,4.422,0,0,0-.472-.057l.614-2.936a6.131,6.131,0,0,0,.425.736c.217.33.5.651.755.656a.344.344,0,0,0,.208-.085.58.58,0,0,0,.137-.17c.042-.076.085-.142.123-.2.472-.684.774-.255.774-.255,1.213.439.821,3.134.821,3.134S201.825,150.978,201.069,150.322Z" transform="translate(-119.969 -87.363)"/><path class="b" d="M201.737,151.029a2.477,2.477,0,0,0-.3-.146c.123-.519.274-1.355.373-1.888a.344.344,0,0,0,.208-.085Z" transform="translate(-121.547 -88.826)"/><path class="ab" d="M203.593,150.938a3.436,3.436,0,0,0,.4-1.237,2.884,2.884,0,0,0-.76-2.006c.472-.684.774-.255.774-.255,1.213.439.821,3.134.821,3.134S204.349,151.594,203.593,150.938Z" transform="translate(-122.493 -87.98)"/><path class="e" d="M203.593,150.938a3.436,3.436,0,0,0,.4-1.237,2.884,2.884,0,0,0-.76-2.006c.472-.684.774-.255.774-.255,1.213.439.821,3.134.821,3.134S204.349,151.594,203.593,150.938Z" transform="translate(-122.493 -87.98)"/><path class="ac" d="M145.012,133.73s-1.288,3.12.609,4.635a2.738,2.738,0,0,1,.387-1.142,1.736,1.736,0,0,0,.359-.717A4.474,4.474,0,0,1,145.012,133.73Z" transform="translate(-91.526 -80.81)"/><g class="o" transform="translate(68.178 29.185)"><path d="M184.219,86.121a1.652,1.652,0,0,1-.793.113,2.718,2.718,0,0,0-1.156.321c.175-2.416,3.483-3.115,3.483-3.115A4.5,4.5,0,0,0,184.219,86.121Z" transform="translate(-179.603 -83.44)"/><path d="M185.913,125.612c.231.349.448.7.647,1.062a10.792,10.792,0,0,1-1.312-.566,20.991,20.991,0,0,1-8.628-9.307,13.866,13.866,0,0,1,3.224,2.129,38.928,38.928,0,0,1,4.989,5.192A18.11,18.11,0,0,1,185.913,125.612Z" transform="translate(-176.62 -101.055)"/><path d="M206.522,135.989a5.4,5.4,0,0,1-2.181.812,3.434,3.434,0,0,0-.222-.425l2.775-1.156A5.988,5.988,0,0,0,206.522,135.989Z" transform="translate(-191.141 -110.782)"/><path d="M205.569,140.048s-1.1.184-1-.807a1.447,1.447,0,0,1,.052-.264,2.756,2.756,0,0,0,.066-.916,2.457,2.457,0,0,0-.047-.326,3.857,3.857,0,0,0-.3-.944,3.435,3.435,0,0,0-.222-.425l2.775-1.156a5.984,5.984,0,0,0-.373.769c-.151.373-.255.779-.113,1a.34.34,0,0,0,.189.123.58.58,0,0,0,.212,0h.236c.835,0,.647.472.647.472C208.018,138.854,205.569,140.048,205.569,140.048Z" transform="translate(-191.141 -110.776)"/><path d="M207.205,139.067l-1.888.944a2.456,2.456,0,0,0-.047-.326c.5-.193,1.274-.538,1.765-.755A.34.34,0,0,0,207.205,139.067Z" transform="translate(-191.748 -112.741)"/><path d="M206.068,142.176s-1.1.184-1-.807a3.511,3.511,0,0,0,1.246-.373,2.874,2.874,0,0,0,1.227-1.756c.835,0,.647.472.647.472C208.518,140.982,206.068,142.176,206.068,142.176Z" transform="translate(-191.64 -112.904)"/><path class="e" d="M206.068,142.176s-1.1.184-1-.807a3.511,3.511,0,0,0,1.246-.373,2.874,2.874,0,0,0,1.227-1.756c.835,0,.647.472.647.472C208.518,140.982,206.068,142.176,206.068,142.176Z" transform="translate(-191.64 -112.904)"/><path class="e" d="M184.219,86.121a1.652,1.652,0,0,1-.793.113,2.718,2.718,0,0,0-1.156.321c.175-2.416,3.483-3.115,3.483-3.115A4.5,4.5,0,0,0,184.219,86.121Z" transform="translate(-179.603 -83.44)"/></g><path class="r" d="M190.711,105.22a5.385,5.385,0,0,1-2.18.831,5.867,5.867,0,0,1-1.576,0,8.189,8.189,0,0,1-2.152-.585c-.283-.113-.562-.241-.84-.382l-.057-.028a20.9,20.9,0,0,1-8.321-8.769,13.451,13.451,0,0,1-1.709-7.551c.859-6.933,6.608-11.931,12.828-11.162s10.582,7.013,9.723,13.947a38.87,38.87,0,0,1-1.463,7.046c-.061.2-.127.4-.2.6C193.85,101.8,192.547,104.041,190.711,105.22Z" transform="translate(-106.958 -51.116)"/><path class="ad" d="M190.711,105.22a5.385,5.385,0,0,1-2.18.831,5.867,5.867,0,0,1-1.576,0,8.189,8.189,0,0,1-2.152-.585c-.283-.113-.562-.241-.84-.382l-.057-.028a20.9,20.9,0,0,1-8.321-8.769,13.451,13.451,0,0,1-1.709-7.551c.859-6.933,6.608-11.931,12.828-11.162s10.582,7.013,9.723,13.947a38.87,38.87,0,0,1-1.463,7.046c-.061.2-.127.4-.2.6C193.85,101.8,192.547,104.041,190.711,105.22Z" transform="translate(-106.958 -51.116)"/><path class="ab" d="M205.979,139.432s-1.1.184-1-.812a1.533,1.533,0,0,1,.052-.264,2.727,2.727,0,0,0,.066-.911,2.532,2.532,0,0,0-.047-.33,3.929,3.929,0,0,0-.3-.944,3.437,3.437,0,0,0-.222-.425l2.775-1.156a6.255,6.255,0,0,0-.373.774c-.151.368-.255.779-.113.991a.344.344,0,0,0,.189.127.593.593,0,0,0,.212,0h.236c.835,0,.647.472.647.472C208.428,138.238,205.979,139.432,205.979,139.432Z" transform="translate(-123.179 -81.264)"/><path class="b" d="M207.615,138.452l-1.888.944a2.527,2.527,0,0,0-.047-.33c.5-.193,1.274-.538,1.765-.755a.345.345,0,0,0,.17.142Z" transform="translate(-123.786 -83.228)"/><path class="ab" d="M206.478,141.56s-1.1.184-1-.812a3.3,3.3,0,0,0,1.246-.373,2.86,2.86,0,0,0,1.227-1.756c.835,0,.647.472.647.472C208.928,140.366,206.478,141.56,206.478,141.56Z" transform="translate(-123.678 -83.392)"/><path class="e" d="M206.478,141.56s-1.1.184-1-.812a3.3,3.3,0,0,0,1.246-.373,2.86,2.86,0,0,0,1.227-1.756c.835,0,.647.472.647.472C208.928,140.366,206.478,141.56,206.478,141.56Z" transform="translate(-123.678 -83.392)"/><path class="ac" d="M186.158,82.82s-3.3.7-3.478,3.12a2.652,2.652,0,0,1,1.161-.321,1.718,1.718,0,0,0,.788-.113,4.517,4.517,0,0,1,1.529-2.686Z" transform="translate(-111.642 -53.928)"/><path class="r" d="M255.038,174.055c-4.1,4.748-11.714,4.894-16.991.326a32.2,32.2,0,0,1-6.792-7.669,9.256,9.256,0,0,1-1.416-4.72,5.385,5.385,0,0,1,.533-2.261,6.183,6.183,0,0,1,.873-1.317,10.818,10.818,0,0,1,4.2-2.77c5.437-2.157,13.47-1.926,17.463,1.539C258.177,161.755,259.14,169.307,255.038,174.055Z" transform="translate(-136.544 -91.646)"/><path class="ab" d="M226.952,167.325a5.723,5.723,0,0,0-.43-.741c-.227-.33-.505-.647-.76-.647a.3.3,0,0,0-.212.085.764.764,0,0,0-.137.17,1.916,1.916,0,0,1-.123.2c-.472.689-.769.264-.769.264-1.218-.429-.85-3.129-.85-3.129s.472-1.019,1.227-.378a1.444,1.444,0,0,1,.194.189,2.639,2.639,0,0,0,.722.566,2.874,2.874,0,0,0,.3.142,4.29,4.29,0,0,0,.944.274,3.883,3.883,0,0,0,.472.052Z" transform="translate(-133.259 -96.234)"/><path class="b" d="M227.922,167.019a.3.3,0,0,0-.212.085l.264-2.114a2.883,2.883,0,0,0,.3.142C228.154,165.655,228.012,166.491,227.922,167.019Z" transform="translate(-135.419 -97.316)"/><path class="ab" d="M225.29,166.4c-.472.689-.769.264-.769.264-1.218-.429-.85-3.129-.85-3.129s.472-1.019,1.227-.378a3.346,3.346,0,0,0-.378,1.241A2.87,2.87,0,0,0,225.29,166.4Z" transform="translate(-133.259 -96.234)"/><path class="e" d="M225.29,166.4c-.472.689-.769.264-.769.264-1.218-.429-.85-3.129-.85-3.129s.472-1.019,1.227-.378a3.346,3.346,0,0,0-.378,1.241A2.87,2.87,0,0,0,225.29,166.4Z" transform="translate(-133.259 -96.234)"/><path class="ac" d="M283.453,178.92s1.255-3.139-.651-4.63a2.728,2.728,0,0,1-.382,1.147,1.7,1.7,0,0,0-.349.717,4.474,4.474,0,0,1,1.383,2.766Z" transform="translate(-164.123 -102.227)"/><path class="e" d="M227.978,168.268a9.255,9.255,0,0,1-1.416-4.72c-.227-.33-.505-.647-.76-.647a.3.3,0,0,0-.212.085.766.766,0,0,0-.137.17,1.911,1.911,0,0,1-.123.2c-.472.689-.769.264-.769.264-1.218-.43-.85-3.129-.85-3.129s.472-1.019,1.227-.378a1.441,1.441,0,0,1,.194.189,2.638,2.638,0,0,0,.722.566,2.875,2.875,0,0,0,.3.142,4.29,4.29,0,0,0,.944.274,6.184,6.184,0,0,1,.873-1.317,10.818,10.818,0,0,1,4.2-2.77C231.508,161.386,230.277,165.79,227.978,168.268Z" transform="translate(-133.28 -93.203)"/><path class="e" d="M204.276,151.776a7.421,7.421,0,0,1-1.015-.227c-.3-.085-.6-.189-.9-.307l-.193-.08c-.25-.109-.51-.231-.76-.359s-.382-.2-.576-.311a21.4,21.4,0,0,1-8.637-10.464,13.828,13.828,0,0,1-.845-3.6,9.663,9.663,0,0,1,.028-1.959,13.847,13.847,0,0,1,1.77-5.286c.1-.17.2-.335.311-.5a11.293,11.293,0,0,1,10.548-5.4c-.916,2.648-2.218,4.9-4.054,6.084-.151.368-.255.779-.113.991a.345.345,0,0,0,.189.127.6.6,0,0,0,.212,0h.236c.835,0,.647.472.647.472.326,1.251-2.124,2.445-2.124,2.445s-1.1.184-1-.812a1.53,1.53,0,0,1,.052-.264,2.728,2.728,0,0,0,.066-.911,2.533,2.533,0,0,0-.047-.33,3.926,3.926,0,0,0-.3-.944,5.866,5.866,0,0,1-1.576,0,8.189,8.189,0,0,1-2.152-.585c.1.156.184.316.274.472a9.246,9.246,0,0,1,1.392,4.72c.217.33.5.651.755.656a.345.345,0,0,0,.208-.085.581.581,0,0,0,.137-.17c.042-.076.085-.142.123-.2.472-.684.774-.255.774-.255,1.213.439.821,3.134.821,3.134s-.472,1.015-1.232.363a1.191,1.191,0,0,1-.189-.189,2.638,2.638,0,0,0-.717-.571,2.476,2.476,0,0,0-.3-.146,4.083,4.083,0,0,0-.944-.283,5.9,5.9,0,0,1-.883,1.307l-.189.208.061.057a36.893,36.893,0,0,1,4.186,4.455c.387.5.755,1,1.081,1.506a11.015,11.015,0,0,1,.651,1.057,9.3,9.3,0,0,1,1.388,4.72c.217.33.472.651.755.656a.344.344,0,0,0,.208-.085.58.58,0,0,0,.137-.17c.047-.076.085-.142.127-.2.472-.68.769-.25.769-.25A1.768,1.768,0,0,1,204.276,151.776Z" transform="translate(-116.2 -75.267)"/><g class="o" transform="translate(80.747 47.776)"><path class="r" d="M205.2,130.691a1.7,1.7,0,0,1-.793.109,2.751,2.751,0,0,0-1.161.321c.179-2.412,3.483-3.11,3.483-3.11A4.479,4.479,0,0,0,205.2,130.691Z" transform="translate(-203.25 -125.565)"/><path class="r" d="M230.335,136.753c-.057.472-.127.986-.2,1.487a10.143,10.143,0,0,1-5.928.311c-.382.123-.76.307-.831.548a.3.3,0,0,0,0,.227.561.561,0,0,0,.127.175,2.335,2.335,0,0,1,.156.175c.529.647.033.812.033.812-.755,1.053-3.238-.071-3.238-.071s-.845-.732,0-1.284a1.827,1.827,0,0,1,.236-.127,2.8,2.8,0,0,0,.75-.533c.076-.08.151-.16.217-.245a4.22,4.22,0,0,0,.533-.831,5.984,5.984,0,0,1-1.015-1.208c-2-3.12-1.959-8.6-.378-13.357C226.928,123.7,231.185,129.891,230.335,136.753Z" transform="translate(-211.905 -122.83)"/><path class="r" d="M227.508,180.555a5.371,5.371,0,0,1-2.176.812,3.433,3.433,0,0,0-.222-.425l2.775-1.152a6.143,6.143,0,0,0-.378.765Z" transform="translate(-214.793 -152.907)"/><path class="r" d="M226.559,184.588s-1.1.184-1-.812a1.494,1.494,0,0,1,.047-.264,2.61,2.61,0,0,0,.066-.911,2.533,2.533,0,0,0-.042-.33,4.25,4.25,0,0,0-.3-.944,3.436,3.436,0,0,0-.222-.425l2.775-1.152a6.142,6.142,0,0,0-.378.765c-.146.373-.25.783-.109,1a.3.3,0,0,0,.184.127.533.533,0,0,0,.217,0h.236c.835,0,.647.472.647.472C229,183.408,226.559,184.588,226.559,184.588Z" transform="translate(-214.793 -152.886)"/><path class="r" d="M228.19,183.637l-1.888.944a1.3,1.3,0,0,0-.042-.326c.5-.194,1.274-.538,1.765-.755A.3.3,0,0,0,228.19,183.637Z" transform="translate(-215.4 -154.866)"/><path class="r" d="M227.048,186.71s-1.1.184-1-.812a3.276,3.276,0,0,0,1.246-.373,2.87,2.87,0,0,0,1.232-1.756c.835,0,.647.472.647.472C229.5,185.53,227.048,186.71,227.048,186.71Z" transform="translate(-215.287 -155.008)"/><path class="a" d="M227.048,186.71s-1.1.184-1-.812a3.276,3.276,0,0,0,1.246-.373,2.87,2.87,0,0,0,1.232-1.756c.835,0,.647.472.647.472C229.5,185.53,227.048,186.71,227.048,186.71Z" transform="translate(-215.287 -155.008)"/><path class="a" d="M205.2,130.691a1.7,1.7,0,0,1-.793.109,2.751,2.751,0,0,0-1.161.321c.179-2.412,3.483-3.11,3.483-3.11A4.479,4.479,0,0,0,205.2,130.691Z" transform="translate(-203.25 -125.565)"/></g><path class="r" d="M215.568,137.48c-.854,6.933-3.242,15.311-9.472,14.555s-13.932-10.383-13.078-17.331,6.608-11.931,12.828-11.162S216.427,130.542,215.568,137.48Z" transform="translate(-117.065 -75.389)"/><path class="ab" d="M225.119,185.443s-1.1.184-1-.812a2.264,2.264,0,0,1,.047-.264,2.614,2.614,0,0,0,.071-.911,1.8,1.8,0,0,0-.047-.326,4.285,4.285,0,0,0-.524-1.369l2.775-1.152s-.783,1.317-.472,1.76a.311.311,0,0,0,.189.127.5.5,0,0,0,.212,0h.236c.835,0,.647.472.647.472C227.568,184.249,225.119,185.443,225.119,185.443Z" transform="translate(-133.286 -105.564)"/><path class="b" d="M226.755,184.452l-1.888.944a1.805,1.805,0,0,0-.047-.326c.5-.2,1.274-.538,1.765-.76a.311.311,0,0,0,.17.142Z" transform="translate(-133.893 -107.518)"/><path class="ab" d="M225.617,187.56s-1.1.184-1-.812a3.4,3.4,0,0,0,1.246-.368,2.884,2.884,0,0,0,1.227-1.76c.835,0,.647.472.647.472C228.067,186.366,225.617,187.56,225.617,187.56Z" transform="translate(-133.784 -107.682)"/><path class="e" d="M225.617,187.56s-1.1.184-1-.812a3.4,3.4,0,0,0,1.246-.368,2.884,2.884,0,0,0,1.227-1.76c.835,0,.647.472.647.472C228.067,186.366,225.617,187.56,225.617,187.56Z" transform="translate(-133.784 -107.682)"/><path class="ac" d="M205.293,128.83s-3.3.7-3.483,3.115a2.686,2.686,0,0,1,1.166-.321,1.643,1.643,0,0,0,.788-.113,4.465,4.465,0,0,1,1.529-2.681Z" transform="translate(-121.743 -78.223)"/><path class="c" d="M218.9,185.93a2.015,2.015,0,0,0-1.789,2.478c.415,1.388,2.124,1.831,3.238,2.761a5.676,5.676,0,0,1,1.784,3.865,9.468,9.468,0,0,1-2.723,7.49c-1,.991-2.209,1.746-3.2,2.747a16.344,16.344,0,0,0-2.756,4.21,9.8,9.8,0,0,0-1.222,3.535,8.355,8.355,0,0,0,2.029,5.489,37.538,37.538,0,0,1,3.549,4.8,10.081,10.081,0,0,1,.576,7.91.944.944,0,0,1-.335.533.373.373,0,0,1-.543-.118" transform="translate(-127.235 -108.166)"/><path class="c" d="M213.816,185.19a.944.944,0,0,0-.038,1.2,1.487,1.487,0,0,0,1.152.533c.533,0,1.128-.165,1.567.142a1.373,1.373,0,0,1,.472,1.029,5.258,5.258,0,0,0,.118,1.156,2.242,2.242,0,0,0,.51.826,2.553,2.553,0,0,0,.944.689c.783.307,1.7.033,2.5.288A3.5,3.5,0,0,1,223,193.605a7.339,7.339,0,0,1,.231,3.955,13.652,13.652,0,0,1-1.071,2.421,5.47,5.47,0,0,0-.7,2.534,2.322,2.322,0,0,0,1.331,2.119" transform="translate(-127.958 -107.792)"/><path class="ae" d="M300.007,285.23l-.887.533,1.2,4.342s.4.227.968.6a13.558,13.558,0,0,1,3.582,3.176c1.355,1.954,7.382,7.438,6.608,5.154s-1.114-1.855-1.114-1.855,1.322-3.45-1.935-5c-2.473-1.18-6.06-4.578-7.641-6.136C300.319,285.542,300.007,285.23,300.007,285.23Z" transform="translate(-173.126 -160.473)"/><path class="af" d="M317.759,307.308a7.754,7.754,0,0,1,1.355,1.742,2.6,2.6,0,0,1,.189,2.138c-.16.382-.434.708-.6,1.086-.788,1.822,1.26,3.813.873,5.763-.236,1.2-1.321,2.015-2.256,2.832s-1.855,1.888-1.6,3.106a6.613,6.613,0,0,0,.755,1.572,1.7,1.7,0,0,1,.094,1.666c-.547.845-2.152.7-2.36,1.685-.208.878,1,1.779.519,2.534a1.1,1.1,0,0,1-1.189.33,8.733,8.733,0,0,0-1.27-.345,1.562,1.562,0,0,0-1.477,2.317c.25.448.732.831.675,1.336a1.053,1.053,0,0,1-.581.746,2.195,2.195,0,0,1-2.912-.868,4.917,4.917,0,0,1-.231-2.558,3.108,3.108,0,0,0-.618-2.445,4.018,4.018,0,0,0-1.048-.637,11.015,11.015,0,0,1-2.9-2.091,3.8,3.8,0,0,1-1.35-2.756c.071-1.194,1.067-2.223.986-3.412s-1.279-2.072-2.294-2.8-2.077-1.845-1.746-3.049c.359-1.3,2.039-1.68,2.87-2.737a3.625,3.625,0,0,0,.623-1.388c.222-.878.278-1.789.472-2.667a3.776,3.776,0,0,1,1.364-2.28,4.41,4.41,0,0,1,3.162-.415,8.567,8.567,0,0,0,3.242.165c.788-.193,1.5-.661,2.3-.8a2.992,2.992,0,0,1,2.657.968c.378.411.378.519.906.576A1.888,1.888,0,0,1,317.759,307.308Z" transform="translate(-172.909 -170.889)"/><g class="o" transform="translate(125.725 135)"><path d="M334.564,352.49a4.063,4.063,0,0,1-1.284.651A3.907,3.907,0,0,1,334.564,352.49Z" transform="translate(-316.889 -330.94)"/><path d="M326.618,360.543a1.492,1.492,0,0,0-.538.066,1.6,1.6,0,0,1,1.232-.472,8.566,8.566,0,0,1,1.27.345,1.638,1.638,0,0,0,.524.033.254.254,0,0,1-.024.052,1.109,1.109,0,0,1-1.189.33A8.776,8.776,0,0,0,326.618,360.543Z" transform="translate(-313.087 -334.976)"/><path d="M303.27,308.959c-.212.883-.269,1.793-.472,2.671a3.625,3.625,0,0,1-.623,1.388c-.831,1.057-2.516,1.439-2.87,2.737-.33,1.2.727,2.317,1.742,3.044s2.209,1.553,2.294,2.8-.911,2.223-.982,3.412a3.813,3.813,0,0,0,1.35,2.761,11.044,11.044,0,0,0,2.9,2.091,3.772,3.772,0,0,1,1.043.637,3.059,3.059,0,0,1,.623,2.44,4.89,4.89,0,0,0,.231,2.563,2.213,2.213,0,0,0,2.558,1.019,1.528,1.528,0,0,1-.34.264,2.195,2.195,0,0,1-2.912-.868,4.935,4.935,0,0,1-.231-2.563,3.072,3.072,0,0,0-.623-2.44,3.774,3.774,0,0,0-1.043-.637,11.124,11.124,0,0,1-2.9-2.091,3.813,3.813,0,0,1-1.35-2.761c.071-1.189,1.067-2.218.986-3.412s-1.279-2.067-2.294-2.8-2.077-1.841-1.746-3.044c.359-1.3,2.039-1.68,2.87-2.737a3.625,3.625,0,0,0,.623-1.388c.222-.878.278-1.789.472-2.671a3.775,3.775,0,0,1,1.378-2.275,2.735,2.735,0,0,1,.5-.269A3.927,3.927,0,0,0,303.27,308.959Z" transform="translate(-298.55 -306.83)"/></g><path class="ag" d="M260.8,334.275l-.968-1.345s-1.765,2.506.793,4.078S260.8,334.275,260.8,334.275Z" transform="translate(-152.069 -185.601)"/><path class="e" d="M260.8,334.275l-.968-1.345s-1.765,2.506.793,4.078S260.8,334.275,260.8,334.275Z" transform="translate(-152.069 -185.601)"/><path class="ae" d="M238.248,424.7s-.17,2.52-.566,4.975a11.984,11.984,0,0,1-1.222,4.219c-1.288,1.779-1.005,7.551-1.005,7.551l-1.6,6.556a7.633,7.633,0,0,1-1.232,3.809c-.127.222-.217.354-.217.354l1.119,1.888,1.8.448s3.091-1.029,2.166-3.063a3.11,3.11,0,0,1-.208-1.288c0-2.629,1.742-7.051,1.742-7.051s4.248-8.1,3.8-9.76a3.083,3.083,0,0,1-.09-.548,17.351,17.351,0,0,1,.944-5.022Z" transform="translate(-137.895 -233.889)"/><path class="ae" d="M168.1,395.871a51.007,51.007,0,0,0-8.816,8.208,18.078,18.078,0,0,1-4.035,3.478l-2.039,1.222a2.667,2.667,0,0,0-.7.675,4.984,4.984,0,0,0-.316.472l2.936,3.422s.807-.623,1.7-1.416a9.6,9.6,0,0,0,2.251-2.591c.529-1.378,3.809-2.978,3.809-2.978s6.084-3.6,6.782-4.2a12.075,12.075,0,0,1,2.185-1.468c.415-.227.9-.472,1.454-.713a33.5,33.5,0,0,0,4.507-2.7l-2.832-4.248-5.192,2.119A3.738,3.738,0,0,0,168.1,395.871Z" transform="translate(-95.542 -217.228)"/><path class="e" d="M232.617,480.291c-.127.222-.217.354-.217.354l1.119,1.888,1.8.448s3.091-1.029,2.166-3.063a3.11,3.11,0,0,1-.208-1.288c-.944.222-1.27,1.543-1.27,1.543s-.123.547-1.567,1.057A1.52,1.52,0,0,1,232.617,480.291Z" transform="translate(-137.895 -262.328)"/><path class="b" d="M231.5,480.391c-.425.34-.59,1.888-.651,2.95-.033.519-.042.92-.042,1,0,.241,1.6.783,2.605.514s5.012.944,5.012.944a11.366,11.366,0,0,0,4.054-.665c1.322-.472,1.185-1.053.632-1.539a4.563,4.563,0,0,0-1.449-.779,3.47,3.47,0,0,1-1.463-1.189,8.335,8.335,0,0,0-1.888-1.8,3.244,3.244,0,0,0-1.85-.736c-1.019.165-1.345,1.558-1.345,1.558s-.123.543-1.562,1.057S231.542,480.358,231.5,480.391Z" transform="translate(-137.056 -262.559)"/><path class="e" d="M230.852,488.11c-.033.519-.042.92-.042,1,0,.241,1.6.783,2.605.514s5.012.944,5.012.944a11.364,11.364,0,0,0,4.054-.665c1.322-.472,1.185-1.052.632-1.539a14.92,14.92,0,0,1-4.389.864C237.233,489.162,232.212,488.337,230.852,488.11Z" transform="translate(-137.056 -267.323)"/><path class="e" d="M152.6,427.476h-.09a5,5,0,0,0-.316.472l2.936,3.422s.807-.623,1.7-1.416c-.241-1.756-3.95-2.8-3.95-2.8Z" transform="translate(-95.542 -235.218)"/><path class="b" d="M146.58,428.564s.278,3.8,1.1,5.192c.623,1.067,1.166.887,2.209.345.33-.175.713-.382,1.166-.6,1.888-.906,1.921-1.836,1.921-1.836,2.747-2.685-3.242-4.38-3.242-4.38l-.278.345a4.249,4.249,0,0,0-1.959.415,5.712,5.712,0,0,0-.92.524Z" transform="translate(-92.58 -235.282)"/><path class="e" d="M146.58,429.4s.278,3.8,1.1,5.192c.623,1.067,1.166.887,2.209.344a3.776,3.776,0,0,1-1.94-2.36,11.676,11.676,0,0,1-.472-3.71,5.711,5.711,0,0,0-.9.533Z" transform="translate(-92.58 -236.121)"/><path class="ae" d="M294.136,321.537l-5.088,3.733L288,326.04l.736,2.516.76,2.6,2.133,2.251a9.779,9.779,0,0,0,4.507-1.808,3.063,3.063,0,0,0,1.095-1.944,2.946,2.946,0,0,1,.175-.689,2.506,2.506,0,0,1,.43-.7,2.879,2.879,0,0,1,.793-.618,6.958,6.958,0,0,1,3.544-.557s-.533-6.513-1.59-5.527c-.684.642-2.44.472-3.592.245-.623-.113-1.071-.236-1.071-.236Z" transform="translate(-167.254 -179.55)"/><circle class="e" cx="5.371" cy="5.371" r="5.371" transform="translate(130.818 138.635)"/><circle class="ae" cx="5.371" cy="5.371" r="5.371" transform="translate(130.988 138.53)"/><path class="b" d="M259.142,332.691a13.152,13.152,0,0,0-2.232,2.516l1.307,7.613,7.259,2.681h.028c.415-.359,5.664-4.875,7.75-4.167,2.166.741,6.315-1.7,6.315-1.7s1.756-3.686,2.223-4.479-.382-4.215-.382-4.215c-.146.255-.288.472-.429.7a6.607,6.607,0,0,1-1.322,1.506,2.743,2.743,0,0,1-1.836.722,2.011,2.011,0,0,0-.533.028c-2.582.472-3.3-2.1-3.511-3.181-.047-.274-.061-.472-.061-.472l-1.095-2.313-.689-1.449s-11.294,5.716-12.271,5.956A1.543,1.543,0,0,0,259.142,332.691Z" transform="translate(-150.837 -182.188)"/><path class="af" d="M307.372,337.36h0a7.208,7.208,0,0,1-.472.647l1.416,2.36a7.817,7.817,0,0,0-.1-1.624Z" transform="translate(-177.234 -187.935)"/><path class="h" d="M305.516,339.58a5.593,5.593,0,0,1-.5.472l-.061.047,1.718,2.865c.16-.321.3-.595.411-.779Z" transform="translate(-176.204 -189.104)"/><path class="h" d="M302.62,341.572l2.157,3.606c.132-.274.269-.543.4-.8l-1.864-3.106A2.869,2.869,0,0,1,302.62,341.572Z" transform="translate(-174.974 -189.993)"/><path class="h" d="M299.71,342.148l2.879,4.8.392-.807L300.55,342.1h-.137a2.237,2.237,0,0,0-.533.033Z" transform="translate(-173.437 -190.425)"/><path class="h" d="M300.375,347.673l-.349.212h0l-3.686-6.136a2.332,2.332,0,0,0,1.038.274l3.186,5.31Z" transform="translate(-171.658 -190.244)"/><path class="af" d="M287.55,326.753l2.412,4.021v-.085a4.743,4.743,0,0,1-.066-.472l-1.095-2.308-.689-1.449Z" transform="translate(-167.016 -182.194)"/><path class="h" d="M285.18,327.89l7.825,13.045c.25-.113.472-.227.68-.326l-7.83-13.059Z" transform="translate(-165.765 -182.758)"/><path class="h" d="M282.81,329.075l7.778,12.974q.368-.137.708-.283l-7.811-13.026Z" transform="translate(-164.513 -183.385)"/><path class="h" d="M280.44,330.265l7.674,12.8c.25-.061.5-.137.746-.217l-7.745-12.918Z" transform="translate(-163.262 -184.012)"/><path class="h" d="M278.07,331.445l7.467,12.451a5.56,5.56,0,0,0,.816-.094L278.74,331.11Z" transform="translate(-162.011 -184.633)"/><path class="h" d="M275.69,332.625l7.009,11.686a1.576,1.576,0,0,1,.472.076,2.392,2.392,0,0,0,.529.113l-7.32-12.21Z" transform="translate(-160.754 -185.255)"/><path class="h" d="M273.31,333.8l6.834,11.4a4.717,4.717,0,0,1,.75-.217l-6.91-11.516Z" transform="translate(-159.497 -185.877)"/><path class="af" d="M270.93,334.966l6.815,11.374c.231-.123.472-.231.68-.33l-6.82-11.37Z" transform="translate(-158.24 -186.493)"/><path class="af" d="M268.53,336.126,275.4,347.58c.212-.137.43-.264.642-.387l-6.82-11.393Z" transform="translate(-156.973 -187.104)"/><path class="af" d="M266.13,337.3l6.966,11.61c.2-.142.411-.283.618-.425L266.814,337Z" transform="translate(-155.706 -187.736)"/><path class="af" d="M263.71,338.356l7.079,11.837.6-.472-7.009-11.691Z" transform="translate(-154.428 -188.278)"/><path class="h" d="M261.457,339.364l-.137.1,7.235,12.068c.17-.142.373-.3.59-.472L261.971,339.1h0A1.472,1.472,0,0,0,261.457,339.364Z" transform="translate(-153.166 -188.841)"/><path class="h" d="M259.918,340.59c-.179.175-.363.368-.538.566l6.99,11.653.4.151v-.024l.349-.3Z" transform="translate(-152.142 -189.626)"/><path class="h" d="M258.132,342.64c-.189.231-.359.472-.472.632l5.952,9.911,1.123.415Z" transform="translate(-151.233 -190.707)"/><path class="h" d="M256.914,344.91l-.024.038.33,1.93,4.1,6.834,1.123.415Z" transform="translate(-150.827 -191.904)"/><path class="af" d="M225.93,330.38l.354,2.044,1.642,2.742,1.123.415Z" transform="translate(-119.305 -174.046)"/><path class="af" d="M227.17,337.58l.16.925.5.189Z" transform="translate(-119.96 -177.842)"/><path class="e" d="M261.64,330.13c.363,1.147.75,2.185.75,2.185l2.676,5.574,5.923-2.563a9.181,9.181,0,0,0,.51-2.94c-.085-1.133.472-2.752,3.3-3.738.165-.057.335-.113.519-.165a6.2,6.2,0,0,0,.944-.354,5.427,5.427,0,0,0,2.964-3.153l.038-.118,3.889-2.789a1.422,1.422,0,0,0-.1-.175c-.623-.113-1.071-.236-1.071-.236l-1.784-.028-5.088,3.733-.689-1.449s-11.294,5.715-12.271,5.956A1.545,1.545,0,0,0,261.64,330.13Z" transform="translate(-153.335 -179.638)"/><path class="ag" d="M270.26,311.874a5.281,5.281,0,0,1-2.015,2.86c-1.647,1.185-1.416,1.86-1.416,1.86l-4.875,2.992s-.845,1.137-1.68.944,1.185,5.192,1.185,5.192l2.676,5.574,5.923-2.563a9.177,9.177,0,0,0,.51-2.94c-.09-1.2.514-2.94,3.828-3.9a5.6,5.6,0,0,0,3.913-3.511c.024-.076.033-.118.033-.118l3.894-2.789a2.171,2.171,0,0,0-1.468-1.095,5.161,5.161,0,0,1-.628-.132c-.571-.17-.84-.472-.835-.991,0-.713-.028-3.776-1.345-3.87S270.26,311.874,270.26,311.874Z" transform="translate(-152.507 -173.184)"/><path class="ag" d="M299.823,319.59l-2.473,2.218.642,1.916c.024-.076.033-.118.033-.118l3.894-2.789a2.171,2.171,0,0,0-1.468-1.1A5.161,5.161,0,0,1,299.823,319.59Z" transform="translate(-172.191 -178.576)"/><path class="e" d="M299.823,319.59l-2.473,2.218.642,1.916c.024-.076.033-.118.033-.118l3.894-2.789a2.171,2.171,0,0,0-1.468-1.1A5.161,5.161,0,0,1,299.823,319.59Z" transform="translate(-172.191 -178.576)"/><path class="e" d="M300.007,285.23l-.887.533,1.2,4.342s.4.227.968.6c-.1-.472-.533-2.7-.665-3.913a1.752,1.752,0,0,1,0-.793c.057-.043.094,0,.175.033C300.319,285.542,300.007,285.23,300.007,285.23Z" transform="translate(-173.126 -160.481)"/><path class="ag" d="M282.554,278.654s-1.5,6.169-.821,9.288c0,0,.566,4.564-.127,6.744l7.433-1.156.264-1.378a4.121,4.121,0,0,1-1.548-2.133c-.217-1.189-.585-2.473-.585-2.473a19.734,19.734,0,0,0-.472-3.3c-.278-.807.873-.944,1.746-.387a2.031,2.031,0,0,1,.326.245,1.09,1.09,0,0,0,.278,1.439,3.1,3.1,0,0,0,1.038.472h0a10.191,10.191,0,0,0,1.675.3s-.533-2.643-.68-4.012c-.052-.444-.061-.75,0-.788.26-.156,2.086,1.652,2.086,1.652s.09-2.275-.9-2.747c0,0-.156.651-.689.415s-6.324-3.445-6.324-3.445S283.063,275.52,282.554,278.654Z" transform="translate(-163.851 -156.048)"/><path class="e" d="M294.56,286l.75,2.723a2.028,2.028,0,0,1,.326.245,1.09,1.09,0,0,0,.278,1.439,3.1,3.1,0,0,0,1.038.472h0a10.726,10.726,0,0,0,1.416.227s-.533-2.643-.684-4.007Z" transform="translate(-170.718 -160.887)"/><path class="ag" d="M295.15,286.11l.8,2.9a1.09,1.09,0,0,0,.278,1.439,7,7,0,0,0,2.719.75s-.533-2.643-.68-4.012Z" transform="translate(-171.029 -160.944)"/><path class="ac" d="M295.29,286l.8,2.9a1.1,1.1,0,0,0,.274,1.444,7,7,0,0,0,2.723.746s-.533-2.643-.684-4.007Z" transform="translate(-171.103 -160.887)"/><path class="e" d="M249.575,427.749l-5.418-3.049s-.17,2.52-.566,4.975c1.864,1.18,3.6,2.3,5.055,3.1A17.173,17.173,0,0,1,249.575,427.749Z" transform="translate(-143.804 -233.922)"/><path class="e" d="M185.9,395.855a16.864,16.864,0,0,0,2.247,2.988s.547.76,1.506,1.822c.415-.227.9-.472,1.454-.713a33.511,33.511,0,0,0,4.507-2.7L192.781,393l-5.192,2.119A3.737,3.737,0,0,0,185.9,395.855Z" transform="translate(-113.342 -217.23)"/><path class="b" d="M204.179,353.2c-.972,1.524-5.7,6.608-5.7,6.608a26,26,0,0,0-2.133,3.224c-.831,1.558-3.379,3.5-5.329,5.253s-1.949.581-3.1,1.213,2.275,4.295,2.275,4.295,5.8,8.023,12.375,8.363,16.184,9.019,20.177,9.883,1.515-1.416,3.214-2.006a4.976,4.976,0,0,0,2.53-2.459s-.623-4.573-.113-5.583a31.429,31.429,0,0,0,1.1-5.135,24.646,24.646,0,0,1,.283-4.248c.283-.6.151-4.857-.057-6.088a5.656,5.656,0,0,1,.9-3.011s-.392-.651.156-2.1-.472-6.079-.472-6.079c-8.477-4.974-9.935-10.327-9.935-10.327l-1.062.326C212.571,343.631,205.147,351.674,204.179,353.2Z" transform="translate(-114.281 -191.903)"/><path class="e" d="M254.66,345.312s.665,7.2,11.006,10.006C257.18,350.352,255.722,345,255.722,345Z" transform="translate(-149.649 -191.95)"/><path class="e" d="M247.277,371.92s-8.524,13.767-8.741,14.489S247.626,372.3,247.277,371.92Z" transform="translate(-141.133 -206.121)"/><path class="e" d="M246.7,362.78s-6.541,9.812-7.825,10.228C238.87,373.008,245.142,363.535,246.7,362.78Z" transform="translate(-141.312 -201.313)"/><path class="e" d="M237.823,357.86s-4.616,3.3-8.2,2.917Z" transform="translate(-136.427 -198.731)"/><path class="e" d="M238.1,353.36s-4.432,1.845-5.55,1.746Z" transform="translate(-137.975 -196.363)"/><path class="e" d="M232.274,358.55l.335,9.1L231,364.969Z" transform="translate(-121.982 -188.876)"/><path class="e" d="M323.582,313.939c-.085.505-.359,1.005-.217,1.5a2.044,2.044,0,0,0,.651.854,4,4,0,0,1,1.416,2.308c.123,1.307-.92,2.506-.812,3.814a2.194,2.194,0,0,0,.411,1.114,2.219,2.219,0,0,0,.519.51,2.176,2.176,0,0,0,1.614.354,2.784,2.784,0,0,0,2.015-1.93,5.83,5.83,0,0,0,.042-2.893,26.044,26.044,0,0,0-2.879-7.08,1.1,1.1,0,0,0-.382-.472,3.544,3.544,0,0,0-2.407.052C323.007,312.5,324.054,313.66,323.582,313.939Z" transform="translate(-185.907 -174.48)"/><path class="af" d="M323.949,313.719a3.474,3.474,0,0,0-.222,1.5,2.019,2.019,0,0,0,.656.854,3.976,3.976,0,0,1,1.416,2.308c.118,1.307-.944,2.506-.816,3.814a2.242,2.242,0,0,0,.415,1.114,2.108,2.108,0,0,0,.514.51,2.19,2.19,0,0,0,1.619.354,2.78,2.78,0,0,0,2.011-1.93,5.772,5.772,0,0,0,.047-2.893,26.042,26.042,0,0,0-2.879-7.079,1.136,1.136,0,0,0-.382-.472,3.544,3.544,0,0,0-2.407.052C323.364,312.265,324.421,313.44,323.949,313.719Z" transform="translate(-186.099 -174.365)"/><path class="ae" d="M341.315,383.23l-2.685,2.053,1.005.713,5.451,3.865s1.888,3.913,5.192,2.832-1.888-4.432-2.247-4.573a10.4,10.4,0,0,1-1.024-.533l-4.847-3.7Z" transform="translate(-193.988 -212.083)"/><path class="e" d="M341.315,383.23l-2.685,2.053,1.005.713a8.377,8.377,0,0,0,2.534-2.114Z" transform="translate(-193.988 -212.091)"/><path class="e" d="M272.29,340.171l-5.81,3.776,4.078,5.753c.415-.359,5.664-4.875,7.75-4.167,2.166.741,6.315-1.7,6.315-1.7s1.756-3.686,2.223-4.479-.382-4.215-.382-4.215a2.878,2.878,0,0,1,.793-.618,3.837,3.837,0,0,0-.769.047,2.761,2.761,0,0,0-1.775,2.78v.406a6.579,6.579,0,0,0,.052.722v.118a3.877,3.877,0,0,1-.746,3.275,5.083,5.083,0,0,1-2.884,2.36C279.11,344.876,272.29,340.171,272.29,340.171Z" transform="translate(-155.891 -186.423)"/><path class="ag" d="M272.73,340.934l-5.81,3.776,4.587,6.5a13.986,13.986,0,0,0,3.021-2.166c.746-.92,4.54-2.45,4.54-2.45,4.578,1.614,6.541-1.133,6.541-1.133s5.314,8.274,5.664,8.311a30.389,30.389,0,0,1,3.228,2.3s2.228,2.865,2.879,3.1a4.1,4.1,0,0,1,.708.321,1.452,1.452,0,0,1,.189.123l-1.949,1.133a.473.473,0,0,0,.033.071l.024.038a3.149,3.149,0,0,0,1.189,1.185c.883.472,6.645-3.12,6.551-3.927a.878.878,0,0,0-.175-.415,4.876,4.876,0,0,0-1.5-1.17l-.151-.085-.057-.028s-3.332-3.341-4.413-3.832-4.72-6.353-4.72-6.353-1.888-2.516-1.642-3.058-.968-5.111-1.732-5.192-1.1-1.128-1.1-1.128c.505-1.062-.024-1.416-.618-1.51a3.626,3.626,0,0,0-1.067,0c-1.246.552-1.831,1.449-1.775,3.186a6.826,6.826,0,0,0,.066.84,3.878,3.878,0,0,1-.746,3.275,5.083,5.083,0,0,1-2.884,2.36C279.55,345.639,272.73,340.934,272.73,340.934Z" transform="translate(-156.123 -186.827)"/><path class="e" d="M336.822,381.355a.666.666,0,0,1,.071.241c.094.807-5.664,4.418-6.551,3.931a3.214,3.214,0,0,1-1.086-1.015l-.024-.038a.468.468,0,0,1-.033-.071l1.949-1.133a1.459,1.459,0,0,0-.189-.123l.085-.047a5.829,5.829,0,0,0,4.125-3Z" transform="translate(-189.009 -210.44)"/><path class="ag" d="M331.149,383.367,329.2,384.5a3.129,3.129,0,0,0,1.246,1.293c.883.472,6.645-3.12,6.551-3.927-.071-.642-1.2-1.326-1.675-1.586A5.824,5.824,0,0,1,331.149,383.367Z" transform="translate(-189.009 -210.534)"/><path class="ac" d="M331.149,383.367,329.2,384.5a3.129,3.129,0,0,0,1.246,1.293c.883.472,6.645-3.12,6.551-3.927-.071-.642-1.2-1.326-1.675-1.586A5.824,5.824,0,0,1,331.149,383.367Z" transform="translate(-189.009 -210.534)"/><path class="ag" d="M305.546,338.516l1.416.609,1.416-3.809a3.628,3.628,0,0,0-1.067,0C306.074,335.882,305.489,336.779,305.546,338.516Z" transform="translate(-176.517 -186.837)"/><path class="e" d="M305.676,338.441l1.416.6,1.416-3.809a3.63,3.63,0,0,0-1.067,0C306.2,335.8,305.619,336.7,305.676,338.441Z" transform="translate(-176.585 -186.795)"/><path class="e" d="M324.287,313.607c-.09.505-.363,1.005-.222,1.5a2.015,2.015,0,0,0,.651.854,3.93,3.93,0,0,1,1.416,2.308c.118,1.307-.944,2.506-.816,3.814a2.232,2.232,0,0,0,.387,1.137,2.177,2.177,0,0,0,.519.472,2.152,2.152,0,0,0,1.614.354,1.981,1.981,0,0,0,.571-.189,2.241,2.241,0,0,1-.916.4,2.162,2.162,0,0,1-2.133-.859,2.275,2.275,0,0,1-.415-1.119c-.109-1.307.944-2.506.816-3.813a3.753,3.753,0,0,0-1.416-2.308,1.991,1.991,0,0,1-.656-.854,3.515,3.515,0,0,1,.222-1.5c.472-.278-.576-1.416-.047-1.888a.873.873,0,0,1,.274-.123C323.815,312.3,324.721,313.343,324.287,313.607Z" transform="translate(-186.078 -174.46)"/><path class="e" d="M296.533,336.427s-1.841.127-2.062,1.081c0,0,1.765-1.7,1.52-2.147" transform="translate(-170.67 -186.883)"/><path class="ae" d="M359.519,397.038s-4.757-2.28-4.116.585S359.519,397.038,359.519,397.038Z" transform="translate(-202.814 -218.91)"/><rect class="r" width="4.956" height="55.692" transform="matrix(0.91, -0.415, 0.415, 0.91, 146.63, 161.569)"/><path class="c" d="M221.755,186.4c-.878,1.926-3.016,3.639-2.383,5.664a4.709,4.709,0,0,0,2.247,2.294,22.229,22.229,0,0,1,5.933,4.8c1.567,2.02,2.416,4.79,1.51,7.183-.618,1.638-1.959,2.9-2.742,4.47a9.368,9.368,0,0,0-.514,6.305,21.761,21.761,0,0,0,2.591,5.9,3.492,3.492,0,0,0,1.624,1.69,5.608,5.608,0,0,0,1.713.142,6.337,6.337,0,0,1,4.866,3.091,13.138,13.138,0,0,1,1.709,5.692,6.16,6.16,0,0,0,.746,2.893c.793,1.161,2.3,1.543,3.691,1.779a46.753,46.753,0,0,0,10.921.562" transform="translate(-130.955 -108.409)"/><rect class="b" width="6.49" height="4.285" rx="2.143" transform="translate(117.178 127.645)"/></g></svg>