<svg xmlns="http://www.w3.org/2000/svg" width="1366" height="172" viewBox="0 0 1366 172">
  <g id="Group_6551" data-name="Group 6551" transform="translate(0 -769)">
    <path id="Rectangle_62" data-name="Rectangle 62" d="M0,0H1366a0,0,0,0,1,0,0V122a50,50,0,0,1-50,50H50A50,50,0,0,1,0,122V0A0,0,0,0,1,0,0Z" transform="translate(0 769)" fill="#22aee4"/>
    <g id="Group_5614" data-name="Group 5614" transform="translate(-596.447 640.856)" opacity="0.5">
      <g id="Group_5612" data-name="Group 5612" transform="translate(716.284 143.171)">
        <path id="Path_843" data-name="Path 843" d="M704.611,196.669a1.928,1.928,0,1,1-1.928,1.927A1.927,1.927,0,0,1,704.611,196.669Z" transform="translate(-702.683 -114.568)" fill="rgba(112,112,112,0.25)"/>
        <path id="Path_844" data-name="Path 844" d="M704.611,185.969a1.928,1.928,0,1,1-1.928,1.928A1.928,1.928,0,0,1,704.611,185.969Z" transform="translate(-702.683 -120.289)" fill="rgba(112,112,112,0.25)"/>
        <path id="Path_845" data-name="Path 845" d="M704.611,175.27a1.928,1.928,0,1,1-1.928,1.927A1.927,1.927,0,0,1,704.611,175.27Z" transform="translate(-702.683 -126.009)" fill="rgba(112,112,112,0.25)"/>
        <path id="Path_846" data-name="Path 846" d="M704.611,164.57a1.928,1.928,0,1,1-1.928,1.928A1.928,1.928,0,0,1,704.611,164.57Z" transform="translate(-702.683 -131.73)" fill="rgba(112,112,112,0.25)"/>
        <path id="Path_847" data-name="Path 847" d="M704.611,153.871a1.928,1.928,0,1,1-1.928,1.928A1.927,1.927,0,0,1,704.611,153.871Z" transform="translate(-702.683 -137.45)" fill="rgba(112,112,112,0.25)"/>
        <path id="Path_848" data-name="Path 848" d="M704.611,143.171a1.928,1.928,0,1,1-1.928,1.927A1.928,1.928,0,0,1,704.611,143.171Z" transform="translate(-702.683 -143.171)" fill="rgba(112,112,112,0.25)"/>
        <circle id="Ellipse_56" data-name="Ellipse 56" cx="1.928" cy="1.928" r="1.928" transform="translate(13.654 82.1)" fill="rgba(112,112,112,0.25)"/>
        <circle id="Ellipse_57" data-name="Ellipse 57" cx="1.928" cy="1.928" r="1.928" transform="translate(13.654 65.68)" fill="rgba(112,112,112,0.25)"/>
        <circle id="Ellipse_58" data-name="Ellipse 58" cx="1.928" cy="1.928" r="1.928" transform="translate(13.654 49.26)" fill="rgba(112,112,112,0.25)"/>
        <path id="Path_849" data-name="Path 849" d="M713.508,164.57a1.928,1.928,0,1,1-1.927,1.928A1.928,1.928,0,0,1,713.508,164.57Z" transform="translate(-697.926 -131.73)" fill="rgba(112,112,112,0.25)"/>
        <path id="Path_850" data-name="Path 850" d="M713.508,153.871a1.928,1.928,0,1,1-1.927,1.928A1.927,1.927,0,0,1,713.508,153.871Z" transform="translate(-697.926 -137.45)" fill="rgba(112,112,112,0.25)"/>
        <circle id="Ellipse_59" data-name="Ellipse 59" cx="1.928" cy="1.928" r="1.928" transform="translate(13.654 0)" fill="rgba(112,112,112,0.25)"/>
        <circle id="Ellipse_60" data-name="Ellipse 60" cx="1.928" cy="1.928" r="1.928" transform="translate(27.308 82.1)" fill="rgba(112,112,112,0.25)"/>
        <circle id="Ellipse_61" data-name="Ellipse 61" cx="1.928" cy="1.928" r="1.928" transform="translate(27.308 65.68)" fill="rgba(112,112,112,0.25)"/>
        <circle id="Ellipse_62" data-name="Ellipse 62" cx="1.928" cy="1.928" r="1.928" transform="translate(27.308 49.26)" fill="rgba(112,112,112,0.25)"/>
        <path id="Path_851" data-name="Path 851" d="M722.4,164.57a1.928,1.928,0,1,1-1.927,1.928A1.928,1.928,0,0,1,722.4,164.57Z" transform="translate(-693.169 -131.73)" fill="rgba(112,112,112,0.25)"/>
        <path id="Path_852" data-name="Path 852" d="M722.4,153.871a1.928,1.928,0,1,1-1.927,1.928A1.927,1.927,0,0,1,722.4,153.871Z" transform="translate(-693.169 -137.45)" fill="rgba(112,112,112,0.25)"/>
        <circle id="Ellipse_63" data-name="Ellipse 63" cx="1.928" cy="1.928" r="1.928" transform="translate(27.308 0)" fill="rgba(112,112,112,0.25)"/>
      </g>
      <g id="Group_5613" data-name="Group 5613" transform="translate(677.244 143.171)">
        <path id="Path_853" data-name="Path 853" d="M679.172,196.669a1.928,1.928,0,1,1-1.927,1.927A1.928,1.928,0,0,1,679.172,196.669Z" transform="translate(-677.244 -114.568)" fill="rgba(112,112,112,0.25)"/>
        <path id="Path_854" data-name="Path 854" d="M679.172,185.969a1.928,1.928,0,1,1-1.927,1.928A1.929,1.929,0,0,1,679.172,185.969Z" transform="translate(-677.244 -120.289)" fill="rgba(112,112,112,0.25)"/>
        <path id="Path_855" data-name="Path 855" d="M679.172,175.27a1.928,1.928,0,1,1-1.927,1.927A1.928,1.928,0,0,1,679.172,175.27Z" transform="translate(-677.244 -126.009)" fill="rgba(112,112,112,0.25)"/>
        <path id="Path_856" data-name="Path 856" d="M679.172,164.57a1.928,1.928,0,1,1-1.927,1.928A1.929,1.929,0,0,1,679.172,164.57Z" transform="translate(-677.244 -131.73)" fill="rgba(112,112,112,0.25)"/>
        <path id="Path_857" data-name="Path 857" d="M679.172,153.871a1.928,1.928,0,1,1-1.927,1.928A1.928,1.928,0,0,1,679.172,153.871Z" transform="translate(-677.244 -137.45)" fill="rgba(112,112,112,0.25)"/>
        <path id="Path_858" data-name="Path 858" d="M679.172,143.171a1.928,1.928,0,1,1-1.927,1.927A1.929,1.929,0,0,1,679.172,143.171Z" transform="translate(-677.244 -143.171)" fill="rgba(112,112,112,0.25)"/>
        <circle id="Ellipse_64" data-name="Ellipse 64" cx="1.928" cy="1.928" r="1.928" transform="translate(13.653 82.1)" fill="rgba(112,112,112,0.25)"/>
        <circle id="Ellipse_65" data-name="Ellipse 65" cx="1.928" cy="1.928" r="1.928" transform="translate(13.653 65.68)" fill="rgba(112,112,112,0.25)"/>
        <circle id="Ellipse_66" data-name="Ellipse 66" cx="1.928" cy="1.928" r="1.928" transform="translate(13.653 49.26)" fill="rgba(112,112,112,0.25)"/>
        <path id="Path_859" data-name="Path 859" d="M688.068,164.57a1.928,1.928,0,1,1-1.927,1.928A1.929,1.929,0,0,1,688.068,164.57Z" transform="translate(-672.487 -131.73)" fill="rgba(112,112,112,0.25)"/>
        <path id="Path_860" data-name="Path 860" d="M688.068,153.871a1.928,1.928,0,1,1-1.927,1.928A1.928,1.928,0,0,1,688.068,153.871Z" transform="translate(-672.487 -137.45)" fill="rgba(112,112,112,0.25)"/>
        <circle id="Ellipse_67" data-name="Ellipse 67" cx="1.928" cy="1.928" r="1.928" transform="translate(13.653 0)" fill="rgba(112,112,112,0.25)"/>
        <circle id="Ellipse_68" data-name="Ellipse 68" cx="1.928" cy="1.928" r="1.928" transform="translate(27.307 82.1)" fill="rgba(112,112,112,0.25)"/>
        <circle id="Ellipse_69" data-name="Ellipse 69" cx="1.928" cy="1.928" r="1.928" transform="translate(27.307 65.68)" fill="rgba(112,112,112,0.25)"/>
        <circle id="Ellipse_70" data-name="Ellipse 70" cx="1.928" cy="1.928" r="1.928" transform="translate(27.307 49.26)" fill="rgba(112,112,112,0.25)"/>
        <path id="Path_861" data-name="Path 861" d="M696.966,164.57a1.928,1.928,0,1,1-1.927,1.928A1.929,1.929,0,0,1,696.966,164.57Z" transform="translate(-667.731 -131.73)" fill="rgba(112,112,112,0.25)"/>
        <path id="Path_862" data-name="Path 862" d="M696.966,153.871a1.928,1.928,0,1,1-1.927,1.928A1.928,1.928,0,0,1,696.966,153.871Z" transform="translate(-667.731 -137.45)" fill="rgba(112,112,112,0.25)"/>
        <circle id="Ellipse_71" data-name="Ellipse 71" cx="1.928" cy="1.928" r="1.928" transform="translate(27.307 0)" fill="rgba(112,112,112,0.25)"/>
      </g>
    </g>
    <g id="Group_5616" data-name="Group 5616" transform="translate(640.982 644.829)" opacity="0.5">
      <path id="Path_865" data-name="Path 865" d="M685.364,262.157c-7.688,2.527-14.445-4.843-21.774-6.586a17.443,17.443,0,0,0-9.133.286c-3.476,1.047-6.318,3.651-9.585,5.434-6.769,3.693-13.621,1.6-19.543-3.826-2.286-2.093-4.658-4.209-7.449-4.45-3.323-.287-6.415,1.914-9.074,4.516-.9.88-.046,2.984.863,2.094,3.352-3.279,7.187-5.553,11.172-3.065,2.822,1.761,5.16,4.751,8,6.5a16.226,16.226,0,0,0,17.171.179c3.245-1.926,6.161-4.38,9.681-5.256a17.131,17.131,0,0,1,11.288,1.282c6.207,2.772,12.148,7.434,18.84,5.233C686.89,264.144,686.437,261.8,685.364,262.157Z" fill="rgba(112,112,112,0.25)"/>
      <path id="Path_866" data-name="Path 866" d="M685.364,252.657c-7.688,2.528-14.445-4.842-21.774-6.586a17.453,17.453,0,0,0-9.133.287c-3.476,1.047-6.318,3.651-9.585,5.433-6.769,3.694-13.621,1.6-19.543-3.825-2.286-2.093-4.658-4.209-7.449-4.45-3.323-.288-6.415,1.914-9.074,4.515-.9.881-.046,2.984.863,2.1,3.352-3.28,7.187-5.553,11.172-3.066,2.822,1.761,5.16,4.752,8,6.5a16.226,16.226,0,0,0,17.171.178c3.245-1.925,6.161-4.38,9.681-5.255a17.137,17.137,0,0,1,11.288,1.281c6.207,2.773,12.148,7.434,18.84,5.234C686.89,254.644,686.437,252.3,685.364,252.657Z" fill="rgba(112,112,112,0.25)"/>
      <path id="Path_867" data-name="Path 867" d="M685.364,243.158c-7.688,2.528-14.445-4.842-21.774-6.586a17.453,17.453,0,0,0-9.133.286c-3.476,1.047-6.318,3.651-9.585,5.434-6.769,3.693-13.621,1.6-19.543-3.826-2.286-2.093-4.658-4.209-7.449-4.45-3.323-.287-6.415,1.914-9.074,4.516-.9.88-.046,2.984.863,2.1,3.352-3.28,7.187-5.554,11.172-3.066,2.822,1.761,5.16,4.751,8,6.5a16.228,16.228,0,0,0,17.171.178c3.245-1.925,6.161-4.38,9.681-5.255a17.124,17.124,0,0,1,11.288,1.281c6.207,2.772,12.148,7.434,18.84,5.233C686.89,245.145,686.437,242.8,685.364,243.158Z" fill="rgba(112,112,112,0.25)"/>
    </g>
    <g id="Group_6550" data-name="Group 6550" transform="translate(802 770)" opacity="0.5">
      <g id="Subtraction_1" data-name="Subtraction 1" transform="translate(0 0.499)" fill="none">
        <path d="M120,0H0A59.7,59.7,0,0,0,18.826,39.728,59.972,59.972,0,0,0,60,56a59.972,59.972,0,0,0,41.174-16.273A59.7,59.7,0,0,0,120,0Z" stroke="none"/>
        <path d="M 1.077827453613281 1.001064300537109 C 2.298721313476563 15.51229858398438 8.818252563476563 28.97050666809082 19.50992584228516 38.99816513061523 C 30.51271057128906 49.31766510009766 44.89241027832031 55.0008659362793 60.0001106262207 55.0008659362793 C 75.10781097412109 55.0008659362793 89.48749542236328 49.31766510009766 100.4902801513672 38.99816513061523 C 111.1826171875 28.96987915039063 117.7023391723633 15.51011276245117 118.9224624633789 1.001064300537109 L 1.077827453613281 1.001064300537109 M 120.0002975463867 -3.814697265625e-06 L 120.0002288818359 0.001064300537109375 C 118.9988098144531 15.17221450805664 112.3129959106445 29.28071403503418 101.1743774414063 39.72756195068359 C 89.98552703857422 50.22156524658203 75.3629150390625 56.0008659362793 60.0001106262207 56.0008659362793 C 44.63731384277344 56.0008659362793 30.01467895507813 50.22156524658203 18.82582855224609 39.72756195068359 C 7.687614440917969 29.28108024597168 1.001441955566406 15.17296600341797 -7.62939453125e-06 0.001064300537109375 L 120.0002136230469 0.001064300537109375 L 120.0002975463867 -3.814697265625e-06 Z" stroke="none" fill="rgba(0,0,0,0.25)"/>
      </g>
      <g id="Subtraction_2" data-name="Subtraction 2" transform="translate(10 0.5)" fill="none">
        <path d="M100,0H0A50.25,50.25,0,0,0,15.688,33.342,49.784,49.784,0,0,0,50,47,49.785,49.785,0,0,0,84.312,33.342,50.25,50.25,0,0,0,100,0Z" stroke="none"/>
        <path d="M 1.079124450683594 1 C 2.130073547363281 13.07440185546875 7.536003112792969 24.26590728759766 16.37465667724609 32.61499786376953 C 25.51218414306641 41.24645233154297 37.45378494262695 46 49.99967956542969 46 C 62.54560089111328 46 74.48735046386719 41.24644088745117 83.6251220703125 32.61498641967773 C 92.46400451660156 24.2658805847168 97.87010192871094 13.07437515258789 98.92108917236328 1 L 1.079124450683594 1 M 0 0 L 100.0002136230469 0 C 99.16571044921875 12.73289489746094 93.5941162109375 24.57397270202637 84.31179809570313 33.34194564819336 C 74.98762512207031 42.14947891235352 62.8020133972168 47 49.99967956542969 47 C 37.19737243652344 47 25.01190948486328 42.14947891235352 15.68795776367188 33.34194564819336 C 6.406303405761719 24.57438659667969 0.8345184326171875 12.73369216918945 0 0 Z" stroke="none" fill="rgba(0,0,0,0.25)"/>
      </g>
      <g id="Subtraction_3" data-name="Subtraction 3" transform="translate(20 0.5)" fill="none">
        <path d="M80,0H0A40.807,40.807,0,0,0,12.55,26.957,39.6,39.6,0,0,0,40,38a39.6,39.6,0,0,0,27.45-11.043A40.807,40.807,0,0,0,80,0Z" stroke="none"/>
        <path d="M 1.081001281738281 1 C 1.960739135742188 10.63799095153809 6.253585815429688 19.56351470947266 13.24085235595703 26.23401069641113 C 20.51309967041016 33.17656707763672 30.01623153686523 37 39.99965667724609 37 C 49.98310852050781 37 59.48634338378906 33.17656707763672 66.75877380371094 26.23400115966797 C 73.74623870849609 19.5634822845459 78.03923034667969 10.63795280456543 78.91899108886719 1 L 1.081001281738281 1 M 0 0 L 80 0 C 79.3323974609375 10.294677734375 74.87513732910156 19.86831092834473 67.44928741455078 26.95732116699219 C 59.98996734619141 34.07830047607422 50.24150085449219 38 39.99965667724609 38 C 29.75783157348633 38 20.00947952270508 34.07830047607422 12.55033111572266 26.95732116699219 C 5.125030517578125 19.86865615844727 0.6676101684570313 10.29533386230469 0 0 Z" stroke="none" fill="rgba(0,0,0,0.25)"/>
      </g>
      <g id="Subtraction_4" data-name="Subtraction 4" transform="translate(30 0)" fill="none">
        <path d="M60,0H0A30.605,30.605,0,0,0,9.413,20.218,29.7,29.7,0,0,0,30,28.5a29.7,29.7,0,0,0,20.587-8.282A30.605,30.605,0,0,0,60,0Z" stroke="none"/>
        <path d="M 1.085865020751953 1.000001907348633 C 1.795509338378906 8.063619613647461 4.972793579101563 14.59679222106934 10.10327911376953 19.49468231201172 C 15.51073837280273 24.65699005126953 22.57676696777344 27.5 29.99974822998047 27.5 C 37.42273712158203 27.5 44.48885726928711 24.65699005126953 49.89645767211914 19.49467086791992 C 55.02707672119141 14.59678268432617 58.20444869995117 8.063602447509766 58.91412734985352 1.000001907348633 L 1.085865020751953 1.000001907348633 M -3.814697265625e-06 1.9073486328125e-06 L 60 1.9073486328125e-06 C 59.49928665161133 7.721010208129883 56.15634918212891 14.90124130249023 50.58696746826172 20.21799087524414 C 44.99246978759766 25.55873107910156 37.68112945556641 28.5 29.99974822998047 28.5 C 22.31837844848633 28.5 15.00711822509766 25.55873107910156 9.412757873535156 20.21799087524414 C 3.843776702880859 14.90149116516113 0.5007095336914063 7.721500396728516 -3.814697265625e-06 1.9073486328125e-06 Z" stroke="none" fill="rgba(0,0,0,0.25)"/>
      </g>
    </g>
    <line id="Line_7" data-name="Line 7" x2="120" transform="translate(802 770.5)" fill="none" stroke="#22aee4" stroke-width="2"/>
  </g>
</svg>
