<svg xmlns="http://www.w3.org/2000/svg" xmlns:xlink="http://www.w3.org/1999/xlink" width="444" height="301.658" viewBox="0 0 444 301.658"><defs><style>.a{fill:#fdbd42;}.b{fill:#22aee4;}.c{fill:#ffa800;}.d{fill:url(#a);}.e{fill:#2f2e41;}.f{fill:#fbbebe;}.g{opacity:0.1;}.h{fill:#e8e8f0;}.i{fill:#f86d70;}</style><linearGradient id="a" x1="0.5" y1="1" x2="0.5" y2="-0.001" gradientUnits="objectBoundingBox"><stop offset="0" stop-color="gray" stop-opacity="0.251"/><stop offset="0.54" stop-color="gray" stop-opacity="0.122"/><stop offset="1" stop-color="gray" stop-opacity="0.102"/></linearGradient></defs><g transform="translate(-467.809 -3703.409)"><ellipse class="a" cx="145.012" cy="144.959" rx="145.012" ry="144.959" transform="translate(621.785 3703.409)"/><path class="b" d="M710.621,522.536,667.2,566.709a.783.783,0,0,0,0,1.132l30.465,32.394a5.242,5.242,0,1,1-7.413,7.413L659.948,575.37a.827.827,0,0,0-1.161,0l-7.384,7.457a32.453,32.453,0,0,1-23.211,9.763,33.162,33.162,0,0,1-23.617-10.039l-7.094-7.253a.827.827,0,0,0-1.161,0L566.087,607.5a5.242,5.242,0,1,1-7.413-7.413l30.349-32.322a.871.871,0,0,0,0-1.132L545.6,522.463a.8.8,0,0,0-1.364.566V611.42a12.94,12.94,0,0,0,12.9,12.9h141.98a12.94,12.94,0,0,0,12.9-12.9V523.1a.8.8,0,0,0-1.393-.566Z" transform="translate(138.649 3282.021)"/><path class="b" d="M626.612,586.427a21.964,21.964,0,0,0,15.841-6.528l63.236-64.367a12.622,12.622,0,0,0-7.979-2.9H555.629a12.535,12.535,0,0,0-7.979,2.9L610.9,579.9A21.877,21.877,0,0,0,626.612,586.427Z" transform="translate(140.185 3277.708)"/><path class="c" d="M645.913,452.69a145.017,145.017,0,1,0,145,144.969A145.044,145.044,0,0,0,645.913,452.69Zm0,270.632A125.687,125.687,0,1,1,771.645,597.635,125.709,125.709,0,0,1,645.913,723.322Z" transform="translate(119.057 3250.733)"/><path class="d" d="M590.428,600.566a14.232,14.232,0,0,0-5.672-11.49,16.683,16.683,0,0,0-13.941-16.364,16.654,16.654,0,0,0-11.1-12.4h0a14.157,14.157,0,0,0-2.06-.479H555.2a16.335,16.335,0,0,0-15.784,13.956c-5.092-1.175-9.749.348-10.6,3.569a4.351,4.351,0,0,0,.145,2.582c.87,2.5,3.7,4.889,7.486,6.064l.493.145.74.189h.16a12.827,12.827,0,0,0-1.219,5.5,12.679,12.679,0,0,0,6.833,11.315l-.334.2a4.526,4.526,0,0,0-1.1,1.538,23.008,23.008,0,0,0-2.133,5.135c-.363,1.538-.421,3.134-.87,4.657-.841,2.8-2.989,5.164-3.235,8.08-.116,1.306.1,2.9-.827,3.743a4.509,4.509,0,0,1-.74.522,5.99,5.99,0,0,0-1.61,1.7,5.626,5.626,0,0,1-1.132,1.625c-.841.624-2.219.566-2.626,1.538s.653,2.118.406,3.177-1.146,1.262-1.8,1.857a6.455,6.455,0,0,0-1.552,2.9,9.517,9.517,0,0,1-7.834-2,14.639,14.639,0,0,1,.812,2.9,12.71,12.71,0,0,0-4.222-2.118,13.329,13.329,0,0,1-4.5-3.336l2.408-.334L501.935,618.7l-3.148-.653,2.814,5.411a1.726,1.726,0,0,0-.957,1.146,4.917,4.917,0,0,0-.1,1.842,32.96,32.96,0,0,0,.725,4.352l.812,3.8c.073.348.159.711.261,1.059a10,10,0,0,0-3.148.348,27.4,27.4,0,0,0-6.543-1.552,3.625,3.625,0,0,0-1.451,0,3.758,3.758,0,0,0-1.378,1.117,44.62,44.62,0,0,0-4.86,6.847c-5.8,9.952-13.361,18.641-20.513,27.636-4.932,2-9.908,3.9-14.884,5.8l-10.706,4.091a16.236,16.236,0,0,1-6.644,1.451c-1.016,0-2.278-.218-2.9.653a6.108,6.108,0,0,0-.653,1.451l-1.1.116h0a12.68,12.68,0,0,0-2.568-4.729,1.624,1.624,0,0,0-1.2.929c-.261.479-.421,1-.725,1.451-.566.841-1.567,1.248-2.278,1.958s-1.161,1.813-1.944,2.539a7.689,7.689,0,0,1-3.641,1.451,22.98,22.98,0,0,0-5.7,2.162,9.189,9.189,0,0,1-2.1.972,7.9,7.9,0,0,1-2.481.087l-5.658-.421a4.469,4.469,0,0,0-1.523.073,2.9,2.9,0,0,0-1.8,2.9,4.568,4.568,0,0,0,1.8,3.119,11.514,11.514,0,0,0,3.221,1.668,94.5,94.5,0,0,0,15.087,4.468v1.146a25.751,25.751,0,0,0,11.606,2.756,1.8,1.8,0,0,0,.87-.16,1.915,1.915,0,0,0,.725-1.131,46.676,46.676,0,0,0,2.263-11.112h0a5.8,5.8,0,0,0,2.045-.522c1.944-.537,3.888.8,5.9,1.016,2.481.276,4.773-1.175,7.123-2.06l1.016-.333a11.144,11.144,0,0,1-2.35,2.249c-.972.7-2.06,1.219-3,1.944a20.677,20.677,0,0,1-2.553,1.973,16,16,0,0,1-1.959.755,12.921,12.921,0,0,0-2.8,1.451,5.671,5.671,0,0,0-1.9,1.857,2.786,2.786,0,0,0-.159,2.611,2.756,2.756,0,0,0,1.871,1.306,7.674,7.674,0,0,0,2.307,0c3.076-.232,6.136-.508,9.2-.783a24.52,24.52,0,0,0,3.844-.551c.667-.16,1.335-.377,2-.566a17.872,17.872,0,0,1,3.5-.522,2.9,2.9,0,0,1,1.015.1c.711.232,1.219.957,1.944,1.1a2.9,2.9,0,0,0,1.451-.189,32.356,32.356,0,0,1,6.8-.725,2.808,2.808,0,0,0,2.64-1.175c.464-.928-.377-2.423-.754-3.656a11.184,11.184,0,0,1-.319-2.408,15.074,15.074,0,0,0-1.683-5.716,14.918,14.918,0,0,1-1.262-2.611,65.967,65.967,0,0,0,12.52-6.354,22.386,22.386,0,0,1,7.138-3.438,19.409,19.409,0,0,1,8.965,1.044,203.967,203.967,0,0,1,20.556,7.166c3.206,1.32,6.4,2.713,9.705,3.714a15.138,15.138,0,0,0,3.453,3.351,15.96,15.96,0,0,0,7.471,2.045,97.957,97.957,0,0,0,10.518.392,17.74,17.74,0,0,0,7.834-1.451,8.042,8.042,0,0,0,1.639-1.088,6.5,6.5,0,0,0,5.164-1.9,12.52,12.52,0,0,0,3.931-6.209c.856-3.308.2-7.254,2.234-9.894.537-.725,1.248-1.306,1.784-2.031a5.716,5.716,0,0,0,.929-3.351.678.678,0,0,1,.087-.13,12.286,12.286,0,0,0,.87-3.337,19.067,19.067,0,0,1,.943-2.64,81.484,81.484,0,0,0,2.7-7.819,45.669,45.669,0,0,0,1.248-5.368c.218-1.451.348-2.9.464-4.352a27.036,27.036,0,0,1,1.32-6.717,54.665,54.665,0,0,0,3.046-16.074v-.319a10.779,10.779,0,0,0,9.546-10.967,11.447,11.447,0,0,0-1-4.686,14.505,14.505,0,0,0,1.944-7.312Zm-51.906,63.062c.16.566.348,1.117.537,1.668-.856-.827-1.683-1.683-2.539-2.524.334.116.682.218,1,.348a5.4,5.4,0,0,1,.957.507Zm-4.105-2.785c-5.019-4.352-10.822-7.732-15.958-11.954,2.8,1.378,5.527,2.988,8.225,4.526q4.8,2.742,9.734,5.266a7.965,7.965,0,0,1-2.045,2.161Zm2.133-10.967.247-.246v1.726l-1.349-.464a12.013,12.013,0,0,0,1.059-1.016ZM492.4,661.626a41.53,41.53,0,0,0,5.339-7.616c1.987,3.467,5.223,5.977,7.964,8.893C501.282,662.337,496.843,661.858,492.4,661.626Z" transform="translate(72.052 3298.916)"/><path class="e" d="M415.35,438.25l3.162.638,10.779,15.943-4.744.638Z" transform="translate(156.183 3480.073)"/><path class="f" d="M414.49,645.509a62.059,62.059,0,0,0,3.163,8.226,78.33,78.33,0,0,0,10.518-3,33.126,33.126,0,0,0-2.191-2.9,10.824,10.824,0,0,0-2.974-2.278,8.182,8.182,0,0,0-3.612,0C417.769,645.509,416.129,645.538,414.49,645.509Z" transform="translate(80.42 3337.46)"/><path class="e" d="M431.44,651.18a6.557,6.557,0,0,1-3.6-4.091A13.173,13.173,0,0,0,425.1,642.2a1.567,1.567,0,0,0-1.219.914c-.261.464-.421.987-.711,1.451-.58.827-1.6,1.233-2.321,1.93s-1.161,1.784-1.944,2.5a7.716,7.716,0,0,1-3.67,1.451,23.792,23.792,0,0,0-5.8,2.133,10.015,10.015,0,0,1-2.132.957,8.438,8.438,0,0,1-2.5,0l-5.716-.406a4.467,4.467,0,0,0-1.451,0,2.771,2.771,0,0,0-1.813,2.9,4.353,4.353,0,0,0,1.813,3.076,12.04,12.04,0,0,0,3.25,1.654,95.591,95.591,0,0,0,15.319,4.352v1.132a26.518,26.518,0,0,0,11.678,2.713,1.972,1.972,0,0,0,.87-.145,1.914,1.914,0,0,0,.725-1.131,45.262,45.262,0,0,0,2.394-12.418,9.9,9.9,0,0,0-.247-3.206c-.319-1.03.754-.595-.232-1" transform="translate(72 3336.04)"/><path class="e" d="M530.885,634.945c-16.944,1.016-33.685-3.946-50.658-4.468a24.73,24.73,0,0,0-6.3.392,31.725,31.725,0,0,0-6.238,2.423c-9.1,4.236-18.511,7.747-27.912,11.243l-10.808,4.018A16.364,16.364,0,0,1,422.286,650c-1.03,0-2.292-.218-2.9.638-1.755,2.611-.929,6.427.232,9.357.377.943,1.016,1.973,2.031,2.074a5.9,5.9,0,0,0,2.06-.522c1.958-.522,3.917.8,5.948,1.016,2.5.261,4.816-1.161,7.181-2.031,3.917-1.451,8.182-1.451,12.3-2.089,6.891-1.146,13.288-4.352,19.265-7.993a22.49,22.49,0,0,1,7.181-3.395,19.875,19.875,0,0,1,9.038,1.03,207.4,207.4,0,0,1,20.73,7.05,96.621,96.621,0,0,0,10.822,3.96,39.168,39.168,0,0,0,24.27-1.451c2.713-1.073,5.658-2.9,5.8-5.89.1-1.668-1.2-3.133-2.06-4.57-.551-.914-1.117-1.828-1.712-2.713C539.575,640.269,536.035,634.64,530.885,634.945Z" transform="translate(82.169 3330.732)"/><path class="g" d="M530.885,634.945c-16.944,1.016-33.685-3.946-50.658-4.468a24.73,24.73,0,0,0-6.3.392,31.725,31.725,0,0,0-6.238,2.423c-9.1,4.236-18.511,7.747-27.912,11.243l-10.808,4.018A16.364,16.364,0,0,1,422.286,650c-1.03,0-2.292-.218-2.9.638-1.755,2.611-.929,6.427.232,9.357.377.943,1.016,1.973,2.031,2.074a5.9,5.9,0,0,0,2.06-.522c1.958-.522,3.917.8,5.948,1.016,2.5.261,4.816-1.161,7.181-2.031,3.917-1.451,8.182-1.451,12.3-2.089,6.891-1.146,13.288-4.352,19.265-7.993a22.49,22.49,0,0,1,7.181-3.395,19.875,19.875,0,0,1,9.038,1.03,207.4,207.4,0,0,1,20.73,7.05,96.621,96.621,0,0,0,10.822,3.96,39.168,39.168,0,0,0,24.27-1.451c2.713-1.073,5.658-2.9,5.8-5.89.1-1.668-1.2-3.133-2.06-4.57-.551-.914-1.117-1.828-1.712-2.713C539.575,640.269,536.035,634.64,530.885,634.945Z" transform="translate(82.169 3330.732)"/><path class="f" d="M436.92,648.192q3.975,1.349,8.022,2.5c1.451-2.481,4.352-4.207,4.976-7.05a.667.667,0,0,0,0-.377.7.7,0,0,0-.3-.276,15.2,15.2,0,0,0-6.3-1.842c-1.741-.1-2.539,1.712-3.322,2.988C439.691,644.7,437.631,648.467,436.92,648.192Z" transform="translate(90.529 3335.561)"/><path class="e" d="M447.62,646.03a5.8,5.8,0,0,1-3.9-2.568c-.363-.653-.769-1.538-1.523-1.451s-1,.871-1.161,1.552a43.516,43.516,0,0,1-2.19,7.529,14.13,14.13,0,0,1-4.686,6.166c-.986.682-2.074,1.19-3.046,1.915a20.919,20.919,0,0,1-2.568,1.944,15.26,15.26,0,0,1-1.973.725,13.678,13.678,0,0,0-2.814,1.451,5.585,5.585,0,0,0-1.929,1.843,2.654,2.654,0,0,0-.145,2.568,2.742,2.742,0,0,0,1.871,1.277,7.9,7.9,0,0,0,2.336,0c3.09-.218,6.18-.493,9.27-.769a26.761,26.761,0,0,0,3.873-.537l2.016-.551a16.053,16.053,0,0,1,3.525-.522,2.739,2.739,0,0,1,1.03.1c.711.232,1.219.943,1.958,1.088a3.278,3.278,0,0,0,1.451-.189,32.052,32.052,0,0,1,6.862-.711,2.9,2.9,0,0,0,2.669-1.16c.58-1.132-.377-2.394-.769-3.612a11.61,11.61,0,0,1-.319-2.364,14.419,14.419,0,0,0-1.7-5.629c-.783-1.451-1.857-3.046-1.306-4.584a4.356,4.356,0,0,0,.522-1.581C454.758,645.464,449.042,646.349,447.62,646.03Z" transform="translate(83.542 3335.952)"/><path class="f" d="M482.855,619.429a13.231,13.231,0,0,1-6.76-6.7c-.276-.638-.508-1.32-.783-1.958a14.885,14.885,0,0,0-4.033-5.614,1.986,1.986,0,0,0-1.451-.624,1.581,1.581,0,0,0-1.088,1.175,4.483,4.483,0,0,0-.116,1.813,32.312,32.312,0,0,0,.725,4.236l.827,3.743a8.213,8.213,0,0,0,.508,1.668,5.8,5.8,0,0,0,1.378,1.64c.754.7,1.523,1.364,2.292,2.031a7.878,7.878,0,0,0,1.451,1,8.434,8.434,0,0,0,2.568.754,21.85,21.85,0,0,1,9.633,3.714s0-2.51,0-2.785a3.686,3.686,0,0,0-.725-2.017,12.867,12.867,0,0,0-4.425-2.075Z" transform="translate(104.736 3319.084)"/><path class="g" d="M482.855,619.429a13.231,13.231,0,0,1-6.76-6.7c-.276-.638-.508-1.32-.783-1.958a14.885,14.885,0,0,0-4.033-5.614,1.986,1.986,0,0,0-1.451-.624,1.581,1.581,0,0,0-1.088,1.175,4.483,4.483,0,0,0-.116,1.813,32.312,32.312,0,0,0,.725,4.236l.827,3.743a8.213,8.213,0,0,0,.508,1.668,5.8,5.8,0,0,0,1.378,1.64c.754.7,1.523,1.364,2.292,2.031a7.878,7.878,0,0,0,1.451,1,8.434,8.434,0,0,0,2.568.754,21.85,21.85,0,0,1,9.633,3.714s0-2.51,0-2.785a3.686,3.686,0,0,0-.725-2.017,12.867,12.867,0,0,0-4.425-2.075Z" transform="translate(104.736 3319.084)"/><ellipse class="e" cx="4.12" cy="4.149" rx="4.12" ry="4.149" transform="translate(617.945 3901.59)"/><path class="e" d="M509.3,590.518a4.453,4.453,0,0,0-3.25.464,4.514,4.514,0,0,0-1.117,1.523,22.124,22.124,0,0,0-2.147,5.048c-.363,1.451-.421,3.09-.885,4.584-.841,2.756-3,5.092-3.25,7.964-.116,1.291.1,2.8-.841,3.67a5.336,5.336,0,0,1-.74.537,5.572,5.572,0,0,0-1.625,1.668,5.472,5.472,0,0,1-1.146,1.581c-.841.624-2.234.566-2.64,1.451s.653,2.089.406,3.133-1.161,1.248-1.813,1.828a6.338,6.338,0,0,0-1.567,2.9,9.677,9.677,0,0,1-7.892-1.958,25.123,25.123,0,0,1,1.233,9.023,3.684,3.684,0,0,1-.725,2.785,50.245,50.245,0,0,1,9.676,1.683,6.674,6.674,0,0,0,4.221,0,7.046,7.046,0,0,0,1.944-1.538c1.741-1.77,3.569-3.7,3.99-6.151a36.127,36.127,0,0,0,.072-4.163,23.472,23.472,0,0,1,1.059-5.063,60.242,60.242,0,0,0,1.843-10.416c.188-2.176,2.074-3.917,3.061-5.8,1.857-3.67,3.772-7.486,3.9-11.606C511.124,592.332,510.66,590.663,509.3,590.518Z" transform="translate(110.227 3312.713)"/><path class="g" d="M509.3,590.518a4.453,4.453,0,0,0-3.25.464,4.514,4.514,0,0,0-1.117,1.523,22.124,22.124,0,0,0-2.147,5.048c-.363,1.451-.421,3.09-.885,4.584-.841,2.756-3,5.092-3.25,7.964-.116,1.291.1,2.8-.841,3.67a5.336,5.336,0,0,1-.74.537,5.572,5.572,0,0,0-1.625,1.668,5.472,5.472,0,0,1-1.146,1.581c-.841.624-2.234.566-2.64,1.451s.653,2.089.406,3.133-1.161,1.248-1.813,1.828a6.338,6.338,0,0,0-1.567,2.9,9.677,9.677,0,0,1-7.892-1.958,25.123,25.123,0,0,1,1.233,9.023,3.684,3.684,0,0,1-.725,2.785,50.245,50.245,0,0,1,9.676,1.683,6.674,6.674,0,0,0,4.221,0,7.046,7.046,0,0,0,1.944-1.538c1.741-1.77,3.569-3.7,3.99-6.151a36.127,36.127,0,0,0,.072-4.163,23.472,23.472,0,0,1,1.059-5.063,60.242,60.242,0,0,0,1.843-10.416c.188-2.176,2.074-3.917,3.061-5.8,1.857-3.67,3.772-7.486,3.9-11.606C511.124,592.332,510.66,590.663,509.3,590.518Z" transform="translate(110.227 3312.713)"/><path class="e" d="M524.067,646.842c-3.525-1.683-6.107-4.8-8.965-7.485-5.44-5.121-12.1-8.7-17.829-13.535-3.8-3.177-7.253-6.876-11.359-9.546a28.386,28.386,0,0,0-12.171-4.25,3.231,3.231,0,0,0-1.451,0,3.335,3.335,0,0,0-1.378,1.088A43.838,43.838,0,0,0,466,619.859c-7.254,12.331-17.568,22.689-26.113,34.149a2.177,2.177,0,0,0-.421.812,2.017,2.017,0,0,0,.319,1.262l1.741,3.395c.972,1.915,2.539,4.135,4.628,3.757a5.062,5.062,0,0,0,2.423-1.552l7.8-7.471,8.182-7.819c4.787-4.57,9.662-9.255,12.8-15.116,2.437,4.236,6.775,7.007,9.734,10.88,1.132,1.451,2.06,3.09,3.076,4.657,1.61,2.5,3.453,4.845,5.281,7.253l9.386,11.968a17.965,17.965,0,0,0,4.352,4.352,16.612,16.612,0,0,0,7.529,2.016,99.451,99.451,0,0,0,10.6.378,18.282,18.282,0,0,0,7.906-1.451,7.166,7.166,0,0,0,4.28-6.369,9.342,9.342,0,0,0-1.349-3.96C534.759,654.952,530.377,649.845,524.067,646.842Z" transform="translate(91.671 3322.404)"/><ellipse class="h" cx="3.177" cy="3.192" rx="3.177" ry="3.192" transform="translate(621.425 3905.419)"/><path class="f" d="M504.822,595.626a6.106,6.106,0,0,1,.348,4.584,18.589,18.589,0,0,1-2.045,4.222,20.092,20.092,0,0,1-2.655,3.772c4.9.232,9.647-1.683,13.956-4,3.482-1.871,6.949-4.178,8.806-7.674a4.061,4.061,0,0,1-3.249-.609,11.6,11.6,0,0,1-2.481-2.307l-2.452-2.756a11.04,11.04,0,0,1-1.451-1.987,5.484,5.484,0,0,1-.653-3.206,18.672,18.672,0,0,1-3.249,2.7c-1.755,1.146-3.685,1.973-5.455,3.1-.609.406-2,1.044-1.639,1.857S504.329,594.756,504.822,595.626Z" transform="translate(119.081 3310.59)"/><path class="g" d="M504.822,595.626a6.106,6.106,0,0,1,.348,4.584,18.589,18.589,0,0,1-2.045,4.222,20.092,20.092,0,0,1-2.655,3.772c4.9.232,9.647-1.683,13.956-4,3.482-1.871,6.949-4.178,8.806-7.674a4.061,4.061,0,0,1-3.249-.609,11.6,11.6,0,0,1-2.481-2.307l-2.452-2.756a11.04,11.04,0,0,1-1.451-1.987,5.484,5.484,0,0,1-.653-3.206,18.672,18.672,0,0,1-3.249,2.7c-1.755,1.146-3.685,1.973-5.455,3.1-.609.406-2,1.044-1.639,1.857S504.329,594.756,504.822,595.626Z" transform="translate(119.081 3310.59)"/><path class="a" d="M509.509,593.02a4.135,4.135,0,0,0,0,4.787c.145.174.667,1.262.885,1.277a.8.8,0,0,0,.551-.29,36.4,36.4,0,0,0,3.1-3.7A6.906,6.906,0,0,1,518,592.512a8.53,8.53,0,0,1,5.44,1.7,5.164,5.164,0,0,1,1.871,1.451,5.067,5.067,0,0,1,.609,2.075,99.976,99.976,0,0,1,.551,13.187,51.951,51.951,0,0,1-.624,9.5c-.319,1.61-.783,3.192-1,4.831a30.857,30.857,0,0,0-.2,4.352v6.064a15.963,15.963,0,0,0,.232,3.322c.29,1.32.914,2.553,1.335,3.844a25.146,25.146,0,0,1,.885,4.541l.827,6.267c.261,1.973.464,4.134-.74,5.8-.537.711-1.247,1.291-1.8,2-2.045,2.669-1.451,6.485-2.248,9.749a12.158,12.158,0,0,1-3.975,6.093,6.572,6.572,0,0,1-5.237,1.871c-2.553-.479-4.076-3.134-4.773-5.643s-.943-5.237-2.452-7.355a19.513,19.513,0,0,0-4.845-4.047,8.371,8.371,0,0,1-3.786-4.918c-.159-.914,0-1.857-.159-2.785a6.572,6.572,0,0,0-4.048-5.324c-1.306-.508-2.9-.7-3.656-1.886a8.806,8.806,0,0,0,3.815-5.121,26.3,26.3,0,0,0,.928-6.47l.435-7.253c.2-3.264.29-6.485,1.726-9.415.638-1.306,1.451-2.539,2.1-3.83a41.566,41.566,0,0,0,2.249-5.614c1.044-2.989,2.089-5.977,3.017-8.994a16.948,16.948,0,0,1,1.654-4.193C506.912,594.949,508.044,593.31,509.509,593.02Z" transform="translate(114.458 3313.643)"/><path class="e" d="M492.424,640.779h1.929l.406-2.9a6.043,6.043,0,0,1,.406-1.7,10.169,10.169,0,0,1,1.117-1.625c1.886-2.684,1.755-6.238,2.22-9.5a48.342,48.342,0,0,1,4.236-12.418l3.743-8.342a11.52,11.52,0,0,0,.812-2.132,12.773,12.773,0,0,0,.232-2.466c0-1.291.406-5.992.45-7.254,0-.479-1.059-.218-1.277-.638-.464-.928-1.1,1.581-1.987,2.133a4.873,4.873,0,0,0-1.726,2.524c-.812,2.089-1.306,4.352-2.06,6.427a13.127,13.127,0,0,1-3.5,5.687c-.769.667-1.654,1.2-2.379,1.93-2.321,2.292-2.553,5.933-2.626,9.212C492.366,621.717,491.989,640.779,492.424,640.779Z" transform="translate(115.37 3313.256)"/><path class="e" d="M516.967,590.531a6.586,6.586,0,0,0-3.438,4.715,23.85,23.85,0,0,1-1.741,5.8c-2.35,4.091-8.342,5.281-10.01,9.705a17.842,17.842,0,0,0-.667,4.57c-.29,3.177-1.335,6.238-1.654,9.4a41.887,41.887,0,0,0,.174,7.384l2.1,24.981a33.368,33.368,0,0,1-.624,11,10.591,10.591,0,0,0,6.3-1.044c1.958-.9,3.757-2.133,5.658-3.177,3.25-1.8,6.847-3.061,9.705-5.455a5.94,5.94,0,0,0,1.306-1.451,12.542,12.542,0,0,0,.87-3.279,17.7,17.7,0,0,1,.943-2.582,76.051,76.051,0,0,0,2.727-7.718,44.3,44.3,0,0,0,1.248-5.28c.232-1.451.363-2.9.479-4.352a25.523,25.523,0,0,1,1.335-6.6,53.17,53.17,0,0,0,3.061-15.842,8.283,8.283,0,0,0-.159-2.321,12.424,12.424,0,0,0-1.277-2.655c-.87-1.639-1.451-3.438-2.205-5.106a25.11,25.11,0,0,0-8.574-9.009C520.84,591.068,518.868,589.849,516.967,590.531Z" transform="translate(118.583 3312.664)"/><path class="f" d="M488.347,621.187a15.124,15.124,0,0,1-3.989-3.032c-.522-.609-.957-1.291-1.451-1.9a9.879,9.879,0,0,0-5.019-2.9,24.513,24.513,0,0,0-5.8-.566,10.527,10.527,0,0,0-3.873.464,3.946,3.946,0,0,0-2.568,2.756,4.57,4.57,0,0,0,1.958,4.062,9.228,9.228,0,0,0,3.9,1.886,31.208,31.208,0,0,0,3.525.421c6.934.725,13.129,4.5,19.207,7.935q8.008,4.555,16.335,8.472a33.95,33.95,0,0,0,.276-5c0-1.248-.1-3.162-1.277-3.9a25.63,25.63,0,0,0-5.194-1.552,81.76,81.76,0,0,1-10.459-4.236A52.029,52.029,0,0,1,488.347,621.187Z" transform="translate(103.406 3322.773)"/><ellipse class="f" cx="12.36" cy="12.433" rx="12.36" ry="12.433" transform="translate(609.706 3879.936)"/><path class="e" d="M523.4,600.669A19.817,19.817,0,0,0,521,605.152c-1.451,3.133-3.917,5.8-5.121,9.125s-1.219,7.587-3.7,10.3a3.612,3.612,0,0,0-1.088,1.567,7.476,7.476,0,0,1-.116,1.132c-.363.986-1.973,1.03-2.278,2.046-.087.29,0,.609-.145.9-.247.653-1.117.754-1.683,1.146-1.2.812-.957,2.7-1.813,3.873a3.264,3.264,0,0,1-3.09,1.088,10.88,10.88,0,0,1-3.206-1.2,3.093,3.093,0,0,0-1.161-.363,2.4,2.4,0,0,0-1.335.464,8.225,8.225,0,0,0-3.337,7.036,22.978,22.978,0,0,0,1.915,7.877,3.162,3.162,0,0,0,.624,1.175,2.771,2.771,0,0,0,3.076.232,14.508,14.508,0,0,1,3-1.349c1.915-.348,3.786.972,5.73.856a7.963,7.963,0,0,0,3.859-1.7A21.324,21.324,0,0,0,516.333,645c.841-1.117,1.451-2.379,2.2-3.569a45.8,45.8,0,0,1,3.119-4.164l7.137-8.7a20.06,20.06,0,0,0,1.915-2.64,18.607,18.607,0,0,0,1.451-3.989,30.559,30.559,0,0,0,1.451-7.094,27.267,27.267,0,0,0-.522-5.948,21.025,21.025,0,0,0-1.451-5.672C530.086,599.944,526.314,597.275,523.4,600.669Z" transform="translate(115.682 3316.612)"/><path class="i" d="M550.383,601.532a13.927,13.927,0,0,0-5.716-11.315A16.552,16.552,0,0,0,530.61,574.1a16.059,16.059,0,0,0-31.64.856c-5.135-1.161-9.836.348-10.692,3.511s2.771,7.254,8.182,8.7a15.248,15.248,0,0,0,5.252.522,16.074,16.074,0,0,0,11.054,6.891,16.494,16.494,0,0,0,12.07,12.447,13.855,13.855,0,0,0,3.728,5.15v1.2a10.46,10.46,0,1,0,20.919,0,11.173,11.173,0,0,0-1-4.628A13.984,13.984,0,0,0,550.383,601.532Z" transform="translate(113.532 3299.567)"/><path class="g" d="M491.765,579.135c.856-3.163,5.556-4.671,10.692-3.511a16.335,16.335,0,0,1,15.958-13.753h1.059a15.726,15.726,0,0,0-4.555-.682,16.335,16.335,0,0,0-15.958,13.753c-5.135-1.161-9.836.348-10.692,3.511s2.771,7.253,8.182,8.7a15.962,15.962,0,0,0,3.1.537C494.376,586.142,490.909,582.37,491.765,579.135Z" transform="translate(113.534 3299.574)"/><path class="g" d="M527.677,605.594a10.861,10.861,0,0,1,0-1.19,13.549,13.549,0,0,1-3.729-5.15,16.451,16.451,0,0,1-12.07-12.462,16.03,16.03,0,0,1-11.069-6.876,13.926,13.926,0,0,1-3.09-.087,16.118,16.118,0,0,0,10.663,6.34,16.494,16.494,0,0,0,12.07,12.447,13.858,13.858,0,0,0,3.728,5.15v1.2a10.648,10.648,0,0,0,10.4,10.822A10.822,10.822,0,0,1,527.677,605.594Z" transform="translate(117.841 3307.962)"/><ellipse class="f" cx="1.9" cy="2.539" rx="1.9" ry="2.539" transform="translate(623.149 3894.037) rotate(-37.22)"/></g></svg>