<svg xmlns="http://www.w3.org/2000/svg" width="126.524" height="38.477" viewBox="0 0 126.524 38.477"><defs><style>.a{fill:#22aee4;}.b,.c,.d{fill:#fff;}.b{font-size:8px;font-family:Montserrat-Light, Montserrat;font-weight:300;}.c{font-size:14px;font-family:Montserrat-SemiBold, Montserrat;font-weight:600;}</style></defs><rect class="a" width="126.524" height="38.477" rx="3.715"/><g transform="translate(33.811 4.811)"><text class="b" transform="translate(32.422 8)"><tspan x="-31.552" y="0">Available on the</tspan></text><text class="c" transform="translate(43 23.089)"><tspan x="-42.931" y="0">Google Play</tspan></text></g><g transform="translate(7.087 6.473)"><path class="d" d="M161.989,796.392l-4.821-2.782-3.965,3.832,3.624,3.5,5.162-2.979a.909.909,0,0,0,0-1.574Z" transform="translate(-138.631 -784.117)"/><path class="d" d="M159.663,795.419l-5.3-3.062L142.732,786.4l13.131,12.693Z" transform="translate(-141.944 -786.399)"/><path class="d" d="M142.879,809.507l11.453-6.309,4.944-2.854L155.817,797Z" transform="translate(-141.898 -783.045)"/><path class="d" d="M142.146,786.789l-.012,25.634L155.4,799.6Z" transform="translate(-142.134 -786.275)"/></g></svg>