<svg xmlns="http://www.w3.org/2000/svg" width="126.524" height="38.477" viewBox="0 0 126.524 38.477"><defs><style>.a{fill:#22aee4;}.b,.c,.d{fill:#fff;}.c{font-size:8px;font-family:Montserrat-Light, Montserrat;font-weight:300;}.d{font-size:14px;font-family:Montserrat-SemiBold, Montserrat;font-weight:600;}</style></defs><rect class="a" width="126.524" height="38.477" rx="3.715"/><g transform="translate(6.83 6.797)"><path class="b" d="M41.566,794.186c-2.052,3.561-.748,8.966,1.523,12.244,1.132,1.639,2.28,3.109,3.85,3.109l.09,0a4.769,4.769,0,0,0,1.788-.475,4.885,4.885,0,0,1,2.117-.5,4.607,4.607,0,0,1,2.015.486,4.261,4.261,0,0,0,1.931.463c1.769-.033,2.857-1.62,3.815-3.02a13.418,13.418,0,0,0,1.672-3.424l.007-.021a.2.2,0,0,0-.107-.245l-.014-.007a5.072,5.072,0,0,1-3.074-4.646,5.221,5.221,0,0,1,2.468-4.365l.018-.012a.2.2,0,0,0,.088-.128.2.2,0,0,0-.032-.151,5.741,5.741,0,0,0-4.517-2.452,3.856,3.856,0,0,0-.394-.02,7.849,7.849,0,0,0-2.834.708,4.578,4.578,0,0,1-1.359.405,4.457,4.457,0,0,1-1.4-.411,6.8,6.8,0,0,0-2.476-.629h-.062A6.069,6.069,0,0,0,41.566,794.186Z" transform="translate(-40.542 -785.261)"/><path class="b" d="M52.886,786.645a5.543,5.543,0,0,0-3.66,1.877,5.2,5.2,0,0,0-1.315,3.85.2.2,0,0,0,.182.173c.084.007.171.01.258.01a4.693,4.693,0,0,0,3.454-1.772,5.477,5.477,0,0,0,1.286-3.961A.2.2,0,0,0,52.886,786.645Z" transform="translate(-38.221 -786.645)"/></g><g transform="translate(33.572 4.811)"><text class="c" transform="translate(35.306 8)"><tspan x="-34.32" y="0">Download on the</tspan></text><text class="d" transform="translate(36 23.089)"><tspan x="-35.763" y="0">App Store</tspan></text></g></svg>