<svg xmlns="http://www.w3.org/2000/svg" width="444" height="351.661" viewBox="0 0 444 351.661"><defs><style>.a,.e{fill:#fdbd42;}.a,.b,.c{opacity:0.1;}.b,.h{fill:#22aee4;}.c{fill:#6c63ff;}.d{fill:#f5c185;}.f{fill:#231f20;}.g{fill:#4c2a1b;}.i{fill:#e2a971;}.j{fill:#ffa800;}.k{fill:#262262;}.l{fill:#fff;}.m{fill:#e6e7e8;}.n{fill:#464747;}.o{fill:#2b3990;}.p{fill:#93f2f9;}.q{fill:#f1f2f2;}.r{fill:#80e0f9;}.s{fill:#1231a0;}.t{fill:#5a3522;}.u{fill:#1d96cb;}.v{fill:#1884aa;}.w{fill:#ff4d75;}.x{fill:#e03b66;}.y{fill:#feb624;}.z{fill:#ffca6c;}</style></defs><g transform="translate(-1388 -1005)"><g transform="translate(1388 1005)"><path class="a" d="M59.845,396.83h41.217v56.179h-38.2c-.1.577-.2,1.157-.3,1.738h38.5v45.307c-.069-.02-.13-.045-.195-.069-1.088-.43-2.169-.885-3.249-1.373l-.69-.313q-1.624-.768-3.249-1.625c-.378-.2-.755-.406-1.129-.617a67.587,67.587,0,0,1-16.2-12.655c-.138-.134-.268-.276-.406-.406-.658-.715-1.3-1.438-1.929-2.177l-.69-.812c-.739-.906-1.454-1.836-2.148-2.778-.1-.138-.2-.276-.3-.406a60.464,60.464,0,0,1-6.985-12.63c-.057-.134-.106-.28-.158-.406q-.837-2.152-1.482-4.346c-.187-.613-.366-1.218-.52-1.856-.057-.187-.106-.37-.15-.552-2.307-9-2.579-18.357-2.579-27.645V426.14c0-3.757.045-7.538.11-11.314,0-.979.041-1.953.061-2.936q.085-3.74.244-7.481c.024-.694.057-1.385.093-2.075a11.754,11.754,0,0,1,.061-1.194C59.666,399.693,59.747,398.26,59.845,396.83Z" transform="translate(-59 -259.477)"/><path class="b" d="M129.509,201.025H106.9a171.387,171.387,0,0,1,12.025-16.554c3.359-4.126,6.9-8.147,10.583-12.021Z" transform="translate(-87.447 -126.223)"/><path class="b" d="M102.487,247.09v59.074H61.4c0-.171.028-.345.041-.516.037-.467.073-.934.114-1.4.045-.544.093-1.092.146-1.625s.11-1.182.171-1.771.118-1.186.187-1.775.13-1.178.2-1.763.138-1.178.215-1.763c.061-.487.126-.971.191-1.458.093-.686.191-1.377.3-2.059a1.9,1.9,0,0,1,.045-.3A140.475,140.475,0,0,1,66.034,276.9a109.685,109.685,0,0,1,5.1-15.026A112.8,112.8,0,0,1,78.8,247.11Z" transform="translate(-60.425 -170.55)"/><path class="b" d="M186.8,195.972v56.183h88.035V195.972Zm0,57.917v48.247c.5.106,1,.207,1.5.292.674.13,1.344.248,2.031.349.13.02.264.041.406.053.268.045.544.081.812.118.678.093,1.352.171,2.031.231.321.033.646.061.971.085l.784.061h0c.426.033.849.057,1.267.069.26,0,.52.024.788.033h2.9c.349,0,.7,0,1.044-.033h.024a5.468,5.468,0,0,0,.727-.033,1.7,1.7,0,0,0,.2,0,4.2,4.2,0,0,0,.6-.028h.142l1.361-.106c.447-.041.9-.093,1.352-.142l.926-.11a81.005,81.005,0,0,0,11.148-2.372c8.212-2.291,16.245-5.495,24.453-7.842,10.612-3.026,22.337-4.512,32.591-.812V253.889Zm88.035-120.464V58.63a113.175,113.175,0,0,0-28.6,3.355c-22.292,5.6-42.293,17.747-59.432,33.261v38.175h4.419v1.734H186.8v59.082h88.035V135.16H209.36v-1.734Zm113.076-25.265a36.465,36.465,0,0,1-15.956-4.638C362.472,98.365,354.9,90.4,346.434,83.68a117.173,117.173,0,0,0-61.767-24.542v74.288H410.341l.313-.329Zm11.449-2.031L411.5,119.451V102.638a48.162,48.162,0,0,0-12.123,3.476ZM411.5,314.117V253.889H385.633c-.069-.256-.138-.516-.219-.776.077.26.142.52.215.776H284.683v43.557c.958.711,1.9,1.458,2.843,2.217h0c1.011.812,2.01,1.669,3.013,2.51l1.011.837c.483.406.971.812,1.462,1.194q1.462,1.186,2.953,2.339c.491.406.995.772,1.494,1.153a203.556,203.556,0,0,0,25.029,16.371q2.936,1.625,5.925,3.172c1.328.678,2.664,1.352,4,2.006q3.022,1.474,6.092,2.843h0A223.707,223.707,0,0,0,397.8,349.36q6.819,1.007,13.69,1.584V314.113h.406ZM284.683,135.16v59.078H411.515V135.16Zm0,60.813v56.183H411.515V195.972Zm136.676-93.408v18.755l15.494-17q-7.7-1.243-15.494-1.775Zm0,93.428v56.162H544.719V195.972ZM544.268,318.576l.435-64.687H421.359v97.7a221.211,221.211,0,0,0,23.839-.284h.138q5.686-.357,11.319-1.04h.085A208.437,208.437,0,0,0,514.9,334.748m53.608-129.524c-.463-1.092-.946-2.177-1.438-3.249-.918-2.031-1.888-4-2.888-5.978h-9.625v56.158H578.89c-.012-15.9-4.037-32.149-10.372-46.952Zm-13.95,48.686v55.639a79.7,79.7,0,0,0,16.818-22.682,77.975,77.975,0,0,0,7.5-32.965Zm0-74.288v14.62h8.724a158.38,158.38,0,0,0-8.711-14.641Zm-83.661-66.035c-.642-.244-1.283-.491-1.929-.731a176.1,176.1,0,0,0-20.838-6.262l-23.709,26.02h0l-.455.483.3.333h84.384a180.486,180.486,0,0,0-37.745-19.863Zm40.23,21.593H423.089l-1.73,1.584v57.474H544.735V166.4a175.771,175.771,0,0,0-33.6-31.239Z" transform="translate(-134.898 -58.624)"/><path class="a" d="M102.487,320.46v29.277H61.4c0-.171.028-.345.041-.516.037-.467.073-.934.114-1.4.045-.544.093-1.092.146-1.624s.11-1.182.171-1.771.118-1.186.187-1.775.13-1.178.2-1.763.138-1.178.215-1.763c.061-.487.126-.971.191-1.458.093-.686.191-1.377.3-2.059a1.9,1.9,0,0,1,.045-.3,140.473,140.473,0,0,1,3.026-14.832Z" transform="translate(-60.425 -214.123)"/><path class="b" d="M59.845,396.83h41.217v56.179h-38.2c-.1.577-.2,1.157-.3,1.738h38.5v45.307c-.069-.02-.13-.045-.195-.069-1.088-.43-2.169-.885-3.249-1.373l-.69-.313q-1.624-.768-3.249-1.625c-.378-.2-.755-.406-1.129-.617a67.587,67.587,0,0,1-16.2-12.655c-.138-.134-.268-.276-.406-.406-.658-.715-1.3-1.438-1.929-2.177l-.69-.812c-.739-.906-1.454-1.836-2.148-2.778-.1-.138-.2-.276-.3-.406a60.464,60.464,0,0,1-6.985-12.63c-.057-.134-.106-.28-.158-.406q-.837-2.152-1.482-4.346c-.187-.613-.366-1.218-.52-1.856-.057-.187-.106-.37-.15-.552-2.307-9-2.579-18.357-2.579-27.645V426.14c0-3.757.045-7.538.11-11.314,0-.979.041-1.953.061-2.936q.085-3.74.244-7.481c.024-.694.057-1.385.093-2.075a11.754,11.754,0,0,1,.061-1.194C59.666,399.693,59.747,398.26,59.845,396.83Z" transform="translate(-59 -259.477)"/><path class="a" d="M170.551,184.218v50.619H139.56V184.218h4.419V167.08h18.137v17.138Z" transform="translate(-87.658 -99.223)"/><path class="a" d="M186.8,539.44h30.991v46.7a80.876,80.876,0,0,1-11.148,2.368l-.926.114c-.455.053-.906.1-1.352.142s-.91.077-1.361.106h-.142c-.195,0-.406.024-.6.028h-.207c-.244,0-.487.024-.731.033h0c-.345.02-.69.024-1.044.028h-2.875l-.784-.028c-.406,0-.845-.045-1.267-.073h0l-.78-.057-.971-.089c-.682-.061-1.361-.138-2.031-.231l-.812-.114-.406-.057c-.678-.106-1.348-.219-2.031-.349-.5-.085-1-.191-1.5-.292Z" transform="translate(-134.898 -344.17)"/><path class="a" d="M507.416,338.19v56.183H380.58V370.139h67.558v14.3h33.72V338.19Z" transform="translate(-230.794 -200.841)"/><path class="a" d="M555.058,598.542h-.406V635.4q-6.863-.581-13.686-1.58a223.717,223.717,0,0,1-59.318-17.309q-8.175-3.679-16.017-8.033A204.393,204.393,0,0,1,440.6,592.1q-2.989-2.29-5.9-4.687c-1.344-1.109-2.68-2.246-4.033-3.351-.938-.759-1.884-1.507-2.843-2.221v-43.54H528.761c-.069-.26-.138-.52-.211-.776.077.256.15.516.219.776h25.882v60.212C554.79,598.521,554.924,598.533,555.058,598.542Z" transform="translate(-278.034 -343.036)"/><path class="c" d="M879.871,212.706H863.22v-5.174h7.465V192.12q.971.353,1.933.727v14.685h7.253Z" transform="translate(-536.609 -137.904)"/><path class="a" d="M861.277,306.164H779.533l.028.02-.037-.02H764.36V249.571h4.3V291.4h19.636V266.628h16.22V247.09h16.651v19.555h16.221v24.773h23.892Z" transform="translate(-477.898 -170.55)"/><path class="a" d="M764.36,396.82V453h96.917V396.82ZM887.585,519.136l.134-44.47H861.277v-19.9H764.36v97.672a221.226,221.226,0,0,0,23.839-.284h.138q5.686-.357,11.319-1.04h.085A208.435,208.435,0,0,0,857.9,535.6" transform="translate(-477.898 -259.471)"/><path class="a" d="M1094.076,539.44h22.609a78.221,78.221,0,0,1-7.5,32.961,79.734,79.734,0,0,1-16.813,22.682V559.344h1.706Z" transform="translate(-672.697 -344.17)"/><path class="a" d="M1119.191,466.5H1096.57V419.55h12.24C1115.146,434.353,1119.171,450.6,1119.191,466.5Z" transform="translate(-675.191 -272.97)"/></g><g transform="translate(1474.098 1073.635)"><g transform="translate(140.325 0)"><path class="d" d="M155.067,358.8c2.493,2.764,5.221,5.319,7.933,7.862,1.892,1.774,3.691,3.918,5.733,5.5,2.245,1.741,3.945.8,6.573.04,4.835-1.408,9.832-2.068,14.713-3.293,1.364-.343,6.166-2.871,10.073-3.82a25.988,25.988,0,0,0-.392,6.553,4.079,4.079,0,0,1-.432-.085c-6.081,1.622-13.4,6.169-14.959,6.807-4.045,1.654-8.506,3.354-12.311,3.691a18.426,18.426,0,0,1-2.257.075,13.327,13.327,0,0,1-7.991-3.061c-1.737-1.3-3.638-2.514-5.538-3.8C156.245,369.737,156.22,364.187,155.067,358.8Z" transform="translate(-98.278 -296.359)"/><path class="e" d="M142.96,356.4c2.848-.607,3.09-1.492,3.513-1.531,3.075-.286,0-4.18,2.94-3.111a40.073,40.073,0,0,1,8.214,3.708c6.334,4.063,12.884,15.678,18.2,18.044,1.651.735,3.557.186,5.263.755a4.491,4.491,0,0,1,2.743,2.694,18.533,18.533,0,0,1,1.633,7.481,1.718,1.718,0,0,1-1.153,1.684c-5.368,1.59-10.579.061-15.243-2.76-3.709-2.242-6.974-5.129-10.644-7.423-2.933-1.833-6.011-3.425-8.936-5.274-4.9-3.1-9.8-7.19-10.828-13.006C138.617,357.406,140.643,356.893,142.96,356.4Z" transform="translate(-105.188 -299.406)"/><path class="d" d="M199.5,367.866c.3-1.585,1.653-3.425.318-4.819-1.067-1.113-3.284-1.423-4.865-1.691a7.3,7.3,0,0,0-5.564,1.134c-1.346.813-2.686,1.684-3.962,2.582-.3.21-.6.463-.9.718a.99.99,0,0,0-.379.2,2.6,2.6,0,0,0-.4.422,4.166,4.166,0,0,1-1.251.665.741.741,0,1,0,.372,1.421c.075-.023.144-.053.216-.078a2.957,2.957,0,0,0,.284,1.353c.63,1.242,2.4,1.091,3.793,1.114,2.129.033,4.188.183,6.041-1.093a9.162,9.162,0,0,0,2.214-2.064c.023.007.043.016.065.021a.984.984,0,0,0,1.079-.554,5.505,5.505,0,0,0,.25-1.35c0,.169-.011.338-.027.507a4.131,4.131,0,0,1-.213,1.086c-.274.723.649,1.084,1.241.776C198.04,368.851,199.349,368.686,199.5,367.866ZM195,364.586c.206-.024.411-.036.614-.04a2.52,2.52,0,0,0-.445,1.057,1.042,1.042,0,0,0-.415.1c-.587.284-1.785,1.073-2.113.523C192.127,365.371,194.26,364.67,195,364.586Z" transform="translate(-86.993 -295.343)"/><path class="f" d="M125.717,496.82c.3-.925-.259,2.528.45,2.507a12.66,12.66,0,0,1,4.083.451c.377-1.172.01-4.5.986-3.532,2.67,2.636,3.4,9.958,3.419,13.816.023,4.063-.183,8.82-3.543,10.832-5.469,3.276-7.758-6.111-7.639-10.636C123.554,507.252,123.135,504.8,125.717,496.82Z" transform="translate(-111.586 -238.548)"/><path class="d" d="M131.671,497.183s2.524,10.05-.4,12.228-5.511,1.082-5.94,0c-1.654-4.177-.6-12.228-.6-12.228Z" transform="translate(-111.193 -238.081)"/><path class="f" d="M175.917,503.2c-2.71-3.287-10.484-2.022-14.02-1.45a14.391,14.391,0,0,1-4.09.051c-.56-.071-3.418-.4-3.442-1.208a1.787,1.787,0,0,0-1.542-1.768,1.955,1.955,0,0,0-.74-2.051l-.161-.121c-.563-.422.3-1.91-.271-1.661-1.816.785-3.073,5.45-3.455,6.949-1.042,4.1,1.906,5.412,4.5,5.45,8.025.118,16.5.624,22.395-1.073A1.892,1.892,0,0,0,175.917,503.2Z" transform="translate(-101.263 -239.017)"/><path class="d" d="M166.587,502.213s-6.245-.651-7.252-1.657-2.517-8.254-2.517-8.254l-7.713,6.559s.756,3.967,4.492,4.011S162.16,503.87,166.587,502.213Z" transform="translate(-100.789 -240.136)"/><path class="g" d="M153.7,333.424a9.425,9.425,0,0,0,.424-2.585c.149-8.045-9.564-11.533-16.321-10.178-8.173,1.637-17.317,5.257-15.66,15.644a10.913,10.913,0,0,0,.593,2.221c2.774,7.212,7.987,16.289,15.169,17.6,4.957.911,6.013-5.827,7.285-9.016C146.981,342.6,152.172,338.422,153.7,333.424Z" transform="translate(-112.229 -312.544)"/><path class="h" d="M136.74,426.236a5.649,5.649,0,0,0,.713.142,10.162,10.162,0,0,0,2.379,0c.276,3.159.415,6.336.735,9.417.854,8.253,3.713,16.134,6.2,24a124.593,124.593,0,0,1,3.412,12.7c.888,4.384,1,8.894,1.434,13.339.448,4.6-1.776,9.25-1.181,13.836.588,4.563.256,29.254,2.153,37.81,2.029,1.954,9.2,1.967,12.437,1.082.108-.03,3.192-.837,3.192-3.8-2.724-8.912-1.678-49.753-2.258-61.576-.456-9.279-1.488-18.474-2.805-27.649-.024-2.226-.207-4.454-.441-6.623-.384-3.627-3.216-18.853-4.69-27.657v0c-.424-2.527-.733-4.524-.843-5.565-4.091-8.749-1.92.486-6.3-8.112.058.794.088,1.592.094,2.389a2.9,2.9,0,0,1-4.043,2.6,11.986,11.986,0,0,1-.875,2.926,2.938,2.938,0,0,1-4.262.843c.021.543.04,1.09.055,1.636,0,.055,0,.107.006.161a2.194,2.194,0,0,0-1.514,1.253,7.738,7.738,0,0,1-.935,1.4c-.378.475-.78.934-1.143,1.438a11.517,11.517,0,0,0-1.5,3.219,13.628,13.628,0,0,1-1.174,3.061,14.781,14.781,0,0,0-1.643,2.73A3.792,3.792,0,0,0,136.74,426.236Z" transform="translate(-107.271 -280.027)"/><path class="h" d="M118.842,449.384c1.46,12.026,3.253,24.307,2.392,36.448-.58,8.145.082,16.464.414,24.6.348,8.45.867,16.9,1.04,25.359.065,3.246.072,4.813,3.941,5.388,3.313.492,12.148-.584,11.956-5.032.443-20.52-2.831-43.027-2.289-63.6q.571-4.185,1.271-8.349c1.626-9.833,3.513-19.63,4.875-29.5.408-2.95,1.1-6.152,1.613-9.3q.126-.769.236-1.532c.06-.419.121-.844.175-1.271a2.425,2.425,0,0,0,2.019-2.416c.037-1.71,1.046-3.162,1.892-4.585a14.98,14.98,0,0,0,2.231-5.326c.018-.125.03-.252.04-.381a2.453,2.453,0,0,0-1.221-2.518,9.273,9.273,0,0,0-.981-.369,19.057,19.057,0,0,0-5.457-.621,24.227,24.227,0,0,1-7.057-1.613A51.378,51.378,0,0,1,130.7,402.6a10.67,10.67,0,0,0-5.487-1.3c-1.89.2-3.118-2.648-3.7-.745-.151.495-2.237,7.3-2.291,8.41C118.556,422.794,117.166,435.58,118.842,449.384Z" transform="translate(-113.87 -279.053)"/><path class="h" d="M118.87,409.941c7.562,4.182,10.512-2.976,10.512-2.976a125.291,125.291,0,0,0,13.846,3.473c.846.158,1.651.279,2.426.36a23.034,23.034,0,0,0,4.644.07,18.356,18.356,0,0,0,8.371-2.9c3.267,3.871,5.6,3.3,5.6,3.3v0c-.424-2.527-.733-4.524-.843-5.565-4.091-8.749-1.92.486-6.3-8.112.058.794.088,1.592.094,2.389a2.9,2.9,0,0,1-4.043,2.6,11.985,11.985,0,0,1-.875,2.926,2.938,2.938,0,0,1-4.262.843c.021.543.04,1.09.055,1.636a19.056,19.056,0,0,0-5.457-.621,24.228,24.228,0,0,1-7.057-1.613,51.385,51.385,0,0,1-5.234-2.174,10.67,10.67,0,0,0-5.487-1.3c-1.89.2-3.118-2.648-3.7-.745a3.731,3.731,0,0,0-.142,1.482C120.237,403.713,118.924,408.826,118.87,409.941Z" transform="translate(-113.523 -280.027)"/><path class="d" d="M140.539,356.466c-2.3,2.15-7.326,3.026-9.473-.058-1.012.045-2.059-1-1.7-2.655.04-.165.07-.331.107-.495a2.734,2.734,0,0,1,.165-.851c.169-1,.287-2.012.4-3.024.048-.406.094-.814.145-1.222.006-.266.009-.531,0-.8a2.482,2.482,0,0,1,.338-1.4c.018-.082.034-.166.051-.249.043-.213.091-.425.142-.637.553-2.253,2.77-1.815,3.181.013a2.046,2.046,0,0,1,.912,1.28c.03.108.06.22.084.331a7.877,7.877,0,0,1,.193,1.516l.018.006.048.024a1.371,1.371,0,0,1,1.89.222,1.31,1.31,0,0,1,.752-.1,1.734,1.734,0,0,1,.166-.3,2.482,2.482,0,0,1,.2-.622c.7-1.474,2.574-.929,2.96.681a2.7,2.7,0,0,1,.027,1.153,12.451,12.451,0,0,0-.163,1.471c.03.392.061.786.091,1.178v0c.054.706.105,1.41.126,2.12A2.611,2.611,0,0,1,140.539,356.466Z" transform="translate(-109.134 -302.786)"/><path class="i" d="M141.048,348.639a12.464,12.464,0,0,0-.163,1.471c.03.392.061.786.091,1.178v0s-3.742,7.119-11.443.475c.048-.408.5-3.839.547-4.246.006-.266.009-.532,0-.8a2.482,2.482,0,0,1,.338-1.4c.018-.082.034-.166.051-.249l4.319.988,3.27.749,2.96.681A2.7,2.7,0,0,1,141.048,348.639Z" transform="translate(-109.033 -302.144)"/><path class="d" d="M147.626,327.037a6.416,6.416,0,0,0-2.207-1.082c-1.724-.493-4.2.57-5.945.482-2.993-.154-7.262-.82-9.33,1.848-1.923,2.48-.995,5.778-.978,8.786,0,.628-.031,1.252-.085,1.875l-.1-.071a3.31,3.31,0,0,0-2.427-.6,1.684,1.684,0,0,0-1.444,1.4,6.573,6.573,0,0,0,3.313,5.659c.017.011.034.02.051.03a12.091,12.091,0,0,0,.377,3.061c.946,3.576,3.64,5.842,6.435,8.041,2.578,2.028,5.3,2.092,8.264.77,3-1.34,4.205-3.876,5.052-6.9.919-3.286,1.744-6.5,1.4-9.932C149.59,336.205,151.281,329.887,147.626,327.037Z" transform="translate(-110.895 -310.249)"/><path class="e" d="M125.594,406.115a22.449,22.449,0,0,0,.843-13.491c-.564-2.618-1.353-5.173-2.172-7.718a26.879,26.879,0,0,0,1.873-7.312.138.138,0,0,0,0-.033,22.3,22.3,0,0,0,.118-2.658,55.835,55.835,0,0,0-.982-8.126c-.559-3.4-1.452-7.559-3.509-10.541.834-.358,10.5-5.054,11.339-5.412,0,0,8.737,3.115,11.852-.229,1.415-.506,11.959,1.079,13.066,1.975.124,4.481-.131,8.98,1.606,13.242,2.1,5.136,6.593,11.24,4.674,17.065-.486,1.477-1.558,2.368-2.3,3.615-.03.048-.06.1-.087.148l-.018.03a12.251,12.251,0,0,0-1.084,3.014c-.215.87-.384,1.745-.55,2.533a32.99,32.99,0,0,0-.414,11.577c.217,1.461.556,2.9.792,4.366.108.676.2,1.357.3,2.032.018.136.064.459.072.533.053.385.1.776.152,1.161.365,2.807.718,5.612,1.265,8.388.139,1.748.263,3.5.347,5.251a17.075,17.075,0,0,1-5.933,2.6,32.067,32.067,0,0,1-10.367.531,82.777,82.777,0,0,1-16.68-3.411c-1.05-.31-3.02-.682-4.883-1.289-2.392-.779-4.612-1.951-4.518-3.89.082-1.651,1.3-3.291,1.855-4.813Q123.926,410.682,125.594,406.115Z" transform="translate(-112.88 -299.858)"/><path class="j" d="M130.4,382.242c1.205,5.611,1.46,14.871,0,18.493-1.1,2.733-4.086,11.2-5.487,15.191-2.392-.779-4.612-1.951-4.518-3.89.082-1.651,1.3-3.291,1.855-4.813q1.671-4.57,3.34-9.138a22.449,22.449,0,0,0,.843-13.491c-.564-2.618-1.353-5.173-2.172-7.718a26.879,26.879,0,0,0,1.873-7.312c-.048.824.35,9.975,4.266,10.5a22.289,22.289,0,0,0,6.678,0S134.077,383.076,130.4,382.242Z" transform="translate(-112.88 -291.828)"/><path class="j" d="M141.635,348.723l-3.644,4.3-7.889-4.148-1.7,3.332,8.959,6.422.63-5.606,3.58,4.86,2.9-6.565Z" transform="translate(-109.508 -300.605)"/><path class="k" d="M192.528,379.03h-1.1v-5.349a1.346,1.346,0,0,0-1.344-1.344,2.443,2.443,0,0,1-2.442-2.442v-4a2.444,2.444,0,0,1,2.442-2.442h3.786a2.445,2.445,0,0,1,2.442,2.442v1.2h-1.1v-1.2a1.347,1.347,0,0,0-1.344-1.344h-3.786a1.346,1.346,0,0,0-1.344,1.344v4a1.345,1.345,0,0,0,1.344,1.344,2.445,2.445,0,0,1,2.442,2.442Z" transform="translate(-84.558 -294.403)"/><path class="k" d="M174.064,385.989a.549.549,0,0,1-.227-1.049l24-10.863a.549.549,0,0,1,.46,0l23.072,10.865a.549.549,0,0,1-.469.992l-22.842-10.755L174.29,385.94A.557.557,0,0,1,174.064,385.989Z" transform="translate(-90.509 -289.948)"/><path class="j" d="M135.337,351.749a80.609,80.609,0,0,1,8.3,35.82c-.038,20.732-1.819,40.737-1.819,40.737l-1.894.09s1.894-33.472,1.894-41.609c0-16.237-7.107-33.479-7.107-33.479Z" transform="translate(-106.853 -299.331)"/><path class="j" d="M151.72,375.827c-.03.048-.06.1-.087.148l-.018.03a12.251,12.251,0,0,0-1.084,3.014,12.468,12.468,0,0,1-5.71-1.3A9.125,9.125,0,0,0,151.72,375.827Z" transform="translate(-102.594 -289.19)"/><path class="g" d="M127.933,331.665s-10.671-9.361-2.606-14.8S140.5,318.075,138,324.719,127.933,331.665,127.933,331.665Z" transform="translate(-112.073 -314.865)"/><path class="d" d="M118.661,377.377V360.13c2.112,1.639,3.891,3.978,5.656,5.831,2.075,2.18,3.974,4.518,5.821,6.894A92.206,92.206,0,0,0,128.2,388.59c-.172,2.588-.688,5.339-.617,7.923.078,2.839,1.88,3.56,4.138,5.1,4.155,2.845,7.835,6.291,11.878,9.287,1.593,1.181,10.872,4.886,12,8.419-3.171-.166-3.928-.354-7.1-.408-5.089-3.225-14.469-5.693-15.829-6.428-3.844-2.078-7.987-4.448-10.663-7.177a18.316,18.316,0,0,1-1.489-1.7,13.326,13.326,0,0,1-2.7-8.118c-.125-2.75-.519-5.622-.732-8.548-.182-2.488-.284-4.981-.418-7.471A2.044,2.044,0,0,0,118.661,377.377Z" transform="translate(-114.451 -295.801)"/><path class="e" d="M124.39,354.66c1.609,1.542,2.888,5.116,5.109,7.781,1.477,1.769,4.8,10.165,5.665,12.436a3.154,3.154,0,0,0-.31.247,14.214,14.214,0,0,0-3.412,5.018c0-.046-1.1-.091-1.093-.134-.014.077,1.064.153,1.05.23-.009.023-.02.044-.028.067-.134.328-1.271.681-1.251,1.033-.361,2.086.375,4.178.007,6.264-.6,3.414-1.359,7.444-.446,10.87.48,1.8,2.113,2.965,2.756,4.7a4.781,4.781,0,0,1-.344,3.956,19.086,19.086,0,0,1-4.747,6.208,1.678,1.678,0,0,1-2.034.183c-4.634-3.245-6.758-8.41-7.536-13.984-.618-4.434-.458-8.932-1.013-13.369-.443-3.544-1.165-7.046-1.592-10.593C114.521,370.176,118.961,356.084,124.39,354.66Z" transform="translate(-115.107 -298.105)"/><rect class="l" width="10.257" height="3.028" transform="translate(18.994 72.049) rotate(-3.377)"/><path class="d" d="M190.8,364.868c.013-.007.169-.121.179-.121.048-.041.1-.081.144-.124.146-.127.29-.257.442-.379a3.287,3.287,0,0,1,1.353-.716,1.218,1.218,0,0,1,.648,2.349l-.139.035c-.047.023-.119.057-.136.067s-.105.077-.144.1l-.1.087a8.911,8.911,0,0,1-1.018.8,1.228,1.228,0,0,1-1.666-.436A1.245,1.245,0,0,1,190.8,364.868Z" transform="translate(-83.479 -294.383)"/><path class="l" d="M221.635,440.3s-7.771,1.832-14.453,3.409a41.173,41.173,0,0,1-18.957-.013c-6.641-1.573-14.324-3.4-14.324-3.4s7.9-31.345,8.312-40.34-6.949-17.054-6.949-17.054l9.485-4.481,4.416-2.086c.273,19.99,8.6,18.988,8.6,18.988s8.332,1,8.605-18.988l13.9,6.567s-7.359,8.059-6.949,17.054S221.635,440.3,221.635,440.3Z" transform="translate(-90.346 -288.976)"/><path class="m" d="M194.918,395.359c-.3,5-6.331,6.085-5.606,2.724s-3.451-5.361-6.994-8.176-.453-4.361.637-7.087c.775-1.933-.206-3.26-1.055-4.363a6.573,6.573,0,0,1-.853-1.27c-.605-1.387,5.268-.816,5.268-.816C186.589,396.36,194.918,395.359,194.918,395.359Z" transform="translate(-87.498 -289.011)"/><path class="m" d="M190.695,395.359c.3,5,6.331,6.085,5.606,2.724s3.451-5.361,6.995-8.176.452-4.361-.638-7.087c-.775-1.933.207-3.26,1.054-4.363a6.506,6.506,0,0,0,.853-1.27c.605-1.387-5.268-.816-5.268-.816C199.024,396.36,190.695,395.359,190.695,395.359Z" transform="translate(-83.273 -289.011)"/><path class="n" d="M185.021,396.5a1.2,1.2,0,0,0-.706.143,1.161,1.161,0,0,0-.318.422c-.54,1-1.049,2.194-.59,3.235a4.963,4.963,0,0,1,.465.993c.237,1.212-1.542,2.1-1.354,3.326a1.515,1.515,0,0,0,1.7,1.1,2.742,2.742,0,0,0,2.11-1.8,6.113,6.113,0,0,0,.233-2.882.542.542,0,0,1,.033-.327.463.463,0,0,1,.212-.169c.406-.2.905-.253,1.2-.6a1.69,1.69,0,0,0,.286-.58C189.4,396.12,187.75,396.517,185.021,396.5Z" transform="translate(-86.723 -280.488)"/><g transform="translate(24.385 109.955)"><path class="o" d="M153.383,402.692a.863.863,0,0,1-.5-.155l-6.128-4.248a.872.872,0,0,1,.993-1.433l6.128,4.248a.871.871,0,0,1-.5,1.587Z" transform="translate(-126.32 -390.354)"/><rect class="p" width="4.819" height="4.42" transform="matrix(-0.954, -0.301, 0.301, -0.954, 19.07, 12.087)"/><rect class="p" width="3.192" height="3.278" transform="translate(34.03 6.844) rotate(-162.506)"/><path class="m" d="M136.4,411.866l-4,12.7a2.777,2.777,0,0,0,1.815,3.485l11.327,3.57a2.777,2.777,0,0,0,3.485-1.815l4.036-12.8a15.289,15.289,0,0,0,.418-7.556l-1.587-8.062-5.542-1.748-6.029,5.869A15.291,15.291,0,0,0,136.4,411.866Z" transform="translate(-132.266 -389.12)"/><path class="q" d="M138.171,412.425l-4,12.7a2.781,2.781,0,0,0,1.816,3.486l8.8,2.774a2.777,2.777,0,0,0,3.485-1.815l4.036-12.8a15.289,15.289,0,0,0,.418-7.556l-1.587-8.062-3.021-.954-6.029,5.871A15.291,15.291,0,0,0,138.171,412.425Z" transform="translate(-131.519 -388.884)"/><rect class="r" width="17.347" height="9.68" transform="translate(18.286 35.54) rotate(-162.505)"/><rect class="p" width="14.746" height="9.68" transform="translate(18.369 35.566) rotate(-162.505)"/><path class="s" d="M160.709,394.993l-6.884-2.17a12.711,12.711,0,0,0-9.375.689l-2.949,1.431a1.523,1.523,0,0,0,.207,2.822l7.981,2.515s3.135-4.505,10.035-2.162Z" transform="translate(-128.738 -392.235)"/></g><path class="d" d="M152.523,398.149h-3.149c-1.136-.6-3.668-.344-4.4-.938-.972-.787-.064-.627.915-2.828s-2.309.649-3.226,1.8a9.455,9.455,0,0,1-3.922,2.363s-.742,6.084,1.062,6.694,7.107.662,8.351.482,2.126-1.481,1.7-3.658a3.971,3.971,0,0,1,.007-2.281h2.669A.818.818,0,0,0,152.523,398.149Z" transform="translate(-105.219 -281.717)"/></g><g transform="translate(0 4.452)"><path class="g" d="M88.868,327.6c-1.523-3.884,1.158-8.318,5.116-9.385,4.781-1.29,7.633,3.424,8.564,7.684a28.747,28.747,0,0,1-.151,10.5,105.551,105.551,0,0,1-4.58,18.415c-1.377,3.969-2.339,11.133-5.844,13.7-1.84,1.346-3.85,1.673-5.462.759-1.7-.961-2.714-3.3-3.672-5.7-1.045-2.628.46-7.107,1.813-9.694,2.014-3.851,4.275-5.761,5.929-10.231A49.622,49.622,0,0,0,92.4,337.47c.2-.9.613-5.329.917-5.8C91.385,334.656,90.836,332.608,88.868,327.6Z" transform="translate(11.481 -317.998)"/><path class="h" d="M86.144,322.139a5.059,5.059,0,0,1,.9-.811,2.739,2.739,0,0,1,1.73-.443,2.931,2.931,0,0,1,1.69.676,4.284,4.284,0,0,1,.58.556,3.594,3.594,0,0,1,1.234,2.726,3.293,3.293,0,0,1-1.472,2.484,3.012,3.012,0,0,1-1.67.482l.131.009h-.014a2.126,2.126,0,0,1-.725-.047h0a2.045,2.045,0,0,1-.379-.124,2.1,2.1,0,0,1-.958-.529,2.959,2.959,0,0,1-.675-.914,1.488,1.488,0,0,1-.124-.1,2.828,2.828,0,0,1-.938-1.9A2.915,2.915,0,0,1,86.144,322.139Z" transform="translate(12.725 -316.784)"/><path class="t" d="M76.143,322.239a2.467,2.467,0,0,1,3.864-.173,4.993,4.993,0,0,1,1.4-.841,6.546,6.546,0,0,1,6.212.718,2.528,2.528,0,0,1,2.5-.77,11.188,11.188,0,0,1,5.172,2.1,10.413,10.413,0,0,1,3.017,5.311c1.944,7.441-1.461,16.036-7.454,20.681-1.774,1.374-4.2,1.379-4.714-1.249-.051.011-.1.027-.156.037a2.579,2.579,0,0,1-1.006.458c-.068.03-.132.061-.2.088-3.107,1.16-6.7-1.406-7.681-4.343-.041-.122-.077-.249-.107-.375a2.951,2.951,0,0,1-.48-.348c-2.325-2.042-3.831-5.827-4.249-8.847C71.673,330.452,73.6,325.527,76.143,322.239Z" transform="translate(7.128 -316.84)"/><path class="g" d="M75.471,322.057c.016,2.753.9,5.339,3.5,6.874a10.24,10.24,0,0,0,8.169.409,9.331,9.331,0,0,0,5.915-6.07,3.888,3.888,0,0,0-.836-.77c-.307-.263-.622-.516-.948-.756a13.41,13.41,0,0,0-2.019-1.248,11.565,11.565,0,0,0-4.387-1.177A14.455,14.455,0,0,0,75.471,322.057Z" transform="translate(8.525 -317.454)"/><path class="f" d="M95.313,496.774c.232-.924-.084,2.49.607,2.422a12.417,12.417,0,0,1,4.022.168c.291-1.17-.29-4.394.73-3.517,2.785,2.4,3.982,9.509,4.261,13.279.294,3.971.408,8.635-2.741,10.825-5.129,3.567-7.991-5.457-8.176-9.888C93.892,507.116,93.319,504.744,95.313,496.774Z" transform="translate(16.263 -243.159)"/><path class="d" d="M107.166,524.067c-.406-2.329-1.414-4.494-1.919-6.8-.53-2.422-.173-4.957,0-7.407.381-5.463,1.026-10.9,1.319-16.375.155-2.912.281-5.824.34-8.739.22-11.068-2.41-21.643-4.326-32.485-2.76.429-5.543.756-8.325.959a48.446,48.446,0,0,1-8.072.024c1.109.105,4.19,13.583,4.606,15.144,1.383,5.183,2.314,10.532,3.291,15.81q1.716,9.258,3.054,18.582c.674,4.707,1.519,9.4,1.253,14.166-.219,3.91-1.454,10.205,2.349,12.937C104.934,532.9,107.8,527.668,107.166,524.067Z" transform="translate(13.035 -261.451)"/><path class="f" d="M68.792,505.617c2.658-3.22,10.274-1.983,13.74-1.421a14.066,14.066,0,0,0,4.006.051c.549-.07,3.35-.388,3.372-1.184a1.753,1.753,0,0,1,1.512-1.732,1.914,1.914,0,0,1,.725-2.01l.158-.118c.551-.414-.3-1.872.266-1.629,1.779.769,3.011,5.341,3.385,6.81,1.02,4.015-1.866,5.3-4.413,5.339-7.863.117-16.168.613-21.944-1.05A1.855,1.855,0,0,1,68.792,505.617Z" transform="translate(5.503 -242.379)"/><path class="d" d="M91.4,513.742a2.709,2.709,0,0,1,.011-.286c.142-1.521.365-3.037.6-4.548a141.444,141.444,0,0,0,1.8-21.4c0-7.491-1.822-13.961-2.932-21.263a24.807,24.807,0,0,1-.114-7.188q-.358-1.859-.713-3.716c-5.291.425-10.6.561-15.928.593,1.391,4.369,2.733,8.747,3.843,13.218,3.166,7.487,4.488,15.4,5.321,23.456.384,3.706.634,7.424.853,11.143.115,1.985.254,3.971.3,5.96.08,3.223.033,6.634-2.885,8.662-2.491,1.731-5.75,2.255-8.457,3.593-.419.207,3.151.8,3.3.81,4.069.384,10.231,1.457,14.169-.678a7.068,7.068,0,0,0,1.126-.753C94.008,519.446,91.419,516.072,91.4,513.742Z" transform="translate(7.511 -260.153)"/><path class="h" d="M113.605,472.5a59.961,59.961,0,0,1-3.445-16.791c-.4-5.712,1.123-11.427,1.516-17.1a108.932,108.932,0,0,0-.6-19.213c-.355-3.192-4.353-15.186-7.1-16.4a5.047,5.047,0,0,0-3.317-.34c-.115.031-.229.067-.34.108a8.434,8.434,0,0,0-.793-.551c-2.6-1.582-6.014-1.221-8.774-.274a17.422,17.422,0,0,0-4.512,2.228A6.774,6.774,0,0,0,84.459,403a4.913,4.913,0,0,0-3.659-.23,7.684,7.684,0,0,0-.79-.551c-2.6-1.583-6.017-1.222-8.776-.276a16.765,16.765,0,0,0-4.893,2.517c-.284,2.621-.691,5.228-1.153,7.823a63.5,63.5,0,0,0-.139,20.767,78.178,78.178,0,0,0,2.464,10.815c3.357,11.119,6.854,23.155,7.218,34.842a3.051,3.051,0,0,0,2.169,2.849c8.727,2.812,18.31,1.518,27.042-.514,3.361-.783,9.958-1.6,10.2-6.138A5.707,5.707,0,0,0,113.605,472.5Z" transform="translate(3.805 -282.986)"/><path class="d" d="M74.322,378.545c-1.241,3.51-.029-1.127-1.556,2.263-1.066,2.365-2.4-1.681-3.677.566-1.4,2.47-4.859-.989-7.578-.686-5.005.557-9.873,1.867-14.85,2.611-1.391.209-6.8-.281-10.768.343a25.988,25.988,0,0,1,2.879,5.9,4.114,4.114,0,0,0,.367-.244c6.237-.838,14.74.55,16.426.54,4.37-.026,9.141-.171,12.786-1.32a18.527,18.527,0,0,0,2.112-.8,13.324,13.324,0,0,0,6.2-5.895c1.106-1.865,2.393-3.719,3.655-5.635C78.161,371.084,75.325,383.956,74.322,378.545Z" transform="translate(-256.623 -146.629) rotate(-45)"/><path class="e" d="M87.624,351.772c-.055-.253-2.123.053-4.452.486-2.862.532-3.425-.192-3.831-.065-1.458.453-1.865-.482-2.184-1.289a10.058,10.058,0,0,1-2.834.576,34.548,34.548,0,0,0-5.052,5.548c-4.288,6.185-5.874,19.424-9.874,23.651-1.242,1.315-3.212,1.539-4.569,2.719a4.494,4.494,0,0,0-1.5,3.542,18.552,18.552,0,0,0,1.366,7.534,1.719,1.719,0,0,0,1.711,1.113c5.567-.593,9.792-4.006,13.015-8.4,2.564-3.5,4.468-7.414,6.976-10.943,2.005-2.82,4.235-5.47,6.226-8.3C85.957,363.2,88.909,357.536,87.624,351.772Z" transform="translate(-0.802 -304.139)"/><path class="d" d="M32.338,384.481c.665.058,1.379-.63.848-1.194a4.071,4.071,0,0,1-.614-.919c-.08-.151-.153-.3-.22-.459a5.562,5.562,0,0,0,.749,1.151.98.98,0,0,0,1.208.1c.02-.013.036-.03.054-.044a9.152,9.152,0,0,0,2.835,1.055c2.2.466,4.046-.463,6-1.312,1.278-.556,2.97-1.1,3.074-2.484a2.938,2.938,0,0,0-.257-1.36c.077,0,.152,0,.23-.01a.741.741,0,1,0-.2-1.455,4.144,4.144,0,0,1-1.408-.134,2.738,2.738,0,0,0-.532-.237.991.991,0,0,0-.426-.037c-.378-.119-.749-.237-1.108-.317-1.522-.338-3.1-.63-4.65-.861a7.3,7.3,0,0,0-5.574,1.089c-1.356.856-3.283,1.992-3.84,3.431-.7,1.8,1.261,2.979,2.145,4.327C31.1,385.5,32.375,385.153,32.338,384.481Zm4.018-3.824c-.091.632-1.5.365-2.152.328a1.045,1.045,0,0,0-.422.065,2.523,2.523,0,0,0-.816-.8c.189-.074.382-.142.581-.2C34.26,379.841,36.5,379.667,36.356,380.656Z" transform="translate(-254.315 -139.831) rotate(-45)"/><path class="d" d="M78.559,355.491c2.3,2.15,7.326,3.027,9.473-.057,1.012.046,2.059-1.006,1.7-2.655-.038-.166-.068-.331-.105-.495a2.7,2.7,0,0,0-.166-.851c-.169-1-.287-2.012-.4-3.024-.048-.406-.094-.814-.145-1.222-.007-.266-.01-.531,0-.8a2.494,2.494,0,0,0-.338-1.4c-.018-.082-.034-.166-.053-.249-.041-.213-.091-.425-.142-.637-.551-2.253-2.768-1.815-3.179.013a2.046,2.046,0,0,0-.912,1.28c-.03.108-.06.22-.084.331a7.768,7.768,0,0,0-.193,1.516l-.018.006-.048.024a1.37,1.37,0,0,0-1.89.22,1.324,1.324,0,0,0-.753-.1,1.732,1.732,0,0,0-.165-.3,2.425,2.425,0,0,0-.2-.622c-.7-1.474-2.572-.929-2.959.681a2.7,2.7,0,0,0-.027,1.153,12.722,12.722,0,0,1,.162,1.471l-.09,1.178v0c-.055.706-.107,1.41-.128,2.12A2.608,2.608,0,0,0,78.559,355.491Z" transform="translate(9.521 -307.648)"/><path class="i" d="M77.93,347.666a12.72,12.72,0,0,1,.162,1.471L78,350.315v0s3.742,7.119,11.442.475c-.048-.408-.495-3.839-.546-4.246-.007-.266-.01-.531,0-.8a2.493,2.493,0,0,0-.338-1.4c-.018-.082-.034-.166-.053-.249l-4.317.988-3.272.749-2.959.681A2.7,2.7,0,0,0,77.93,347.666Z" transform="translate(9.54 -307.006)"/><path class="d" d="M75.328,326.064a6.393,6.393,0,0,1,2.207-1.081c1.724-.493,4.2.57,5.945.48,2.993-.152,7.261-.819,9.33,1.849,1.923,2.478.995,5.778.978,8.786,0,.628.031,1.252.085,1.874.031-.024.064-.05.1-.071a3.311,3.311,0,0,1,2.427-.6,1.684,1.684,0,0,1,1.444,1.4,6.572,6.572,0,0,1-3.314,5.659c-.016.011-.034.02-.051.03a12.089,12.089,0,0,1-.375,3.061c-.946,3.576-3.64,5.842-6.435,8.039-2.578,2.029-5.3,2.093-8.264.772-3-1.34-4.205-3.875-5.052-6.9-.919-3.287-1.744-6.5-1.4-9.932C73.364,335.232,71.672,328.914,75.328,326.064Z" transform="translate(7.428 -315.111)"/><path class="e" d="M103.106,405.14a22.454,22.454,0,0,1-.841-13.49c.564-2.618,1.353-5.173,2.17-7.718a26.89,26.89,0,0,1-1.872-7.312.139.139,0,0,1,0-.033,22.014,22.014,0,0,1-.118-2.658,55.687,55.687,0,0,1,.982-8.128c.559-3.4,1.452-7.558,3.509-10.539-.836-.36-10.5-5.054-11.341-5.412,0,0-8.737,3.115-11.851-.229-1.415-.506-11.96,1.079-13.066,1.974-.124,4.482.131,8.982-1.606,13.244-2.1,5.136-6.593,11.24-4.676,17.065.486,1.477,1.559,2.368,2.3,3.614.03.048.06.1.087.149l.018.03a12.25,12.25,0,0,1,1.084,3.014c.215.87.384,1.745.55,2.532a33.058,33.058,0,0,1,.414,11.577c-.217,1.461-.557,2.9-.792,4.366-.109.676-.206,1.357-.3,2.032-.017.136-.063.459-.072.531-.051.387-.1.776-.151,1.163-.365,2.807-.719,5.612-1.265,8.386-.139,1.749-.263,3.5-.348,5.253a17.072,17.072,0,0,0,5.935,2.6,32.065,32.065,0,0,0,10.367.53A82.638,82.638,0,0,0,98.9,424.272c1.052-.311,3.02-.682,4.883-1.289,2.392-.779,4.612-1.951,4.518-3.89-.081-1.651-1.3-3.291-1.853-4.813Q104.776,409.709,103.106,405.14Z" transform="translate(3.664 -304.719)"/><path class="j" d="M90.09,381.269c-1.2,5.611-1.458,14.869,0,18.493,1.1,2.733,4.086,11.2,5.487,15.191,2.392-.779,4.612-1.951,4.518-3.89-.081-1.651-1.3-3.291-1.853-4.813q-1.671-4.57-3.341-9.139a22.454,22.454,0,0,1-.841-13.49c.564-2.618,1.353-5.173,2.17-7.718a26.889,26.889,0,0,1-1.872-7.312c.048.824-.35,9.975-4.268,10.5a22.284,22.284,0,0,1-6.677,0S86.417,382.1,90.09,381.269Z" transform="translate(11.87 -296.69)"/><path class="j" d="M78.676,347.75l3.644,4.3,7.889-4.148,1.7,3.332-8.959,6.422-.63-5.606-3.58,4.86-2.9-6.565Z" transform="translate(8.681 -305.467)"/><path class="j" d="M82.86,350.776a80.609,80.609,0,0,0-8.3,35.82c.037,20.732,1.819,40.737,1.819,40.737l1.894.09s-1.894-33.473-1.894-41.609c0-16.237,7.107-33.48,7.107-33.48Z" transform="translate(8.142 -304.193)"/><path class="j" d="M65.876,374.853c.03.048.06.1.087.149l.018.03a12.25,12.25,0,0,1,1.084,3.014,12.487,12.487,0,0,0,5.71-1.3A9.12,9.12,0,0,1,65.876,374.853Z" transform="translate(4.484 -294.053)"/><path class="d" d="M108.014,372.226l-6.55-8.089c-1.391,2.282-1.806-2.93-2.8-.57a90.045,90.045,0,0,0-2.989,8.514,92.116,92.116,0,0,1,7.4,14.02c1.081,2.358,2.542,4.745,3.4,7.185.937,2.682-.492,4-2.052,6.243-2.874,4.137-5.086,8.665-7.8,12.9-1.07,1.67-8.425,8.433-8.223,12.137,2.9-1.283,3.546-1.727,6.495-2.908,3.61-4.823,11.5-10.465,12.506-11.636,2.855-3.308,5.885-7,7.416-10.5a18.4,18.4,0,0,0,.789-2.116,13.326,13.326,0,0,0-.361-8.548c-.86-2.615-1.514-5.44-2.355-8.251-.716-2.39-1.506-4.755-2.267-7.13A2.044,2.044,0,0,1,108.014,372.226Z" transform="translate(274.53 -275.842) rotate(39)"/><path class="e" d="M93.457,353.243c-.955,2.014-.878,5.81-2.008,9.09-.75,2.179-.875,11.209-.871,13.637.126.033.321,0,.377.122,1.309,2.857,1.526,9.344,2.257,6.284-.8,3.344,2.093-6.019,2.2-5.682,1.079,1.822,1.917,6.963,3,8.782,2.012-4.134-1.315.8-.95,4.328-.537,1.825-2.069,6.393-2.052,8.243.011,1.485,8.457,6,9.5,6.975,1.811,1.69-3.359-2.356-1.017-1.6.708.227,1.838-3.456,2.286-4.114,3.178-4.681,1.6-6.629,4.229-11.886,1.714-3.429.206-2.8.431-7.124-.847-3.47-.472-7.316-1.334-10.784C108.2,364.235,99.038,352.643,93.457,353.243Z" transform="translate(14.887 -303.163)"/><rect class="l" width="3.028" height="10.257" transform="matrix(0.059, -0.998, 0.998, 0.059, 90.074, 68.633)"/><path class="d" d="M33.839,379.555c-.014,0-.2-.046-.212-.044-.06-.018-.121-.037-.18-.057-.185-.061-.367-.128-.553-.182a3.271,3.271,0,0,0-1.525-.141,1.218,1.218,0,1,0,.3,2.416l.142-.02c.051,0,.132.006.151.01s.126.03.173.04l.125.041a8.46,8.46,0,0,0,1.248.35,1.227,1.227,0,0,0,1.37-1.043A1.245,1.245,0,0,0,33.839,379.555Z" transform="translate(-252.764 -139.437) rotate(-45)"/><path class="d" d="M83.629,399.608l3.149-.037c1.128-.615,3.664-.385,4.391-.989.962-.8.057-.628-.948-2.817s2.316.622,3.246,1.764a9.454,9.454,0,0,0,3.949,2.319s.813,6.074-.983,6.705-7.1.743-8.345.578-2.143-1.457-1.738-3.638a3.989,3.989,0,0,0-.034-2.281l-2.667.03A.818.818,0,0,1,83.629,399.608Z" transform="translate(262.418 -264.598) rotate(39)"/></g></g><g transform="translate(423.569 960.287)"><g transform="translate(1103 198.223)"><path class="u" d="M150.132,93.125v-.377c0-.049-.014-.1-.021-.148l-.021-.127v-.011l-.028-.127c-.011-.042-.011-.1-.018-.141s-.025-.1-.039-.137-.032-.106-.039-.148a.508.508,0,0,1-.018-.106l-.021-.021-.007-.007a.6.6,0,0,1-.028-.151c-.028-.039-.035-.092-.067-.137a.346.346,0,0,0-.035-.123c-.025-.049-.046-.092-.063-.134s-.028-.067-.039-.106v-.007l-.007-.014c-.028-.049-.035-.1-.063-.137a.706.706,0,0,1-.06-.141,1.85,1.85,0,0,1-.092-.166c-.025-.049-.063-.109-.1-.166a.068.068,0,0,1-.028-.039v-.018c-.07-.106-.141-.229-.2-.338-.056-.074-.116-.155-.176-.236l-.014-.018c-.028-.042-.077-.092-.113-.152-.028-.035-.06-.07-.1-.12a.471.471,0,0,0-.106-.116c-.032-.046-.074-.081-.109-.13l-.007-.014-.028-.021c-.018-.025-.056-.053-.067-.074a1.2,1.2,0,0,1-.116-.113,1.225,1.225,0,0,1-.12-.113,1.087,1.087,0,0,1-.116-.106.544.544,0,0,1-.081-.049V88.83c-.011-.021-.032-.021-.042-.039l-.116-.092a1.474,1.474,0,0,1-.123-.081c-.028-.021-.077-.053-.1-.074a.853.853,0,0,1-.13-.074l-.018-.018-20.439-11.8a.369.369,0,0,1-.092-.046.544.544,0,0,0-.106-.049.465.465,0,0,0-.127-.053.984.984,0,0,0-.1-.056l-.109-.039h-.018l-.014-.011-.081-.021a.858.858,0,0,0-.113-.035.59.59,0,0,1-.113-.028.854.854,0,0,1-.116-.014l-.077,0H125.9a.472.472,0,0,0-.12-.011.729.729,0,0,0-.152.011.843.843,0,0,0-.155.014c-.053.014-.109.032-.187.06a1.253,1.253,0,0,0-.211.1L97.062,92.748a1.075,1.075,0,0,1,.405-.152h0a1.46,1.46,0,0,1,.451-.032l.011.011a1.707,1.707,0,0,1,.5.109h.011a3.833,3.833,0,0,1,.543.247l20.439,11.807a4.169,4.169,0,0,1,.543.377h0a5.183,5.183,0,0,1,.5.465l.025.014a5.609,5.609,0,0,1,.43.543l.011.007.007,0a6.662,6.662,0,0,1,.384.585c.007.014.007.028.028.039a6,6,0,0,1,.719,1.963l.007.018a4.639,4.639,0,0,1,.046.648,3.313,3.313,0,0,1-.046.585l-.007.014a1.869,1.869,0,0,1-.321.722,1.428,1.428,0,0,1-.419.416l28.015-16.282a1.437,1.437,0,0,0,.426-.412c.018-.025.039-.032.049-.049.035-.067.07-.123.1-.19a.453.453,0,0,0,.067-.152l.056-.137.028-.137a.109.109,0,0,1,.018-.06V93.7l.007-.053c.014-.042.021-.088.032-.134s0-.092,0-.13v-.261Z" transform="translate(-96.276 -69.98)"/><g transform="translate(0 22.583)"><path class="v" d="M119.988,93.079a5.938,5.938,0,0,1,2.7,4.662c-.007,1.712-1.223,2.41-2.713,1.554l-20.447-11.8a5.925,5.925,0,0,1-2.688-4.676c0-1.709,1.223-2.407,2.71-1.547Z" transform="translate(-96.839 -80.903)"/></g><path class="w" d="M151.765,91.78c0-.046-.007-.085-.007-.127v-.127c-.007-.053-.007-.1-.014-.137a.587.587,0,0,0-.018-.137c0-.049-.014-.1-.014-.137L151.7,91.1h0c-.007-.046-.014-.081-.025-.134l-.018-.137a.885.885,0,0,1-.046-.148,1,1,0,0,0-.032-.148.619.619,0,0,0-.042-.113l0-.025v-.014c-.014-.039-.028-.088-.042-.141a1.379,1.379,0,0,1-.056-.134.515.515,0,0,0-.049-.134.8.8,0,0,0-.053-.137.554.554,0,0,0-.039-.109h0l-.014-.021a.67.67,0,0,0-.074-.134.907.907,0,0,0-.06-.152.805.805,0,0,0-.085-.155,1.417,1.417,0,0,0-.1-.19l-.025-.042-.011-.014c-.067-.116-.137-.229-.2-.342-.067-.081-.12-.162-.18-.243l-.011-.014a1.491,1.491,0,0,1-.109-.151c-.046-.049-.074-.092-.109-.134a1.294,1.294,0,0,1-.1-.13.566.566,0,0,1-.109-.116l-.021-.021-.032-.018a.287.287,0,0,0-.074-.07c-.032-.039-.077-.085-.113-.123a1.268,1.268,0,0,0-.127-.113c-.032-.039-.081-.074-.113-.116-.028-.021-.053-.025-.067-.049h0l-.06-.042a.809.809,0,0,0-.12-.1c-.046-.032-.085-.053-.13-.085-.025-.021-.077-.049-.109-.07a.871.871,0,0,0-.12-.078L148.988,87,128,74.875a.22.22,0,0,0-.085-.049c-.035-.025-.078-.049-.1-.063l-.12-.046-.106-.049-.113-.042-.025-.007h-.014l-.078-.039a.492.492,0,0,1-.116-.025c-.042-.007-.088-.021-.113-.021a.99.99,0,0,1-.12-.032.4.4,0,0,1-.088-.007h-.307a1.071,1.071,0,0,0-.166.032.817.817,0,0,0-.19.053,1.339,1.339,0,0,0-.229.1L97.289,91.389a1.218,1.218,0,0,1,.4-.152H97.7a1.227,1.227,0,0,1,.469-.025h.018a2.113,2.113,0,0,1,.5.113l.014.011a2.223,2.223,0,0,1,.557.25l20.986,12.11a4.6,4.6,0,0,1,.55.388l.018.007a6.822,6.822,0,0,1,.5.469l.021.021a6.415,6.415,0,0,1,.451.553l.014,0,.014.011c.13.187.257.395.384.6.011.025.014.032.025.039a6.123,6.123,0,0,1,.729,2.019v.014a3.456,3.456,0,0,1,.063.676,2.939,2.939,0,0,1-.063.6v.014a1.826,1.826,0,0,1-.324.74,1.336,1.336,0,0,1-.419.423L150.94,93.552a1.4,1.4,0,0,0,.444-.419c.007-.021.035-.039.046-.06a.873.873,0,0,0,.109-.19.5.5,0,0,0,.06-.152,1.009,1.009,0,0,1,.063-.141.525.525,0,0,1,.028-.148l.007-.049.007-.021.014-.06c.007-.046.018-.081.025-.127s.007-.088.007-.144a.592.592,0,0,0,.007-.12V91.8Z" transform="translate(-95.703 -74.494)"/><g transform="translate(0.775 16.709)"><path class="x" d="M120.821,91.729a6.114,6.114,0,0,1,2.766,4.8c0,1.751-1.258,2.463-2.78,1.582L99.825,86A6.085,6.085,0,0,1,97.059,81.2c.011-1.765,1.24-2.473,2.776-1.586Z" transform="translate(-97.059 -79.236)"/></g></g><g transform="translate(1103 186.05)"><path class="y" d="M167.284,82.056c0-.046-.007-.081-.007-.116v-.134l-.007-.141a.77.77,0,0,0-.021-.13.874.874,0,0,1-.021-.134h0v-.018c-.014-.035-.014-.081-.028-.12s-.018-.092-.025-.148-.018-.1-.035-.137a.6.6,0,0,0-.039-.148.584.584,0,0,0-.032-.116v-.007l-.007-.025-.039-.134c-.028-.049-.028-.1-.056-.141l-.046-.13c-.014-.046-.042-.1-.056-.13a.676.676,0,0,0-.046-.113v-.018l-.014-.007c-.014-.042-.042-.088-.053-.134s-.049-.1-.074-.141-.053-.116-.078-.166-.077-.12-.1-.169l-.028-.056v-.007c-.074-.113-.148-.222-.215-.335-.06-.081-.116-.169-.176-.247l-.014-.014c-.025-.042-.067-.1-.1-.144s-.074-.088-.109-.134a.878.878,0,0,0-.109-.12c-.025-.042-.074-.081-.1-.12l-.014-.021-.035-.014a.578.578,0,0,0-.067-.081c-.042-.039-.078-.078-.123-.113a.589.589,0,0,0-.116-.113c-.042-.042-.077-.067-.116-.106a.291.291,0,0,0-.074-.06V77.7l-.053-.035c-.046-.032-.074-.049-.12-.077a1.042,1.042,0,0,0-.116-.1q-.063-.042-.116-.074a.343.343,0,0,0-.116-.063l-.032-.028L143.854,65.387a.881.881,0,0,0-.092-.056l-.106-.056a.634.634,0,0,1-.109-.053.39.39,0,0,1-.1-.046.571.571,0,0,1-.116-.046h-.021l-.014,0-.085-.021c-.039-.011-.067-.025-.106-.032a.715.715,0,0,0-.12-.021,1.056,1.056,0,0,0-.113-.025.359.359,0,0,0-.088-.007h-.007l-.028-.007c-.039,0-.078-.007-.137-.007-.035.007-.088.007-.13.014a.95.95,0,0,0-.169.018c-.06.021-.12.028-.187.056a.619.619,0,0,0-.2.1L113.552,81.679a.9.9,0,0,1,.4-.148v-.014a1.69,1.69,0,0,1,.465-.018h.018a2.037,2.037,0,0,1,.5.109l.007.007a3.6,3.6,0,0,1,.553.247l20.7,11.955a3.94,3.94,0,0,1,.546.384h.007a4.156,4.156,0,0,1,.5.469l.014.014a5.761,5.761,0,0,1,.447.539l.018.021h.007a5.758,5.758,0,0,1,.381.6c.014.011.025.014.032.039a6.366,6.366,0,0,1,.726,1.977v.028a4.592,4.592,0,0,1,.046.655,4.392,4.392,0,0,1-.046.592v.007a2.168,2.168,0,0,1-.324.74,1.7,1.7,0,0,1-.419.409l28.353-16.479a1.329,1.329,0,0,0,.43-.423l.042-.042a.94.94,0,0,0,.113-.187,1.171,1.171,0,0,0,.063-.162c.014-.042.032-.1.049-.141s.018-.1.039-.137a.085.085,0,0,1,.014-.056v-.014a.148.148,0,0,1,.011-.067.664.664,0,0,1,.025-.127c.007-.042.007-.092.014-.123v-.25Z" transform="translate(-112.749 -58.054)"/><g transform="translate(0 23.434)"><path class="z" d="M136.765,82.013a6.007,6.007,0,0,1,2.724,4.725c0,1.726-1.233,2.431-2.731,1.564l-20.7-11.955a5.979,5.979,0,0,1-2.731-4.718c0-1.741,1.233-2.442,2.745-1.571Z" transform="translate(-113.324 -69.684)"/></g><path class="u" d="M167.946,80.083v-.116c0-.046-.011-.092-.011-.13a.73.73,0,0,0-.014-.141.857.857,0,0,0-.011-.134.585.585,0,0,1-.018-.137v0h0c-.014-.046-.018-.085-.028-.127a1.029,1.029,0,0,0-.025-.144.782.782,0,0,1-.032-.152.43.43,0,0,0-.042-.141l-.039-.113v-.018l-.007-.007a.489.489,0,0,0-.042-.144l-.046-.137c-.018-.049-.039-.1-.049-.137s-.042-.1-.056-.134-.032-.07-.046-.109v-.021a.727.727,0,0,1-.074-.137.756.756,0,0,0-.074-.137c-.021-.053-.046-.109-.07-.159-.028-.067-.074-.127-.1-.183l-.021-.039-.007-.014c-.067-.116-.144-.229-.211-.331s-.109-.173-.162-.247l-.025-.021c-.046-.049-.067-.1-.113-.148-.028-.039-.07-.085-.1-.13s-.078-.085-.106-.12-.067-.074-.113-.12l-.014-.014-.014-.032-.077-.074-.12-.113c-.035-.035-.081-.074-.12-.113s-.078-.067-.12-.1a.228.228,0,0,1-.067-.063h0l-.056-.035c-.035-.028-.078-.063-.116-.092s-.078-.06-.123-.085l-.109-.078c-.039-.021-.081-.053-.116-.067l-.032-.025L144.526,63.41c-.035-.021-.06-.025-.092-.042a.875.875,0,0,0-.113-.06c-.035-.021-.074-.035-.109-.056a.4.4,0,0,1-.116-.049.817.817,0,0,1-.109-.039l-.014-.007-.018-.007-.081-.021a.569.569,0,0,0-.1-.032.518.518,0,0,1-.123-.028.485.485,0,0,1-.109-.014.4.4,0,0,0-.092-.007h0l-.039-.007-.127-.007a.908.908,0,0,0-.141.014.576.576,0,0,0-.159.021c-.063.014-.127.028-.187.046a1.641,1.641,0,0,0-.222.113L114.207,79.7a1.258,1.258,0,0,1,.409-.152h0a2.262,2.262,0,0,1,.465-.028l.011.007a1.744,1.744,0,0,1,.5.106l.025.007a4.611,4.611,0,0,1,.546.254l20.7,11.955a2.646,2.646,0,0,1,.529.377l.018,0a6.072,6.072,0,0,1,.5.465l.014.021a5.5,5.5,0,0,1,.451.536l.007.011.007.007a6.85,6.85,0,0,1,.377.588l.042.039a6.132,6.132,0,0,1,.715,1.991l.007.021a4.228,4.228,0,0,1,.042.666,2.525,2.525,0,0,1-.049.578v.018a1.981,1.981,0,0,1-.321.736,1.344,1.344,0,0,1-.423.412l28.364-16.486a1.251,1.251,0,0,0,.426-.412c.014-.021.042-.028.056-.049.028-.063.074-.127.1-.19a.787.787,0,0,0,.074-.155l.046-.141a.91.91,0,0,0,.035-.141l.011-.053.007-.018a.156.156,0,0,1,.007-.06c0-.046.018-.092.021-.141,0-.028.011-.074.014-.123a.5.5,0,0,1,.011-.123v-.144Z" transform="translate(-111.096 -63.033)"/><g transform="translate(2.325 16.486)"><path class="v" d="M137.426,80.044a5.979,5.979,0,0,1,2.709,4.725c0,1.719-1.23,2.431-2.741,1.564L116.7,74.379a5.98,5.98,0,0,1-2.717-4.725c.007-1.744,1.223-2.438,2.741-1.564Z" transform="translate(-113.984 -67.712)"/></g></g></g></g></svg>