<svg xmlns="http://www.w3.org/2000/svg" xmlns:xlink="http://www.w3.org/1999/xlink" width="438.39" height="346.329" viewBox="0 0 438.39 346.329"><defs><style>.a,.t{opacity:0.1;}.b{fill:#fdbd42;}.c{fill:#22aee4;}.d{fill:#e29813;}.e{fill:#c47f10;}.f{fill:#feb623;}.g{fill:#ff4d75;}.h{fill:#32293a;}.i{fill:#ff5138;}.j{fill:#1d96cb;}.k{fill:#1884aa;}.l{fill:#c1e8fa;}.m{fill:#def6ff;}.n{fill:#27202d;}.o{fill:#f74c72;}.p{fill:#f7668b;}.q{fill:#e83421;}.r{fill:#120f1f;}.s{fill:#82c2de;}.u{fill:#3998d8;}.v{fill:#723e24;}.w{fill:#ffaa83;}.x{fill:#615a8e;}.y{fill:#484475;}.z{fill:#f29c79;}.aa{fill:url(#a);}.ab{fill:#f79f7c;}.ac{isolation:isolate;}.ad{fill:#acd9ea;}.ae{fill:#bfd4dc;}.af{fill:#ef3566;}.ag{fill:#ffc255;}.ah{fill:#ea9d15;}.ai{fill:#2686bc;}.aj{fill:#fe2456;}.ak{fill:#f77496;}.al{fill:#c7e8f2;}.am{fill:#bcbcb1;}.an{fill:#fff;}.ao{fill:#cecfc2;}.ap{fill:#fefefe;}.aq{fill:#a0a095;}.ar{fill:#656f72;}.as{fill:#41b1d8;}.at{fill:#7cddf7;}.au{fill:#60acc6;}.av{fill:#1d374e;}.aw{fill:#c5ced7;}.ax{fill:#e1eaf3;}</style><linearGradient id="a" x1="118803.375" y1="-3908.888" x2="118286.969" y2="345.771" gradientUnits="objectBoundingBox"><stop offset="0" stop-color="#fa5fc8"/><stop offset="1" stop-color="#b161cb"/></linearGradient></defs><g transform="translate(-30.467 -45.529)"><g class="a" transform="translate(30.467 137.928)"><path d="M404.15,149.966c85.879,49.582,86.333,129.969,1.014,179.552s-224.112,49.586-309.987.007S8.835,199.549,94.165,149.961,318.278,100.386,404.15,149.966Z" transform="translate(-30.467 -112.778)"/></g><g transform="translate(43.103 45.529)"><path class="b" d="M452.178,180.175h0c0,.763-.025,1.521-.055,2.281-.018.532-.045,1.065-.078,1.6-.025.436-.052.87-.085,1.308-.04.526-.092,1.047-.147,1.575-.043.441-.085.885-.136,1.326-.062.521-.14,1.042-.213,1.558-.065.448-.122.892-.2,1.337-.085.519-.183,1.037-.278,1.555-.082.444-.161.885-.249,1.329-.107.508-.225,1.02-.338,1.528-.1.445-.2.889-.308,1.333-.131.525-.273,1.044-.416,1.568-.115.426-.225.852-.348,1.278-.158.551-.338,1.1-.508,1.653-.125.393-.24.791-.374,1.187-.192.578-.405,1.16-.616,1.738-.13.365-.251.73-.389,1.1-.313.841-.654,1.68-1,2.517-.051.115-.091.228-.137.346-.4.949-.827,1.9-1.268,2.852-.128.271-.268.536-.4.807-.326.676-.651,1.353-1,2.029-.179.348-.371.691-.554,1.041-.319.594-.632,1.186-.965,1.781-.18.316-.368.629-.551.945-.386.671-.776,1.34-1.183,2.006-.22.356-.448.712-.673,1.068-.389.621-.791,1.242-1.2,1.86-.243.371-.5.739-.747,1.11q-.618.9-1.267,1.8c-.265.375-.536.746-.809,1.117-.438.594-.889,1.19-1.345,1.781-.268.344-.53.691-.8,1.032q-1.259,1.593-2.605,3.174c-.124.143-.253.28-.376.423q-1.169,1.356-2.407,2.7c-.28.3-.566.6-.849.91q-1.111,1.183-2.274,2.35c-.258.262-.514.523-.776.786-1.019,1.007-2.057,2.007-3.129,3-.411.378-.834.753-1.248,1.129-.5.451-1,.907-1.516,1.357-.438.383-.889.761-1.333,1.142-.523.444-1.037.888-1.568,1.33-.462.383-.94.764-1.408,1.14-.533.436-1.062.867-1.61,1.3-.484.383-.987.757-1.483,1.138-.547.423-1.092.844-1.656,1.26-.507.383-1.035.761-1.551,1.139-.566.411-1.129.822-1.7,1.228-.536.378-1.079.749-1.623,1.124-.584.4-1.162.807-1.759,1.2-.551.371-1.114.736-1.678,1.1q-.9.6-1.819,1.187c-.569.361-1.15.721-1.726,1.08-.627.393-1.257.782-1.9,1.172-1.014.614-2.033,1.226-3.076,1.831-2.219,1.29-4.5,2.535-6.8,3.752-.6.326-1.217.643-1.832.962q-3.085,1.6-6.254,3.12c-.286.136-.572.283-.864.419-2.367,1.12-4.775,2.194-7.2,3.244-.632.271-1.275.539-1.914.806q-3.089,1.3-6.247,2.53c-.475.183-.947.378-1.425.561-2.49.948-5.018,1.862-7.565,2.741-.633.22-1.272.429-1.908.646-1.711.578-3.439,1.129-5.177,1.673q-2.5.789-5.033,1.538c-1.41.411-2.818.818-4.24,1.213-1.694.469-3.4.922-5.118,1.367-1.437.368-2.876.736-4.325,1.087-1.728.419-3.472.818-5.218,1.208-1.455.326-2.91.651-4.376.955-1.766.37-3.546.713-5.33,1.051-1.613.306-3.219.624-4.842.907-.709.121-1.421.243-2.127.361q-3.72.62-7.462,1.167c-.405.058-.8.121-1.2.181q-4.25.594-8.539,1.084c-.7.08-1.4.152-2.1.228-1.779.192-3.563.359-5.346.521-2.186.206-4.373.383-6.565.548-1.4.1-2.8.2-4.2.291-2.282.14-4.571.25-6.859.345-1.318.054-2.63.124-3.945.164-1.987.06-3.975.085-5.959.115-1.411.022-2.824.055-4.236.058-2.112,0-4.222-.033-6.334-.063-1.294-.018-2.59-.018-3.884-.052-1.915-.051-3.822-.146-5.731-.225-1.418-.06-2.841-.1-4.257-.176-2.039-.113-4.074-.271-6.109-.418-1.285-.091-2.569-.158-3.846-.264-2.491-.207-4.971-.463-7.451-.721-.807-.089-1.619-.153-2.425-.24q-4.932-.548-9.816-1.242c-.532-.076-1.057-.17-1.587-.246-2.791-.412-5.573-.841-8.333-1.319-1.179-.2-2.34-.437-3.509-.654-2.109-.386-4.214-.769-6.3-1.2-1.109-.224-2.2-.479-3.3-.72-2.308-.5-4.614-1.009-6.9-1.559-1.281-.306-2.549-.635-3.822-.958q-3.114-.793-6.2-1.641c-1.794-.5-3.589-1-5.365-1.533-.631-.19-1.265-.372-1.893-.566q-3.984-1.22-7.9-2.545c-.471-.161-.93-.328-1.4-.493q-3.263-1.127-6.467-2.334c-.706-.268-1.411-.532-2.112-.8-1.691-.651-3.361-1.34-5.027-2.024-1.125-.463-2.257-.919-3.37-1.4-1.625-.7-3.221-1.425-4.816-2.152-1.029-.473-2.066-.929-3.083-1.41-1.746-.83-3.46-1.7-5.169-2.565-.827-.416-1.669-.819-2.486-1.248q-3.767-1.972-7.409-4.066C61.467,240.35,41.237,209.653,41.323,179q-.023,7.611-.044,15.224c0,.956.015,1.918.051,2.873q.113,2.871.46,5.743t.936,5.727c5.283,25.722,25.024,50.656,59.2,70.386q3.636,2.1,7.41,4.068c.808.423,1.643.819,2.459,1.232,1.72.874,3.442,1.748,5.2,2.582,1,.477,2.033.927,3.05,1.39,1.608.736,3.214,1.47,4.85,2.172,1.1.473,2.224.926,3.34,1.385s2.2.937,3.326,1.379c.573.225,1.157.437,1.734.66.7.268,1.4.533,2.1.794q3.192,1.2,6.441,2.329c.481.168.958.343,1.44.5,2.6.886,5.222,1.726,7.872,2.539.642.2,1.294.383,1.94.578,1.142.337,2.273.69,3.421,1.015.627.18,1.272.33,1.9.506,2.05.569,4.115,1.11,6.188,1.638,1.285.328,2.569.66,3.864.97,2.255.543,4.527,1.044,6.807,1.54.893.192,1.768.414,2.666.6.24.049.486.092.727.14,2.046.42,4.11.794,6.172,1.175,1.213.223,2.414.466,3.631.679q4.208.721,8.451,1.33c.464.067.919.152,1.384.22v0h0v0l.131.018q4.847.684,9.746,1.232c.927.1,1.86.176,2.786.271,2.367.246,4.739.493,7.117.694.066,0,.128.01.194.018,1.184.095,2.378.155,3.567.24,2.057.15,4.11.308,6.175.418,1.48.082,2.965.125,4.446.188,1.843.077,3.681.168,5.519.213.174.007.349.019.525.022,1.167.03,2.334.018,3.5.036,2.076.03,4.151.067,6.225.062,1.406,0,2.8-.037,4.2-.059,2-.026,4-.051,6-.115.371-.011.739-.008,1.11-.021.937-.034,1.866-.1,2.8-.143,2.295-.095,4.586-.2,6.878-.345,1.406-.088,2.813-.191,4.218-.291q3.265-.243,6.513-.541c.789-.074,1.583-.12,2.37-.2,1.017-.1,2.031-.225,3.05-.338.681-.073,1.363-.146,2.044-.223q4.291-.493,8.549-1.083c.414-.058.822-.125,1.232-.185q3.72-.536,7.414-1.16c.73-.122,1.455-.245,2.182-.368.576-.1,1.153-.192,1.731-.3,1.026-.185,2.031-.408,3.053-.6,1.8-.341,3.585-.684,5.368-1.055,1.463-.305,2.918-.633,4.371-.959,1.746-.39,3.487-.782,5.216-1.2,1.455-.353,2.9-.721,4.338-1.092,1.706-.441,3.41-.892,5.1-1.36q2.15-.6,4.272-1.227,2.506-.734,4.979-1.516c.731-.228,1.473-.431,2.2-.669,1.022-.333,2.032-.688,3.052-1.029.616-.21,1.232-.414,1.844-.624q3.844-1.327,7.6-2.758c.463-.176.919-.361,1.379-.541q3.176-1.233,6.287-2.545c.636-.268,1.268-.532,1.9-.8,2.435-1.047,4.845-2.121,7.215-3.241.29-.14.57-.283.859-.42q3.172-1.515,6.263-3.126c.609-.313,1.217-.633,1.823-.955,2.3-1.22,4.578-2.462,6.8-3.755q1.267-.736,2.51-1.483c.188-.115.371-.235.561-.348.651-.4,1.283-.791,1.919-1.187.569-.353,1.139-.706,1.7-1.062.627-.4,1.248-.807,1.862-1.213.548-.357,1.1-.716,1.635-1.074.609-.415,1.211-.829,1.811-1.242.523-.359,1.052-.724,1.566-1.087.591-.419,1.169-.84,1.745-1.263.511-.368,1.022-.736,1.521-1.107.569-.423,1.123-.852,1.68-1.285.486-.371.977-.742,1.455-1.117.556-.438,1.1-.879,1.643-1.32.459-.371.925-.742,1.375-1.114.544-.456,1.077-.912,1.61-1.368.431-.368.864-.731,1.286-1.1.548-.481,1.079-.965,1.61-1.448.344-.311.7-.618,1.035-.929.043-.036.073-.073.115-.106q1.608-1.494,3.133-3c.276-.273.544-.547.812-.822q1.127-1.136,2.212-2.285c.305-.326.613-.654.914-.984q1.169-1.268,2.277-2.546c.163-.192.338-.378.5-.57.882-1.028,1.734-2.069,2.563-3.113.073-.091.148-.176.221-.267.207-.265.4-.533.6-.8q.672-.872,1.327-1.749c.3-.4.577-.8.867-1.2q.6-.845,1.18-1.689c.283-.408.561-.816.828-1.227.381-.572.749-1.147,1.113-1.719.253-.4.5-.791.743-1.19.393-.636.761-1.272,1.132-1.908.152-.265.316-.53.471-.8.04-.074.076-.147.115-.22.32-.569.621-1.138.922-1.708.2-.371.405-.742.6-1.113.326-.636.632-1.275.94-1.911.15-.308.305-.616.451-.922q.662-1.416,1.263-2.843c.067-.153.122-.305.183-.46.331-.8.657-1.6.959-2.407a.9.9,0,0,0,.038-.093c.128-.348.245-.694.366-1.039.2-.566.415-1.132.6-1.7.136-.412.258-.826.389-1.239.168-.533.341-1.065.493-1.6.128-.441.24-.882.361-1.323.135-.508.278-1.014.4-1.522.115-.456.213-.916.319-1.373.113-.5.225-.992.326-1.485.025-.1.047-.191.067-.289.07-.359.125-.719.188-1.077.1-.506.192-1.014.275-1.522.073-.453.136-.91.2-1.366.073-.508.146-1.014.2-1.522.058-.459.1-.922.147-1.384.051-.5.1-1,.143-1.5.036-.475.06-.947.091-1.422s.055-.967.073-1.451c.007-.183.022-.363.025-.543.018-.6.027-1.2.03-1.8q.023-7.609.043-15.221h0Z" transform="translate(-39.06 4.387)"/><g transform="translate(2.262 64.986)"><path class="c" d="M391.526,127.679c80.484,46.467,80.907,121.806.947,168.274s-210.034,46.472-290.516.007-80.919-121.812-.949-168.287S311.045,81.214,391.526,127.679Z" transform="translate(-41.31 -92.827)"/></g><g class="a" transform="translate(189.488 251.065)"><path d="M222.952,232.776c10.42,6.014,10.485,15.777.12,21.8s-27.21,6.022-37.633,0-10.49-15.773-.122-21.8S212.519,226.751,222.952,232.776Z" transform="translate(-177.576 -228.257)"/></g><g transform="translate(187.052 231.24)"><g transform="translate(9.446 20.699)"><path class="d" d="M215.463,232.158c7.539,4.349,7.587,11.4.092,15.758s-19.663,4.343-27.2,0-7.579-11.407-.1-15.755S207.931,227.806,215.463,232.158Z" transform="translate(-182.677 -228.893)"/></g><path class="d" d="M176.091,229.816l9.99,13.275h36.63l9.991-13.275Z" transform="translate(-175.694 -207.849)"/><g transform="translate(1.711 10.266)"><path class="e" d="M223.077,224.957c10.576,4.879,10.637,12.785.131,17.664s-27.612,4.872-38.184-.007-10.644-12.778-.139-17.657S212.5,220.083,223.077,224.957Z" transform="translate(-177.047 -221.3)"/></g><g transform="translate(0 2.697)"><path class="e" d="M224.7,220.658c11.227,6.485,11.3,17.006.128,23.494s-29.322,6.485-40.557,0-11.3-17.009-.139-23.494S213.463,214.172,224.7,220.658Z" transform="translate(-175.802 -215.791)"/></g><g transform="translate(0.122 0.012)"><path class="f" d="M224.578,218.683c11.184,6.458,11.257,16.936.133,23.4s-29.2,6.459-40.391,0-11.252-16.936-.139-23.393S213.394,212.221,224.578,218.683Z" transform="translate(-175.891 -213.837)"/></g><g transform="translate(2.748 1.418)"><path class="d" d="M222.013,219.258c10.155,5.871,10.222,15.379.122,21.246s-26.516,5.864-36.676,0-10.217-15.375-.128-21.246S211.853,213.4,222.013,219.258Z" transform="translate(-177.802 -214.86)"/></g><path class="g" d="M197.281,226.805s9.173-13.457,15.527-12.964,13.416,6.962,14.125,8.962-14.59,12.733-19.535,13.777-19.413,1.6-17.063-3.446S195.272,229.511,197.281,226.805Z" transform="translate(-170.463 -213.828)"/><path class="h" d="M190.135,217.838a7.1,7.1,0,0,1,3.2-1.926,13.624,13.624,0,0,1,6.936,0c3.174.631,4.471.871,6,1.926s-2,6.322-3.537,7.1S188.162,221.946,190.135,217.838Z" transform="translate(-170.518 -213.215)"/><path class="i" d="M184.814,217.666s6-3.061,9.769-1.055,12.114,2.693,13.649,6.7,3.019,5.839,3.527,9.041S207.4,241.665,200,239.669s-10.235-5.06-15.183-8.119S175.522,222.843,184.814,217.666Z" transform="translate(-174.473 -213.043)"/><path class="j" d="M180.364,229.448s1.29-5.155,5.642-5.389,7.88-.706,11.526,0,8.825,1.881,11.653,4,8.7,4.248,8.942,5.539,2.022,7.189-16.709,5.989S179.639,231.241,180.364,229.448Z" transform="translate(-174.132 -210.142)"/><path class="h" d="M200.37,229.681s.246-5.389,4.421-4.917,13.927-2.958,14.754-1.184,1.65,11.937-9.586,13.738S199.814,232.122,200.37,229.681Z" transform="translate(-166.733 -210.374)"/><path class="j" d="M180.364,229.448s1.29-5.155,5.642-5.389,7.88-.706,11.526,0,8.825,1.881,11.653,4,8.7,4.248,8.942,5.539,2.022,7.189-16.709,5.989S179.639,231.241,180.364,229.448Z" transform="translate(-174.132 -210.142)"/><path class="k" d="M201.418,238.758c14.638.941,16.745-2.461,16.857-4.607-12.709,6.026-28.016.456-32.919-2.084a6.242,6.242,0,0,1-3.726-6.169,9.58,9.58,0,0,0-1.265,2.723C179.639,230.414,182.683,237.566,201.418,238.758Z" transform="translate(-174.132 -209.315)"/></g><g transform="translate(146.896)"><g class="a" transform="translate(0 77.389)"><path d="M326.2,181.164l-42.263,24.56L146.576,126.415l42.263-24.561Z" transform="translate(-146.576 -101.854)"/></g><g transform="translate(129.026 153.676)"><path class="l" d="M259.885,162.541c-.01.036-.019.07-.027.106a4.088,4.088,0,0,1-.469.91c-.037.052-.067.11-.11.164a5.138,5.138,0,0,1-.791.87c-.033.034-.076.066-.113.1a8.112,8.112,0,0,1-1.16.824,11.4,11.4,0,0,1-1.363.646c-.128.051-.258.1-.386.146-.3.107-.609.194-.916.28-.326.092-.654.177-.986.245-.389.081-.775.154-1.178.2-.1.015-.191.033-.3.044-.544.058-1.09.084-1.641.091-.088,0-.176,0-.267,0-.543,0-1.081-.033-1.617-.087-.081-.011-.17-.019-.256-.029q-.8-.1-1.57-.268c-.088-.021-.176-.044-.268-.069a13.477,13.477,0,0,1-1.368-.415c-.073-.026-.155-.048-.232-.077a11.482,11.482,0,0,1-1.488-.7c-1.932-1.114-2.894-2.578-2.891-4.038l-.01,2.551c0,1.461.962,2.922,2.895,4.038a11.033,11.033,0,0,0,1.4.676c.03.01.055.014.088.026.073.03.153.051.232.078.279.1.565.21.87.293.161.048.328.081.5.121.088.026.18.047.271.069s.168.044.247.06c.322.067.642.122.97.17.122.016.238.025.35.04.088.011.168.016.253.025.113.014.231.034.349.043.317.023.64.04.962.049.1,0,.2,0,.308,0,.088,0,.18,0,.265,0,.146,0,.289,0,.429,0,.363-.01.727-.034,1.087-.071.043,0,.082-.015.128-.016.1-.011.2-.032.3-.041.276-.036.554-.066.824-.118.122-.021.231-.06.353-.087.334-.07.661-.154.982-.245.17-.047.353-.073.515-.128.136-.044.264-.1.4-.15s.261-.1.389-.147a10.967,10.967,0,0,0,1.367-.647c.04-.023.078-.049.118-.073a7.775,7.775,0,0,0,1.047-.756c.034-.033.073-.058.1-.088s.062-.045.087-.069a5.388,5.388,0,0,0,.6-.653c.04-.049.07-.1.107-.154s.073-.113.113-.168c.054-.088.128-.176.179-.262a5.244,5.244,0,0,0,.26-.558.451.451,0,0,0,.021-.085c.015-.036.021-.071.037-.11a2.832,2.832,0,0,0,.1-.356,2.876,2.876,0,0,0,.067-.561v-.085l.007-2.551A3.32,3.32,0,0,1,259.885,162.541Z" transform="translate(-240.483 -155.842)"/><g transform="translate(0.009)"><path class="m" d="M257.17,159.037c3.825,2.211,3.847,5.8.043,8.01a15.248,15.248,0,0,1-13.832,0c-3.838-2.216-3.858-5.8-.043-8.017A15.244,15.244,0,0,1,257.17,159.037Z" transform="translate(-240.49 -157.376)"/></g></g><g transform="translate(137.25 64.698)"><rect class="l" width="3.126" height="95.916"/></g><g transform="translate(31.502 93.206)"><path class="l" d="M188.9,118.529c-.011.036-.019.07-.029.1a3.969,3.969,0,0,1-.467.91c-.037.055-.069.11-.11.164a5.389,5.389,0,0,1-.791.872c-.036.033-.076.065-.113.1a8.128,8.128,0,0,1-1.16.824,10.586,10.586,0,0,1-1.367.646c-.125.052-.256.1-.383.147-.3.107-.61.192-.919.279s-.653.179-.982.247c-.389.078-.776.15-1.178.2-.1.012-.2.033-.3.043-.54.056-1.088.087-1.639.091-.087,0-.177,0-.267,0-.543,0-1.083-.034-1.616-.087-.084-.011-.17-.019-.258-.029a15.231,15.231,0,0,1-1.568-.269c-.088-.021-.179-.044-.267-.067a12.8,12.8,0,0,1-1.371-.415c-.074-.027-.158-.048-.231-.078a10.8,10.8,0,0,1-1.488-.7c-1.932-1.114-2.895-2.576-2.895-4.037l0,2.55c0,1.462.959,2.922,2.888,4.038a11.046,11.046,0,0,0,1.406.676l.087.026c.077.032.154.051.234.078.28.1.57.21.868.294.161.047.328.082.5.121.091.025.183.048.273.067s.165.044.249.062c.317.067.642.122.97.169.115.016.238.027.35.041l.247.026c.118.014.234.032.35.041.322.025.642.04.963.049.1,0,.2,0,.311,0,.087,0,.174,0,.265,0,.143,0,.284,0,.427,0,.365-.012.725-.036,1.087-.073.041,0,.08-.012.124-.016.1-.011.2-.029.3-.041.278-.036.55-.067.824-.117.12-.022.229-.062.354-.088.335-.067.658-.154.98-.243.172-.049.35-.076.519-.128.133-.047.261-.1.4-.151s.262-.1.389-.147a11.155,11.155,0,0,0,1.366-.647c.038-.023.08-.051.117-.074a7.777,7.777,0,0,0,1.05-.756c.033-.029.07-.056.1-.085s.059-.047.084-.07a5.54,5.54,0,0,0,.606-.653c.041-.051.07-.1.107-.155s.073-.11.113-.166c.054-.087.128-.173.174-.264a3.885,3.885,0,0,0,.258-.555.4.4,0,0,0,.026-.085c.015-.038.021-.074.033-.11.037-.12.077-.235.1-.354a3.271,3.271,0,0,0,.06-.563.583.583,0,0,0,0-.085l.008-2.551A3.4,3.4,0,0,1,188.9,118.529Z" transform="translate(-169.504 -111.832)"/><g transform="translate(0.008)"><path class="m" d="M186.186,115.027c3.825,2.209,3.847,5.8.047,8.006a15.24,15.24,0,0,1-13.832,0c-3.836-2.213-3.858-5.8-.047-8.016A15.244,15.244,0,0,1,186.186,115.027Z" transform="translate(-169.51 -113.365)"/></g></g><g transform="translate(39.72 4.226)"><rect class="l" width="3.13" height="95.916"/></g><g transform="translate(25.936 20.455)"><g transform="translate(18.277 8.568)"><path class="n" d="M182.793,68.907a38.469,38.469,0,0,1,4.538-2.255c-.308.381-.639.772-.992,1.161a39.189,39.189,0,0,0-3.546,1.818c-1.112.642-2.187,1.331-3.21,2.047a4.218,4.218,0,0,1-.829-.142c1.062-.771,2.167-1.514,3.324-2.209.212-.125.42-.25.632-.374A.926.926,0,0,1,182.793,68.907Z" transform="translate(-178.755 -66.652)"/></g><g transform="translate(17.754)"><path class="n" d="M181.7,60.812a2.923,2.923,0,0,1,.293-.148,2.254,2.254,0,0,1,2.425.227l-.493.735a1.915,1.915,0,0,0-2-.206c-.07.03-.135.069-.209.106a4.735,4.735,0,0,0-1.5,1.566c-.617.944-1.43,2.76-1.165,3.916.256,1.117,1.494,1.392,3.579.78l.243-.069-.023,3.567c-.212.124-.42.249-.632.374l.021-3.01c-2.216.592-3.493.218-3.8-1.123-.36-1.546.736-3.792,1.368-4.757A5.85,5.85,0,0,1,181.7,60.812Z" transform="translate(-178.374 -60.416)"/></g><g transform="translate(0 3.992)"><path class="o" d="M194.553,64.721l5.577-1.344c11.6-.82,13.629,7.79,13.734,8.243l-7.672,7.943L202.078,78.3l.94,35.923-27.574,15.43.11-35.55-3.458,6.116-6.642.563,1.342-8.894c2.711-10.161,15.111-19.163,15.76-19.637a4.5,4.5,0,0,0,1.175.532,4.217,4.217,0,0,0,.829.142,5.756,5.756,0,0,0,3.247-.889,15.389,15.389,0,0,0,3.509-2.976c.353-.389.684-.78.992-1.161A28.54,28.54,0,0,0,194.553,64.721Z" transform="translate(-165.453 -63.322)"/></g></g><path class="p" d="M176.525,83.929l7.564-5.409s1.532,11.209-3.34,12.524S175.277,84.821,176.525,83.929Z" transform="translate(-135.586 -33.191)"/><g transform="translate(41.072 29.021)"><g transform="translate(18.279 8.569)"><path class="n" d="M193.81,75.143a38.712,38.712,0,0,1,4.541-2.255c-.311.381-.639.772-.995,1.161a39.375,39.375,0,0,0-3.546,1.818c-1.114.643-2.185,1.331-3.211,2.047a3.825,3.825,0,0,1-.826-.143c1.061-.769,2.168-1.51,3.322-2.208.213-.126.419-.251.636-.372A.59.59,0,0,1,193.81,75.143Z" transform="translate(-189.773 -72.888)"/></g><g transform="translate(17.757)"><path class="n" d="M192.719,67.047c.095-.054.192-.1.289-.148a2.256,2.256,0,0,1,2.429.229l-.5.734a1.927,1.927,0,0,0-2-.207c-.07.033-.135.069-.207.11a4.775,4.775,0,0,0-1.5,1.565c-.611.943-1.429,2.76-1.16,3.914.253,1.117,1.488,1.39,3.574.78l.246-.067-.021,3.567c-.217.121-.423.246-.636.372l.021-3.012c-2.215.595-3.493.22-3.795-1.121-.359-1.547.739-3.789,1.367-4.757A5.863,5.863,0,0,1,192.719,67.047Z" transform="translate(-189.393 -66.652)"/></g><g transform="translate(0 3.995)"><path class="f" d="M205.571,70.958l5.578-1.344c11.6-.82,13.623,7.788,13.732,8.241L217.209,85.8l-4.114-1.26.943,35.923-27.577,15.43.113-35.549-3.461,6.111-6.643.565,1.347-8.9c2.711-10.159,15.108-19.163,15.761-19.636a4.459,4.459,0,0,0,1.172.53,3.825,3.825,0,0,0,.826.143,5.755,5.755,0,0,0,3.248-.889,15.337,15.337,0,0,0,3.509-2.976c.356-.389.684-.78.995-1.161A28.47,28.47,0,0,0,205.571,70.958Z" transform="translate(-176.469 -69.559)"/></g></g><path class="d" d="M187.334,90.585l7.561-5.409s1.532,11.209-3.337,12.524S186.084,91.477,187.334,90.585Z" transform="translate(-131.544 -30.702)"/><g transform="translate(54.703 36.995)"><g transform="translate(18.278 8.567)"><path class="n" d="M203.728,80.945a38.855,38.855,0,0,1,4.544-2.255c-.308.381-.64.774-.992,1.161a38.906,38.906,0,0,0-3.552,1.818c-1.112.642-2.182,1.331-3.211,2.049a4.214,4.214,0,0,1-.824-.143c1.062-.769,2.17-1.513,3.322-2.209.207-.125.42-.25.631-.372Z" transform="translate(-199.693 -78.69)"/></g><g transform="translate(17.751)"><path class="n" d="M202.639,72.849c.1-.056.194-.1.289-.148a2.265,2.265,0,0,1,2.432.228l-.5.734a1.923,1.923,0,0,0-2-.2c-.067.03-.137.067-.2.106a4.752,4.752,0,0,0-1.5,1.565c-.611.943-1.428,2.76-1.162,3.916.249,1.117,1.488,1.393,3.575.78l.247-.069-.027,3.568c-.21.122-.423.247-.631.372l.022-3.01c-2.219.594-3.494.218-3.8-1.123-.356-1.546.743-3.791,1.37-4.755A5.919,5.919,0,0,1,202.639,72.849Z" transform="translate(-199.31 -72.455)"/></g><g transform="translate(0 3.991)"><path class="i" d="M215.49,76.76l5.581-1.345c11.6-.82,13.626,7.79,13.729,8.243L227.127,91.6l-4.111-1.261.943,35.921L196.38,141.692l.113-35.552-3.46,6.116-6.643.565,1.347-8.9c2.711-10.159,15.106-19.16,15.757-19.637a4.482,4.482,0,0,0,1.175.533,4.214,4.214,0,0,0,.824.143,5.793,5.793,0,0,0,3.251-.889,15.556,15.556,0,0,0,3.512-2.977c.352-.387.684-.78.992-1.161A28.365,28.365,0,0,0,215.49,76.76Z" transform="translate(-186.39 -75.36)"/></g></g><path class="q" d="M197.252,96.386l7.565-5.407s1.531,11.208-3.342,12.524S196,97.277,197.252,96.386Z" transform="translate(-127.834 -28.532)"/><g transform="translate(81.561 51.667)"><g transform="translate(18.278 8.568)"><path class="n" d="M223.275,91.625a38.655,38.655,0,0,1,4.544-2.256c-.311.381-.643.772-1,1.161a39.724,39.724,0,0,0-3.545,1.818c-1.112.643-2.189,1.33-3.208,2.047a3.836,3.836,0,0,1-.827-.143c1.058-.769,2.167-1.511,3.322-2.207.21-.126.418-.251.631-.372A.807.807,0,0,1,223.275,91.625Z" transform="translate(-219.24 -89.369)"/></g><g transform="translate(17.755)"><path class="n" d="M222.185,83.529a3.19,3.19,0,0,1,.289-.148,2.239,2.239,0,0,1,2.425.229l-.492.732a1.924,1.924,0,0,0-2-.206c-.066.032-.133.067-.206.109a4.729,4.729,0,0,0-1.5,1.565c-.618.943-1.43,2.76-1.165,3.914.256,1.118,1.491,1.392,3.578.78l.245-.067-.025,3.568c-.213.121-.42.246-.631.372l.022-3.012c-2.219.595-3.494.22-3.8-1.123-.357-1.547.739-3.789,1.368-4.755A5.835,5.835,0,0,1,222.185,83.529Z" transform="translate(-218.859 -83.133)"/></g><g transform="translate(0 4.321)"><path class="r" d="M235.037,87.35l4.876-1.072c9.133,1.9,12.933,10.17,12.933,10.17l-6.172,5.742-4.114-1.261.945,35.923-27.579,15.43.11-35.55-3.46,6.113-6.64.565,1.345-8.9c2.705-10.158,15.107-19.162,15.758-19.636a4.392,4.392,0,0,0,1.175.53,3.836,3.836,0,0,0,.827.143,5.75,5.75,0,0,0,3.244-.889,15.153,15.153,0,0,0,3.509-2.976c.356-.389.688-.78,1-1.161A29.811,29.811,0,0,0,235.037,87.35Z" transform="translate(-205.937 -86.278)"/></g></g><path class="h" d="M216.8,107.065l7.557-5.407s1.536,11.209-3.336,12.522S215.551,107.956,216.8,107.065Z" transform="translate(-120.524 -24.538)"/><g transform="translate(33.728)"><path class="s" d="M279.06,92.93,203.32,49.2c-.436-.25-.879-.481-1.342-.7-.158-.076-.316-.136-.477-.21-.271-.118-.536-.243-.819-.352-.027-.012-.067-.023-.1-.037-.639-.246-1.293-.464-1.966-.661-.052-.014-.1-.037-.152-.054-.158-.044-.322-.073-.474-.115-.378-.1-.754-.194-1.132-.278-.1-.023-.2-.055-.308-.074-.147-.03-.308-.051-.464-.081-.317-.06-.638-.115-.963-.169-.128-.018-.254-.048-.387-.066s-.29-.032-.436-.048c-.3-.04-.6-.071-.908-.1-.147-.012-.286-.037-.438-.048-.136-.012-.275-.012-.414-.022-.313-.022-.624-.037-.944-.051-.146-.007-.3-.019-.448-.023-.122,0-.242,0-.365,0-.337,0-.676,0-1.014.005-.168,0-.332,0-.5,0-.1,0-.194.015-.3.019-.412.021-.822.048-1.234.082-.168.015-.335.018-.5.033-.052.005-.1.018-.154.022-.7.076-1.395.169-2.079.291a1.079,1.079,0,0,0-.107.014c-.192.036-.386.084-.58.125-.342.067-.686.135-1.021.216-.24.059-.474.129-.712.192-.316.088-.642.173-.951.272-.062.022-.136.036-.2.058-.113.036-.212.082-.322.124-.493.165-.966.346-1.436.54-.177.076-.352.148-.528.227a18.259,18.259,0,0,0-1.717.87l-.223.128c-.168.1-.313.212-.473.317-.22.144-.449.287-.657.438-.183.132-.343.269-.512.405-.188.153-.386.3-.561.462-.033.032-.077.06-.11.092-.24.217-.455.44-.66.665-.044.048-.085.1-.128.147-.117.135-.242.269-.349.408-.049.062-.081.125-.125.188a7.125,7.125,0,0,0-.441.65c-.048.085-.121.169-.173.256-.021.044-.036.091-.058.135a6.037,6.037,0,0,0-.276.592c-.047.107-.113.21-.154.317-.014.036-.018.076-.029.111-.066.187-.113.374-.165.561-.029.121-.076.239-.1.36-.007.032-.007.065-.011.1-.036.2-.047.389-.065.585-.015.124-.041.247-.044.368,0,.056-.006.109-.006.162,0,.738,0,1.473-.005,2.212,0-.179.032-.353.047-.53a5.768,5.768,0,0,1,.069-.588c.026-.151.073-.3.11-.455.052-.187.1-.375.164-.561.052-.146.121-.289.18-.429.087-.2.176-.4.28-.592.07-.132.154-.261.234-.392.135-.22.278-.436.437-.649.092-.125.194-.249.3-.37a9.127,9.127,0,0,1,.776-.838c.1-.1.191-.2.293-.293.18-.159.376-.312.569-.466.168-.135.328-.272.507-.4.209-.15.438-.3.661-.44s.445-.3.688-.444a18.757,18.757,0,0,1,1.726-.871c.172-.078.348-.15.522-.223.463-.2.937-.372,1.418-.537.185-.065.365-.132.555-.19.3-.093.609-.179.915-.262.245-.067.485-.137.741-.2.33-.08.664-.147,1-.216.234-.047.46-.1.7-.142.686-.12,1.382-.216,2.079-.29.22-.021.434-.034.65-.055.415-.033.835-.063,1.254-.082.256-.012.511-.015.769-.022.339-.006.679-.008,1.021,0,.278,0,.559.012.84.023.309.011.62.027.926.047.284.019.569.044.848.071.309.03.616.063.919.1q.408.052.812.113c.331.051.653.11.978.172.254.047.5.1.75.151.392.084.772.183,1.156.284.2.054.411.1.609.162q1.014.295,1.966.664c.316.121.618.256.916.389.161.071.326.136.484.21.463.218.91.449,1.342.7l75.739,43.731c3.605,2.079,5.4,4.819,5.4,7.55l0-2.212C284.465,97.748,282.666,95.01,279.06,92.93Z" transform="translate(-170.757 -45.314)"/><g transform="translate(0.005)"><path class="m" d="M280.38,92.592c7.692,4.438,7.734,11.668.092,16.106s-20.116,4.441-27.8,0L176.924,64.967c-7.7-4.443-7.727-11.666-.089-16.107s20.107-4.443,27.808,0Zm-26.756,15.549c7.154,4.136,18.774,4.136,25.886,0s7.079-10.861-.085-15l-75.739-43.73c-7.171-4.138-18.775-4.134-25.89,0s-7.083,10.859.081,15l75.748,43.73Z" transform="translate(-171.128 -45.529)"/></g><path class="l" d="M286.132,98.188c-.022.212-.034.422-.074.628-.03.165-.078.323-.121.486-.055.2-.1.408-.173.611-.059.154-.129.308-.2.459-.091.212-.181.423-.291.629-.08.148-.173.29-.265.434-.143.232-.291.463-.463.691-.161.213-.322.426-.5.635-.045.052-.092.107-.137.162-.256.275-.539.547-.827.813-.192.168-.4.331-.6.493-.183.144-.356.294-.551.434-.224.163-.474.32-.717.478s-.473.322-.734.471a20.311,20.311,0,0,1-1.844.934c-.183.084-.378.162-.57.239-.492.21-1,.4-1.521.578-.2.067-.383.137-.581.2-.332.1-.664.192-1,.284-.258.071-.519.146-.787.21-.348.084-.7.154-1.059.227-.253.052-.514.111-.774.157-.734.131-1.478.231-2.227.311-.235.026-.471.04-.706.06-.441.034-.882.066-1.333.087-.283.014-.566.018-.846.023-.361.007-.724.011-1.087,0-.3,0-.592-.012-.9-.023-.335-.012-.669-.03-1.01-.054-.3-.022-.6-.045-.9-.076-.331-.032-.66-.069-.992-.111-.293-.037-.587-.077-.874-.124-.356-.054-.7-.115-1.052-.181-.268-.054-.539-.1-.809-.165-.414-.091-.819-.192-1.23-.3-.223-.059-.444-.115-.664-.179-.724-.21-1.428-.447-2.112-.714-.326-.126-.642-.267-.955-.4-.183-.08-.363-.153-.543-.238q-.74-.348-1.433-.746L176.925,61.883c-3.872-2.237-5.806-5.172-5.8-8.109,0,.738,0,1.474,0,2.211-.008,2.936,1.925,5.874,5.8,8.111l75.741,43.73q.7.4,1.44.752c.165.076.335.143.5.218.293.131.585.265.883.385.036.014.076.023.113.037.681.265,1.388.5,2.109.712.055.016.106.037.164.055.165.047.338.08.5.125.4.1.809.209,1.223.3.11.023.213.056.323.08.165.033.338.054.5.085.342.067.683.126,1.029.18.14.022.283.052.423.071s.316.034.469.055c.328.04.654.077.984.11.155.015.309.038.464.051s.293.012.442.025c.331.022.672.04,1,.052.166.007.331.022.5.026.133,0,.268,0,.4,0,.356,0,.719,0,1.074-.005.18,0,.363,0,.541,0,.1,0,.213-.015.317-.021.444-.018.885-.051,1.323-.088.183-.014.365-.018.548-.034.055-.007.106-.019.163-.023q1.129-.12,2.222-.312l.132-.015c.225-.041.447-.1.672-.147.345-.069.694-.139,1.029-.22.273-.065.539-.142.8-.216.331-.089.66-.179.985-.28.077-.023.152-.041.228-.066.125-.038.235-.092.36-.136q.775-.264,1.518-.574c.192-.081.383-.158.569-.243a20.208,20.208,0,0,0,1.848-.933l.234-.139c.19-.114.35-.236.526-.352.232-.151.47-.3.683-.456s.379-.3.566-.445.4-.317.584-.485c.04-.034.085-.066.121-.1.26-.234.491-.477.713-.716.048-.055.085-.106.133-.157.122-.146.256-.29.371-.437.052-.066.089-.136.135-.2.173-.228.326-.459.469-.69.058-.1.137-.188.188-.283.034-.051.043-.1.073-.154.11-.2.2-.4.29-.609.045-.12.118-.236.164-.359.019-.041.022-.084.04-.129.067-.2.115-.392.165-.589.04-.133.085-.261.115-.393a.932.932,0,0,1,.012-.1c.04-.209.048-.419.073-.628.01-.132.04-.267.043-.4,0-.058,0-.115,0-.173q0-1.1.01-2.211C286.18,97.807,286.147,98,286.132,98.188Z" transform="translate(-171.124 -42.446)"/></g><path class="n" d="M192.239,67.918a7.766,7.766,0,0,0-2.145,3.865l-.643.3a9.123,9.123,0,0,1,2.788-4.911Z" transform="translate(-130.542 -37.437)"/><path class="n" d="M202.153,73.722a7.8,7.8,0,0,0-2.142,3.864l-.64.3a9.182,9.182,0,0,1,2.782-4.913Z" transform="translate(-126.832 -35.267)"/><path class="n" d="M221.7,84.4a7.833,7.833,0,0,0-2.149,3.865l-.636.3A9.12,9.12,0,0,1,221.7,83.65Z" transform="translate(-119.522 -31.273)"/><path class="n" d="M181.218,61.684a7.815,7.815,0,0,0-2.145,3.864l-.642.3a9.155,9.155,0,0,1,2.786-4.913Z" transform="translate(-134.663 -39.769)"/></g><g transform="translate(0 46.8)"><path class="t" d="M85.41,174.327l-.383-.219,79.256-46.06,92.058,53.147L210.6,207.779l.383.219-79.256,46.064-92.06-53.149Z" transform="translate(-39.664 -61.469)"/><g transform="translate(17.456 103.758)"><path class="u" d="M96.125,159.465c10.048,5.8,10.11,15.213.111,21.021s-26.238,5.8-36.288,0-10.114-15.21-.115-21.021S86.065,153.655,96.125,159.465Z" transform="translate(-52.369 -155.107)"/></g><path class="v" d="M65.153,91.713a30.329,30.329,0,0,0-2.017,5.578c-.769,3.085,2.017,8.183,2.017,8.183s3.879-11.361,2.894-13.152S65.153,91.713,65.153,91.713Z" transform="translate(-30.936 -75.201)"/><path class="w" d="M79.3,122.178s2.1,21.331,1.345,25.912-2.55,28.355-2.55,28.355a2.279,2.279,0,0,1-1.746.807c-2.406.2-2.741-.562-2.741-.562S69.271,157.1,71.89,150.3l-2.927-22.749v-3.163S76.6,123.443,79.3,122.178Z" transform="translate(-28.706 -63.664)"/><path class="x" d="M76.981,162.071a6.054,6.054,0,0,1-.221-2.181s-3.374,1.371-5.574.1a6.034,6.034,0,0,1-.121,2.589C70.679,163.651,76.5,163.516,76.981,162.071Z" transform="translate(-27.927 -49.561)"/><g transform="translate(43.96 111.149)"><path class="x" d="M72.546,161.7s-1.88,3.086.238,4.038,2.119-.529,6.055,2.87,7.542,2.013,8.061,1.294c1.246-1.728-.85-3.509-9.608-8.189Z" transform="translate(-71.614 -160.034)"/><path class="y" d="M72.828,166.189c2.035,1.134,2.123-.529,6.063,2.87s7.49,1.977,8.06,1.294a.733.733,0,0,0,.129-.426c-3.684,1.371-5.676-.555-7.286-1.869a11.893,11.893,0,0,0-5.591-2.454c-2.524-.577-1.6-2.627-1.6-2.627.006-.4-.074-2.468-.353-2.491C72.244,162.885,70.6,164.952,72.828,166.189Z" transform="translate(-71.659 -160.487)"/></g><path class="r" d="M81.57,118.682s1.984,18.951.849,29.836-2.234,22.943-1.957,29.128c.089,2.046-7.65,4.318-8.19,0-.651-5.15-2.907-19.612.209-26.036l-5.1-27.859S76.474,122.359,81.57,118.682Z" transform="translate(-29.298 -64.972)"/><path class="w" d="M71.1,123.4s2,22.628,1.285,27.484-2.572,30.343-2.572,30.343H65.663s-4.435-21.966-1.643-27.989L61.228,129.1v-3.351S68.521,124.739,71.1,123.4Z" transform="translate(-31.599 -63.208)"/><g transform="translate(32.776 115.41)"><path class="x" d="M64.413,165.083s-1.9,3.112.236,4.082,2.141-.537,6.12,2.9,7.61,2.028,8.135,1.3c1.257-1.748-.85-4.567-9.692-9.291Z" transform="translate(-63.476 -163.406)"/><path class="y" d="M64.7,169.348c2.054,1.145,2.139-.537,6.118,2.9s7.558,1.992,8.135,1.3a.788.788,0,0,0,.131-.43c-3.719,1.389-5.727-.562-7.356-1.886a12.01,12.01,0,0,0-5.647-2.473c-2.547-.587-1.614-2.661-1.614-2.661.015-.4-.066-2.481-.35-2.51C64.1,166.006,62.45,168.092,64.7,169.348Z" transform="translate(-63.519 -163.588)"/></g><path class="h" d="M61.017,121.621s-3.611,5.414-.948,18.314,3.579,16.688,3.579,16.688-.632,1.625,0,11.959c.589,9.7.606,9.064.827,13.747.091,1.858,7.59,2.718,7.9-1.182.657-8.3,1.389-29.912,1.389-29.912l1.8-20.63,9.105-11.923S65.915,125.02,61.017,121.621Z" transform="translate(-32.399 -64.972)"/><g transform="translate(43.921 18.008)"><path class="w" d="M91.9,106.117a6.618,6.618,0,0,1,2.968-1.224,6.112,6.112,0,0,1,3.965.4c1.271.357,2.2.754,2.006,1.39s-2.885,1.907-4.611,1.658c-1.061-.168-3.549,1.511-4.143,1.565S91.3,106.524,91.9,106.117Z" transform="translate(-64.188 -88.201)"/><path class="z" d="M92.066,109.258c.594-.054,3.082-1.733,4.143-1.565a6.888,6.888,0,0,0,3.924-1.018.28.28,0,0,0-.043-.076c-.3-.335-1.167,0-1.748-.091s-2.323.179-3.472.084-3.108,1.36-3.108,1.36l-.19.142C91.658,108.762,91.829,109.284,92.066,109.258Z" transform="translate(-64.172 -87.555)"/><path class="d" d="M71.844,94.814s2.994-4.669,6.8-.139c2.472,2.943,7.277,15.125,8.774,16.063.741.459,12.3-1.014,12.3-1.014s-1.58,1.867.982,4.967c0,0-14.666,6.179-17.43,3.3C78.526,113.058,70.187,100.281,71.844,94.814Z" transform="translate(-71.63 -92.697)"/></g><g transform="translate(27.97 17.799)"><path class="f" d="M61.761,97.219c1.531-1.349,17.5-5.8,19.348-4.409,1.219.919,1.558,1,3.681,7a13.137,13.137,0,0,1-.539,9.368c-2.748,6-2.3,9.056-2.154,10.687.22,2.418,2.7,6.423,2.226,8.59-.639,2.943-19.784,9.056-23.65,2.943-.044-.077-.963-.441,1.088-7.01C66.127,110.383,56.2,102.117,61.761,97.219Z" transform="translate(-60.021 -92.545)"/><path class="aa" d="M60.5,120.825c0,.018,0,0,0,0Z" transform="translate(-59.844 -81.971)"/></g><g transform="translate(30.761)"><path class="ab" d="M72.982,91.161s-.807,3.659,0,5.584-2.126,2.547-3.513,2.065-3.6-1.448-3.3-2.681,1.54-5.3.736-6.755S72.982,91.161,72.982,91.161Z" transform="translate(-60.524 -76.071)"/><path class="w" d="M66.85,82.862s-4.2,4.158-3.061,8.546c.624,2.414,3.414,4,5,5.242s4.772,4.085,7.285,2.046c2.586-2.1,3.19-11.668-.067-15.834C72.827,78.8,66.85,82.862,66.85,82.862Z" transform="translate(-61.475 -79.043)"/><path class="v" d="M76.589,85.212s.4,2.843-5.989,3.733c-1.566.217-1.281,5-2.509,3.8-.467-.46-1.682-1.353-1.832-.672-.7,3.28,2.51,2.382,2.142,4.644-.882,5.5-7.281-3.534-6.234-9.659.776-4.555,3.649-8.4,10.15-7.262s6.077,7.462,6.077,7.462S77.691,85.1,76.589,85.212Z" transform="translate(-62.052 -79.591)"/></g><path class="g" d="M64.608,92.507a4.193,4.193,0,0,0,3.133-1.179s.507.595-.21,2.48a10.41,10.41,0,0,1-3.544.223C62.72,93.731,64.183,92.886,64.608,92.507Z" transform="translate(-30.756 -75.202)"/><g transform="translate(16.483 26.908)"><g transform="translate(64.141 91.486)"><g class="ac"><g transform="translate(0 2.929)"><path class="ad" d="M98.343,167.892l.163,57.459,5.037,2.922-.164-57.456Z" transform="translate(-98.343 -167.892)"/></g><g transform="translate(5.037 2.929)"><path class="l" d="M102.008,170.816l.164,57.456,5.068-2.922-.164-57.459Z" transform="translate(-102.008 -167.892)"/></g><path class="ae" d="M98.343,168.689l5.037,2.925,5.069-2.925-5.036-2.929Z" transform="translate(-98.343 -165.76)"/></g></g><g transform="translate(0 60.599)"><g class="ac"><g transform="translate(0 5.876)"><path class="ad" d="M51.66,147.556l.226,48.551,5.036,2.922V150.614Z" transform="translate(-51.66 -147.556)"/></g><g transform="translate(5.099)"><path class="l" d="M55.371,146.208l.163,54.42,5.068-2.922-.153-54.427Z" transform="translate(-55.371 -143.28)"/></g></g></g><g transform="translate(174.138 37.15)"><g class="ac"><g transform="translate(0 2.929)"><path class="ad" d="M178.4,128.345l.164,57.458,5.034,2.926-.164-57.46Z" transform="translate(-178.4 -128.345)"/></g><g transform="translate(5.034 2.929)"><path class="l" d="M182.063,131.27l.164,57.46,5.07-2.926-.164-57.458Z" transform="translate(-182.063 -128.345)"/></g><path class="ae" d="M178.4,129.142l5.034,2.925,5.07-2.925-5.037-2.929Z" transform="translate(-178.4 -126.213)"/></g></g><g class="ac"><g transform="translate(0 66.475)"><path class="ad" d="M51.66,147.556l.013,5.2,69.264,40.25-.017-5.2Z" transform="translate(-51.66 -147.556)"/></g><g transform="translate(69.26 40.254)"><path class="l" d="M102.068,194.94l.017,5.2,115.13-66.471-.015-5.2Z" transform="translate(-102.068 -128.472)"/></g><path class="m" d="M51.66,165.65,120.92,205.9l115.131-66.467L166.79,99.175Z" transform="translate(-51.66 -99.175)"/></g></g><path class="g" d="M73.341,122.584c.769-3.969,6.157-10.312,14.542-10.925s6.227-3.655,13.9-5.084,4.093,15.738,20.044,20.8c6.07,1.93,52.527,7.182,46.184,13.714s-26.265,13.457-42.707,10.8-13.049,3.971-17.547,3.589S69.865,140.493,73.341,122.584Z" transform="translate(-27.164 -69.531)"/><path class="af" d="M107.086,159c3.41-.157,3.01-10.048,9.353-10.738-2.961-1.382-5.974-2.72-8.611-3.75-9.287-3.629-16.4-10.848-21.048-20.813a15.1,15.1,0,0,0-10.955-8.91,11.265,11.265,0,0,0-2.444,4.691C69.9,137.389,89.722,159.81,107.086,159Z" transform="translate(-27.204 -66.427)"/><g transform="translate(24.885 22.533)"><path class="w" d="M71.583,116.292a6.643,6.643,0,0,1,3.166.474,6.2,6.2,0,0,1,3.207,2.392c.905.967,1.491,1.8,1.006,2.244s-3.461.165-4.8-.948c-.84-.686-3.828-.515-4.368-.78S70.848,116.332,71.583,116.292Z" transform="translate(-53.322 -88.413)"/><path class="z" d="M69.795,119.106c.54.265,3.528.095,4.368.78a6.758,6.758,0,0,0,3.88,1.153.2.2,0,0,0,0-.095c-.077-.438-1-.591-1.451-.974s-2.083-1.054-3.021-1.726-3.369-.43-3.369-.43l-.239.033C69.7,118.467,69.578,119,69.795,119.106Z" transform="translate(-53.322 -87.845)"/><path class="ag" d="M62.192,96.413S65.8,94.628,66.677,98.4s-1.75,17.829-.944,19.416c.393.78,11.074,5.478,11.074,5.478s-2.31.8-1.7,4.812c0,0-15.757-2.226-16.662-6.147C56.905,115.234,57.967,100.293,62.192,96.413Z" transform="translate(-57.775 -95.991)"/></g><path class="f" d="M99.776,149.965c1.5.948-15.544,18.836-10.69,21.975s8.347-4.318,19.259-10.734c10.435-6.136,12.66-11.129,21.842-.5,5.037,5.835,23.8-3.313,24.936-11.723s1.428-13.9-9.905-18.285C134.218,126.443,82.67,139.194,99.776,149.965Z" transform="translate(-21.507 -60.791)"/><path class="ah" d="M101.321,147.363c2.657,1.674-26,10.512-14.508,13.08,5.643,1.261-4.435,14.794,7.561,13.156s33.3-29.909,32.5-14.185c-.584,11.562,28.65-4.618,29.791-13.028.089-.643.169-1.263.242-1.871-2.524.058-28.628,16.238-29.435,5.022-.787-10.978-25.72,16.55-33.1,18.183s21.385-21.517,11.9-20.426c-6.274.719-5.041-5.9-3.49-10.477C97.5,140.1,95.721,143.836,101.321,147.363Z" transform="translate(-23.052 -58.189)"/><path class="u" d="M123.483,152.9s9.3-14.943,19.01-15.486,13-19.032,17.271-19.281,5.107,1.966,6.831,7,3.969,8.85,3.651,11.848-17.639,30.034-41.908,29.461S122.043,155.918,123.483,152.9Z" transform="translate(-11.218 -65.186)"/><path class="ai" d="M128.339,164.527c24.269.573,41.592-26.459,41.908-29.461s-1.925-6.809-3.651-11.848c.42,13.795-10.691,22.316-17.672,28.152s-13.251,7.856-21.341,9-8.291-5.213-8.291-5.213h0C115.047,159.146,111.37,164.126,128.339,164.527Z" transform="translate(-11.217 -63.276)"/><g transform="translate(131.436 39.309)"><path class="w" d="M141.738,138.586s-5.5-1.263-6.124-4.446-.2-3.816,1.047-2.85,4.654,3.458,4.6,2.751-.883-1.991-.262-2.069,3.027,3.839,3.027,3.839l-.183,3.446Z" transform="translate(-135.325 -99.721)"/><g transform="translate(21.403 109.433)"><path class="t" d="M158.5,192.211c-10.078,5.816-10.136,15.251-.121,21.073s26.3,5.809,36.376,0,10.137-15.254.129-21.07C184.859,186.389,168.571,186.4,158.5,192.211Z" transform="translate(-150.902 -187.847)"/></g><path class="f" d="M176.281,196.162c-.172.037-8.95-.24-6.989,2.813a4.967,4.967,0,0,0,4.342,2.361c1.314.04,3.713-.675,4.307-.316s3.57,2.267,5.275.344a2.864,2.864,0,0,0,.342-2.23C183.338,198.412,177.253,195.992,176.281,196.162Z" transform="translate(-122.728 -75.308)"/><path class="e" d="M169.291,198.726a4.967,4.967,0,0,0,4.342,2.361c1.314.04,3.713-.675,4.307-.316s3.57,2.267,5.275.344a2.333,2.333,0,0,0,.4-1.1c-1.193,1.634-4.111,1.186-4.923.647a4.807,4.807,0,0,0-3.4-.694,6.792,6.792,0,0,1-4.9-1.175,1.834,1.834,0,0,1-.566-1.972A1.187,1.187,0,0,0,169.291,198.726Z" transform="translate(-122.728 -75.059)"/><path class="f" d="M168.1,200.391c-6.3-.824-12.9.2-10.46,3.421a6.55,6.55,0,0,0,5.485,2.453c1.674.015,4.739-.782,5.489-.4s4.5,2.367,6.7.283a4.29,4.29,0,0,0,.857-3.016C175.9,202.367,169.342,200.559,168.1,200.391Z" transform="translate(-127.172 -73.825)"/><g transform="translate(16.326 9.982)"><path class="w" d="M157.012,117.945s-4.358-3.582-7.259-2.135-3.141,2.182-1.619,2.579,5.588,1.565,4.993,1.963-2.123.51-1.8,1.05,4.887.048,4.887.048l2.619-2.246Z" transform="translate(-147.207 -115.465)"/><g transform="translate(8.129 2.69)"><path class="aj" d="M186.09,126.221s5.334.008,5.13,5.407c-.224,5.723-11.433,3.151-11.433,3.151s-9.746-1.4-12.711-2.771c-3.954-1.832-13.954-10.578-13.954-10.578s.937-3.282,3.26-4.005c0,0,9.509,7.088,13.214,8.054C173.646,126.52,185.212,125.984,186.09,126.221Z" transform="translate(-153.123 -117.423)"/></g></g><path class="r" d="M181.853,148.079s5.467,9.229.562,21.988c0,0-3.765,10.773-2.936,14.384,1,4.324,2.462,3.1,3.52,17.422.937,12.634.885,10.643.666,15.29-.066,1.47-5.985,2.722-6.933-.977-2.433-9.458-8.321-29.247-7.241-40.692s1.767-22.154,1.767-22.154S178.1,151.341,181.853,148.079Z" transform="translate(-122.596 -93.287)"/><path class="h" d="M177.85,153.264s5.5,8.215-1.929,19.061c0,0-5.584,12.2-4.821,16.29.8,4.232,2.156,3.879,3.611,16.812.918,8.223,1.5,10.3.845,15.595-.24,1.954-7.779,2.139-8.214-.624-1.528-9.6-8.707-30.251-7.63-41.7s3.377-24.336,3.377-24.336S172.861,156.033,177.85,153.264Z" transform="translate(-126.245 -91.348)"/><path class="g" d="M162.226,136.346s-1.3-6.08,8.869-9.724,16.451-3.516,16.578,2.16-2.506,13.244-2.874,15.8a22.449,22.449,0,0,0,1.226,12.806c2.433,5.824,3.578,11.377-12.54,12.325-2.813.168-13.291.114-11.809-6.417C163.534,155.138,163.4,143.1,162.226,136.346Z" transform="translate(-125.524 -102.235)"/><g transform="translate(7.009 28.107)"><path class="ak" d="M171.44,129.267s4.683-2.48,6.755,2.568c2.2,5.348-8.71,8.233-8.71,8.233s-9.127,3.271-12.311,3.4c-4.239.17-16.665-3.185-16.665-3.185s-.551-3.439,1.188-5.194c0,0,11.305,2.061,14.959,1.208C160.642,135.366,170.567,129.469,171.44,129.267Z" transform="translate(-140.426 -128.658)"/></g><path class="w" d="M169.234,121.764s1.065,4.3-1.036,6.919c-1.131,1.411,3.381,2.881,7.033,1.021,0,0,.324-7.356,3.031-9.92Z" transform="translate(-123.097 -103.869)"/><path class="ab" d="M169.286,123.8a16.707,16.707,0,0,0,4.068-1.193l.159.11.824,1.182.478-.686s-.833,4.482-6.245,3.509A9.685,9.685,0,0,0,169.286,123.8Z" transform="translate(-122.891 -102.814)"/><path class="e" d="M157.628,203.513a6.55,6.55,0,0,0,5.485,2.453c1.673.015,4.739-.782,5.489-.4s4.5,2.367,6.7.283a3.533,3.533,0,0,0,.719-1.437c-1.535,1.759-5.434,1.583-6.455,1.029a7.059,7.059,0,0,0-4.32-.688c-1.462.25-4.64,0-6.2-1.175a2.8,2.8,0,0,1-1.043-2.653A1.635,1.635,0,0,0,157.628,203.513Z" transform="translate(-127.155 -73.525)"/><path class="w" d="M170.518,108.8a9.88,9.88,0,0,0-4.986,7.365c-.794,5.132-2.4,9.567.139,11.792,2.572,2.248,12.044,1.675,15.152-4.876S179.994,105.822,170.518,108.8Z" transform="translate(-124.49 -108.167)"/><path class="v" d="M172.913,122.207s-1.227,8.718,3.034,14.776c2.41,3.436,2.47,6.051,2.138,7.627s6.8-4.832,3.714-12.106-6.128-10.3-6.128-10.3Z" transform="translate(-121.329 -102.963)"/><path class="v" d="M164.355,115.427a3.567,3.567,0,0,0,2.185,3.2c2.328.955,5.081.842,5.334,2.41s.83,5.975,2.844,7.34c2.6,1.746,2.846-.267,3.917-1.463,1.459-1.627,5.288-7.692,2.229-14.291a7.79,7.79,0,0,0-8.352-4.325S164.65,109.314,164.355,115.427Z" transform="translate(-124.469 -108.201)"/><path class="w" d="M172.335,121.454c-1.139,1.1-2.645,1.347-3.379.54s-.4-2.35.734-3.451,2.645-1.341,3.373-.534S173.457,120.356,172.335,121.454Z" transform="translate(-122.891 -104.712)"/><path class="f" d="M173.009,122.131s3.491-2.189,4.085-.412c.448,1.336-3.207,3.06-4.439,2.729S172.35,122.511,173.009,122.131Z" transform="translate(-121.59 -103.405)"/></g><g transform="translate(104.654 20.904)"><g transform="translate(0 17.774)"><path class="al" d="M115.832,118.885l11.61,6.748,19.3-11.143-11.613-6.748Z" transform="translate(-115.832 -107.742)"/></g><g transform="translate(9.009)"><g transform="translate(0 9.327)"><path class="am" d="M127.47,129.077l-5.012-2.914-.069-24.57,5.012,2.914Z" transform="translate(-122.389 -101.594)"/></g><path class="an" d="M127.4,107.046l-5.012-2.914,16.159-9.327,5.012,2.915Z" transform="translate(-122.389 -94.806)"/><g transform="translate(5.012 2.915)"><path class="ao" d="M142.2,96.927l.068,24.566-16.158,9.33-.069-24.569Z" transform="translate(-126.036 -96.927)"/></g><g transform="translate(6.387 5.741)"><path class="ap" d="M140.456,98.984l.058,20.4L127.1,127.132l-.058-20.4Z" transform="translate(-127.037 -98.984)"/></g><path class="d" d="M127.08,125.637l13.418-7.748-.043-14.91a10.371,10.371,0,0,0-3.188,6.985c-.128,4.318-3.875,9.333-6.476,11.11A11.173,11.173,0,0,0,127.08,125.637Z" transform="translate(-120.634 -91.749)"/><path class="j" d="M127.051,109.032s3.688.5,5.084,3.52,3.3,3.276,4.509,3.464a15.256,15.256,0,0,0,3.865-.39l-13.418,7.748Z" transform="translate(-120.645 -89.485)"/><path class="aq" d="M122.8,102.687s1.014,6.39,3.556,2.072Z" transform="translate(-122.234 -91.858)"/><g transform="translate(8.404 8.853)"><g class="ac" transform="translate(0 3.699)"><g transform="translate(1.774)"><path class="ar" d="M130.634,103.941l.434,1.349-.338.194-.1-.352-.4.234-.095.463-.331.194.426-1.843Zm-.364,1.129.309-.179-.091-.291c-.025-.077-.055-.179-.074-.267-.023.113-.043.245-.065.346l-.08.39Z" transform="translate(-129.796 -103.941)"/></g><g transform="translate(0 0.481)"><path class="ar" d="M130.282,104.291l-.353,1.8-.344.2-.115-.621a4.281,4.281,0,0,1-.07-.452h0c-.025.2-.047.357-.077.54l-.135.763-.344.2-.335-1.4.335-.2.107.6c.033.174.065.357.087.51l0,0c.022-.181.051-.4.092-.611l.113-.723.339-.2.111.609c.034.168.052.328.074.5l0,0c.021-.194.049-.4.076-.6l.118-.723Z" transform="translate(-128.505 -104.291)"/></g></g><g transform="translate(3.222 2.881)"><path class="ar" d="M131.4,103.466a.739.739,0,0,1,.349-.12l-.065.327a.649.649,0,0,0-.293.1.346.346,0,0,0-.2.273c0,.1.076.1.258.076.249-.038.365.045.365.267a1.015,1.015,0,0,1-.566.824.917.917,0,0,1-.393.132l.06-.344a.681.681,0,0,0,.354-.095.384.384,0,0,0,.22-.3c0-.106-.067-.128-.235-.1-.229.044-.382-.018-.386-.249A.991.991,0,0,1,131.4,103.466Z" transform="translate(-130.85 -103.346)"/></g><g transform="translate(5.365 4.534)"><path class="ar" d="M133.41,104.563c.141.037.234.185.234.47a1.4,1.4,0,0,1-.231.78,1.8,1.8,0,0,1-.642.58,3.035,3.035,0,0,1-.357.18l0-1.576c.118-.081.267-.183.427-.278A.775.775,0,0,1,133.41,104.563Zm-.569,1.507a.918.918,0,0,0,.467-.837c0-.331-.165-.412-.438-.256a.768.768,0,0,0-.141.1l0,1.051.11-.058Z" transform="translate(-132.41 -104.549)"/></g><g transform="translate(4.429 1.984)"><path class="ar" d="M132.885,102.693l0,1.594-.316.182,0-.66-.517.3,0,.66-.321.186,0-1.6.321-.183v.613l.517-.3v-.613Z" transform="translate(-131.728 -102.693)"/></g><g transform="translate(5.902 1.619)"><path class="ar" d="M133.111,102.427l.008,1.594-.314.183,0-1.594Z" transform="translate(-132.8 -102.427)"/></g><g transform="translate(6.531 0.769)"><path class="ar" d="M134.412,101.809l.005,1.594-.33.192-.3-.441a2.584,2.584,0,0,1-.24-.427l-.007,0c.007.2.015.436.015.694l0,.478-.293.166-.006-1.594.371-.214.287.415a2.268,2.268,0,0,1,.227.423l.008,0a6.335,6.335,0,0,1-.029-.657v-.463Z" transform="translate(-133.258 -101.809)"/></g><g transform="translate(7.94)"><path class="ar" d="M135.073,101.395a1.031,1.031,0,0,1,.392-.146l-.067.331a.79.79,0,0,0-.322.117.885.885,0,0,0-.459.78c0,.328.174.423.434.271a.653.653,0,0,0,.158-.11V102.3l-.217.124v-.284l.519-.3,0,.85a2.821,2.821,0,0,1-.467.357c-.256.146-.433.179-.565.11a.48.48,0,0,1-.2-.467A1.548,1.548,0,0,1,135.073,101.395Z" transform="translate(-134.284 -101.249)"/></g><g transform="translate(0.727 7.256)"><path class="ar" d="M129.89,106.538a.283.283,0,0,1,.151.286.894.894,0,0,1-.128.456,1.257,1.257,0,0,1-.453.433l-.106.051,0,.57-.322.183,0-1.58a3.805,3.805,0,0,1,.43-.278A.609.609,0,0,1,129.89,106.538Zm-.433.89a.494.494,0,0,0,.273-.415c0-.15-.091-.179-.249-.091l-.128.091v.466l.1-.051Z" transform="translate(-129.034 -106.53)"/></g><g transform="translate(1.911 6.441)"><path class="ar" d="M130.575,106.039c.427-.249.661-.018.664.43a1.431,1.431,0,0,1-.686,1.237c-.408.238-.657.022-.657-.433A1.468,1.468,0,0,1,130.575,106.039Zm0,1.368a.852.852,0,0,0,.337-.741c0-.284-.125-.46-.339-.335a.85.85,0,0,0-.335.739c0,.313.124.456.338.337Z" transform="translate(-129.896 -105.937)"/></g><g transform="translate(3.381 5.088)"><path class="ar" d="M132.743,104.952l-.353,1.8-.345.2-.115-.616a4.558,4.558,0,0,1-.07-.456l0,0c-.026.2-.047.353-.076.54l-.136.761-.342.2-.337-1.407.337-.194.106.6c.033.175.058.36.088.506l0,0c.021-.183.049-.394.091-.609l.113-.727.333-.19.12.606c.026.168.052.324.073.492l.005,0c.018-.19.049-.393.076-.594l.117-.727Z" transform="translate(-130.966 -104.952)"/></g><g transform="translate(6.851 3.617)"><path class="ar" d="M134.348,103.882v.288l-.543.317v.336l.51-.3,0,.3-.514.3v.379l.58-.332v.291l-.89.514,0-1.6Z" transform="translate(-133.491 -103.882)"/></g><g transform="translate(7.992 3.052)"><path class="ar" d="M135.267,104.474a2.445,2.445,0,0,0,.115.382l-.324.185a1.077,1.077,0,0,1-.1-.317c-.04-.17-.1-.2-.225-.124l-.1.059,0,.628-.313.179,0-1.58a3.9,3.9,0,0,1,.423-.273c.209-.121.35-.168.444-.131s.133.109.133.258a.829.829,0,0,1-.246.536v.007C135.175,104.274,135.233,104.347,135.267,104.474Zm-.5-.15a.455.455,0,0,0,.249-.376c0-.148-.084-.17-.235-.087a.619.619,0,0,0-.142.1v.437l.128-.073Z" transform="translate(-134.322 -103.47)"/></g></g><g transform="translate(8.101 19.862)"><path class="as" d="M129.306,109.4c.573-.328,1.033-.066,1.036.584a2.26,2.26,0,0,1-1.028,1.779c-.566.324-1.026.062-1.029-.595A2.267,2.267,0,0,1,129.306,109.4Z" transform="translate(-128.285 -109.261)"/><g transform="translate(1.193 0.207)"><path class="at" d="M129.492,109.459c.19-.109.342-.022.342.194a.764.764,0,0,1-.342.595c-.187.106-.339.018-.339-.2A.737.737,0,0,1,129.492,109.459Z" transform="translate(-129.153 -109.412)"/></g></g><g transform="translate(15.903 16.108)"><path class="as" d="M134.7,106.631c.409-.236.741-.047.741.416a1.628,1.628,0,0,1-.738,1.276c-.4.232-.731.044-.736-.423A1.62,1.62,0,0,1,134.7,106.631Z" transform="translate(-133.963 -106.529)"/></g><g transform="translate(16.639 16.258)"><path class="at" d="M134.744,106.671c.136-.077.246-.015.246.137a.543.543,0,0,1-.246.427c-.135.076-.245.015-.245-.143A.547.547,0,0,1,134.744,106.671Z" transform="translate(-134.499 -106.638)"/></g><g transform="translate(12.248 24.661)"><path class="as" d="M132.46,112.915c.646-.372,1.171-.077,1.171.657a2.556,2.556,0,0,1-1.164,2.017c-.638.367-1.16.073-1.164-.672A2.555,2.555,0,0,1,132.46,112.915Z" transform="translate(-131.303 -112.754)"/></g><g transform="translate(13.412 24.896)"><path class="at" d="M132.533,112.979c.22-.124.39-.026.39.218a.854.854,0,0,1-.386.672c-.212.124-.387.021-.387-.224A.856.856,0,0,1,132.533,112.979Z" transform="translate(-132.15 -112.925)"/></g><g transform="translate(15.029 20.974)"><path class="as" d="M134.055,110.136c.372-.176.646.015.613.415a1.4,1.4,0,0,1-.734,1.051c-.363.172-.638-.014-.6-.423A1.411,1.411,0,0,1,134.055,110.136Z" transform="translate(-133.327 -110.07)"/></g><g transform="translate(15.29 21.371)"><path class="at" d="M133.762,110.382c.125-.059.212,0,.2.137a.489.489,0,0,1-.245.35c-.125.055-.216-.007-.2-.143A.468.468,0,0,1,133.762,110.382Z" transform="translate(-133.517 -110.36)"/></g></g></g></g><g transform="translate(261.53 48.373)"><g transform="translate(37.997 126.285)"><path class="t" d="M359.717,204.314,312.5,231.75l-54.841-31.663,47.217-27.44Z" transform="translate(-257.663 -172.647)"/></g><g transform="translate(46.847 65.564)"><g transform="translate(46.249 26.707)"><path class="l" d="M337.775,147.891l-.186,65.325-39.825,23.141.186-65.322Z" transform="translate(-297.765 -147.891)"/></g><g transform="translate(0 23.144)"><path class="ad" d="M310.539,172.006l-.186,65.322-46.249-26.7.186-65.327Z" transform="translate(-264.104 -145.298)"/></g><g transform="translate(0.155 23.144)"><path class="s" d="M310.5,172.006l-.021,9.027-46.258-26.809.03-8.926Z" transform="translate(-264.217 -145.298)"/></g><g transform="translate(0.186)"><path class="m" d="M350.313,155.161l-39.825,23.144L264.239,151.6l39.819-23.144Z" transform="translate(-264.239 -128.454)"/></g><path class="m" d="M296.587,193.369c0-.192-.018-.39-.033-.581-.007-.107-.012-.207-.025-.308-.018-.2-.037-.4-.06-.588-.012-.093-.019-.186-.032-.276-.015-.14-.038-.278-.058-.42-.03-.2-.058-.405-.088-.606-.025-.143-.055-.283-.078-.426-.037-.2-.074-.389-.11-.584-.037-.165-.073-.328-.107-.493-.03-.128-.058-.256-.088-.383-.043-.18-.091-.368-.137-.551-.033-.118-.058-.243-.093-.363s-.067-.227-.1-.339c-.125-.438-.256-.871-.4-1.311l-.027-.093c-.143-.427-.291-.846-.453-1.27-.04-.106-.081-.212-.125-.32-.139-.359-.283-.719-.441-1.076-.021-.055-.04-.1-.06-.151-.176-.4-.356-.783-.536-1.178-.051-.1-.1-.2-.148-.3-.15-.305-.305-.6-.466-.908-.055-.1-.1-.2-.155-.3-.2-.378-.405-.752-.624-1.114-.043-.084-.095-.165-.147-.249-.183-.317-.371-.624-.569-.934-.058-.1-.125-.2-.183-.3-.253-.386-.5-.765-.769-1.14-.043-.063-.088-.125-.131-.188-.272-.378-.548-.757-.831-1.125-.052-.066-.1-.133-.146-.2-.085-.1-.165-.2-.25-.309-.122-.154-.25-.308-.374-.459-.092-.118-.2-.228-.287-.341-.113-.131-.225-.267-.341-.4-.231-.264-.462-.529-.706-.78a.3.3,0,0,0-.048-.059c-.256-.273-.518-.54-.782-.8-.165-.165-.332-.326-.5-.478-.052-.047-.1-.1-.147-.146-.221-.2-.444-.409-.672-.606-.06-.054-.125-.109-.183-.157-.168-.143-.338-.287-.506-.427-.081-.069-.17-.135-.249-.2-.153-.121-.3-.238-.453-.354-.089-.069-.183-.135-.271-.2-.15-.11-.305-.218-.458-.331-.085-.059-.176-.124-.264-.183-.165-.113-.33-.223-.5-.328l-.221-.152c-.247-.154-.491-.3-.734-.445s-.471-.26-.7-.379c-.066-.037-.128-.07-.191-.1-.2-.106-.411-.2-.611-.3a.839.839,0,0,0-.089-.04c-.209-.1-.426-.192-.632-.278-.228-.095-.451-.179-.676-.254-.052-.019-.113-.045-.168-.063-.276-.095-.551-.181-.824-.251-.162-.047-.323-.084-.475-.121-.076-.014-.148-.036-.221-.055-.232-.051-.46-.091-.691-.126h-.018c-.21-.036-.415-.059-.621-.081-.07,0-.137-.01-.2-.014-.152-.008-.3-.015-.438-.018-.07,0-.137-.008-.2-.008-.152,0-.3,0-.453.008-.047,0-.1,0-.153.007-.19.007-.383.022-.569.047a1.2,1.2,0,0,0-.12.019c-.128.018-.256.04-.376.062a7.7,7.7,0,0,0-.768.176l-.03.01c-.234.07-.466.154-.691.245l-.191.081c-.2.084-.383.179-.566.276-.058.033-.125.062-.18.095q1.43-.831,2.865-1.663l.078-.048a.834.834,0,0,0,.1-.047c.185-.1.371-.19.561-.275.033-.014.07-.036.106-.051a.808.808,0,0,1,.092-.032,6.322,6.322,0,0,1,.684-.24l.03-.012.007,0a.2.2,0,0,0,.033-.007c.165-.047.335-.087.5-.124l.155-.033c.051-.007.106-.022.154-.033.1-.014.2-.025.3-.036a1.048,1.048,0,0,1,.12-.018c.17-.022.338-.041.511-.051h.06c.052,0,.1-.008.15-.008.148-.007.3-.007.453-.007.063,0,.128,0,.191,0s.1,0,.155,0c.092,0,.19.011.286.022.067,0,.137.007.2.015.2.018.414.043.617.073.012,0,.016,0,.025,0h.007c.225.033.453.081.684.128.073.015.146.037.223.055.143.033.283.066.429.1l.045.015c.268.077.541.157.824.256.055.018.117.044.17.062q.33.12.668.251a.8.8,0,0,0,.088.037c.183.08.365.157.551.24a.694.694,0,0,1,.078.04c.2.095.418.2.621.3.065.032.122.065.183.093.235.121.466.249.7.387s.489.291.732.445c.077.047.155.1.232.153.163.106.331.212.493.322.091.066.179.128.268.194.154.1.3.212.449.324.095.065.185.137.278.2.148.113.3.234.447.349.087.07.175.135.257.2.163.139.331.278.5.423.058.054.125.109.185.161.228.2.453.4.672.609.049.044.095.088.137.132.152.139.3.276.448.423.021.021.04.047.063.069.258.258.526.521.779.8a.191.191,0,0,1,.027.033c.243.262.481.528.721.8.025.029.049.055.07.08.092.106.185.216.278.328s.194.227.289.343.216.262.32.39.206.262.306.393a.23.23,0,0,1,.047.051c.021.03.045.067.066.1.3.378.588.769.871,1.167.025.037.055.073.078.11h0a.409.409,0,0,0,.037.058c.262.381.523.763.774,1.153l.073.11c.033.055.07.113.1.164.2.324.408.657.6.985a1.618,1.618,0,0,0,.089.142.485.485,0,0,0,.03.052c.21.379.426.757.629,1.138.015.032.037.06.052.095.036.062.06.128.1.19.161.3.311.6.459.912a2.011,2.011,0,0,1,.1.2c.018.036.037.077.055.117.188.386.366.772.539,1.167a.116.116,0,0,0,.018.037,1.387,1.387,0,0,0,.055.135c.15.35.3.7.433,1.058.021.062.048.115.07.174s.036.1.051.15c.159.42.313.838.458,1.261a.116.116,0,0,1,.006.03.433.433,0,0,0,.03.087c.14.434.271.872.4,1.311.012.055.03.1.047.157s.027.1.039.15c.037.131.07.265.107.4l.128.525c.03.131.063.264.095.394.021.091.038.186.06.279.015.067.027.137.04.2.043.2.078.4.115.6.025.137.048.28.076.418.027.2.062.411.085.609.018.1.037.2.049.3a1.211,1.211,0,0,0,.015.121c.008.092.015.183.027.271.027.2.045.405.063.6.007.095.018.2.025.293.015.2.027.4.036.6,0,.088.01.176.012.258q.014.425.015.84c-.012,4.812-1.713,8.193-4.452,9.781-.949.556-1.9,1.109-2.858,1.668,2.736-1.6,4.434-4.979,4.446-9.781,0-.276,0-.561-.015-.839C296.6,193.547,296.6,193.456,296.587,193.369Z" transform="translate(-261.686 -115.013)"/><g transform="translate(4.434 51.041)"><path class="l" d="M282.633,167.692c-8.424-4.858-15.277-.956-15.3,8.721s6.775,21.47,15.2,26.331,15.27.955,15.3-8.717S291.05,172.557,282.633,167.692Z" transform="translate(-267.331 -165.602)"/></g><g transform="translate(8.053 55.912)"><path class="m" d="M281.633,170.743c-6.419-3.71-11.647-.73-11.668,6.651s5.168,16.371,11.6,20.075,11.646.73,11.665-6.643C293.246,183.439,288.051,174.453,281.633,170.743Z" transform="translate(-269.965 -169.148)"/></g><path class="s" d="M280.718,170.744c6.418,3.71,11.613,12.7,11.592,20.083-.01,2.982-.868,5.243-2.311,6.636A9.961,9.961,0,0,1,284,195.915c-6.425-3.71-11.61-12.7-11.592-20.081.012-2.984.867-5.249,2.312-6.646A9.943,9.943,0,0,1,280.718,170.744Z" transform="translate(-260.997 -113.236)"/><path class="au" d="M291,190.742a12.234,12.234,0,0,1-.478,3.46,12.613,12.613,0,0,1-3.031-1.285c-6.425-3.712-11.614-12.7-11.592-20.082a12.055,12.055,0,0,1,.478-3.461,12.528,12.528,0,0,1,3.031,1.285C285.83,174.368,291.025,183.354,291,190.742Z" transform="translate(-259.691 -113.151)"/><g transform="translate(31.313 42.574)"><path class="l" d="M299.043,166.461l-.021,6.62-12.128-6.835V159.44Z" transform="translate(-286.894 -159.44)"/></g><g transform="translate(17.265 34.802)"><path class="m" d="M288.815,160.8l-.006,2.451-12.14-6.8v-2.67Z" transform="translate(-276.669 -153.783)"/></g><g transform="translate(20.016 36.392)"><path class="av" d="M284.792,158.478l.021,2.521-6.141-3.44v-2.619Z" transform="translate(-278.672 -154.941)"/></g><g transform="translate(7.873 31.162)"><path class="m" d="M273.258,154.61a3.791,3.791,0,0,0-.095-.4.107.107,0,0,0-.008-.037c-.047-.142-.1-.287-.159-.426v-.007c-.066-.143-.14-.284-.219-.427l0-.007c-.077-.132-.165-.262-.256-.387a.122.122,0,0,1-.022-.029c-.085-.113-.176-.223-.261-.32-.025-.022-.047-.044-.065-.063-.073-.076-.148-.142-.225-.212-.033-.032-.073-.065-.106-.091a3.944,3.944,0,0,0-.338-.24,1.778,1.778,0,0,0-.341-.153.2.2,0,0,0-.055-.019,1.373,1.373,0,0,0-.3-.065l-.025,0a1.067,1.067,0,0,0-.293.014l-.015,0a.878.878,0,0,0-.261.1l.008,0,.591-.342.411-.242.01,0a.645.645,0,0,1,.088-.043.906.906,0,0,1,.1-.033c.018-.008.04-.011.058-.018s.015,0,.025,0l.018,0a1.057,1.057,0,0,1,.113-.014h.115l.04,0c.012,0,.018,0,.03,0s.043,0,.06.007a1.42,1.42,0,0,1,.165.037.32.32,0,0,1,.067.022.284.284,0,0,1,.063.022.618.618,0,0,1,.082.025,2.758,2.758,0,0,1,.256.128,2.484,2.484,0,0,1,.338.238c.033.029.067.058.107.088.051.051.106.091.154.142a.494.494,0,0,1,.067.076c.018.016.04.037.062.059a.543.543,0,0,1,.066.077,1.611,1.611,0,0,1,.15.179c.018.022.033.044.048.062s.019.026.025.037.037.04.052.065c.033.048.069.1.106.154a1.325,1.325,0,0,0,.092.152l0,.015.005.008c.022.047.052.087.073.131s.052.1.08.154.043.091.063.137l0,.008c0,.007,0,.007.005.011.018.055.043.109.065.164s.043.113.063.172c.01.026.015.051.027.08a.169.169,0,0,1,0,.037c.007.022.015.04.022.066.018.065.036.135.051.2a.832.832,0,0,1,.022.121.663.663,0,0,1,.012.073l.008.055a2.209,2.209,0,0,1,.027.353,1.286,1.286,0,0,1-.532,1.161l-1.007.587a1.263,1.263,0,0,0,.529-1.16,3.331,3.331,0,0,0-.033-.416C273.267,154.65,273.264,154.628,273.258,154.61Z" transform="translate(-269.692 -151.134)"/><g transform="translate(0 0.585)"><path class="l" d="M271.645,151.806c-1-.573-1.808-.114-1.811,1.032a3.953,3.953,0,0,0,1.8,3.115c.995.576,1.808.117,1.814-1.028A3.981,3.981,0,0,0,271.645,151.806Z" transform="translate(-269.834 -151.56)"/></g></g><g transform="translate(2.212 28.184)"><path class="m" d="M269.138,152.44a2.545,2.545,0,0,0-.091-.4c0-.011,0-.018-.01-.03a3.951,3.951,0,0,0-.158-.43h0a3.051,3.051,0,0,0-.213-.43l0-.008a4.157,4.157,0,0,0-.258-.39c-.005-.011-.015-.018-.018-.025a2.477,2.477,0,0,0-.271-.322.548.548,0,0,0-.059-.066,2.637,2.637,0,0,0-.224-.207,1.45,1.45,0,0,0-.107-.1,3.155,3.155,0,0,0-.338-.234,2,2,0,0,0-.331-.153.538.538,0,0,0-.067-.022,1.51,1.51,0,0,0-.3-.066h-.025a1.059,1.059,0,0,0-.291.015l-.012,0a.746.746,0,0,0-.265.095l.01,0,.587-.346.415-.234.008-.007a.631.631,0,0,1,.092-.044A.508.508,0,0,1,267.3,149a.391.391,0,0,1,.065-.014l.018,0a.027.027,0,0,1,.018,0c.037-.007.077-.01.113-.014h.117c.015,0,.03,0,.036,0l.034,0a.259.259,0,0,1,.069.007l.155.029c.027.008.047.019.067.026l.07.022c.025.011.045.015.077.029a2.248,2.248,0,0,1,.251.125,2.642,2.642,0,0,1,.338.234c.04.029.073.065.107.095.055.047.109.088.158.139.025.025.045.051.07.073a.6.6,0,0,0,.058.062c.025.029.048.051.07.077.051.058.1.12.148.179.015.022.032.047.047.065a.177.177,0,0,0,.023.029c.019.026.034.045.049.07a1.225,1.225,0,0,1,.1.157c.033.052.067.1.1.154l.006.01.007.012c.018.038.045.087.07.131a.844.844,0,0,1,.076.154.935.935,0,0,1,.067.139v.007l.005.011c.025.051.045.106.07.161s.04.113.058.168a.4.4,0,0,1,.022.087.094.094,0,0,1,.015.034.408.408,0,0,1,.021.066c.019.069.034.135.049.207.005.04.012.077.021.12,0,.026.01.045.012.067s.01.043.01.06a2.8,2.8,0,0,1,.027.35,1.272,1.272,0,0,1-.53,1.161l-1.007.583a1.273,1.273,0,0,0,.526-1.156,2.884,2.884,0,0,0-.036-.416C269.147,152.476,269.14,152.458,269.138,152.44Z" transform="translate(-265.571 -148.967)"/><g transform="translate(0 0.583)"><path class="l" d="M267.528,149.64c-1-.577-1.811-.113-1.814,1.029a3.967,3.967,0,0,0,1.8,3.119c1,.576,1.811.114,1.814-1.032A3.959,3.959,0,0,0,267.528,149.64Z" transform="translate(-265.714 -149.391)"/></g></g><g transform="translate(27.846 44.321)"><g class="ac"><g transform="translate(0.788 0.459)"><path class="aw" d="M284.944,163.516l.256-.15.006-2.32-.253.146Z" transform="translate(-284.944 -161.046)"/></g><g transform="translate(0.009)"><path class="aw" d="M285.166,161.317l.253-.146-.785-.459-.256.15Z" transform="translate(-284.377 -160.712)"/></g><g transform="translate(0 0.15)"><path class="ax" d="M284.38,160.821l-.009,2.32.788.459.009-2.324Z" transform="translate(-284.371 -160.821)"/></g></g></g><g transform="translate(26.157 43.464)"><g class="ac"><g transform="translate(0.791 0.459)"><path class="aw" d="M283.717,162.888l.259-.146.006-2.32-.256.15Z" transform="translate(-283.717 -160.422)"/></g><g transform="translate(0.009)"><path class="aw" d="M283.939,160.7l.256-.15-.788-.459-.259.15Z" transform="translate(-283.148 -160.088)"/></g><g transform="translate(0 0.15)"><path class="ax" d="M283.151,160.2l-.009,2.324.791.452.009-2.316Z" transform="translate(-283.141 -160.197)"/></g></g></g><g transform="translate(18.963 39.529)"><g class="ac"><g transform="translate(0.791 0.456)"><path class="aw" d="M278.481,160.021l.256-.146.006-2.32-.256.153Z" transform="translate(-278.481 -157.555)"/></g><g transform="translate(0.006)"><path class="aw" d="M278.7,157.832l.256-.153-.788-.456-.259.149Z" transform="translate(-277.91 -157.224)"/></g><g transform="translate(0 0.149)"><path class="ax" d="M277.911,157.332l-.006,2.32.791.453.006-2.313Z" transform="translate(-277.905 -157.332)"/></g></g></g><g transform="translate(17.274 38.671)"><g class="ac"><g transform="translate(0.794 0.459)"><path class="aw" d="M277.254,159.4l.256-.154.006-2.312-.256.15Z" transform="translate(-277.254 -156.934)"/></g><g transform="translate(0.009)"><path class="aw" d="M277.474,157.209l.256-.15-.791-.46-.256.15Z" transform="translate(-276.683 -156.6)"/></g><g transform="translate(0 0.15)"><path class="ax" d="M276.685,156.709l-.009,2.32.794.456.006-2.316Z" transform="translate(-276.676 -156.709)"/></g></g></g></g><g transform="translate(93.096 26.707)"><path class="l" d="M337.775,100.174l-.186,65.323L297.765,188.64l.186-65.323Z" transform="translate(-297.765 -100.174)"/></g><g transform="translate(46.847 23.141)"><path class="ad" d="M310.539,124.288l-.186,65.323-46.249-26.7.186-65.33Z" transform="translate(-264.104 -97.578)"/></g><g transform="translate(47.002 23.141)"><path class="s" d="M310.5,124.288l-.021,9.028L264.217,106.5l.03-8.925Z" transform="translate(-264.217 -97.578)"/></g><g transform="translate(47.032)"><path class="m" d="M350.313,107.443l-39.825,23.143-46.25-26.71,39.819-23.141Z" transform="translate(-264.239 -80.736)"/></g><g transform="translate(54.686 54.337)"><path class="l" d="M285.111,122.373c-8.42-4.858-15.27-.959-15.3,8.722s6.778,21.464,15.2,26.331,15.275.955,15.3-8.722S293.535,127.238,285.111,122.373Z" transform="translate(-269.809 -120.283)"/></g><g transform="translate(58.312 59.207)"><path class="s" d="M284.109,125.421c-6.418-3.706-11.64-.73-11.661,6.657s5.168,16.37,11.588,20.075,11.647.73,11.668-6.649S290.534,129.13,284.109,125.421Z" transform="translate(-272.448 -123.827)"/></g><g transform="translate(78.16 42.571)"><path class="l" d="M299.043,118.74l-.021,6.62-12.128-6.832v-6.809Z" transform="translate(-286.894 -111.719)"/></g><g transform="translate(64.112 34.797)"><path class="m" d="M288.815,113.084l-.006,2.451-12.14-6.8v-2.674Z" transform="translate(-276.669 -106.062)"/></g><g transform="translate(66.863 36.388)"><path class="av" d="M284.792,110.761l.021,2.52-6.141-3.439V107.22Z" transform="translate(-278.672 -107.22)"/></g><g transform="translate(54.72 31.162)"><path class="m" d="M273.258,106.888a3.793,3.793,0,0,0-.095-.4.1.1,0,0,0-.008-.036,4.457,4.457,0,0,0-.159-.427v-.007c-.066-.143-.14-.284-.219-.427l0,0a4.342,4.342,0,0,0-.256-.392.147.147,0,0,1-.022-.027c-.085-.114-.176-.22-.261-.317a.491.491,0,0,1-.065-.067c-.073-.073-.148-.142-.225-.207-.033-.033-.073-.065-.106-.095a3.6,3.6,0,0,0-.338-.236,1.63,1.63,0,0,0-.341-.154.574.574,0,0,0-.055-.022,1.283,1.283,0,0,0-.3-.062l-.025,0a1.262,1.262,0,0,0-.293.012l-.015,0a.886.886,0,0,0-.261.1l.008,0,.591-.346.411-.238.01,0c.03-.018.058-.032.088-.047a.9.9,0,0,1,.1-.033.292.292,0,0,1,.058-.014c.012,0,.015,0,.025,0l.018,0a1.047,1.047,0,0,1,.113-.014h.115l.04,0,.03,0c.022,0,.043,0,.06.007a1.4,1.4,0,0,1,.165.033.425.425,0,0,1,.067.022.376.376,0,0,1,.063.025c.028.008.055.015.082.026a2.011,2.011,0,0,1,.256.128,2.443,2.443,0,0,1,.338.234c.033.029.067.062.107.091.051.048.106.091.154.143a.421.421,0,0,1,.067.073l.062.062a.456.456,0,0,1,.066.073,1.526,1.526,0,0,1,.15.183c.018.022.033.044.048.062a.175.175,0,0,1,.025.033c.015.022.037.044.052.069.033.044.069.1.106.154s.058.1.092.153l0,.015.005.007c.022.044.052.088.073.132l.08.154a1.251,1.251,0,0,1,.063.137l0,.007.005.008c.018.055.043.113.065.165s.043.115.063.17c.01.029.015.055.027.084a.118.118,0,0,1,0,.033c.007.022.015.044.022.069.018.063.036.136.051.2a.851.851,0,0,1,.022.125.5.5,0,0,1,.012.069l.008.059a2.2,2.2,0,0,1,.027.349,1.285,1.285,0,0,1-.532,1.161l-1.007.587a1.263,1.263,0,0,0,.529-1.16,3.246,3.246,0,0,0-.033-.412A.6.6,0,0,0,273.258,106.888Z" transform="translate(-269.692 -103.416)"/><g transform="translate(0 0.585)"><path class="l" d="M271.645,104.088c-1-.573-1.808-.114-1.811,1.032a3.953,3.953,0,0,0,1.8,3.115c.995.576,1.808.113,1.814-1.032A3.972,3.972,0,0,0,271.645,104.088Z" transform="translate(-269.834 -103.842)"/></g></g><g transform="translate(49.059 28.182)"><path class="m" d="M269.138,104.719a2.548,2.548,0,0,0-.091-.4c0-.01,0-.021-.01-.033a3.927,3.927,0,0,0-.158-.429h0a3.066,3.066,0,0,0-.213-.431l0-.007a3.794,3.794,0,0,0-.258-.387l-.018-.029a3.328,3.328,0,0,0-.271-.32c-.019-.022-.037-.041-.059-.063a2.938,2.938,0,0,0-.224-.212c-.034-.029-.07-.065-.107-.093a2.52,2.52,0,0,0-.338-.234,1.641,1.641,0,0,0-.331-.154.548.548,0,0,0-.067-.022,1.523,1.523,0,0,0-.3-.069h-.025a1.062,1.062,0,0,0-.291.014l-.012,0a.869.869,0,0,0-.265.095h.01l.587-.346.415-.234.008-.008a.629.629,0,0,1,.092-.043.874.874,0,0,1,.093-.037.388.388,0,0,1,.065-.014l.018,0a.027.027,0,0,1,.018,0,1.1,1.1,0,0,1,.113-.014h.117c.015,0,.03,0,.036,0s.022,0,.034,0a.258.258,0,0,1,.069.007,1.585,1.585,0,0,1,.155.033.457.457,0,0,1,.067.026l.07.022c.025.011.045.014.077.029a1.7,1.7,0,0,1,.251.124,2.39,2.39,0,0,1,.338.234c.04.029.073.066.107.092.055.047.109.091.158.137.025.026.045.051.07.077a.254.254,0,0,0,.058.058c.025.03.048.051.07.081.051.058.1.117.148.179.015.022.032.044.047.062s.018.022.023.033c.019.026.034.044.049.069a1.2,1.2,0,0,1,.1.154l.1.153.006.011.007.011a.928.928,0,0,0,.07.132,1.066,1.066,0,0,1,.076.154,1.425,1.425,0,0,1,.067.137v.007l.005.012c.025.054.045.1.07.159s.04.113.058.172a.4.4,0,0,1,.022.084.082.082,0,0,1,.015.037.37.37,0,0,1,.021.066c.019.065.034.135.049.2.005.044.012.081.021.121,0,.025.01.047.012.069s.01.044.01.059a2.887,2.887,0,0,1,.027.353,1.277,1.277,0,0,1-.53,1.161l-1.007.583a1.278,1.278,0,0,0,.526-1.156,2.885,2.885,0,0,0-.036-.416C269.147,104.759,269.14,104.737,269.138,104.719Z" transform="translate(-265.571 -101.247)"/><g transform="translate(0 0.586)"><path class="l" d="M267.528,101.923c-1-.577-1.811-.118-1.814,1.024a3.975,3.975,0,0,0,1.8,3.123c1,.576,1.811.113,1.814-1.032A3.957,3.957,0,0,0,267.528,101.923Z" transform="translate(-265.714 -101.674)"/></g></g><g transform="translate(74.693 44.322)"><g class="ac"><g transform="translate(0.788 0.459)"><path class="aw" d="M284.944,115.8l.256-.149.006-2.32-.253.145Z" transform="translate(-284.944 -113.328)"/></g><g transform="translate(0.009)"><path class="aw" d="M285.166,113.6l.253-.145-.785-.459-.256.149Z" transform="translate(-284.377 -112.994)"/></g><g transform="translate(0 0.149)"><path class="ax" d="M284.38,113.1l-.009,2.32.788.459.009-2.324Z" transform="translate(-284.371 -113.102)"/></g></g></g><g transform="translate(73.004 43.464)"><g class="ac"><g transform="translate(0.791 0.459)"><path class="aw" d="M283.717,115.17l.259-.146.006-2.32-.256.15Z" transform="translate(-283.717 -112.704)"/></g><g transform="translate(0.009)"><path class="aw" d="M283.939,112.979l.256-.15-.788-.459-.259.15Z" transform="translate(-283.148 -112.37)"/></g><g transform="translate(0 0.15)"><path class="ax" d="M283.151,112.479l-.009,2.323.791.453.009-2.316Z" transform="translate(-283.141 -112.479)"/></g></g></g><g transform="translate(65.81 39.525)"><g class="ac"><g transform="translate(0.791 0.456)"><path class="aw" d="M278.481,112.3l.256-.149.006-2.32-.256.153Z" transform="translate(-278.481 -109.835)"/></g><g transform="translate(0.006)"><path class="aw" d="M278.7,110.112l.256-.153-.788-.456-.259.149Z" transform="translate(-277.91 -109.503)"/></g><g transform="translate(0 0.149)"><path class="ax" d="M277.911,109.611l-.006,2.32.791.456.006-2.316Z" transform="translate(-277.905 -109.611)"/></g></g></g><g transform="translate(64.121 38.668)"><g class="ac"><g transform="translate(0.794 0.46)"><path class="aw" d="M277.254,111.683l.256-.154.006-2.316-.256.15Z" transform="translate(-277.254 -109.213)"/></g><g transform="translate(0.009)"><path class="aw" d="M277.474,109.488l.256-.15-.791-.46-.256.149Z" transform="translate(-276.683 -108.879)"/></g><g transform="translate(0 0.149)"><path class="ax" d="M276.685,108.987l-.009,2.321.794.459.006-2.32Z" transform="translate(-276.676 -108.987)"/></g></g></g><g transform="translate(55.675 66.373)"><path class="m" d="M273.156,155.356c.01-.179.021-.349.033-.532,0-.092.01-.187.019-.278.018-.176.036-.357.058-.532.012-.085.015-.169.03-.253.012-.124.036-.256.048-.383.027-.181.052-.364.082-.554.025-.124.052-.251.073-.379.027-.176.07-.355.1-.537.03-.144.062-.294.092-.444.03-.113.055-.234.081-.343.04-.17.087-.335.129-.5.023-.115.048-.221.081-.335.03-.1.065-.2.089-.309.115-.394.234-.789.368-1.19.005-.025.015-.051.023-.08.128-.39.268-.769.415-1.153.036-.1.073-.2.113-.291.128-.33.258-.657.4-.982a1.192,1.192,0,0,0,.055-.135c.164-.361.322-.714.486-1.069.048-.091.091-.183.137-.272.136-.279.279-.551.426-.829.043-.091.088-.183.136-.267.18-.343.368-.682.566-1.018.04-.077.089-.153.132-.223.166-.283.341-.569.514-.846.058-.091.113-.181.173-.265.225-.354.453-.7.694-1.04l.122-.168c.243-.35.5-.69.754-1.028.043-.055.088-.114.131-.176.077-.091.15-.185.229-.282.111-.142.228-.284.337-.422.089-.1.177-.2.26-.3.106-.12.206-.245.311-.36.209-.242.422-.478.642-.712.018-.018.027-.037.045-.055.235-.245.469-.482.706-.721.152-.147.3-.293.456-.438.043-.04.085-.084.131-.128.2-.19.408-.372.613-.555.055-.044.109-.095.168-.137.154-.128.3-.262.456-.387.076-.066.151-.121.225-.181.136-.11.273-.22.414-.326.078-.062.165-.124.246-.179.132-.106.275-.2.418-.3.076-.055.155-.113.236-.168.147-.106.3-.2.451-.3.067-.048.137-.095.2-.139.228-.139.447-.273.669-.4s.426-.24.636-.35q.091-.043.173-.087c.188-.1.371-.19.554-.271a.54.54,0,0,1,.08-.04c.194-.088.386-.168.578-.249s.407-.161.609-.229c.051-.022.106-.04.151-.062.26-.084.506-.161.749-.229.147-.041.293-.073.433-.106.073-.015.14-.037.206-.051.2-.041.415-.085.624-.114l.019,0c.188-.029.376-.051.559-.065.07-.008.128-.011.186-.015.137-.011.268-.018.4-.022.06,0,.118,0,.179,0,.137,0,.268,0,.408.008.045,0,.095,0,.137,0,.176.011.349.025.523.047.036,0,.07.008.106.015.12.014.228.036.344.055a7.1,7.1,0,0,1,.694.163c.012,0,.017,0,.025,0a6.219,6.219,0,0,1,.631.225,1.631,1.631,0,0,1,.176.073,5.294,5.294,0,0,1,.508.251c.058.03.115.055.168.088q-1.3-.761-2.6-1.513a.58.58,0,0,1-.073-.045c-.03-.014-.063-.029-.1-.043-.158-.088-.331-.172-.5-.249a.643.643,0,0,1-.092-.047.4.4,0,0,1-.088-.033,6.481,6.481,0,0,0-.621-.216.126.126,0,0,1-.027-.011h-.01l-.026-.007c-.15-.044-.305-.077-.458-.11a1.24,1.24,0,0,0-.14-.032c-.045-.008-.091-.019-.146-.03-.082-.015-.176-.025-.265-.04l-.106-.011c-.152-.018-.305-.033-.463-.044a.435.435,0,0,1-.058,0c-.045,0-.088,0-.137,0-.133-.007-.271-.011-.411-.007h-.17c-.045,0-.091,0-.139.007a2.219,2.219,0,0,0-.262.018c-.06,0-.122.008-.185.015-.183.018-.371.04-.563.066l-.021,0h0c-.207.03-.418.069-.624.117-.07.015-.135.037-.2.048-.128.029-.256.062-.389.095-.015,0-.027.011-.04.014-.25.066-.493.143-.746.227-.055.026-.11.04-.161.062-.2.07-.4.143-.6.227-.033.014-.06.022-.085.033-.163.069-.328.142-.5.218-.021.011-.052.025-.07.033-.185.087-.381.183-.569.28l-.168.084c-.206.114-.42.223-.636.35s-.441.262-.664.405c-.07.04-.136.088-.206.131-.153.1-.305.2-.451.3-.082.058-.161.117-.246.172-.14.1-.272.2-.405.3-.092.062-.168.121-.253.187-.137.106-.268.212-.408.316-.076.063-.151.121-.228.191-.155.12-.3.249-.456.379-.055.047-.11.095-.173.146-.2.179-.405.368-.606.555-.043.038-.082.076-.128.115-.135.132-.268.256-.4.387a.451.451,0,0,0-.062.065c-.24.231-.477.475-.706.723a.161.161,0,0,0-.023.026c-.225.236-.438.481-.658.725a.487.487,0,0,0-.063.073c-.085.1-.168.2-.253.3s-.173.209-.265.315-.188.236-.291.357c-.085.12-.183.232-.275.353a.468.468,0,0,0-.045.052c-.015.025-.036.054-.058.084-.271.349-.529.7-.789,1.061a.906.906,0,0,1-.073.1h0a.6.6,0,0,1-.033.054c-.238.344-.478.694-.7,1.047-.018.03-.04.066-.063.1-.028.051-.062.1-.092.15-.188.3-.368.595-.551.893a.888.888,0,0,1-.076.128.16.16,0,0,1-.025.048c-.2.346-.389.688-.572,1.032a.732.732,0,0,0-.049.088c-.033.055-.06.115-.091.174-.146.273-.28.547-.414.824-.034.062-.065.117-.1.179a1.032,1.032,0,0,1-.045.11c-.165.346-.33.7-.488,1.054a.111.111,0,0,1-.012.033c-.018.044-.033.088-.051.128-.14.317-.268.638-.4.959-.022.055-.043.106-.062.161s-.033.087-.048.135c-.143.379-.283.763-.408,1.146a.108.108,0,0,1-.015.025c-.005.026-.018.055-.025.084-.13.394-.251.791-.364,1.186a1.443,1.443,0,0,1-.04.146,1.307,1.307,0,0,0-.034.132c-.033.124-.069.243-.1.368-.04.159-.082.313-.117.47-.03.125-.06.245-.085.361-.021.084-.043.168-.058.256-.015.066-.021.12-.036.183-.037.179-.073.36-.107.539-.018.128-.043.256-.06.381-.034.183-.065.364-.085.551-.012.091-.027.181-.04.269-.005.036-.005.073-.015.113-.01.081-.018.165-.027.249-.025.183-.043.361-.06.54a1.908,1.908,0,0,1-.019.267c-.008.181-.021.364-.03.547-.005.076-.012.157-.012.234-.011.254-.015.51-.015.761.012,4.368,1.555,7.439,4.042,8.887q1.3.75,2.6,1.506c-2.483-1.444-4.026-4.515-4.038-8.879,0-.258.005-.507.018-.763C273.146,155.521,273.153,155.433,273.156,155.356Z" transform="translate(-270.529 -129.043)"/><g transform="translate(2.599 1.507)"><path class="l" d="M286.223,132.04c7.648-4.417,13.865-.875,13.9,7.922.025,8.782-6.157,19.493-13.8,23.906s-13.87.872-13.9-7.916S278.571,136.454,286.223,132.04Z" transform="translate(-272.421 -130.139)"/></g><g transform="translate(5.889 5.932)"><path class="m" d="M285.34,134.808c5.831-3.366,10.576-.664,10.6,6.04s-4.692,14.867-10.53,18.238-10.571.657-10.591-6.041S279.506,138.174,285.34,134.808Z" transform="translate(-274.815 -133.36)"/></g><path class="s" d="M285.34,134.809c-5.834,3.366-10.548,11.533-10.525,18.237a8.19,8.19,0,0,0,2.1,6.03,9,9,0,0,0,5.445-1.411c5.834-3.368,10.543-11.532,10.523-18.236a8.211,8.211,0,0,0-2.1-6.032A9.046,9.046,0,0,0,285.34,134.809Z" transform="translate(-268.926 -127.429)"/><path class="u" d="M274.815,152.968a10.874,10.874,0,0,0,.433,3.145A11.337,11.337,0,0,0,278,154.943c5.838-3.368,10.548-11.53,10.53-18.231a11.037,11.037,0,0,0-.436-3.146,11.366,11.366,0,0,0-2.753,1.167C279.506,138.1,274.792,146.265,274.815,152.968Z" transform="translate(-268.926 -127.352)"/></g><g transform="translate(0 68.01)"><g transform="translate(0 104.338)"><path class="t" d="M271.815,210.335c9.614,5.544,9.662,14.544.118,20.089s-25.079,5.541-34.685,0-9.662-14.537-.118-20.085S262.21,204.787,271.815,210.335Z" transform="translate(-230.008 -206.173)"/></g><path class="f" d="M245.311,214.1c.162.033,8.528-.228,6.662,2.681a4.736,4.736,0,0,1-4.136,2.252c-1.257.037-3.543-.644-4.112-.3s-3.4,2.167-5.027.331a2.745,2.745,0,0,1-.326-2.13C238.579,216.243,244.386,213.936,245.311,214.1Z" transform="translate(-226.913 -98.873)"/><path class="e" d="M251.966,216.545a4.736,4.736,0,0,1-4.136,2.252c-1.257.037-3.544-.644-4.112-.3s-3.4,2.167-5.027.331a2.311,2.311,0,0,1-.386-1.05c1.138,1.558,3.923,1.132,4.7.618a4.575,4.575,0,0,1,3.234-.664,6.469,6.469,0,0,0,4.669-1.12,1.767,1.767,0,0,0,.545-1.884A1.133,1.133,0,0,1,251.966,216.545Z" transform="translate(-226.906 -98.636)"/><path class="f" d="M254.266,218.135c6-.789,12.3.188,9.974,3.259a6.268,6.268,0,0,1-5.232,2.343c-1.6.01-4.516-.747-5.235-.386s-4.288,2.252-6.385.268a4.127,4.127,0,0,1-.822-2.873C246.831,220.016,253.086,218.293,254.266,218.135Z" transform="translate(-223.838 -97.459)"/><g transform="translate(10.883 12.106)"><path class="w" d="M264.255,141.083s4.354-3.156,7.036-1.612,2.861,2.264,1.388,2.549-5.408,1.164-4.867,1.576,1.991.613,1.653,1.109-4.656-.24-4.656-.24l-2.362-2.292Z" transform="translate(-228.76 -139.045)"/><g transform="translate(0 2.143)"><path class="d" d="M243.124,147.25s-5.076-.3-5.194,4.849c-.12,5.46,10.694,3.662,10.694,3.662s9.358-.763,12.256-1.9c3.871-1.51,13.9-9.257,13.9-9.257s-.7-3.174-2.866-4c0,0-9.463,6.2-13.047,6.9C254.951,148.261,243.973,147.075,243.124,147.25Z" transform="translate(-237.929 -140.605)"/></g></g><path class="r" d="M240.113,168.256s-5.207,8.8-.536,20.966c0,0,3.589,10.275,2.8,13.716-.954,4.121-2.344,2.951-3.354,16.6-.894,12.053-.841,10.15-.633,14.581.065,1.4,5.706,2.6,6.61-.932,2.319-9.02,7.931-27.879,6.9-38.793s-1.682-21.125-1.682-21.125S243.693,171.364,240.113,168.256Z" transform="translate(-227.157 -116.015)"/><path class="h" d="M245.255,173.2s-5.24,7.832,1.841,18.175c0,0,5.323,11.632,4.6,15.534-.769,4.031-2.057,3.691-3.445,16.026-.877,7.845-1.428,9.82-.809,14.869.231,1.863,7.419,2.042,7.836-.594,1.455-9.148,8.3-28.841,7.274-39.762s-3.223-23.205-3.223-23.205S250.014,175.844,245.255,173.2Z" transform="translate(-225.004 -114.167)"/><path class="f" d="M261.7,157.074s1.239-5.8-8.461-9.277-15.676-3.351-15.8,2.061,2.387,12.628,2.74,15.068a21.41,21.41,0,0,1-1.165,12.208c-2.319,5.555-3.416,10.852,11.951,11.753,2.681.159,12.672.11,11.26-6.117C260.448,174.989,260.576,163.511,261.7,157.074Z" transform="translate(-227.233 -124.547)"/><g transform="translate(26.214 10.107)"><path class="w" d="M275.432,146.871s3.817-3.789,2.725-6.682-1.766-3.188-2.282-1.781-2.031,5.143-2.344,4.545-.293-2.057-.828-1.805-.519,4.628-.519,4.628l1.877,2.7Z" transform="translate(-240.45 -137.59)"/><g transform="translate(0 6.72)"><path class="ag" d="M253.361,152.735s-5.036.346-4.176,5.475c.911,5.438,11.2,2.284,11.2,2.284s9.035-1.94,11.676-3.436c3.522-2,11.89-10.964,11.89-10.964s-1.285-3.064-3.572-3.612c0,0-8.113,7.358-11.507,8.506C265.176,152.235,254.175,152.453,253.361,152.735Z" transform="translate(-249.087 -142.481)"/></g></g><path class="w" d="M250.883,143.168s-1.013,4.1.993,6.6c1.073,1.345-3.23,2.747-6.711.973,0,0-.308-7.014-2.885-9.457Z" transform="translate(-225.419 -126.104)"/><path class="ab" d="M249.8,145.106a16.111,16.111,0,0,1-3.88-1.138l-.155.106-.782,1.127-.456-.657s.791,4.276,5.949,3.348A9.2,9.2,0,0,1,249.8,145.106Z" transform="translate(-224.578 -125.098)"/><path class="e" d="M264.187,221.108a6.268,6.268,0,0,1-5.232,2.343c-1.6.01-4.516-.747-5.235-.386s-4.288,2.252-6.385.268a3.338,3.338,0,0,1-.687-1.37c1.463,1.678,5.179,1.51,6.153.981a6.733,6.733,0,0,1,4.118-.661c1.395.24,4.422.005,5.914-1.117a2.685,2.685,0,0,0,.995-2.525A1.556,1.556,0,0,1,264.187,221.108Z" transform="translate(-223.785 -97.172)"/><path class="w" d="M251.567,130.806a9.425,9.425,0,0,1,4.754,7.025c.754,4.891,2.289,9.123-.133,11.242-2.451,2.145-11.486,1.6-14.45-4.651S242.529,127.968,251.567,130.806Z" transform="translate(-225.994 -130.203)"/><path class="v" d="M257.874,137.126a3.4,3.4,0,0,1-2.086,3.053c-2.215.908-4.845.8-5.082,2.3s2.527,12.017.613,13.317c-2.477,1.667-9.1-1.488-10.122-2.634-1.392-1.55-2.922-12.34,0-18.631,0,0,3.061-5.033,8.9-4.2C250.1,130.327,257.594,131.3,257.874,137.126Z" transform="translate(-226.447 -130.235)"/><path class="w" d="M246.541,142.87c1.087,1.051,2.523,1.281,3.221.515s.374-2.237-.7-3.288-2.523-1.279-3.219-.514S245.466,141.823,246.541,142.87Z" transform="translate(-224.223 -126.907)"/></g></g></g></g></svg>