<svg xmlns="http://www.w3.org/2000/svg" width="150" height="187" viewBox="0 0 150 187"><defs><style>.a{fill:rgba(34,174,228,0.25);}.b,.l{fill:#00a0df;}.c{fill:#eee8e7;}.d,.e,.g,.h{fill:#1e275a;}.e{font-size:3px;}.e,.f,.g,.h{font-family:Montserrat-Regular, Montserrat;}.f{fill:#f1f1e4;}.f,.g,.h{font-size:1px;}.g{opacity:0.57;}.i,.k,.q{fill:none;stroke-miterlimit:10;}.i{stroke:#1e275a;}.i,.k{stroke-width:0.5px;}.j{opacity:0.52;}.k{stroke:#00a6cd;}.l{opacity:0.25;}.m{fill:#f6a789;}.n{fill:#f78f2a;}.o{fill:#4c3545;}.p{fill:#c6532e;}.q{stroke:#c6532e;stroke-width:0.05px;}</style></defs><circle class="a" cx="75" cy="75" r="75" transform="translate(0 18)"/><g transform="translate(32 0)"><g transform="translate(3.5 0)"><rect class="b" width="81.097" height="161.494" rx="21.148" transform="translate(0)"/><rect class="c" width="73.54" height="151.102" rx="14.811" transform="translate(3.779 4.719)"/><path class="b" d="M225.9,26.161h-4.832a2.684,2.684,0,0,0-2.684,2.684v1.918a2.684,2.684,0,0,1-2.684,2.684H194.154a2.684,2.684,0,0,1-2.684-2.684V28.846a2.684,2.684,0,0,0-2.684-2.684h-13.72V24.784H225.9Z" transform="translate(-163.043 -21.442)"/><g transform="translate(13.491 26.455)"><g transform="translate(14.96)"><path class="d" d="M303.605,126.636a1,1,0,1,0-.936,0,1.566,1.566,0,0,0-1.093,1.488v.787H304.7v-.787A1.566,1.566,0,0,0,303.605,126.636Z" transform="translate(-289.822 -124.757)"/><text class="e" transform="translate(0 9.287)"><tspan x="0" y="0">Create Account</tspan></text></g><g transform="translate(10.834 99.898)"><rect class="b" width="30.916" height="6.942" rx="2.468"/><text class="f" transform="translate(10.124 2.734)"><tspan x="0" y="0">Register</tspan></text></g><g transform="translate(0 16.747)"><text class="g" transform="translate(0 1)"><tspan x="0" y="0">Email Address</tspan></text><text class="h" transform="translate(2.631 8.64)"><tspan x="0" y="0">youremail@gmail.c</tspan></text><rect class="i" width="56.55" height="8.521" rx="2.759" transform="translate(0 4.809)"/></g><g transform="translate(0 35.714)"><g class="j" transform="translate(0)"><text class="h" transform="translate(0 1)"><tspan x="0" y="0">Country</tspan></text></g><g transform="translate(0 4.882)"><g transform="translate(2.631 2.685)"><text class="h" transform="translate(0 1)"><tspan x="0" y="0">Your text</tspan></text></g><rect class="i" width="56.55" height="8.521" rx="2.759"/></g></g><g transform="translate(0 55.74)"><g class="j" transform="translate(0)"><text class="h" transform="translate(0 1)"><tspan x="0" y="0">City</tspan></text></g><g transform="translate(0 4.883)"><g transform="translate(2.631 2.684)"><text class="h" transform="translate(0 1)"><tspan x="0" y="0">Your City</tspan></text></g><rect class="i" width="56.55" height="8.521" rx="2.759"/></g></g><g transform="translate(0 75.864)"><g class="j" transform="translate(0)"><text class="h" transform="translate(0 1)"><tspan x="0" y="0">Password</tspan></text></g><g transform="translate(0 4.882)"><g transform="translate(2.631 2.684)"><text class="h" transform="translate(0 1)"><tspan x="0" y="0">Entry password</tspan></text></g><rect class="i" width="56.55" height="8.521" rx="2.759"/></g></g><line class="k" y2="3.007" transform="translate(25.797 23.854)"/></g></g><g transform="translate(0 51.28)"><path class="l" d="M177.923,822.243c0-.664-16.287-1.2-36.377-1.2s-36.377.539-36.377,1.2,16.286,1.2,36.377,1.2S177.923,822.908,177.923,822.243Z" transform="translate(-105.169 -687.727)"/><g transform="translate(12.249)"><path class="m" d="M282.828,478.35s3.615,5.582,4.433,3.163l1.319-3.9s-1.027-1.683-1.57-1.165c-.568.542-1.306-.443-1.306-.443Z" transform="translate(-255.166 -421.37)"/><g transform="translate(33.035 7.66)"><path class="m" d="M319.473,290.4l1.494-8.673c.98-.316,1.989-1.074,1.644-2.246a1.723,1.723,0,0,0-1.171-1.1c-.2-.077-1.247-.377-1.32.026,0-.006.568-3.126.568-3.126l-10.172-4.909-.938,6.3a3.1,3.1,0,0,0-1.124-.307,1.7,1.7,0,0,0-1.21.978,2.016,2.016,0,0,0,1.773,2.692s.174,2.793.822,3.784,3.638,1.676,3.638,1.676l-.328,3.776Z" transform="translate(-307.101 -270.375)"/></g><g transform="translate(33.483 26.226)"><path class="n" d="M324.523,353.7c-4.6-1.289-11.052-2.425-11.052-2.425l-4.283,30.5,18.043-.557Z" transform="translate(-309.188 -351.273)"/></g><g transform="translate(48.516 13.733)"><path class="n" d="M376.928,311.867a119.273,119.273,0,0,0,18.1,3.4c-1.374-6.251-2.126-11.031-3.922-16.34,1.715-.434,5.061-1.29,6.776-1.724,0,0,5.682,19.8,3.958,22.437-2.935,4.492-17.554,1.534-17.554,1.534l-6.915-1.232Z" transform="translate(-376.928 -297.202)"/></g><g transform="translate(14.073 26.234)"><path class="n" d="M226.5,360.432s19.367-9.474,20.257-9.125,1.647,4.74,1.647,4.74a170.635,170.635,0,0,1-17.878,9.513L240.4,379l-4.919,3.528s-13.559-15.24-13.044-18.389C222.835,361.711,226.5,360.432,226.5,360.432Z" transform="translate(-222.423 -351.298)"/></g><path class="m" d="M429.433,250.346s-.8-5.6-.9-5.763-.1-1.149-1.535-.91c0,0-.1-1.776-.927-1.807a7.545,7.545,0,0,0-1.758.192s-.936-4.552-1.543-5.341c-.663-.862-1.59,1.408-.152,6.957,0,0,.8,3.774.559,3.912-.644.375-1.529.307-2.753-1.787-1.3-2.224-2.922-1.471-2.122.256s1.932,3.96,2.667,4.568a4.036,4.036,0,0,0,2.288.516l.228.721Z" transform="translate(-360.258 -236.539)"/><g transform="translate(0 55.122)"><path class="o" d="M211.256,477.435c-2.173,33.006-9.552,73.74-9.552,73.74l7.226,3.058H193.542L203.635,482.2h-3.458L174.647,554.28H159.275l8.745-3.189,25.522-75.444Z" transform="translate(-159.275 -475.647)"/></g><path class="p" d="M325.145,271.191c.86-1.72,1.866-5.894-.745-7.054a26.832,26.832,0,0,1-3.8-2.164,6.616,6.616,0,0,0-5.415-.976,4.94,4.94,0,0,0-.857.321c-1.823.895-3.054,5.739-3.054,5.739l1.791.449s2,8.884,5.284,10.71l3.283.7,1.943.436Z" transform="translate(-277.302 -255.291)"/><path class="q" d="M361.063,267.451A11.5,11.5,0,0,0,361,265.86" transform="translate(-315.798 -259.222)"/><path class="q" d="M361.645,267.82a.447.447,0,0,0,.2-.246,6.151,6.151,0,0,1,.7-1.135" transform="translate(-316.303 -259.671)"/></g></g></g></svg>