<svg xmlns="http://www.w3.org/2000/svg" width="150" height="150" viewBox="0 0 150 150"><defs><style>.a{fill:rgba(34,174,228,0.25);}.b{fill:#941919;}.c{fill:#3b3b30;}.d{fill:#bdbdb9;}.e{fill:#055f8c;}.f{fill:#00396a;}.g{fill:#368cc2;}.h{fill:#2a6d9c;}.i{fill:#be1513;}.j{fill:#ab0000;}.k{fill:#da3f3c;}.l{fill:#a8020b;}.m{fill:#e09c63;}.n{fill:#d9af6a;}.o{fill:#9c480c;}.p{fill:#d6d6d6;}.q{fill:#efd995;}.r{fill:#b76f3f;}.s{fill:#e6e1e4;}.t{fill:#f1f1f1;}.u{fill:#b3a4ad;}.v{fill:#f9c48e;}.w{fill:#ffe1c9;}.x{fill:#900000;}.y{fill:#e2a46f;}.z{fill:#c4734e;}.aa{fill:#ffd15b;}.ab{fill:#eaa671;}.ac{fill:#89310b;}.ad{fill:#cf3b39;}.ae{fill:#a4a4a4;}.af{fill:#54544a;}.ag{fill:#ff655c;}</style></defs><g transform="translate(-456)"><circle class="a" cx="75" cy="75" r="75" transform="translate(456)"/><g transform="translate(494.048 4)"><path class="b" d="M274.76,403.146s.324.317,4.267.708a17.149,17.149,0,0,0,5.372,0l-5.029-1.944S275.058,401.906,274.76,403.146Z" transform="translate(-235.865 -394.016)"/><path class="c" d="M283.213,439.22a3.419,3.419,0,0,0-2.137,1.675,8.723,8.723,0,0,1-2.124,2.806,13.805,13.805,0,0,0-3.466,2.8,2.272,2.272,0,0,0-.557,1.637s-.237.1-.189.621a2.337,2.337,0,0,0,1.685,1.986,5.759,5.759,0,0,0,5.023-.522c1.877-1.163,3.117-3.1,4.03-3.271s5.84-2.127,6.064-2.886,1.855-6.814-.253-6.839S283.213,439.22,283.213,439.22Z" transform="translate(-243.735 -316.197)"/><path class="d" d="M285.627,441.826c-.9.218-2.153,2.111-4.03,3.271a5.75,5.75,0,0,1-5.023.525,2.418,2.418,0,0,1-1.5-1.291v0s-.237.1-.189.621a2.337,2.337,0,0,0,1.685,1.986,5.759,5.759,0,0,0,5.023-.522c1.877-1.163,3.117-3.1,4.03-3.271s5.84-2.127,6.064-2.886c.054-.183.189-.673.333-1.31C291.3,439.77,289.18,440.971,285.627,441.826Z" transform="translate(-243.885 -312.394)"/><path class="e" d="M273.138,428.19s.955,13.864,3.69,21.306,1.823,10.667,2.415,12.7,1.377,4.623,1.377,4.623,2.781,2.543,4.2,2.566A5.914,5.914,0,0,0,288.3,468.3c.192-.359,5.388-18.445,5.164-19.515s7.285-21.3-4.164-23.334S273.138,428.19,273.138,428.19Z" transform="translate(-241.945 -343.252)"/><path class="f" d="M283.115,468.3a29.01,29.01,0,0,1-1.15-7.515,85.872,85.872,0,0,0-1.9-14.45c-.445-1.15-5.433-13.265-5.433-13.265l11.074-8.124v35.968S284.191,467.691,283.115,468.3Z" transform="translate(-236.762 -343.252)"/><path class="c" d="M279.848,439.718l-1.217-.151a22.668,22.668,0,0,1-1.1,2.854c-.317.445-3.975,4.69-4.4,5.327a3.173,3.173,0,0,0-.509,1.176s-.349.176-.461,1.019-.128,2.88,2.816,3.325a7.515,7.515,0,0,0,6.772-2.595c1.464-1.637,2.454-3.053,3.069-3.639a20.751,20.751,0,0,0,2.5-2.854s1.32-3.021.788-4.123S279.848,439.718,279.848,439.718Z" transform="translate(-231.228 -311.275)"/><path class="d" d="M287.309,442.34a20.847,20.847,0,0,1-2.5,2.851c-.615.586-1.6,2-3.069,3.642a7.522,7.522,0,0,1-6.772,2.592c-1.944-.295-2.6-1.285-2.784-2.162-.013.058-.022.122-.032.189-.112.843-.128,2.88,2.816,3.325a7.515,7.515,0,0,0,6.772-2.595c1.464-1.637,2.454-3.053,3.069-3.639a20.75,20.75,0,0,0,2.5-2.854s1.23-2.819.836-4A14.051,14.051,0,0,1,287.309,442.34Z" transform="translate(-231.228 -310.783)"/><path class="g" d="M287.69,430.569s-.022.746-.051,1.964c-.125,3.543-.41,11.029-.881,15.3-.634,5.721-.932,7.89-.714,10.731a36.156,36.156,0,0,1-.074,9.62,88.744,88.744,0,0,0-.317,11.837,7.331,7.331,0,0,1-1.749.891,8.7,8.7,0,0,1-2.784.509,9.34,9.34,0,0,1-5.135-1.788s-1.525-7.582-1.054-10.9-1.4-14.079-1.4-14.079-1.361-7.714-2.159-11.314,3.171-20.226,5.891-21.588S287.69,430.569,287.69,430.569Z" transform="translate(-227.96 -350.575)"/><path class="h" d="M274.41,440.326c-.634,5.721-.932,7.89-.714,10.731a36.155,36.155,0,0,1-.074,9.62,88.745,88.745,0,0,0-.317,11.837,7.329,7.329,0,0,1-1.749.891c.01-4.574.756-12.432.871-15.226.151-3.456-.974-5.821-1.137-9.85s1.823-22,1.823-22a10.969,10.969,0,0,1,2.178-1.3C275.166,428.573,274.881,436.059,274.41,440.326Z" transform="translate(-215.612 -343.072)"/><path class="i" d="M301.18,434.262c-.509,3.915-6.109,24.669-6.436,24.077s-23.167,3.053-23.167,3.053-3.453-30.942-3.645-34.062,3.434-16.76,4.485-18.7a2.5,2.5,0,0,1,.935-1c1.252-.769,3.133-.481,4.927-.221a14.741,14.741,0,0,0,4.241,0s.891.058,2.214.16c3.482.282,9.969.878,11.058,1.534,1.506.9,9.158,9.607,9.158,9.607C305.5,421.237,301.686,430.351,301.18,434.262Z" transform="translate(-234.576 -382.499)"/><path class="j" d="M276.94,409.7a42.324,42.324,0,0,0-1.4,5.686,49.428,49.428,0,0,1-1.23,6.785c-.211.423,1.823-6.234,2.63-6.826S276.642,412.79,276.94,409.7Z" transform="translate(-227.214 -376.859)"/><path class="j" d="M281.413,408.321a23.728,23.728,0,0,0-3.267,10.177c-.679,6.4-.932,6.039-.932,6.039S276.663,414.257,281.413,408.321Z" transform="translate(-240.677 -379.888)"/><path class="k" d="M309.669,407.22c-.5.154-.724.833-1.044,1.172a14.962,14.962,0,0,0-1.006,2.64c-.17.522-.317.974-.394,1.179a15.354,15.354,0,0,0-.346,1.874,5.638,5.638,0,0,1-.417,1.56,13.82,13.82,0,0,0-.7,3.008,6.723,6.723,0,0,0-.426,1.381,23.454,23.454,0,0,1-1.067,3.1s-22.658,2.5-25.243,1.31-.7-7.579-.7-7.579a7.547,7.547,0,0,1,2.8-.032,2.322,2.322,0,0,0,1.2.042,4.655,4.655,0,0,1,1.252-.234,8.5,8.5,0,0,0,4.116-1.163,3.688,3.688,0,0,1,3.453.019c.554.128,1.019.6,1.973.086s2.313.231,2.608,0,1.378-1.294,1.906-1.762,1.445-.423,2.06-.951a12.29,12.29,0,0,1,2.012-1.211,2.962,2.962,0,0,1,.807-.721c.679-.487,1.675-.762,1.845-1.06s1.993-.91,2.713-1.781S309.669,407.22,309.669,407.22Z" transform="translate(-270.435 -382.314)"/><path class="l" d="M305,407.22c-.5.154-.724.833-1.044,1.172a14.962,14.962,0,0,0-1.006,2.64c-.455-.179-.477-2.194-.666-2.111a2.026,2.026,0,0,0-.445,1.4c0,.638.039,1.653.718,1.89.464.157.074,1.3-.346,1.874-.2.272-.4.419-.529.288-.391-.42.4-1.435-.141-2.015a2.291,2.291,0,0,1-.679-1.611c.042-.34-.721-.724-.721-.724a5.913,5.913,0,0,1-.785,1.317c-.471.577,1.028,4.046,1.112,4.235a14.289,14.289,0,0,1-1.352-2.284l-.628-1.951a7.837,7.837,0,0,0-1.1,1.653,18.524,18.524,0,0,0-.554,3s-.253-.2-.253-1.221-.426-1.653-.891-1.442a5.014,5.014,0,0,0-1.4,1.525,5.5,5.5,0,0,1-1.317,1.137s-.718-.032-1.227,0-2.816-.567-1.4,0a4.7,4.7,0,0,1,2.082,2.435,6.087,6.087,0,0,0-.727-1.025c-.8-.977-2.672-.932-2.7-1.006a20.042,20.042,0,0,1-2.8-.65,2.394,2.394,0,0,0-1.871.247,30.21,30.21,0,0,1-3.181.685c-1.695.285-.974,1.063-.721,1.291a2.612,2.612,0,0,0-1.1-.48,12.385,12.385,0,0,1-1.659-.618,4.655,4.655,0,0,1,1.252-.234,8.5,8.5,0,0,0,4.116-1.163,3.688,3.688,0,0,1,3.453.019c.554.128,1.019.6,1.973.086s2.313.231,2.608,0,1.378-1.294,1.906-1.762,1.445-.423,2.06-.951a12.29,12.29,0,0,1,2.012-1.211,2.962,2.962,0,0,1,.807-.721c.679-.487,1.675-.762,1.845-1.06s1.993-.91,2.713-1.781S305,407.22,305,407.22Z" transform="translate(-265.767 -382.314)"/><path class="m" d="M287.964,414.818s1.557,1.278,1.5-.445-1.381-4.51-2.428-3.6S287.964,414.818,287.964,414.818Z" transform="translate(-279.255 -374.879)"/><path class="l" d="M285.447,410.511a2.192,2.192,0,0,1,1.371,2.566,15.7,15.7,0,0,1-1.506,3.456S289.295,412.443,285.447,410.511Z" transform="translate(-272.395 -375.063)"/><path class="n" d="M298.337,414.9l-21.109,10.45-7.162,37.986,19.43-10.974Z" transform="translate(-234.767 -365.385)"/><path class="o" d="M279.038,418.021l-6.428,36.911,3.214-1.813,7-36.926Z" transform="translate(-227.407 -362.545)"/><path class="p" d="M278.958,417.966l-6.428,36.911,3.214-1.813,7-36.927Z" transform="translate(-227.068 -362.666)"/><path class="q" d="M326.167,426.371,296.188,409.7,270.066,417.8l34.991,19.016Z" transform="translate(-262.597 -376.853)"/><path class="r" d="M276.656,449.824l7.469-37.595,34.991,19.016-7.162,37.986Z" transform="translate(-276.656 -371.277)"/><path class="o" d="M298.269,411.529l-23.515,9.638,5.672,3,22.25-10.19Z" transform="translate(-254.123 -372.821)"/><path class="o" d="M276.632,410.542l31.549,17.925-4.047,2-31.6-18.8Z" transform="translate(-252.502 -374.995)"/><path class="s" d="M276.551,410.487,308.1,428.412l-4.047,2-31.6-18.8Z" transform="translate(-252.163 -375.116)"/><path class="o" d="M294.25,417.54l-6.611,38.019-5.939-3.265,6.878-37.757Z" transform="translate(-267.947 -366.191)"/><path class="t" d="M298.377,411.471l-23.516,9.638,5.672,3,22.25-10.19Z" transform="translate(-254.575 -372.947)"/><path class="u" d="M294.357,417.483,287.746,455.5l-5.939-3.265,6.878-37.757Z" transform="translate(-268.399 -366.318)"/><path class="v" d="M295.507,415.187s-.112,2.1-.227,2.9-1.294.346-1.294.346.583,1.547-.055,1.973a1.528,1.528,0,0,1-1.419.01.6.6,0,0,0,.029.275c.055.115-.484.58-1.134.625s-1.112-.974-1.112-1.124-.119.275-.119.275a1.444,1.444,0,0,1-.474.561.606.606,0,0,1-.317.1c-.5.01-1.752-1.727-2.1-2.524a7.439,7.439,0,0,1-.275-2.893,2.268,2.268,0,0,1,.625-1.432c.192-.285.3-.993.509-1.355s.826-.426,1.124-1.22.775-.644,1.4-.689.436-.074,1.217-.583a1.554,1.554,0,0,1,.647-.24,2.213,2.213,0,0,1,1.454.356,9.145,9.145,0,0,1,1.153,2.1Z" transform="translate(-286.145 -375.808)"/><path class="m" d="M293.46,410.178a1.893,1.893,0,0,0-.423.356c-.253.263-.583.429-.734.766a4.226,4.226,0,0,0-.115,1.073,1.542,1.542,0,0,0-.359-.612,1.776,1.776,0,0,0-.5-.407c-.336-.138-.932.384-1.089.637-.247.4-.016.91-.067,1.358-.352-.41-.74.8-.782,1.025a5.605,5.605,0,0,0,.042,1.685.444.444,0,0,0-.666.115,1.251,1.251,0,0,0-.134.759,4.21,4.21,0,0,0,.605,2.438,9.054,9.054,0,0,0,.878.875,1.991,1.991,0,0,1,.513.772.606.606,0,0,1-.317.1c-.5.01-1.752-1.727-2.1-2.524a7.439,7.439,0,0,1-.275-2.893,2.268,2.268,0,0,1,.625-1.432c.192-.285.3-.993.509-1.355s.826-.426,1.124-1.22.775-.644,1.4-.689.436-.074,1.217-.583A1.554,1.554,0,0,1,293.46,410.178Z" transform="translate(-287.074 -375.797)"/><path class="m" d="M287.419,410.809a32.616,32.616,0,0,1,1.272,3,20.084,20.084,0,0,0,.673,2.62c.266.513.24.6.24.6l.147.509a2.056,2.056,0,0,1-.509-.721,21.055,21.055,0,0,1-.721-2.425c-.083-.221-.865-2.3-.881-2.335A5.986,5.986,0,0,1,287.419,410.809Z" transform="translate(-281.762 -374.406)"/><path class="m" d="M287.778,411.471s1.653,2.851,1.906,3.511a13.055,13.055,0,0,0,1.326,2.447l.276.279-.465-.151.029.275a9.667,9.667,0,0,0-.644-1.262c-.445-.753-1.826-3.677-1.9-3.854S287.778,411.471,287.778,411.471Z" transform="translate(-284.454 -372.948)"/><path class="m" d="M290.8,416.665s-1.1-1.723-1.31-2.1a13.664,13.664,0,0,1-.586-1.941c-.074-.256-.215-.891-.279-.842a17.809,17.809,0,0,0,.628,2.95c.189.445,1.105,1.518,1.153,1.8s.179.625.067.74S290.793,417.12,290.8,416.665Z" transform="translate(-286.645 -372.279)"/><path class="w" d="M289.266,413.229s-.359.15-.375.295a.779.779,0,0,1-.118.295s.2.423.493.4.477-.147.477-.263A.811.811,0,0,0,289.266,413.229Z" transform="translate(-286.099 -369.074)"/><path class="w" d="M288.843,413.234s-.746-.109-.82.5.327.621.327.621.522.138.762-.125l.237-.263S289.138,413.231,288.843,413.234Z" transform="translate(-283.273 -369.079)"/><path class="w" d="M288.186,412.911s-.772-.006-.756.525c.022.676.189.82.189.82a1.021,1.021,0,0,0,.878-.071c.359-.272.221-.455.221-.455S288.433,412.911,288.186,412.911Z" transform="translate(-280.797 -369.775)"/><path class="w" d="M287.755,412.229s-.605-.013-.605.4c0,.74-.051.737-.051.737a1.012,1.012,0,0,0,.759.25,2.855,2.855,0,0,1,.465-.086S288.546,412.229,287.755,412.229Z" transform="translate(-279.34 -371.277)"/><path class="v" d="M282.537,426.56a2.646,2.646,0,0,0-1.973.128c-1.016.5-2.608,1.24-2.608,1.24s-2.428.17-2.745.772-.032,1.7.721,1.666,2.111-.256,2.111-.256a8.3,8.3,0,0,0-.128,1.169,2.64,2.64,0,0,1,.01.413l-4.767,2.694s3.706.368,4.334.368h.708s.118,1.051.891.794,6.118-5.023,6.118-5.023S285.038,425.542,282.537,426.56Z" transform="translate(-231.539 -340.002)"/><path class="k" d="M289.891,420.515c-.83,4.9-1.4,5.76-1.342,8.809a58.921,58.921,0,0,1-.788,9.187c-.224,1.086-1.176,6.179-2.412,8.716s-3.357,5.824-4.174,7.909a14.532,14.532,0,0,1-2.313,4.193,2.9,2.9,0,0,1-.391.368,2.158,2.158,0,0,0-.839,1.435,7.391,7.391,0,0,1-2.239.951,2.541,2.541,0,0,1-.266.01,4.888,4.888,0,0,1-.551-.01h-.227l-.807.849a.194.194,0,0,0-.051.051l-.019.01-3,3.111a3.191,3.191,0,0,0-.288-1.147,4.515,4.515,0,0,0-.807-1.259c-1.083-1.195-2.239-2.617-2.239-2.617s.951.019.971-.368a3.011,3.011,0,0,1,.522-1.137c.154-.275,1.105-1.647,1.208-1.791v-.01a6.472,6.472,0,0,1-.112-1.576c.112-.224.737-.205,1.064-.573a12.448,12.448,0,0,0,1.515-2.873,7.534,7.534,0,0,1,.971-2.323,40.986,40.986,0,0,0,1.871-3.754s.074-1.086.308-1.268.573-.532.573-.532a.44.44,0,0,1-.01-.215,1.327,1.327,0,0,1,.388-.769l.144-.144a4.837,4.837,0,0,0,.48-.522,1.661,1.661,0,0,0,.317-.509,1.337,1.337,0,0,1-.019-.247,1.112,1.112,0,0,1,.317-.839c.449-.41.173-2.21.317-2.64a.089.089,0,0,0,0-.071c.07-.9-.974-8.492-1.054-9.556-.093-1.1-1.188-8.053,2.5-13.393s7.336-5.769,8.1-5.033a4.346,4.346,0,0,1,1.041,1.749A10.732,10.732,0,0,1,289.891,420.515Z" transform="translate(-217.127 -374.733)"/><path class="j" d="M279.837,412.756c.122-.045-4.866,2.992-5.279,4.677s-1.573,5.087-1.486,8.3a7.858,7.858,0,0,1-1.759,5.215s-2.829-5.055-2.893-6.391.923.541.923.541a45.275,45.275,0,0,1,1.493-7.22,40.433,40.433,0,0,1,3.722-6.9,2.608,2.608,0,0,1,1.08-.891,14.509,14.509,0,0,0-1.717,2.96l-.794,1.813a18.9,18.9,0,0,1,2.672-2.194,6.438,6.438,0,0,1,1.272-.352s-3.45,1.72-4.6,4.549a46.842,46.842,0,0,0-1.98,7.092l1.211.7a16.271,16.271,0,0,1,1.08-4.895C273.7,417.718,274.718,414.7,279.837,412.756Z" transform="translate(-210.988 -376.004)"/><path class="n" d="M270.066,417.917l6.141-3.013-3.336,14.133Z" transform="translate(-212.637 -365.385)"/><path class="l" d="M278.928,425.459l-1.185-.583s-1.128-.042-1.281.131a2.364,2.364,0,0,0-.551,1.33c.019.554,1.832,2.845,1.832,2.845a20.483,20.483,0,0,1-1.977-.91c-.429-.276-.593-1.32-.827-1.147a5.572,5.572,0,0,0-.615,1.618c-.112.317,1.8,1.269,2.239,1.483-.122-.051-.368-.144-.807-.317a3.584,3.584,0,0,0-2.178.224c0,.115-.759,1.208-.3,1.739a3.648,3.648,0,0,0,1.515.81s-.644.192-.573.551a5.5,5.5,0,0,0,1,1.339,5.317,5.317,0,0,0-1.2-.621c-.634-.205-1.381-1.115-1.778-1.249s-.317.317-.554.336-.49.849-.49.849a7.52,7.52,0,0,1,3.223,1.64,5.829,5.829,0,0,1,1.852,3.181,4.889,4.889,0,0,1-.551-.01v-.013a13.149,13.149,0,0,0-.554-1.912c-.3-.7-1.208-1.105-2.742-2a2.232,2.232,0,0,0-1.441-.378v-.01a6.471,6.471,0,0,1-.112-1.576c.112-.224.737-.205,1.064-.573a12.446,12.446,0,0,0,1.515-2.873,7.534,7.534,0,0,1,.971-2.323,40.985,40.985,0,0,0,1.871-3.754s.074-1.086.308-1.268.573-.532.573-.532a.439.439,0,0,1-.01-.215.87.87,0,0,1,.2.551c-.022.8,1.637,1.6,1.973,1.759-.276-.09-1.4-.48-1.544-.532a1.047,1.047,0,0,0-.891.573C276.75,423.985,278.695,425.3,278.928,425.459Z" transform="translate(-218.28 -351.346)"/><path class="l" d="M274.13,422.885c-.183-.051-1.656-.493-2.566-.839-.378-.144-.9-.359-1.394-.554l.144-.141a4.83,4.83,0,0,0,.48-.522A19.984,19.984,0,0,0,274.13,422.885Z" transform="translate(-210.896 -352.33)"/><path class="l" d="M269.64,423.032a1.113,1.113,0,0,1,.317-.836c.448-.41.173-2.21.317-2.639a.1.1,0,0,0,0-.074,3.6,3.6,0,0,0,.634.205c2.015.48,1.791.746,1.3,1.525s-2.294.41-2.1,1c.192.551,3.815,1.986,4.267,2.159a35.219,35.219,0,0,1-3.44-1.124A2.239,2.239,0,0,0,269.64,423.032Z" transform="translate(-209.443 -355.294)"/><path class="l" d="M272.121,425.009s.657-2.742-1-4.056-2.819-1.253-2.8-1.019,1.294,1.249,1.634,1.631,1.208.3,1.57,1.8S272,425.4,272.121,425.009Z" transform="translate(-203.102 -354.59)"/><path class="l" d="M272.322,428.963a24.362,24.362,0,0,0,3.29-1.964l-3,3.111A3.321,3.321,0,0,0,272.322,428.963Z" transform="translate(-219.268 -338.733)"/><path class="l" d="M275.964,425.891a2.907,2.907,0,0,1-.388.368,2.139,2.139,0,0,0-.842,1.429,7.26,7.26,0,0,1-2.242.955,9.53,9.53,0,0,1-1.035,0l-.817.846c.529-.6,1.041-2.066,1.659-1.778a2.59,2.59,0,0,0,2.162-.432c.1-.256,1.032-1.522,1.249-1.435A1.667,1.667,0,0,0,275.964,425.891Z" transform="translate(-214.232 -341.29)"/><path class="x" d="M284.846,412.2a4.378,4.378,0,0,1-1.781-1.31c-.679-.91-1.358-.215-2.076-.215s-2.015.484-2.758,0a24.885,24.885,0,0,0-2.544-.935c-.615-.34-.445-1.909-1.035-1.929a.926.926,0,0,1-.458-.183c1.252-.769,3.133-.481,4.927-.221a14.741,14.741,0,0,0,4.241,0s.891.058,2.214.16a.83.83,0,0,1,.118.285A8.45,8.45,0,0,1,284.846,412.2Z" transform="translate(-235.419 -382.499)"/><path class="j" d="M280.073,409.022s-4.155,4.135-5.471,5.862-3.562,4.783-3.562,4.783A24.465,24.465,0,0,1,280.073,409.022Z" transform="translate(-219.619 -378.344)"/><path class="j" d="M273.375,409.958a28.956,28.956,0,0,0-.923,4.19c-.093,1.368,0,4.581,0,4.581A8.541,8.541,0,0,1,273.375,409.958Z" transform="translate(-214.831 -376.281)"/><path class="y" d="M283.032,417.558a3.263,3.263,0,0,1-.346,2.845,5.138,5.138,0,0,1-1.7,1.483,11.934,11.934,0,0,1-4,1.361,6.145,6.145,0,0,0-5.055-2.354c-.042,0-.074.01-.112.01,0-.737-.144-2.118-.279-3.181-.09-.858-.183-1.515-.183-1.515l-.256-.356-.3-.41.359-.522,1.3-1.893,11.6-9.533a21.8,21.8,0,0,0-1.935,8.255C282.132,415.992,283.032,417.558,283.032,417.558Z" transform="translate(-222.864 -390.528)"/><path class="z" d="M282.734,417.558a3.263,3.263,0,0,1-.346,2.845,5.138,5.138,0,0,1-1.7,1.483,5.8,5.8,0,0,1-.256-1.567c-.077-6.269-.253-4.014-5.606-2.374a4.4,4.4,0,0,1-3.581-.224c-.09-.858-.183-1.515-.183-1.515l-.256-.356s.01-.34.061-.932l1.3-1.893,11.6-9.533a21.8,21.8,0,0,0-1.935,8.255C281.834,415.992,282.734,417.558,282.734,417.558Z" transform="translate(-222.566 -390.528)"/><path class="aa" d="M279.329,407.513a4.891,4.891,0,0,1-2.226,3.127c-2,1.358-4.1,2.355-5.407,2.079l-1.3-.275s-.189,3.053.573,3.242,4.687-.215,6.557-1.759,4.318-3.613,4.177-4.187l-.144-.573S280.38,407.08,279.329,407.513Z" transform="translate(-219.113 -381.8)"/><path class="aa" d="M275.994,407.4s-1.47,2.255-.551,3.357a8.645,8.645,0,0,0,2.226,1.8s-1.041,1.791-1.807,1.864-1.192-1.083-1.784-2.393.5-3.786.762-4.241S275.994,407.4,275.994,407.4Z" transform="translate(-226.39 -381.92)"/><path class="v" d="M287.754,409.991c-.285,2.383-3.171,7.56-5.177,9.155a14.77,14.77,0,0,1-2.854,1.659,26,26,0,0,1-4.85,1.81c-1.012.154-2.508-.135-2.989-1.086s-1.115-8.809-1.041-9.575a9.66,9.66,0,0,0,.07-2.527,6.956,6.956,0,0,1-.368-2.505v-.013c0-.458.019-1,.07-1.688a4.359,4.359,0,0,1,.288-1.329l.01-.019a4.665,4.665,0,0,1,2.71-2.63,16.131,16.131,0,0,0,8.185.573C285.851,400.855,288.039,407.6,287.754,409.991Z" transform="translate(-225.744 -395.484)"/><path class="ab" d="M287.754,409.991c-.285,2.383-3.171,7.56-5.177,9.155a14.77,14.77,0,0,1-2.854,1.659,15.024,15.024,0,0,0,2.691-7.573,12.491,12.491,0,0,0-1.249-4.472c-.256-.163-3.671,1.464-8.6-.644a7.381,7.381,0,0,1-2.015-1.195v-.013c0-.458.019-1,.07-1.688a4.359,4.359,0,0,1,.288-1.329l.01-.019a4.665,4.665,0,0,1,2.71-2.63,16.131,16.131,0,0,0,8.185.573C285.851,400.855,288.039,407.6,287.754,409.991Z" transform="translate(-225.744 -395.484)"/><path class="ac" d="M272.158,404.084l-1.768,4.978s2.733-2.707,2.819-3.629S272.158,404.084,272.158,404.084Z" transform="translate(-210.679 -389.224)"/><path class="ac" d="M270.391,404.425s4.241-.128,4.674,2.246a14.777,14.777,0,0,1,.368,3.2l1.211-.817s-.019-1.9.66-2.281a2.094,2.094,0,0,1,2.057.17c.106.275,2.592-1.9,1.073-3.738S270.391,404.425,270.391,404.425Z" transform="translate(-218.395 -392.455)"/><path class="i" d="M281.459,411.7s5.045,3.024,5.369,3.626l.324.605s1.592-1.4,1.592-8.015-6.679-8.207-7.7-8.364-5.436-.128-7.791,2.226a15.19,15.19,0,0,0-3.309,4.994S276.436,409.571,281.459,411.7Z" transform="translate(-224.789 -399.33)"/><path class="j" d="M285.481,400.444s-6.032-.913-8.338,2.121a43.91,43.91,0,0,0-3.543,5.862c-1.246-.612-2.012-1.022-2.012-1.022s.82-2.652,4.443-6.157S285.481,400.444,285.481,400.444Z" transform="translate(-226.786 -399.445)"/><path class="ad" d="M273.318,400.232a7.223,7.223,0,0,1-.449,4.9,46.686,46.686,0,0,1-2.893,5.177s3.972,2.262,4.885,3.319C275.125,413.936,278.838,404.092,273.318,400.232Z" transform="translate(-212.471 -397.712)"/><path class="k" d="M272.226,403.468s1.336-1.624,4.068,0,3.943,3.719,6.2,4.036a16.794,16.794,0,0,0,6.013-.413A9.064,9.064,0,0,1,290,406.71a60.247,60.247,0,0,0-7.153-4.325,11.163,11.163,0,0,0-4.36-.6S272,402.164,272.226,403.468Z" transform="translate(-233.331 -394.339)"/><path class="v" d="M271.247,404.593s1.634-1.4,2.46-.381-.106,2.268-.423,2.883-1.592,3.011-2.419,2.8.022-1.993,0-2.226S270.844,404.887,271.247,404.593Z" transform="translate(-211.874 -389.762)"/><path class="q" d="M270.066,413.729l6.766,3.763L270.69,420.5Z" transform="translate(-213.262 -367.973)"/><rect class="ae" width="7.299" height="0.582" transform="translate(3.401 59.793) rotate(31.576)"/><path class="af" d="M284.726,442.813s-1.182,1.534-3.428,4.068c-1.1,1.24-1.147,1.685-2.611,2.172-2.463.823-5.222-.3-5.148-1.393s.7-1.268,2.3-3.386c1.313-1.736,2.768-3.232,3.152-4.174a7.3,7.3,0,0,0,1.224,1.4C281.759,442.454,283.339,443.13,284.726,442.813Z" transform="translate(-232.277 -309.866)"/><path class="af" d="M283.161,438.181s-1.054,2.5-2.127,3.2-4.03,2.457-4,3.437,1.9,2.175,3.863,1.707,4.773-3.367,5.029-3.921l.878-1.954Z" transform="translate(-245.538 -314.095)"/><path class="ag" d="M278.255,402.007s-2.226.16-2.883.288c-.887.173-2.9.727-2.9.727s3.838,3.066,5.1,3.476c2.566.83,7.262-.458,7.262-.458S279.466,402.033,278.255,402.007Z" transform="translate(-228.966 -393.801)"/></g></g></svg>