<svg xmlns="http://www.w3.org/2000/svg" width="150" height="155" viewBox="0 0 150 155"><defs><style>.a{fill:rgba(34,174,228,0.25);}.b{fill:#00a0df;}.c{fill:#297dc2;}.d,.g{fill:#9cd1f3;}.e{fill:#fff;}.f{fill:#dfeffc;}.g{font-size:3px;font-family:SegoeUI, Segoe UI;}.h{fill:#f48306;}.i{fill:#f28a64;}.j{fill:#0e233f;}.k{fill:#f6a585;}.l{fill:#f59a71;}.m{fill:#0e284e;}.n{fill:#00346f;}.o{fill:#003f81;}.p{fill:#fa9500;}.q{fill:#ffab00;}.r{fill:#e15294;}.s{fill:#ffce00;}</style></defs><circle class="a" cx="75" cy="75" r="75" transform="translate(0 2)"/><g transform="translate(17)"><g transform="translate(20.97 0)"><path class="b" d="M334.808,494.777H275.081c-4.227,0-10.8-3.191-10.3-7.437l18.242-127.512a8.843,8.843,0,0,1,8.542-7.685l56.071-2.195c6.819,0,10.913,5.636,10.421,9.88L343.35,487.09A8.843,8.843,0,0,1,334.808,494.777Z" transform="translate(-263.862 -349.911)"/><path class="c" d="M330.478,492.557H270.751a6.7,6.7,0,0,1-6.766-7.686l14.7-127.27a8.843,8.843,0,0,1,8.541-7.687h59.727a6.7,6.7,0,0,1,6.766,7.687l-14.7,127.27A8.843,8.843,0,0,1,330.478,492.557Z" transform="translate(-263.933 -349.914)"/><path class="d" d="M330.283,489.724H271.2a5.1,5.1,0,0,1-5.149-5.851l14.561-126.064a6.729,6.729,0,0,1,6.5-5.85H346.2a5.1,5.1,0,0,1,5.149,5.85L336.784,483.873A6.732,6.732,0,0,1,330.283,489.724Z" transform="translate(-263.753 -349.736)"/><path class="c" d="M304.075,475.67H291.76a2.268,2.268,0,0,1-2.292-2.592h0a3,3,0,0,1,2.893-2.593h12.314a2.269,2.269,0,0,1,2.292,2.593h0A3,3,0,0,1,304.075,475.67Z" transform="translate(-261.718 -338.841)"/><ellipse class="c" cx="2.063" cy="1.837" rx="2.063" ry="1.837" transform="matrix(0.727, -0.686, 0.686, 0.727, 22.008, 6.953)"/><ellipse class="c" cx="1.243" cy="1.107" rx="1.243" ry="1.107" transform="matrix(0.727, -0.686, 0.686, 0.727, 28.321, 6.921)"/><path class="e" d="M334.01,477.632H269.074l13.46-116.623h64.936Z" transform="translate(-263.487 -348.951)"/><path class="f" d="M337.216,378.643H286.163a2.479,2.479,0,0,1-2.51-2.84l1.031-8.888a3.277,3.277,0,0,1,3.169-2.84h51.053a2.477,2.477,0,0,1,2.509,2.84l-1.031,8.888A3.276,3.276,0,0,1,337.216,378.643Z" transform="translate(-262.223 -348.685)"/><text class="g" transform="translate(39.046 20.604)"><tspan x="-12.143" y="0">Monday 11.00 AM</tspan></text><g transform="translate(14.076 34.549)"><g transform="translate(5.172)"><path class="f" d="M293.264,393.1H281.644l1.348-11.62h11.62Z" transform="translate(-281.644 -381.481)"/><g transform="translate(15.037)"><path class="d" d="M307.1,393.1H295.48l1.348-11.62h11.62Z" transform="translate(-295.48 -381.481)"/></g><path class="f" d="M320.936,393.1h-11.62l1.348-11.62h11.621Z" transform="translate(-279.242 -381.481)"/><path class="f" d="M334.773,393.1H323.152l1.348-11.62h11.621Z" transform="translate(-278.041 -381.481)"/></g><g transform="translate(3.448 14.86)"><path class="f" d="M291.678,406.774H280.057l1.348-11.62h11.621Z" transform="translate(-280.057 -395.154)"/><path class="f" d="M305.514,406.774H293.893l1.348-11.62h11.62Z" transform="translate(-278.856 -395.154)"/><path class="f" d="M319.35,406.774H307.73l1.348-11.62H320.7Z" transform="translate(-277.656 -395.154)"/><path class="f" d="M333.186,406.774H321.566l1.348-11.62h11.621Z" transform="translate(-276.455 -395.154)"/></g><g transform="translate(1.724 29.72)"><path class="f" d="M290.092,420.448H278.471l1.348-11.621H291.44Z" transform="translate(-278.471 -408.827)"/><path class="f" d="M303.928,420.448H292.307l1.348-11.621h11.62Z" transform="translate(-277.27 -408.827)"/><g transform="translate(30.074)"><path class="f" d="M317.764,420.448h-11.62l1.348-11.621h11.621Z" transform="translate(-306.143 -408.827)"/></g><path class="f" d="M331.6,420.448h-11.62l1.348-11.621h11.621Z" transform="translate(-274.868 -408.827)"/></g><g transform="translate(0 44.58)"><path class="f" d="M288.505,434.121H276.885l1.348-11.621h11.621Z" transform="translate(-276.885 -422.501)"/><path class="f" d="M302.341,434.121H290.721l1.348-11.621h11.62Z" transform="translate(-275.684 -422.501)"/><path class="f" d="M316.177,434.121H304.557l1.348-11.621h11.621Z" transform="translate(-274.483 -422.501)"/><path class="f" d="M330.014,434.121H318.393l1.348-11.621h11.62Z" transform="translate(-273.282 -422.501)"/></g></g><g transform="translate(9.318 96.92)"><g transform="translate(2.532)"><g transform="translate(0 0.81)"><path class="f" d="M285.822,456.7a1.908,1.908,0,0,1,1.844-1.652h10.5a2.712,2.712,0,0,0,2.382-1.478,2.253,2.253,0,0,0-.216-2.607l-4.076-4.612a2.112,2.112,0,0,0-1.612-.7H281.874a1.431,1.431,0,0,1-1.431-1.107l-.541-2.324a1.738,1.738,0,0,1,.387-1.5,1.862,1.862,0,0,1,1.428-.7h17.617a1.461,1.461,0,0,1,1.106.477l6.595,7.354c.057-.324.123-.647.189-.966l-6.2-6.915a2.117,2.117,0,0,0-1.6-.69H281.8a2.7,2.7,0,0,0-2.068,1.007,2.513,2.513,0,0,0-.561,2.174l.541,2.324a2.075,2.075,0,0,0,2.074,1.605h12.771a1.459,1.459,0,0,1,1.113.484l4.077,4.611a1.57,1.57,0,0,1,.149,1.8,1.882,1.882,0,0,1-1.645,1.021h-10.5a2.764,2.764,0,0,0-2.671,2.393l-.283,2.435a2.09,2.09,0,0,0,2.116,2.393h11.6a1.451,1.451,0,0,1,1.457,1.681,1.908,1.908,0,0,1-1.844,1.652H274.922l-.086.741h23.207a2.772,2.772,0,0,0,2.675-2.421,2.091,2.091,0,0,0-2.116-2.393H287a1.443,1.443,0,0,1-1.461-1.653Z" transform="translate(-274.836 -439.279)"/></g><g transform="translate(29.659)"><path class="d" d="M308.979,441.954c-.22,1.889-4.221,6.9-4.221,6.9s-2.839-5.014-2.619-6.9a3.945,3.945,0,0,1,3.817-3.42A2.985,2.985,0,0,1,308.979,441.954Z" transform="translate(-302.127 -438.534)"/><g transform="translate(0.845 0.665)"><ellipse class="e" cx="1.946" cy="1.733" rx="1.946" ry="1.733" transform="matrix(0.727, -0.686, 0.686, 0.727, 0, 2.672)"/></g></g></g><ellipse class="d" cx="3.042" cy="2.709" rx="3.042" ry="2.709" transform="matrix(0.727, -0.686, 0.686, 0.727, 0, 26.879)"/><ellipse class="e" cx="1.57" cy="1.398" rx="1.57" ry="1.398" transform="matrix(0.727, -0.686, 0.686, 0.727, 1.97, 26.822)"/></g></g><g transform="translate(0 29.869)"><path class="h" d="M252.021,415.583s6.1-8.887,7.072-11,1.074-3.914-.443-5.012-4.313-1.961-6.784,1.521-7.038,14.178-7.226,17.525,14.946,13.477,16.29,14.132c1.482-.387,2.111-2.6,2.111-2.6S253.269,417.743,252.021,415.583Z" transform="translate(-244.637 -374.948)"/><path class="i" d="M256.157,481.979a9.149,9.149,0,0,1-.7,4.4c-1,2.647-1.06,3.483,0,4.069s1.811.752,4.766,0a37.077,37.077,0,0,0,6.243-2.4,32.79,32.79,0,0,1-3.985-2.9,16.332,16.332,0,0,1-2.4-4.4C260.114,480.306,256.157,481.979,256.157,481.979Z" transform="translate(-243.765 -367.825)"/><path class="j" d="M264.19,486.173c-1.189.793-2.324,1.66-3.846,1.442-1.223-.306-1.68-1.528-2.444-2.444a2.33,2.33,0,0,0-2.051-.342c-.1.375-.227.776-.388,1.2-1,2.647-1.06,3.483,0,4.069s1.811.752,4.766,0a37.074,37.074,0,0,0,6.243-2.4S265.292,486.955,264.19,486.173Z" transform="translate(-243.765 -367.473)"/><path class="k" d="M289.011,398.443l3.7,1.593c1.227-1.52,2.149-2.666,2.751-2.791a2.546,2.546,0,0,0,2.656-.988c.419-.535-.1-.84-.037-1.046.434-.637-.3-.887-.184-1.037.455-.531.371-.818.1-.964s-.736-.28-.651-.547a6.643,6.643,0,0,1,2.188-1.441c.979-.463,2.055-1.207,1.46-1.6s-6.153,2.279-7.195,3.418-.772,2.353-2.077,3.607A15.583,15.583,0,0,1,289.011,398.443Z" transform="translate(-240.786 -375.731)"/><path class="l" d="M259.72,481.379a17.313,17.313,0,0,1-.892,6.539c-1.152,2.935-.817,4.236,1.263,4.831s3.233-.817,5.946-.743,6.316-.223,7.246-2.713-3.408-1.377-6.033-2.156-1.457-5.386-1.457-5.386Z" transform="translate(-243.463 -367.764)"/><path class="m" d="M267.323,486.655c-.236.789,1.905,1.621,1.273,2.043-2.291,1.68-5.041-1.222-7.638-2.139a2.736,2.736,0,0,0-1.775-.147,10.715,10.715,0,0,1-.355,1.076c-1.152,2.935-.817,4.236,1.263,4.831s3.233-.817,5.946-.743,7.843-.439,8.773-2.929C275.728,486.183,269.955,487.388,267.323,486.655Z" transform="translate(-243.463 -367.334)"/><g transform="translate(14.723 120.124)"><path class="j" d="M274.489,487.368a1.7,1.7,0,0,1-.055.18c-.929,2.49-6.06,3-8.773,2.929s-3.864,1.338-5.945.743a2.828,2.828,0,0,1-1.531-.9c.09.989.705,1.568,1.9,1.911,2.081.594,3.233-.817,5.946-.743s7.843-.439,8.773-2.929A.887.887,0,0,0,274.489,487.368Z" transform="translate(-258.185 -487.368)"/></g><path class="n" d="M264.6,440.219a6.59,6.59,0,0,1-2.994-2.778,8.3,8.3,0,0,1-.685-6.14,76.952,76.952,0,0,1,3.344-7.06l-6.576-1.216a74.907,74.907,0,0,0-4.459,9.113c-1.505,4.012-.279,8.249.446,11.425s2.564,12.262,1.783,15.662-2.229,8.583-1.839,12.542,2.341,13.376,2.284,15.494a4.351,4.351,0,0,0,1.9.38,5.77,5.77,0,0,0,3.118-1.105s.446-16.219,2.118-23.353S266.379,442.783,264.6,440.219Z" transform="translate(-243.954 -372.829)"/><path class="m" d="M264.156,439.833a6.591,6.591,0,0,1-2.994-2.778c-2.783-1.316-.843-6.423-1.068-9.576-1.1,3.043-5.318,8.529.443,15.365,2.051,1.9.049,16.845-1.71,23.582-1.576,5.713-.887,14.889-.607,20.727a5.924,5.924,0,0,0,2.257-1s.446-16.219,2.118-23.353S265.939,442.4,264.156,439.833Z" transform="translate(-243.515 -372.442)"/><path class="n" d="M274.6,424.15a52.274,52.274,0,0,1,1.338,15.235c-.594,7.877-5.871,21.105-6.465,24s-1.413,11.233-2.155,14.98-1.115,7.24-.706,8.206c-1.746,1.857-6.391,1.635-7.431,0,.372-7.655.186-14.232,1.635-19.4s.558-6.5,1.152-9.735,1.189-13.227,1.487-14.416-2.676-1.785-3.753-3.716-3.307-6.577,2.86-16.053A57.441,57.441,0,0,1,274.6,424.15Z" transform="translate(-243.442 -372.811)"/><path class="o" d="M274.3,424.15a57.44,57.44,0,0,0-12.039-.892c-.124.19-.238.375-.355.561a56.868,56.868,0,0,1,9.579.916,52.278,52.278,0,0,1,1.338,15.235c-.595,7.878-4.808,20.886-5.4,23.784s-.83,10.855-1.573,14.6a33.2,33.2,0,0,0-.517,8.919,3.472,3.472,0,0,0,.981-.7c-.409-.966-.037-4.459.706-8.206s1.561-12.082,2.155-14.98,5.871-16.127,6.465-24A52.277,52.277,0,0,0,274.3,424.15Z" transform="translate(-243.139 -372.811)"/><path class="l" d="M271.047,383.184s.556,6.614-.186,8.658a14.523,14.523,0,0,1-1.9,3.939c-.409.409-2.376-.335-2.767,0s-.354,4.161-.354,4.161l-5.462-.223s.631-6.911,1.115-8.806S270.489,383.036,271.047,383.184Z" transform="translate(-243.271 -376.287)"/><path class="p" d="M258.461,398.366s4.236-2.117,7.692-.446,8.862,8.7,9.7,10.032a7.763,7.763,0,0,1,0,7.079c-1.393,2.731-.891,10.757-.167,12.15-5.851,1.728-14.937.613-19.117-1.226,2.341-3.4,3.567-4.682,1.894-8.416S254.783,403.215,258.461,398.366Z" transform="translate(-243.617 -375.063)"/><path class="h" d="M273.221,415.506a7.767,7.767,0,0,0,0-7.079c-.837-1.337-6.243-8.36-9.7-10.032a7.163,7.163,0,0,0-3.651-.614,10.905,10.905,0,0,0-1.411.544c-3.679,4.849-1.671,15.439,0,19.174s.447,5.016-1.894,8.416c3.517,1.548,10.507,2.581,16.123,1.841.122-.033.245-.065.364-.1C272.329,426.263,271.828,418.237,273.221,415.506Z" transform="translate(-243.617 -375.022)"/><path class="q" d="M279.292,406.583s-8.82-6.2-10.924-7.19-3.9-1.115-5.017.39-2.006,4.292,1.449,6.8,14.1,7.19,17.446,7.413,13.637-14.8,14.305-16.138c-.372-1.486-2.578-2.138-2.578-2.138S281.465,405.357,279.292,406.583Z" transform="translate(-243.1 -375.199)"/><g transform="translate(19.255 20.522)"><path class="r" d="M264.63,405.736c-.117-.086-.217-.166-.326-.249C264.408,405.571,264.517,405.653,264.63,405.736Z" transform="translate(-262.186 -394.873)"/><path class="s" d="M263.135,401.24c1.114-1.505,2.912-1.38,5.016-.39s10.589,6.534,10.589,6.534c2.174-1.226,15.234-11.662,15.234-11.662s-12.508,9.636-14.681,10.862c0,0-8.82-6.2-10.924-7.19s-3.9-1.115-5.017.39a4.8,4.8,0,0,0-1,2.794A5.153,5.153,0,0,1,263.135,401.24Z" transform="translate(-262.355 -395.721)"/></g><path class="n" d="M271.514,380.614c-2.527-2.527-7.208-3.493-7.208-3.493-3.973-1.349-7.061,2.379-7.952,5.723s-.453,7.235-1.82,11.63c-.692,2.142-10.586,17.468,2.386,28.57,3.3,1.629,5.822,2.346,9.387-.4a33.151,33.151,0,0,1-1.812-20.067c.732-2.484,2.237-2.577,3.618-2.064l.189.075c-.128-.252-.294-.541-.491-.859-.7-2.073-.041-6.371,1.382-7.889,1.671-1.783,2.452-4.682,2.731-6.8a6.472,6.472,0,0,1-1.115,4.96C273.205,388.157,274.041,383.14,271.514,380.614Z" transform="translate(-244.148 -376.837)"/><path class="m" d="M255.6,413.842c-1.465-10.254,2.637-20.8,6.446-30.467,1.139-2.964,4.407-4.33,7.734-4.1a19.422,19.422,0,0,0-5.476-2.154c-3.973-1.349-7.061,2.379-7.952,5.723s-.453,7.235-1.82,11.63c-.692,2.142-10.586,17.468,2.386,28.57,2.666,1.317,4.826,2.037,7.439.812a7.884,7.884,0,0,1-2.7-1.151C258.734,420.653,256.189,417.358,255.6,413.842Z" transform="translate(-244.148 -376.837)"/></g></g></svg>