<svg xmlns="http://www.w3.org/2000/svg" width="162.133" height="150" viewBox="0 0 162.133 150"><defs><style>.a{fill:rgba(34,174,228,0.25);}.b{fill:#ed7d2b;}.c{fill:#78acea;}.d{fill:#699dee;}.e{fill:#5288d8;}.f{fill:#d7e9ff;}.g{fill:#f99746;}.h{fill:#afcdfb;}.i{fill:#fff;}.j{fill:#c65447;}.k{fill:#ffb27d;}.l{fill:#233862;}.m{fill:#2b478b;}.n{fill:#ed985f;}.o{fill:#2c3a64;}</style></defs><circle class="a" cx="75" cy="75" r="75" transform="translate(6)"/><g transform="translate(0 23)"><path class="b" d="M849.8,754.4l-18.2,93.67a3.092,3.092,0,0,0,3.045,3.674h9.6Z" transform="translate(-831.547 -748.696)"/><path class="c" d="M905.7,747.77l-12.061,91.973a5.1,5.1,0,0,0,5.073,5.754H916.4l-9.976-98.059Z" transform="translate(-887.224 -742.451)"/><path class="d" d="M964.236,750.689l-5.4,91.385a6,6,0,0,0,6,6.34h26.388Z" transform="translate(-945.764 -745.368)"/><path class="e" d="M1009.564,757.988l2.625,90.636a6,6,0,0,0,6,6.34h26.388Z" transform="translate(-991.294 -751.918)"/><path class="f" d="M1145.083,844.9H1041.141a5.37,5.37,0,0,1-5.286-4.393l-15.816-86.214a6.38,6.38,0,0,1,6.29-7.52h102.719a5.369,5.369,0,0,1,5.287,4.393l16.036,87.414A5.362,5.362,0,0,1,1145.083,844.9Z" transform="translate(-1000.598 -741.854)"/><path class="g" d="M1012.652,765.57h115.053l-2.95-16.347a2.979,2.979,0,0,0-2.931-2.45H1010.382a.975.975,0,0,0-.959,1.151Z" transform="translate(-991.152 -741.854)"/><g transform="translate(19.202)"><g transform="translate(0 0)"><path class="c" d="M1023.631,698.842a4.993,4.993,0,0,0-4.988,4.987h.958a4.031,4.031,0,1,1,5.348,3.808,3.983,3.983,0,0,1-1.088.216v.958a4.925,4.925,0,0,0,1.275-.226,4.988,4.988,0,0,0-1.5-9.743Z" transform="translate(-1018.643 -698.842)"/><path class="c" d="M1063.391,781.525a1.113,1.113,0,0,1-.038.288,1.085,1.085,0,1,1,.038-.288Z" transform="translate(-1056.86 -772.07)"/></g><g transform="translate(17.884 0)"><path class="c" d="M1197.887,698.842a4.993,4.993,0,0,0-4.988,4.987h.957a4.031,4.031,0,0,1,8.061,0,3.99,3.99,0,0,1-.208,1.276,4.044,4.044,0,0,1-2.5,2.533,3.992,3.992,0,0,1-1.089.216v.958a4.924,4.924,0,0,0,1.274-.226,4.987,4.987,0,0,0-1.5-9.743Z" transform="translate(-1192.899 -698.842)"/><path class="c" d="M1237.636,781.525a1.108,1.108,0,0,1-.039.288,1.085,1.085,0,1,1,.039-.288Z" transform="translate(-1231.106 -772.07)"/></g><g transform="translate(35.768 0)"><path class="c" d="M1372.143,698.842a4.993,4.993,0,0,0-4.988,4.987h.957a4.031,4.031,0,1,1,5.349,3.808,3.992,3.992,0,0,1-1.089.216v.958a4.933,4.933,0,0,0,1.275-.226,4.988,4.988,0,0,0-1.5-9.743Z" transform="translate(-1367.155 -698.842)"/><path class="c" d="M1411.892,781.525a1.113,1.113,0,0,1-.039.288,1.087,1.087,0,1,1,.039-.288Z" transform="translate(-1405.362 -772.07)"/></g><g transform="translate(53.652 0)"><path class="c" d="M1546.4,698.842a4.992,4.992,0,0,0-4.987,4.987h.957a4.031,4.031,0,1,1,5.348,3.808,3.983,3.983,0,0,1-1.088.216v.958a4.934,4.934,0,0,0,1.275-.226,4.988,4.988,0,0,0-1.5-9.743Z" transform="translate(-1541.411 -698.842)"/><path class="c" d="M1586.148,781.525a1.113,1.113,0,0,1-.039.288,1.084,1.084,0,1,1,.039-.288Z" transform="translate(-1579.618 -772.07)"/></g><g transform="translate(71.535 0)"><path class="c" d="M1720.644,698.842a4.993,4.993,0,0,0-4.988,4.987h.957a4.031,4.031,0,1,1,5.348,3.808,3.973,3.973,0,0,1-1.088.216v.958a4.925,4.925,0,0,0,1.275-.226,4.987,4.987,0,0,0-1.5-9.743Z" transform="translate(-1715.656 -698.842)"/><path class="c" d="M1760.392,781.525a1.113,1.113,0,0,1-.039.288,1.083,1.083,0,1,1,.039-.288Z" transform="translate(-1753.862 -772.07)"/></g><g transform="translate(89.419 0)"><path class="c" d="M1894.9,698.842a4.993,4.993,0,0,0-4.988,4.987h.957a4.031,4.031,0,1,1,5.348,3.808,3.974,3.974,0,0,1-1.088.216v.958a4.924,4.924,0,0,0,1.274-.226,4.988,4.988,0,0,0-1.5-9.743Z" transform="translate(-1889.912 -698.842)"/><path class="c" d="M1934.649,781.525a1.118,1.118,0,0,1-.039.288,1.084,1.084,0,1,1,.039-.288Z" transform="translate(-1928.119 -772.07)"/></g><g transform="translate(107.303 0)"><path class="c" d="M2069.155,698.842a4.992,4.992,0,0,0-4.987,4.987h.957a4.031,4.031,0,0,1,8.061,0,3.994,3.994,0,0,1-.207,1.276,4.043,4.043,0,0,1-2.506,2.533,3.981,3.981,0,0,1-1.088.216v.958a4.924,4.924,0,0,0,1.275-.226,4.988,4.988,0,0,0-1.5-9.743Z" transform="translate(-2064.168 -698.842)"/><path class="c" d="M2108.905,781.525a1.118,1.118,0,0,1-.039.288,1.085,1.085,0,1,1,.039-.288Z" transform="translate(-2102.375 -772.07)"/></g></g><g transform="translate(33.882 32.996)"><path class="h" d="M1615.711,1156.913H1609.9a1.559,1.559,0,0,1-1.458-1.222l-1.122-5.816a.982.982,0,0,1,.987-1.223h5.816a1.559,1.559,0,0,1,1.458,1.223l1.122,5.816A.982.982,0,0,1,1615.711,1156.913Z" transform="translate(-1561.69 -1135.902)"/><path class="h" d="M1758.713,1156.913H1752.9a1.559,1.559,0,0,1-1.458-1.222l-1.122-5.816a.982.982,0,0,1,.986-1.223h5.816a1.559,1.559,0,0,1,1.458,1.223l1.122,5.816A.982.982,0,0,1,1758.713,1156.913Z" transform="translate(-1690.016 -1135.902)"/><path class="c" d="M1901.715,1156.913H1895.9a1.559,1.559,0,0,1-1.458-1.222l-1.122-5.816a.982.982,0,0,1,.987-1.223h5.816a1.559,1.559,0,0,1,1.458,1.223l1.122,5.816A.982.982,0,0,1,1901.715,1156.913Z" transform="translate(-1818.341 -1135.902)"/><path class="h" d="M1186.706,1156.913h-5.816a1.559,1.559,0,0,1-1.458-1.222l-1.122-5.816a.982.982,0,0,1,.987-1.223h5.816a1.559,1.559,0,0,1,1.458,1.223l1.122,5.816A.982.982,0,0,1,1186.706,1156.913Z" transform="translate(-1176.714 -1135.902)"/><path class="g" d="M1166.574,1027.967h-2.5a.67.67,0,0,1-.627-.525l-.482-2.5a.422.422,0,0,1,.424-.525h2.5a.67.67,0,0,1,.627.525l.482,2.5A.422.422,0,0,1,1166.574,1027.967Z" transform="translate(-1162.956 -1024.417)"/><path class="h" d="M1329.708,1156.913h-5.816a1.559,1.559,0,0,1-1.458-1.222l-1.122-5.816a.982.982,0,0,1,.987-1.223h5.816a1.559,1.559,0,0,1,1.458,1.223l1.122,5.816A.982.982,0,0,1,1329.708,1156.913Z" transform="translate(-1305.04 -1135.902)"/><path class="h" d="M1472.71,1156.913h-5.816a1.559,1.559,0,0,1-1.458-1.222l-1.122-5.816a.982.982,0,0,1,.987-1.223h5.816a1.559,1.559,0,0,1,1.458,1.223l1.122,5.816A.982.982,0,0,1,1472.71,1156.913Z" transform="translate(-1433.365 -1135.902)"/><path class="c" d="M2044.717,1156.913H2038.9a1.559,1.559,0,0,1-1.458-1.222l-1.122-5.816a.982.982,0,0,1,.987-1.223h5.816a1.559,1.559,0,0,1,1.458,1.223l1.122,5.816A.982.982,0,0,1,2044.717,1156.913Z" transform="translate(-1946.667 -1135.902)"/><path class="h" d="M1591.969,1033.829h-5.816a1.559,1.559,0,0,1-1.458-1.222l-1.122-5.816a.982.982,0,0,1,.987-1.223h5.816a1.559,1.559,0,0,1,1.458,1.223l1.122,5.816A.982.982,0,0,1,1591.969,1033.829Z" transform="translate(-1540.385 -1025.45)"/><path class="h" d="M1734.971,1033.829h-5.816a1.559,1.559,0,0,1-1.458-1.222l-1.122-5.816a.982.982,0,0,1,.987-1.223h5.816a1.559,1.559,0,0,1,1.458,1.223l1.122,5.816A.982.982,0,0,1,1734.971,1033.829Z" transform="translate(-1668.71 -1025.45)"/><path class="c" d="M1877.972,1033.829h-5.816a1.559,1.559,0,0,1-1.458-1.222l-1.122-5.816a.982.982,0,0,1,.987-1.223h5.816a1.559,1.559,0,0,1,1.458,1.223l1.122,5.816A.982.982,0,0,1,1877.972,1033.829Z" transform="translate(-1797.035 -1025.45)"/><path class="c" d="M2020.974,1033.829h-5.816a1.559,1.559,0,0,1-1.458-1.222l-1.122-5.816a.982.982,0,0,1,.987-1.223h5.816a1.559,1.559,0,0,1,1.458,1.223l1.122,5.816A.982.982,0,0,1,2020.974,1033.829Z" transform="translate(-1925.36 -1025.45)"/><path class="h" d="M1640.876,1287.367h-5.816a1.559,1.559,0,0,1-1.458-1.223l-1.122-5.816a.982.982,0,0,1,.987-1.223h5.816a1.559,1.559,0,0,1,1.458,1.223l1.122,5.816A.982.982,0,0,1,1640.876,1287.367Z" transform="translate(-1584.272 -1252.967)"/><path class="h" d="M1783.877,1287.367h-5.816a1.559,1.559,0,0,1-1.458-1.223l-1.122-5.816a.982.982,0,0,1,.987-1.223h5.816a1.559,1.559,0,0,1,1.458,1.223l1.122,5.816A.982.982,0,0,1,1783.877,1287.367Z" transform="translate(-1712.597 -1252.967)"/><path class="c" d="M1926.879,1287.367h-5.816a1.559,1.559,0,0,1-1.458-1.223l-1.122-5.816a.982.982,0,0,1,.987-1.223h5.816a1.559,1.559,0,0,1,1.458,1.223l1.122,5.816A.982.982,0,0,1,1926.879,1287.367Z" transform="translate(-1840.923 -1252.967)"/><path class="h" d="M1211.87,1287.367h-5.816a1.559,1.559,0,0,1-1.458-1.223l-1.122-5.816a.982.982,0,0,1,.987-1.223h5.816a1.559,1.559,0,0,1,1.458,1.223l1.122,5.816A.982.982,0,0,1,1211.87,1287.367Z" transform="translate(-1199.295 -1252.967)"/><path class="h" d="M1354.872,1287.367h-5.816a1.559,1.559,0,0,1-1.458-1.223l-1.122-5.816a.982.982,0,0,1,.987-1.223h5.816a1.559,1.559,0,0,1,1.458,1.223l1.122,5.816A.982.982,0,0,1,1354.872,1287.367Z" transform="translate(-1327.621 -1252.967)"/><path class="h" d="M1497.874,1287.367h-5.816a1.559,1.559,0,0,1-1.458-1.223l-1.122-5.816a.982.982,0,0,1,.987-1.223h5.816a1.559,1.559,0,0,1,1.458,1.223l1.122,5.816A.982.982,0,0,1,1497.874,1287.367Z" transform="translate(-1455.947 -1252.967)"/><path class="c" d="M2069.881,1287.367h-5.816a1.559,1.559,0,0,1-1.458-1.223l-1.122-5.816a.982.982,0,0,1,.986-1.223h5.816a1.56,1.56,0,0,1,1.458,1.223l1.122,5.816A.982.982,0,0,1,2069.881,1287.367Z" transform="translate(-1969.248 -1252.967)"/><path class="h" d="M1666.04,1417.822h-5.816a1.559,1.559,0,0,1-1.458-1.223l-1.122-5.816a.982.982,0,0,1,.987-1.223h5.816a1.559,1.559,0,0,1,1.458,1.223l1.122,5.816A.983.983,0,0,1,1666.04,1417.822Z" transform="translate(-1606.854 -1370.034)"/><path class="h" d="M1809.042,1417.822h-5.816a1.559,1.559,0,0,1-1.458-1.223l-1.122-5.816a.982.982,0,0,1,.987-1.223h5.816a1.559,1.559,0,0,1,1.458,1.223l1.122,5.816A.982.982,0,0,1,1809.042,1417.822Z" transform="translate(-1735.179 -1370.034)"/><path class="c" d="M1952.043,1417.822h-5.816a1.559,1.559,0,0,1-1.458-1.223l-1.122-5.816a.982.982,0,0,1,.987-1.223h5.816a1.559,1.559,0,0,1,1.458,1.223l1.122,5.816A.983.983,0,0,1,1952.043,1417.822Z" transform="translate(-1863.504 -1370.034)"/><path class="h" d="M1237.035,1417.822h-5.816a1.559,1.559,0,0,1-1.458-1.223l-1.122-5.816a.982.982,0,0,1,.987-1.223h5.816a1.559,1.559,0,0,1,1.458,1.223l1.122,5.816A.982.982,0,0,1,1237.035,1417.822Z" transform="translate(-1221.877 -1370.034)"/><path class="g" d="M1380.037,1417.822h-5.816a1.56,1.56,0,0,1-1.458-1.223l-1.122-5.816a.982.982,0,0,1,.987-1.223h5.816a1.559,1.559,0,0,1,1.458,1.223l1.122,5.816A.982.982,0,0,1,1380.037,1417.822Z" transform="translate(-1350.203 -1370.034)"/><path class="h" d="M1523.038,1417.822h-5.816a1.559,1.559,0,0,1-1.458-1.223l-1.122-5.816a.982.982,0,0,1,.987-1.223h5.816a1.559,1.559,0,0,1,1.458,1.223l1.122,5.816A.983.983,0,0,1,1523.038,1417.822Z" transform="translate(-1478.528 -1370.034)"/><path class="c" d="M2095.045,1417.822h-5.816a1.559,1.559,0,0,1-1.458-1.223l-1.122-5.816a.982.982,0,0,1,.987-1.223h5.816a1.559,1.559,0,0,1,1.458,1.223l1.122,5.816A.982.982,0,0,1,2095.045,1417.822Z" transform="translate(-1991.83 -1370.034)"/><path class="h" d="M1689.782,1540.906h-5.816a1.559,1.559,0,0,1-1.458-1.222l-1.122-5.816a.983.983,0,0,1,.987-1.223h5.816a1.559,1.559,0,0,1,1.458,1.223l1.122,5.816A.982.982,0,0,1,1689.782,1540.906Z" transform="translate(-1628.159 -1480.485)"/><path class="h" d="M1832.784,1540.906h-5.816a1.559,1.559,0,0,1-1.458-1.222l-1.122-5.816a.982.982,0,0,1,.987-1.223h5.816a1.559,1.559,0,0,1,1.458,1.223l1.122,5.816A.982.982,0,0,1,1832.784,1540.906Z" transform="translate(-1756.485 -1480.485)"/><path class="c" d="M1975.786,1540.906h-5.816a1.559,1.559,0,0,1-1.458-1.222l-1.122-5.816a.982.982,0,0,1,.987-1.223h5.816a1.559,1.559,0,0,1,1.458,1.223l1.122,5.816A.982.982,0,0,1,1975.786,1540.906Z" transform="translate(-1884.81 -1480.485)"/><path class="h" d="M1260.778,1540.906h-5.816a1.559,1.559,0,0,1-1.458-1.222l-1.122-5.816a.982.982,0,0,1,.986-1.223h5.816a1.559,1.559,0,0,1,1.458,1.223l1.122,5.816A.982.982,0,0,1,1260.778,1540.906Z" transform="translate(-1243.183 -1480.485)"/><path class="h" d="M1403.779,1540.906h-5.816a1.559,1.559,0,0,1-1.458-1.222l-1.122-5.816a.982.982,0,0,1,.987-1.223h5.816a1.559,1.559,0,0,1,1.458,1.223l1.122,5.816A.982.982,0,0,1,1403.779,1540.906Z" transform="translate(-1371.509 -1480.485)"/><path class="h" d="M1546.781,1540.906h-5.816a1.559,1.559,0,0,1-1.458-1.222l-1.122-5.816a.983.983,0,0,1,.987-1.223h5.816a1.559,1.559,0,0,1,1.458,1.223l1.122,5.816A.982.982,0,0,1,1546.781,1540.906Z" transform="translate(-1499.833 -1480.485)"/><path class="h" d="M1231.634,1029.425h-15.408a.414.414,0,0,1-.413-.413h0a.414.414,0,0,1,.413-.413h15.408a.414.414,0,0,1,.413.413h0A.414.414,0,0,1,1231.634,1029.425Z" transform="translate(-1210.388 -1028.17)"/><path class="h" d="M1236.2,1047.607h-15.408a.414.414,0,0,1-.413-.413h0a.414.414,0,0,1,.413-.413H1236.2a.414.414,0,0,1,.413.413h0A.414.414,0,0,1,1236.2,1047.607Z" transform="translate(-1214.485 -1044.486)"/></g><g transform="translate(32.596 19.119)"><path class="i" d="M1155.832,887.477h-5.287a.79.79,0,0,1-.787-.787h0a.79.79,0,0,1,.787-.787h5.287a.79.79,0,0,1,.787.787h0A.79.79,0,0,1,1155.832,887.477Z" transform="translate(-1149.757 -885.902)"/><path class="i" d="M1297.2,887.477h-5.287a.79.79,0,0,1-.788-.787h0a.79.79,0,0,1,.788-.787h5.287a.79.79,0,0,1,.788.787h0A.79.79,0,0,1,1297.2,887.477Z" transform="translate(-1276.616 -885.902)"/><path class="i" d="M1438.567,887.477h-5.288a.79.79,0,0,1-.787-.787h0a.79.79,0,0,1,.787-.787h5.288a.79.79,0,0,1,.787.787h0A.79.79,0,0,1,1438.567,887.477Z" transform="translate(-1403.475 -885.902)"/><path class="i" d="M1579.934,887.477h-5.287a.79.79,0,0,1-.788-.787h0a.79.79,0,0,1,.788-.787h5.287a.79.79,0,0,1,.787.787h0A.79.79,0,0,1,1579.934,887.477Z" transform="translate(-1530.333 -885.902)"/><path class="i" d="M1721.3,887.477h-5.287a.79.79,0,0,1-.787-.787h0a.79.79,0,0,1,.787-.787h5.287a.79.79,0,0,1,.787.787h0A.79.79,0,0,1,1721.3,887.477Z" transform="translate(-1657.193 -885.902)"/><path class="i" d="M1862.67,887.477h-5.287a.79.79,0,0,1-.787-.787h0a.79.79,0,0,1,.787-.787h5.287a.79.79,0,0,1,.788.787h0A.79.79,0,0,1,1862.67,887.477Z" transform="translate(-1784.052 -885.902)"/><path class="i" d="M2004.038,887.477h-5.287a.79.79,0,0,1-.788-.787h0a.79.79,0,0,1,.788-.787h5.287a.79.79,0,0,1,.788.787h0A.79.79,0,0,1,2004.038,887.477Z" transform="translate(-1910.911 -885.902)"/></g><g transform="translate(89.406 31.481)"><path class="j" d="M1706.326,1017.246a2.754,2.754,0,0,1-2.481-1.09c-.889-1.379-.2-3.312,2.038-5.746a28.4,28.4,0,0,1,3.568-3.2.169.169,0,1,1,.2.272c-.074.055-7.443,5.51-5.522,8.491.609.944,1.911,1.007,2.9.893a15.842,15.842,0,0,0,6.367-2.63c2.237-1.486,3.813-3.16,4.324-4.594.335-.941.232-1.607-.308-1.98-.7-.482-2.153-.483-3.9,0a12.293,12.293,0,0,0-4.382,2.167.169.169,0,0,1-.218-.258,12.654,12.654,0,0,1,4.51-2.235c1.865-.515,3.387-.5,4.177.049.468.324.923,1,.434,2.371-.535,1.5-2.158,3.237-4.455,4.762a16.187,16.187,0,0,1-6.515,2.684A6.458,6.458,0,0,1,1706.326,1017.246Z" transform="translate(-1703.468 -1006.961)"/></g><g transform="translate(108.914 13.524)"><path class="k" d="M1990.514,974.232l-.6-1.132s.3-2.018-2.231-3.294a1.234,1.234,0,0,0-1.446.377c-.48.694.916.569.841,1.756a2.184,2.184,0,0,0,1.273,2.271l.649.751Z" transform="translate(-1976.686 -955.507)"/><path class="l" d="M2031.445,983.965a20.029,20.029,0,0,1-14.12,14.139c-3.73,1.087-12.2-11.193-12.2-11.193s.3-1.132,2.164-.872c0,0,8.251,5.462,9.29,6.056.922.527,6.983-6.768,9.746-7.945A7.052,7.052,0,0,1,2031.445,983.965Z" transform="translate(-1993.722 -967.963)"/><g transform="translate(0 13.353)"><rect class="j" width="2.629" height="13.227" transform="translate(3.263 5.13) rotate(-100.493)"/><path class="k" d="M1894.051,987.373l3.263.733-.479-2.586Z" transform="translate(-1894.051 -982.976)"/><path class="k" d="M2049.577,961.443l.151.817a.926.926,0,0,1-.742,1.079l-.6.111-.479-2.586.654-.121A.872.872,0,0,1,2049.577,961.443Z" transform="translate(-2032.116 -960.729)"/></g><g transform="translate(25.09 39.792)"><path class="l" d="M2353.654,1634.551s1.482,1.353,1.193,2.314-1.627,1.6-1.807,2.777-.9,1.815-1.555,1.815h-3.1s-.479-.826.678-1.076,1.593-1.63,1.521-2.911a22.557,22.557,0,0,1,.108-2.99l2.458-.57Z" transform="translate(-2326.755 -1591.677)"/><path class="l" d="M2147.23,1663.827s.266,3.078-.385,3.4l-8.328-.017s0-.961,1.338-1.175,3.688-1,4.085-2.741S2147.23,1663.827,2147.23,1663.827Z" transform="translate(-2138.517 -1617.455)"/><path class="g" d="M2154.9,1243.97s.439,5.4.956,11.883c.7,8.812,1.546,19.636,1.629,21.687.145,3.561.724,9.256.724,9.256a4.6,4.6,0,0,0,4.121.783,91.9,91.9,0,0,0,3.149-16.733c.011-.141.022-.283.033-.425.651-8.757,1.663-27.2,1.663-27.2Z" transform="translate(-2153.22 -1241.086)"/><path class="b" d="M2154.9,1243.97s.439,5.4.956,11.883l9.623,14.992c.011-.141.022-.283.033-.425.651-8.757,1.663-27.2,1.663-27.2Z" transform="translate(-2153.22 -1241.086)"/><path class="g" d="M2174.449,1225.934s7.918,19.544,13.124,28.729,6.833,11.748,6.833,11.748,2.983-1.175,3.254-1.976c0,0-1.991-17.731-5.477-22.054-1.97-2.442-4.284-9.772-4.393-12.335s-.705-7.636-.705-7.636Z" transform="translate(-2170.761 -1222.41)"/></g><path class="k" d="M2202.107,906.522s-5.357,2.585-8.446,1.626a7.287,7.287,0,0,1,2.091-1.673c-.107-.62-.19-1.158-.238-1.614a14.917,14.917,0,0,1-.131-1.649l2.067-1.626,1.96-1.556A7.9,7.9,0,0,0,2202.107,906.522Z" transform="translate(-2162.912 -892.906)"/><path class="m" d="M2150.67,982.581a.483.483,0,0,0,.322.128c1.164-.024,4.549.619,7.411.327a21.9,21.9,0,0,0,6.854-1.94c.309-.141,1.01-.515,1-.842-.012-.374-.047-.9-.094-1.58-.1-1.336-.231-3.233-.274-5.483-.032-1.668-.014-3.529.107-5.5.007-.132.014-.266.02-.4.035-.723.052-1.451.052-2.162a37.577,37.577,0,0,0-.486-6.432c-.583-3.392-1.676-6.047-3.291-7.229-.215-.164-1.545.479-2.78,1.076a5.136,5.136,0,0,1-3.325.4l-1.069.935a10.559,10.559,0,0,0-3.35,5.263,58.509,58.509,0,0,0-1,9.755c-.082,1.778-.142,3.555-.166,5.251v.058c-.013.175-.013.352-.013.528C2150.529,979.072,2150.587,982.523,2150.67,982.581Z" transform="translate(-2124.237 -939.042)"/><path class="n" d="M2214.506,915.305a7.1,7.1,0,0,1-3.932,3.158,14.89,14.89,0,0,1-.131-1.649l2.067-1.626Z" transform="translate(-2177.972 -906.509)"/><path class="k" d="M2192.542,857.54s5.111.836,5.591-2.306,1.462-5.15-1.78-5.817-4.061.438-4.48,1.449S2191.225,857.242,2192.542,857.54Z" transform="translate(-2161.013 -847.307)"/><path class="o" d="M2185.548,832.354c.047-.053.154-.1.392-.109a.968.968,0,0,0-.445-.125,1.2,1.2,0,0,0-.8-1.06.715.715,0,0,1,.346.515c-.66-.678-2.074-1.171-5.991-.862-5.162.407-3.46,3.712-2.792,4.106s2.35-.686,3.6-.587,1.482,1.9,1.9,2.145.256-.19.828-.448.626.689.461,1.3.62,1.428.62,1.428l.794-.855c.793-.855,1.541-4.474,1.181-5.246Z" transform="translate(-2146.571 -830.618)"/><path class="k" d="M2009.04,984.158s.176-.694-.306-1.007-.925-1.161-1.128-1.046c-.421.238.23.979.111,1.9C2007.675,984.332,2008.429,985.18,2009.04,984.158Z" transform="translate(-1995.823 -966.623)"/><path class="l" d="M2272.5,1071.446c-.032-1.668-.014-3.529.107-5.5.007-.132.014-.266.02-.4-.486-2.407-1.221-4.542-2.3-4.612C2270.323,1060.935,2267.1,1066,2272.5,1071.446Z" transform="translate(-2230.85 -1037.422)"/><path class="k" d="M2312.634,1243.758a16.224,16.224,0,0,1-.563,3.105,11.121,11.121,0,0,1-2.084,2.382c-.534.31.326-2.08.218-2.545s-.44.849-.675.88-.175-1.151-.184-1.582,1.146-1.492,1.553-2.408S2312.634,1243.758,2312.634,1243.758Z" transform="translate(-2266.722 -1201.087)"/><path class="m" d="M2243.381,951.442a13.5,13.5,0,0,1,4.784,3.885c2.405,3.651,5.193,16.959,5.244,18.191s-2.035,9.932-2.035,9.932-2.115-.139-2.662-1.207c0,0,.423-8.939.155-9.514s-8.821-11.991-7.859-14.427S2243.381,951.442,2243.381,951.442Z" transform="translate(-2205.333 -939.042)"/><path class="j" d="M1895.723,992.732l.171,1.526-1.843-.414Z" transform="translate(-1894.051 -976.173)"/></g></g></svg>