<svg xmlns="http://www.w3.org/2000/svg" xmlns:xlink="http://www.w3.org/1999/xlink" width="150" height="158.922" viewBox="0 0 150 158.922"><defs><style>.a{fill:rgba(34,174,228,0.25);}.b{fill:#f1bc95;}.c{fill:#1e1a19;}.d{fill:#282c30;}.e{fill:#4a4c4f;}.f{fill:url(#a);}.g{fill:#b8c2b7;}.h{fill:url(#b);}.i{fill:url(#c);}.j{fill:#4c5f63;}.k{fill:#91a8a8;}.l{fill:#aec4c4;}.m{fill:url(#d);}.n{fill:#424852;}.o{fill:#d7d9db;}.p{fill:url(#e);}.q{fill:#909395;}.r{fill:url(#f);}.s{fill:#d9dbdd;}.t{fill:#9c9a93;}.am,.av,.be,.t{mix-blend-mode:multiply;isolation:isolate;}.u{fill:#c48114;}.v{fill:#dda012;}.w{fill:url(#g);}.x{fill:url(#h);}.y{fill:url(#i);}.z{fill:#954a00;}.aa{fill:url(#j);}.ab{fill:url(#k);}.ac{fill:url(#l);}.ad{fill:#e5c385;}.ae{fill:#dc9300;}.af{fill:#bf6f00;}.ag{fill:#ffc100;}.ah{fill:#b05e00;}.ai{fill:#cd8200;}.aj{fill:#dbe2db;}.ak{fill:#ebefeb;}.al{fill:#f1f5f1;}.am{fill:#cfccc8;}.an{fill:url(#m);}.ao{fill:url(#n);}.ap{fill:url(#o);}.aq{fill:#33363b;}.ar{fill:#5e2908;}.as{fill:#edc6ab;}.at{fill:#007a96;}.au{fill:#1093c7;}.av{fill:#1a93b0;}.aw{fill:#fbba8d;}.ax{fill:#fbc199;}.ay{fill:#f8cfb3;}.az{fill:#8f4e25;}.ba{fill:#87471f;}.bb{fill:#a36239;}.bc{fill:#fbbf56;}.bd{fill:#e0a67e;}.be{fill:#1ea7c7;}</style><linearGradient id="a" x1="-81.261" y1="138.957" x2="-80.231" y2="138.957" gradientUnits="objectBoundingBox"><stop offset="0" stop-color="#aab0ac"/><stop offset="0.213" stop-color="#abb2b0"/><stop offset="0.389" stop-color="#afb7ba"/><stop offset="0.395" stop-color="#c3cdc6"/><stop offset="0.396" stop-color="#cad4ca"/><stop offset="0.622" stop-color="#c9d4d3"/><stop offset="0.629" stop-color="#e1e6e1"/><stop offset="0.763" stop-color="#e6eae6"/><stop offset="0.939" stop-color="#f7f8f7"/><stop offset="1" stop-color="#fff"/></linearGradient><linearGradient id="b" x1="-8.882" y1="27.451" x2="-8.809" y2="27.451" gradientUnits="objectBoundingBox"><stop offset="0" stop-color="#f2fff2"/><stop offset="0.073" stop-color="#e9f5e8"/><stop offset="0.243" stop-color="#d9e4d8"/><stop offset="0.371" stop-color="#d4dfd3"/><stop offset="0.378" stop-color="#c1cbc0"/><stop offset="0.604" stop-color="#bcc6bc"/><stop offset="0.604" stop-color="#bac4ba"/><stop offset="0.611" stop-color="#a5aea5"/><stop offset="0.756" stop-color="#9fa79e"/><stop offset="1" stop-color="#9ba39a"/></linearGradient><linearGradient id="c" x1="-70.894" y1="122.782" x2="-69.864" y2="122.782" xlink:href="#a"/><linearGradient id="d" x1="20.227" y1="-3612.391" x2="19.679" y2="-3613.292" gradientUnits="objectBoundingBox"><stop offset="0.126" stop-color="#68737b"/><stop offset="0.127" stop-color="#6c7880"/><stop offset="0.438" stop-color="#6c7880"/><stop offset="0.441" stop-color="#50585e"/><stop offset="0.837" stop-color="#50585e"/><stop offset="0.839" stop-color="#3b4145"/></linearGradient><linearGradient id="e" x1="32.223" y1="-5245.312" x2="31.565" y2="-5246.299" gradientUnits="objectBoundingBox"><stop offset="0.161" stop-color="#797b7d"/><stop offset="0.163" stop-color="#919496"/><stop offset="0.559" stop-color="#919496"/><stop offset="0.562" stop-color="#b1b5b8"/><stop offset="0.873" stop-color="#b1b5b8"/><stop offset="0.874" stop-color="#acb0b3"/></linearGradient><linearGradient id="f" x1="44.425" y1="-7064.675" x2="43.78" y2="-7065.605" gradientUnits="objectBoundingBox"><stop offset="0.126" stop-color="#acb0b3"/><stop offset="0.127" stop-color="#b1b5b8"/><stop offset="0.438" stop-color="#b1b5b8"/><stop offset="0.441" stop-color="#919496"/><stop offset="0.837" stop-color="#919496"/><stop offset="0.839" stop-color="#797b7d"/></linearGradient><linearGradient id="g" x1="10.574" y1="-3605.796" x2="10.025" y2="-3606.697" xlink:href="#d"/><linearGradient id="h" x1="16.884" y1="-5235.361" x2="16.226" y2="-5236.349" xlink:href="#e"/><linearGradient id="i" x1="22.945" y1="-7049.345" x2="22.3" y2="-7050.275" xlink:href="#f"/><linearGradient id="j" x1="26.191" y1="-3608.1" x2="25.643" y2="-3609.001" xlink:href="#d"/><linearGradient id="k" x1="41.699" y1="-5238.794" x2="41.041" y2="-5239.782" xlink:href="#e"/><linearGradient id="l" x1="57.694" y1="-7053.968" x2="57.049" y2="-7054.898" xlink:href="#f"/><linearGradient id="m" x1="-126.672" y1="138.92" x2="-125.643" y2="138.92" xlink:href="#a"/><linearGradient id="n" x1="-8.878" y1="27.441" x2="-8.805" y2="27.441" xlink:href="#b"/><linearGradient id="o" x1="-116.38" y1="122.72" x2="-115.35" y2="122.72" xlink:href="#a"/></defs><g transform="translate(-1029 -3245)"><circle class="a" cx="75" cy="75" r="75" transform="translate(1029 3249)"/><g transform="translate(761.134 3218.902)"><g transform="translate(279.462 79.855)"><path class="b" d="M286.218,78.87a2.354,2.354,0,0,0-1.991.761,2.766,2.766,0,0,0-.275,1.862l.193,2.208a7.876,7.876,0,0,1-.117,1.854,4.717,4.717,0,0,0,.833,2.508,7.973,7.973,0,0,0,2.873,2.475,10.125,10.125,0,0,1,1.023.839,2.972,2.972,0,0,0,1.165.666,1.4,1.4,0,0,0,1.286-.256,1.375,1.375,0,0,0,.127-1.425,11.13,11.13,0,0,0-.588-1.489,7.639,7.639,0,0,1-.578-1.1,9.459,9.459,0,0,1-.279-2.5,5.866,5.866,0,0,0-.322-2.036,12.66,12.66,0,0,1-.349-1.977,2.927,2.927,0,0,0-.843-1.782A3.5,3.5,0,0,0,286.218,78.87Z" transform="translate(-273.704 -29.624)"/><path class="c" d="M294.6,91.566a6.452,6.452,0,0,0-.769-1.971c-.394-.662-.978-1.23-1.366-1.9-.416-.709-.914-1.382-1.275-2.112l-.019-.039a10.442,10.442,0,0,1-.539-1.128,6.236,6.236,0,0,1-.318-.759,5.2,5.2,0,0,0,.158.824c.111.441.256.9.4,1.319.224.629.509,1.312.019,1.893-1.052,1.247-3.123-.574-3.872-1.278a12.855,12.855,0,0,1-1.831-2.01,5.265,5.265,0,0,1-.6-1.124,3.293,3.293,0,0,1-.121-1.3.074.074,0,0,0-.012-.055c-.022-.023-.061-.012-.088,0a2.151,2.151,0,0,0-.669,1.251c-.047.24-.078.484-.123.726a6.544,6.544,0,0,0-.055,1.669c.053.712.045,1.417.035,2.133a1.4,1.4,0,0,0,.033.67,2.081,2.081,0,0,0,.619.554c.4.269.345-.564.381-.8a4.928,4.928,0,0,1,.16-.712.7.7,0,0,1,.254.328,7.256,7.256,0,0,0,.9,2.153,12.3,12.3,0,0,0,3.677,2.783,15.572,15.572,0,0,0,2.262.935,4.5,4.5,0,0,0,2.274.34c.779-.2.652-1.269.582-1.8C294.68,91.962,294.647,91.763,294.6,91.566Z" transform="translate(-274.097 -26.719)"/><path class="d" d="M298.2,63.644c-.111.771-.258,1.536-.414,2.3-.322,1.579-.683,3.15-1.066,4.716-.867,3.543-1.005,7.259-1.964,10.827-.843,3.129-2.637,6.238-2.863,9.469-.2,2.789-1.331,11.067-1.384,12.41-.041,1.091-.3,2.167-.267,3.271a3.632,3.632,0,0,1-.328,2.268,2.176,2.176,0,0,1-1.78.767,3.86,3.86,0,0,1-2.491-.9,5.325,5.325,0,0,1-1.587-3.916c-.047-1.271-.187-2.575-.139-3.843a59.877,59.877,0,0,0-.217-11.975c-.736-4.528,4.372-27.38,4.372-27.38l9.984-5.922A23.08,23.08,0,0,1,298.2,63.644Z" transform="translate(-273.979 -51.643)"/><path class="b" d="M285.9,90.5a7.517,7.517,0,0,1-.578-1.1,7.232,7.232,0,0,1-.258-1.6c-.016-.265-.021-.531-.021-.8a2.508,2.508,0,0,0-.006-.736c-.06-.16-.236-.318-.312-.486s-.144-.375-.211-.564a2.306,2.306,0,0,0-.543-1c-.141-.129-.31-.223-.461-.34-.539-.426-.783-1.136-1.292-1.6a9.26,9.26,0,0,0-.867-.6,2.8,2.8,0,0,0-.7-.443.627.627,0,0,0-.742.2,1.016,1.016,0,0,0-.041.63,6.8,6.8,0,0,1,.018,1.036,17.145,17.145,0,0,1-.33,3.332,3.6,3.6,0,0,0-.207,1.7,6.8,6.8,0,0,0,.666,1.55,8.01,8.01,0,0,0,2.873,2.475,10.082,10.082,0,0,1,1.023.839,6.442,6.442,0,0,0,1.921.843c.457.086.23-.133.531-.433a1.375,1.375,0,0,0,.127-1.425A11.164,11.164,0,0,0,285.9,90.5Z" transform="translate(-278.103 -27.406)"/><path class="c" d="M289.13,92.3a41.578,41.578,0,0,0-2.354-5.1l-.021-.039a10.193,10.193,0,0,1-.605-1.1,5.849,5.849,0,0,1-.363-.738,5.322,5.322,0,0,0,.207.812c.137.435.308.884.482,1.294.26.613.586,1.279.131,1.889-.978,1.308-3.152-.388-3.941-1.048a8.086,8.086,0,0,1-2.746-3.342,2.266,2.266,0,0,0-.133-.5c-.029-.039-.279,0-.392.23a5.091,5.091,0,0,0-.4,2.686c.094.837.256,1.579.295,2.422.016.349.047,1.9.057,1.905a1.941,1.941,0,0,1,.8.207c.014-.008.035,0,.047-.014s.029-.232.045-.338a14.879,14.879,0,0,1,.226-2.122.7.7,0,0,1,.269.312,10.61,10.61,0,0,1,.677,1.788,4.962,4.962,0,0,0,1.345,2.223,9.517,9.517,0,0,0,4.195,2.6c.908.2,2.012.459,2.5-.443A5.54,5.54,0,0,0,289.13,92.3Z" transform="translate(-278.423 -24.336)"/><path class="e" d="M285.977,107.26a15.6,15.6,0,0,1,.285-2.906c1.405-6.111,3.2-12.133,4.767-18.2A58.778,58.778,0,0,0,292.6,74.481c.182-3.435.609-6.752.81-10.16.053-.878,1.241-8.975,1.772-8.971l-15.432-.094s-2.081,9.4-.433,16.636a37.593,37.593,0,0,1,.56,17.056,58.61,58.61,0,0,0-.746,8.844c-.008,1.224.031,2.448.144,3.668.1,1.056.3,2.083.486,3.125q.211,1.192.369,2.393c.129.958.023,1.983.055,2.963a3.015,3.015,0,0,0,.055.562,2.488,2.488,0,0,0,.535.974,5.956,5.956,0,0,0,2.229,1.78c.759.332,2.243.671,2.986.113.32-.24.219-.5.183-.855-.08-.791-.2-1.577-.269-2.358A22.47,22.47,0,0,1,285.977,107.26Z" transform="translate(-278.684 -52.098)"/><g transform="translate(13.48 1.621)"><g transform="translate(34.711)"><path class="f" d="M304.845,54.551l-1.294.714,1.823,2.924,1.165-.693h0l0,0h0a.854.854,0,0,0,.347-.781,2.658,2.658,0,0,0-1.2-2.083.839.839,0,0,0-.849-.08Z" transform="translate(-303.204 -54.469)"/><path class="g" d="M304.591,55a2.7,2.7,0,0,1,1.22,2.12c0,.781-.547,1.1-1.22.712a2.7,2.7,0,0,1-1.218-2.12C303.373,54.928,303.92,54.608,304.591,55Z" transform="translate(-303.373 -54.124)"/></g><path class="h" d="M321.956,57.434l-34.1,19.625-2.132-1.595,34.9-20.325,0,0,0,0h0a.667.667,0,0,1,.664.07,2.073,2.073,0,0,1,.941,1.624.65.65,0,0,1-.277.605Z" transform="translate(-285.462 -53.893)"/><g transform="translate(0 20.119)"><path class="i" d="M287.062,64.86l-1.294.714,1.823,2.922,1.165-.691,0,0h0l0,0a.849.849,0,0,0,.349-.779,2.652,2.652,0,0,0-1.2-2.083.83.83,0,0,0-.849-.08Z" transform="translate(-285.421 -64.776)"/><path class="g" d="M286.808,65.3a2.7,2.7,0,0,1,1.218,2.118c0,.783-.545,1.1-1.218.712a2.7,2.7,0,0,1-1.218-2.118C285.59,65.234,286.137,64.916,286.808,65.3Z" transform="translate(-285.59 -64.431)"/></g><g transform="translate(3.767 19.522)"><path class="j" d="M287.676,65.034l-.156,1.708,5.108,4.059V67.844Z" transform="translate(-287.52 -63.933)"/><path class="k" d="M292.122,68.868l-1.985,1.1V67.011l1.985-1.1Z" transform="translate(-285.029 -63.1)"/><path class="l" d="M294.537,67.279l-1.985,1.1L287.6,65.571l1.985-1.1Z" transform="translate(-287.444 -64.47)"/></g><g transform="translate(33.87 2.255)"><path class="j" d="M303.1,56.188l-.156,1.708,5.108,4.059V59Z" transform="translate(-302.942 -55.087)"/><path class="k" d="M307.544,60.021l-1.985,1.1V58.165l1.985-1.1Z" transform="translate(-300.451 -54.254)"/><path class="l" d="M309.959,58.433l-1.985,1.1-4.952-2.809,1.985-1.1Z" transform="translate(-302.866 -55.624)"/></g></g><g transform="translate(18.263)"><g transform="translate(59.084 96.21)"><path class="m" d="M326.8,108.838a1.938,1.938,0,0,1-.746,1.7c-.627.42-1.968,1.146-1.968,1.146-1.884-1.087-5.586-4.866-5.586-6.752,0-.82,1.765-1.439,2.247-1.749a2.564,2.564,0,0,1,2.641.273A7.073,7.073,0,0,1,326.8,108.838Z" transform="translate(-318.13 -102.928)"/><path class="n" d="M325.134,109.389c0,1.884-1.528,2.53-3.412,1.442a7.073,7.073,0,0,1-3.412-5.381c0-1.884,1.526-2.53,3.412-1.442A7.078,7.078,0,0,1,325.134,109.389Z" transform="translate(-318.31 -102.404)"/><path class="o" d="M324.38,108.861c0,1.608-1.3,2.159-2.91,1.23a6.031,6.031,0,0,1-2.91-4.589c0-1.608,1.3-2.159,2.91-1.232A6.042,6.042,0,0,1,324.38,108.861Z" transform="translate(-318.073 -102.079)"/><path class="p" d="M318.712,105.506a5.422,5.422,0,0,0,2.612,4.121c1.439.828,2.612.334,2.612-1.1a2.608,2.608,0,0,0-.045-.488,5.646,5.646,0,0,0-2.567-3.631,3.335,3.335,0,0,0-.308-.16C319.717,103.644,318.712,104.167,318.712,105.506Z" transform="translate(-317.927 -101.911)"/><path class="q" d="M319.232,104.785a5.405,5.405,0,0,0,2.612,4.115,2.413,2.413,0,0,0,1.446.383,1.758,1.758,0,0,0,.15-.757,3.119,3.119,0,0,0-.043-.49,5.632,5.632,0,0,0-2.569-3.633,3.3,3.3,0,0,0-.306-.158,2.348,2.348,0,0,0-1.14-.242A1.88,1.88,0,0,0,319.232,104.785Z" transform="translate(-317.432 -101.91)"/><path class="r" d="M319.454,104.95a5.862,5.862,0,0,0,2.428,3.654l.014.01.045-.014a.438.438,0,0,0,.141-.045.472.472,0,0,0,.055-.02,6.946,6.946,0,0,0,.984-.441.777.777,0,0,0,.064-.193,3.817,3.817,0,0,0-.145-.6,5.872,5.872,0,0,0-2.051-2.791,4.323,4.323,0,0,0-.371-.244c-.09-.051-.174-.1-.26-.135a6.635,6.635,0,0,0-.789.689l0,0Z" transform="translate(-317.221 -101.779)"/><path class="s" d="M319.326,105.4a3.537,3.537,0,0,0,1.7,2.688c.939.541,1.7.217,1.7-.72a1.8,1.8,0,0,0-.029-.32,3.686,3.686,0,0,0-1.675-2.368c-.068-.039-.137-.076-.2-.105C319.982,104.186,319.326,104.527,319.326,105.4Z" transform="translate(-317.343 -101.512)"/><path class="t" d="M321.54,104.433v4.327l-.76.11-.76-5.778Z" transform="translate(-316.682 -102.773)"/><g transform="translate(2.494 0.425)"><path class="u" d="M321.268,104.488v4.327l-.315.167-1.2-5.836Z" transform="translate(-319.434 -103.146)"/><path class="v" d="M321.107,104.574V108.9l-1.519-.971v-4.7Z" transform="translate(-319.588 -103.065)"/></g></g><g transform="translate(11.602 68.817)"><path class="w" d="M302.474,94.805a1.935,1.935,0,0,1-.748,1.7c-.625.422-1.968,1.148-1.968,1.148-1.884-1.089-5.584-4.868-5.584-6.752,0-.82,1.764-1.439,2.247-1.749a2.56,2.56,0,0,1,2.641.273A7.075,7.075,0,0,1,302.474,94.805Z" transform="translate(-293.803 -88.895)"/><path class="n" d="M300.808,95.357c0,1.884-1.528,2.53-3.412,1.442a7.081,7.081,0,0,1-3.412-5.381c0-1.886,1.528-2.532,3.412-1.442A7.075,7.075,0,0,1,300.808,95.357Z" transform="translate(-293.984 -88.37)"/><path class="o" d="M300.054,94.829c0,1.606-1.3,2.157-2.91,1.23a6.036,6.036,0,0,1-2.91-4.591c0-1.606,1.3-2.157,2.91-1.23A6.031,6.031,0,0,1,300.054,94.829Z" transform="translate(-293.747 -88.045)"/><path class="x" d="M294.387,91.474A5.411,5.411,0,0,0,297,95.592c1.437.83,2.612.336,2.612-1.1a2.828,2.828,0,0,0-.045-.49A5.656,5.656,0,0,0,297,90.369c-.105-.059-.211-.115-.31-.16C295.39,89.61,294.387,90.135,294.387,91.474Z" transform="translate(-293.6 -87.878)"/><path class="q" d="M294.907,90.75a5.4,5.4,0,0,0,2.61,4.117,2.444,2.444,0,0,0,1.446.383,1.736,1.736,0,0,0,.15-.757,3.116,3.116,0,0,0-.041-.49,5.643,5.643,0,0,0-2.569-3.634c-.109-.059-.209-.115-.308-.158a2.341,2.341,0,0,0-1.14-.24A1.876,1.876,0,0,0,294.907,90.75Z" transform="translate(-293.105 -87.877)"/><path class="y" d="M295.129,90.916a5.858,5.858,0,0,0,2.426,3.656l.016.01.045-.016a.444.444,0,0,0,.139-.045.267.267,0,0,0,.055-.02,6.505,6.505,0,0,0,.984-.439.793.793,0,0,0,.066-.2,3.763,3.763,0,0,0-.146-.593,5.85,5.85,0,0,0-2.051-2.791c-.119-.09-.244-.17-.369-.246-.09-.049-.176-.094-.26-.135a6.866,6.866,0,0,0-.791.689l0,.006C295.168,90.871,295.129,90.916,295.129,90.916Z" transform="translate(-292.894 -87.746)"/><path class="s" d="M295,91.367a3.526,3.526,0,0,0,1.7,2.688c.937.541,1.7.219,1.7-.72a1.621,1.621,0,0,0-.029-.318,3.685,3.685,0,0,0-1.673-2.37c-.07-.039-.139-.074-.2-.1C295.655,90.153,295,90.494,295,91.367Z" transform="translate(-293.016 -87.478)"/><path class="t" d="M297.214,90.4v4.327l-.76.11-.759-5.778Z" transform="translate(-292.355 -88.739)"/><g transform="translate(2.495 0.425)"><path class="u" d="M296.943,90.455v4.327l-.315.167-1.2-5.836Z" transform="translate(-295.109 -89.113)"/><path class="z" d="M296.781,90.54v4.327l-1.519-.971V89.2Z" transform="translate(-295.262 -89.031)"/></g></g><g transform="translate(88.418 79.172)"><path class="aa" d="M341.828,100.111a1.937,1.937,0,0,1-.748,1.7c-.625.42-1.968,1.148-1.968,1.148-1.884-1.089-5.584-4.868-5.584-6.752,0-.82,1.765-1.439,2.245-1.749a2.566,2.566,0,0,1,2.643.271A7.081,7.081,0,0,1,341.828,100.111Z" transform="translate(-333.157 -94.2)"/><path class="n" d="M340.162,100.662c0,1.884-1.528,2.53-3.412,1.441a7.075,7.075,0,0,1-3.412-5.381c0-1.884,1.528-2.53,3.412-1.442A7.081,7.081,0,0,1,340.162,100.662Z" transform="translate(-333.338 -93.676)"/><path class="o" d="M339.408,100.134c0,1.606-1.3,2.157-2.91,1.23a6.036,6.036,0,0,1-2.91-4.591c0-1.606,1.3-2.157,2.91-1.23A6.031,6.031,0,0,1,339.408,100.134Z" transform="translate(-333.101 -93.35)"/><path class="ab" d="M333.741,96.779a5.411,5.411,0,0,0,2.612,4.119c1.437.83,2.612.336,2.612-1.1a2.834,2.834,0,0,0-.045-.49,5.651,5.651,0,0,0-2.567-3.631c-.105-.059-.211-.115-.31-.16C334.744,94.915,333.741,95.44,333.741,96.779Z" transform="translate(-332.954 -93.183)"/><path class="q" d="M334.261,96.055a5.4,5.4,0,0,0,2.61,4.117,2.427,2.427,0,0,0,1.446.381,1.748,1.748,0,0,0,.15-.755,3.352,3.352,0,0,0-.041-.49,5.646,5.646,0,0,0-2.571-3.634c-.107-.059-.207-.115-.307-.158a2.34,2.34,0,0,0-1.14-.24A1.871,1.871,0,0,0,334.261,96.055Z" transform="translate(-332.459 -93.182)"/><path class="ac" d="M334.483,96.221a5.858,5.858,0,0,0,2.426,3.656l.016.01.045-.016a.443.443,0,0,0,.139-.045.266.266,0,0,0,.055-.02,6.708,6.708,0,0,0,.984-.439.8.8,0,0,0,.066-.2,3.77,3.77,0,0,0-.146-.593,5.862,5.862,0,0,0-2.051-2.791c-.119-.09-.244-.17-.369-.246-.09-.049-.176-.094-.26-.135a6.873,6.873,0,0,0-.791.689l0,.006C334.522,96.176,334.483,96.221,334.483,96.221Z" transform="translate(-332.248 -93.051)"/><path class="s" d="M334.354,96.672a3.537,3.537,0,0,0,1.7,2.688c.939.541,1.7.219,1.7-.72a1.786,1.786,0,0,0-.029-.318,3.68,3.68,0,0,0-1.675-2.37c-.068-.039-.137-.074-.2-.1C335.01,95.456,334.354,95.8,334.354,96.672Z" transform="translate(-332.371 -92.784)"/><path class="t" d="M336.568,95.7v4.327l-.76.11-.76-5.778Z" transform="translate(-331.709 -94.044)"/><g transform="translate(2.495 0.426)"><path class="u" d="M336.3,95.76v4.327l-.315.167-1.2-5.835Z" transform="translate(-334.463 -94.418)"/><path class="v" d="M336.135,95.845v4.327l-1.519-.971V94.5Z" transform="translate(-334.616 -94.337)"/></g></g><path class="ad" d="M325.233,102.865l-2.937-1.7-3.388,1.956,2.937,1.7Z" transform="translate(-258.657 -8.397)"/><path class="ae" d="M323.8,102.036v3.222l-3.389,1.956v-3.221Z" transform="translate(-257.225 -7.568)"/><path class="af" d="M321.844,103.867l-2.937-1.7v3.222l2.937,1.7Z" transform="translate(-258.657 -7.443)"/><path class="ad" d="M340.047,94.312l-2.937-1.7-3.389,1.956,2.937,1.7Z" transform="translate(-244.556 -16.538)"/><path class="ae" d="M338.614,93.483V96.7l-3.388,1.956V95.44Z" transform="translate(-243.123 -15.71)"/><path class="af" d="M336.658,95.314l-2.937-1.7v3.221l2.937,1.7Z" transform="translate(-244.556 -15.584)"/><path class="ad" d="M301.026,88.9l-2.937-1.7L294.7,89.155l2.937,1.7Z" transform="translate(-281.701 -21.692)"/><path class="z" d="M299.593,88.069v3.222L296.2,93.247V90.026Z" transform="translate(-280.268 -20.863)"/><path class="af" d="M297.637,89.9,294.7,88.2v3.221l2.937,1.7Z" transform="translate(-281.701 -20.738)"/><path class="ag" d="M395.7,91.435l-42.159,24.34-65.5-37.8L330.2,53.639Z" transform="translate(-288.04 -53.639)"/><path class="af" d="M389.53,90.268l-38.013,21.953-21.725-12.54L290.163,76.807l38.013-21.943Z" transform="translate(-286.02 -52.472)"/><path class="af" d="M353.537,103.9l-2.31,34.288L301.04,109.231l-13-43.123Z" transform="translate(-288.04 -41.768)"/><path class="ah" d="M301.084,105.7,289.829,68.366,349.682,102.9l-2,29.685Z" transform="translate(-286.338 -39.619)"/><path class="ae" d="M329.792,99.681,290.163,76.807l38.013-21.943Z" transform="translate(-286.02 -52.472)"/><path class="ae" d="M364.88,73,352.716,112.98l-32.3,18.651,2.31-34.288Z" transform="translate(-257.225 -35.206)"/><path class="ai" d="M323.579,96.43l36.658-21.165-10.4,34.176-28.234,16.3Z" transform="translate(-256.09 -33.052)"/><path class="ag" d="M302.421,104.879,290.23,68.6l-.4-.232L301.084,105.7l46.6,26.89.1-1.532Z" transform="translate(-286.338 -39.619)"/><path class="ag" d="M359.764,75.538l-10.942,33.213-27.128,15.663-.09,1.328,28.234-16.3,10.4-34.176Z" transform="translate(-256.09 -33.052)"/><path class="ae" d="M302.421,104.879l-1.338.82L289.829,68.366l.4.232Z" transform="translate(-286.338 -39.619)"/><path class="af" d="M335.549,108.751l1.016.69,10.4-34.176-.473.273Z" transform="translate(-242.816 -33.052)"/><path class="ae" d="M328.762,112.47l2.559-1.477,3.6-30.256-3.48,2.009Z" transform="translate(-249.276 -27.843)"/><path class="af" d="M328.192,110.847l1.112.644,2.682-29.724-.353.2Z" transform="translate(-249.819 -26.863)"/><path class="af" d="M317.977,115.131l-2.559-1.477L309.08,79.483l3.479,2.009Z" transform="translate(-268.012 -29.037)"/><path class="ae" d="M317.393,113.507l-1.112.644-5.418-33.639.353.2Z" transform="translate(-266.315 -28.057)"/><path class="af" d="M307.771,109.247l-2.559-1.477L298.874,73.6l3.48,2.009Z" transform="translate(-277.727 -34.638)"/><path class="ae" d="M307.187,107.624l-1.112.644-5.418-33.639.353.2Z" transform="translate(-276.03 -33.658)"/><path class="aj" d="M371.94,91.248l-.094.062-2.456,1.419-10.55,6.088-12.365,7.134-.01.012-2.362-1.368-8.9-5.136-7.663-4.421-2.8-1.616-6.679-3.851-6.151-3.552-3.718-2.143-5.54-3.2-7.185-4.154c.113-.123.238-.238.361-.351a10.687,10.687,0,0,1,3.552-1.886c.59-.207,1.181-.392,1.761-.589.361-.125.734-.248,1.1-.383a71.867,71.867,0,0,0,10.655-4.919c3.634-2.009,7.156-4.245,10.656-6.492a1.728,1.728,0,0,1,2.206-.135,59.208,59.208,0,0,1,12.592,8.46,22.343,22.343,0,0,0,2.807,2.071,55.158,55.158,0,0,0,10.22,4.681c.269.1.537.2.818.289.869.31,1.739.6,2.61.921.041.012.072.021.113.031a32.363,32.363,0,0,1,3.966,1.7c.144.084.279.156.424.238,3.459,1.936,6.275,4.847,9.03,7.7C368.946,88.484,370.6,89.85,371.94,91.248Z" transform="translate(-280.97 -46.218)"/><path class="ak" d="M328.225,71.089a71.493,71.493,0,0,0-5.668-6.164c-.656-.64-4.118-4.05-4.692-3.861-2.518.83-5.372,1.458-7.593,2.854-.96.6-5.077,4.995-5.9,4.856,5.03.849,8.561,5.239,12.324,8.321a1.57,1.57,0,0,0,.664.381,1.286,1.286,0,0,0,1.159-.6,16.342,16.342,0,0,1,4.2-3.72C323.311,72.789,327.667,70.4,328.225,71.089Z" transform="translate(-272.493 -46.578)"/><path class="ak" d="M344.174,72.194a18.1,18.1,0,0,0,2.61.921,8.4,8.4,0,0,0-6.09.861,15.7,15.7,0,0,0-3.728,2.817,30.252,30.252,0,0,0-3.976,5A17.126,17.126,0,0,1,327.44,86.6a36.405,36.405,0,0,1-4.733,2.372,19.339,19.339,0,0,1-3.189.994l-2.8-1.616L310.042,84.5l-6.151-3.552c.022,0,.031-.01.053-.01a31.109,31.109,0,0,1,4.7-.664,27.576,27.576,0,0,0,6.773-1.075c.289-.105.58-.209.869-.322,4.888-1.989,5.188-7.187,9.806-9.2a38.667,38.667,0,0,1,7.043-2.454,21.106,21.106,0,0,1,2.495-.426,3.167,3.167,0,0,1,.931,0c1.472.322,2.994,2.641,4.236,3.512A18.588,18.588,0,0,0,344.174,72.194Z" transform="translate(-272.951 -41.144)"/><path class="ak" d="M346.768,84.512,336.218,90.6a25.911,25.911,0,0,1-5.335-1.811,11.341,11.341,0,0,1-3.137-2.268c-.859-.912-1.532-1.968-2.319-2.942-.166-.207-.353-.414-.539-.611a15.045,15.045,0,0,0-5.655-3.882A31.452,31.452,0,0,1,323.5,74.2c.207-.176.4-.363.611-.539.724-.642,2.961-2.071,3.148-3a1.562,1.562,0,0,1,.1-.394c.01-.021.031-.041.041-.062a.493.493,0,0,1,.507-.113,1.628,1.628,0,0,1,.228.051c3.086.964,5.787,3.7,7.579,6.316a17.411,17.411,0,0,0,4.089,4.216,25.217,25.217,0,0,0,4.113,2.473C344.863,83.61,345.837,84.024,346.768,84.512Z" transform="translate(-258.346 -38.001)"/><path class="al" d="M331.874,75.04a.56.56,0,0,1-.2.289,11.533,11.533,0,0,0-3.447,5.768c-.6,2.422.392,4.815-.166,7.31a13.191,13.191,0,0,1-.984,2.785,21.4,21.4,0,0,1-2.071,3.408,3.209,3.209,0,0,1-.281.392l-8.9-5.136a.947.947,0,0,0,.041-.176,19.55,19.55,0,0,0,.084-4.195,21.943,21.943,0,0,1,.135-3.416A12.914,12.914,0,0,1,317.17,78.2a8.427,8.427,0,0,1,.931-1.5,47.525,47.525,0,0,1,4.722-4.628,1.63,1.63,0,0,1,.849-.539,1.719,1.719,0,0,1,.912.238l1.025.5c.912.445,1.823.88,2.735,1.325a8.767,8.767,0,0,0,2.867.994C331.511,74.614,331.936,74.749,331.874,75.04Z" transform="translate(-261.593 -36.616)"/><path class="al" d="M321.017,81.9c-.57.4-1.128.849-1.7,1.306a26.777,26.777,0,0,1-4.433,3.127l-6.15-3.552-3.718-2.143c-.051-.144-.1-.3-.145-.455-.445-1.638-.539-3.355-1.066-4.962-.736-2.237-2.92-3.748-4.743-5.145-.094-.062-.176-.135-.26-.2a19.21,19.21,0,0,1,7.851-4.774,3.95,3.95,0,0,1,1.946-.226,11.139,11.139,0,0,1,1.118.279,6.719,6.719,0,0,1,4.835,3.935c.984,2.588,1.388,4.856,2.682,7.341.146.26,1.958,3.127,3.026,4.6C320.644,81.552,320.933,81.9,321.017,81.9Z" transform="translate(-277.794 -42.983)"/><path class="al" d="M327.187,67.875c1.335.767,3.832,1.792,4.642,3.074-2.139,1.179-4.556,1.528-6.566,3.213a16.04,16.04,0,0,0-2.764,3.793c-1.817,2.822-3.775,5.661-7.011,6.961a6.276,6.276,0,0,1-3.517.482,8.608,8.608,0,0,1-2.813-1.327c-2.122-1.337-4.341-2.776-5.5-5,1.809-.388,3.41-.025,5.016-.954,1.1-.636,2.194-1.3,3.246-2.012,1.868-1.259,3.1-3.232,4.4-5.079a12.214,12.214,0,0,1,6.268-4.893C324.092,65.547,325.874,67.118,327.187,67.875Z" transform="translate(-273.176 -41.867)"/><path class="al" d="M303.209,74.565l-7.185-4.154-1.14-.652c.021-.02.041-.031.053-.041.953-.591,2.92-1.843,4.048-1.864a1.56,1.56,0,0,1,.952.32,5.805,5.805,0,0,1,1.636,2.28c.291.683.507,1.4.755,2.112a13.258,13.258,0,0,0,.6,1.47Z" transform="translate(-281.525 -40.107)"/><path class="al" d="M349.042,78.436l-2.456,1.419-10.55,6.088L323.67,93.077l-2.091-1.749c-.714-.611-1.441-1.212-2.155-1.813,1.409-.527,2.817-1.066,4.226-1.595.289-.113.59-.217.88-.33a19.5,19.5,0,0,0,5.114-2.528,10.915,10.915,0,0,0,1.056-.931c1.181-1.159,2.165-2.528,3.3-3.738a22.314,22.314,0,0,1,5.622-4.38,9.055,9.055,0,0,1,3.18-1.036c2.112-.207,3.925,1.4,5.4,2.672A9.877,9.877,0,0,1,349.042,78.436Z" transform="translate(-258.164 -33.344)"/><path class="am" d="M364.771,73H344.758s-3.076,3.984-12.08,8.516c-8.071,4.064-16.505,7.328-16.505,7.328l10.585,6.109Z" transform="translate(-261.261 -35.206)"/></g><path class="am" d="M357.86,79.968l-33.542,19.3a.977.977,0,0,1-1.074-.064l-.021-.016a1.318,1.318,0,0,1,.127-2.2L356.529,77.67l0,0h0a.67.67,0,0,1,.664.068,2.079,2.079,0,0,1,.941,1.624.654.654,0,0,1-.277.607Z" transform="translate(-236.79 -30.821)"/><g transform="translate(87.469 62.039)"><path class="j" d="M323.651,85.987l-.156,3.475,5.108,1.191V88.8Z" transform="translate(-323.496 -84.885)"/><path class="k" d="M328.1,88.718l-1.985,1.1V87.963l1.985-1.1Z" transform="translate(-321.005 -84.052)"/><path class="l" d="M330.512,88.232l-1.985,1.1-4.952-2.809,1.984-1.1Z" transform="translate(-323.42 -85.422)"/></g><g transform="translate(117.572 44.773)"><path class="j" d="M339.073,77.141l-.156,3.475,5.108,1.191V79.95Z" transform="translate(-338.918 -76.039)"/><path class="k" d="M343.519,79.872l-1.985,1.1V79.117l1.985-1.1Z" transform="translate(-336.427 -75.206)"/><path class="l" d="M345.934,79.386l-1.985,1.1L339,77.678l1.985-1.1Z" transform="translate(-338.842 -76.576)"/></g><g transform="translate(89.42 45.604)"><g transform="translate(34.711)"><path class="an" d="M343.751,77.086l-1.3.714,1.823,2.922,1.165-.691,0,0h0a.859.859,0,0,0,.349-.781,2.652,2.652,0,0,0-1.2-2.083.83.83,0,0,0-.849-.08Z" transform="translate(-342.11 -77.002)"/><path class="g" d="M343.5,77.531a2.7,2.7,0,0,1,1.218,2.12c0,.781-.545,1.1-1.218.71a2.7,2.7,0,0,1-1.218-2.118C342.278,77.46,342.823,77.142,343.5,77.531Z" transform="translate(-342.278 -76.657)"/></g><path class="ao" d="M360.861,79.968l-34.1,19.625L324.628,98l34.9-20.325,0,0h0a.67.67,0,0,1,.664.068,2.075,2.075,0,0,1,.943,1.624.654.654,0,0,1-.279.607Z" transform="translate(-324.368 -76.425)"/><g transform="translate(0 20.12)"><path class="ap" d="M325.966,87.392l-1.294.716L326.5,91.03l1.165-.691,0,0,0,0h0a.852.852,0,0,0,.347-.779,2.657,2.657,0,0,0-1.2-2.085.833.833,0,0,0-.849-.078Z" transform="translate(-324.327 -87.31)"/><path class="g" d="M325.713,87.838a2.708,2.708,0,0,1,1.218,2.12c0,.783-.547,1.1-1.218.712a2.7,2.7,0,0,1-1.218-2.12C324.495,87.769,325.04,87.449,325.713,87.838Z" transform="translate(-324.495 -86.965)"/></g></g></g><g transform="translate(277.866 26.098)"><path class="aq" d="M291.491,58.028a19.994,19.994,0,0,1-4.784,1.513c-1.854.2-3.828-.2-4-2.174-.109-1.288.351-1.79-1.077-2.077a10.412,10.412,0,0,0-1.88-.012s-2.081,9.4-.433,16.636a37.593,37.593,0,0,1,.56,17.056,58.61,58.61,0,0,0-.746,8.844c-.008,1.224.031,2.448.144,3.668.1,1.056.3,2.083.486,3.125.139.794.264,1.593.369,2.393.129.958.023,1.983.055,2.963a3.193,3.193,0,0,0,.055.562,2.488,2.488,0,0,0,.535.974,6.166,6.166,0,0,0,1.9,1.61,52.311,52.311,0,0,0-.8-6.354,33.594,33.594,0,0,1,.273-12.422c.894-4.46,1.964-8.477,1.7-13.123-.238-4.222-1.009-8.4-1.355-12.609a2.2,2.2,0,0,1,.066-.972c.527-1.378,4.579-1.072,5.809-1.15q3.142-.2,6.262-.627A10.66,10.66,0,0,0,298.2,64.9a9.464,9.464,0,0,0,2.393-1.971c.9-.954,3.355-3.1,2.848-4.577C302.25,54.9,293.526,57.251,291.491,58.028Z" transform="translate(-277.087 1.639)"/><path class="ar" d="M301.256,34.5a24.069,24.069,0,0,1-.976,3.67,4.459,4.459,0,0,1-1.884,1.987,20.369,20.369,0,0,0-2.559.734c-.685.246-.951.422-1.642.014a3.92,3.92,0,0,1-1.263-1.243,9.447,9.447,0,0,1-1.062-2.69,5.169,5.169,0,0,1-.252-1.612,5.054,5.054,0,0,1,.363-1.442,7.318,7.318,0,0,1,1.593-2.821,3.969,3.969,0,0,1,2.262-.863c.872-.183,1.747-.386,2.633-.484.463-.051,1.347-.2,1.7.224.785.954.7,1.61,1.142,2.336a1.78,1.78,0,0,1,.119.867A9.957,9.957,0,0,1,301.256,34.5Z" transform="translate(-264.778 -22.685)"/><path class="as" d="M308.668,68.815s-3.482-.73-4.023,1.062a39.565,39.565,0,0,1-4.079-4.421c-1.319-1.708-2.666-3.4-4.023-5.075a5.118,5.118,0,0,1-.379-.523,14.7,14.7,0,0,1-2.088-5.559,8.5,8.5,0,0,0-.236-1.2c-.182-.617-.693-1.31-.627-1.973a7.2,7.2,0,0,1,.508-1.394,5.2,5.2,0,0,0,.139-1.62c-.014-.271-.055-.539-.094-.806a45.379,45.379,0,0,1-.494-5.512,5.471,5.471,0,0,0-.2-2.1,1.873,1.873,0,0,1-.191-1.573,1.157,1.157,0,0,1,.224-.509.747.747,0,0,1,.463-.223,2.15,2.15,0,0,1,1.618.775,9.614,9.614,0,0,1,.851.865,15.149,15.149,0,0,1,2.178,4.23c.629,1.583,1.195,3.191,1.671,4.827,1.452,4.981,2.106,7.126,2.106,7.126Z" transform="translate(-263.664 -15.361)"/><path class="at" d="M300.936,48.358a1.206,1.206,0,0,0,.269-.525,1.236,1.236,0,0,0-.051-.468,32.636,32.636,0,0,0-2.647-7.989,5.407,5.407,0,0,0-1.048-1.458,4.618,4.618,0,0,0-1.489-.861,8.31,8.31,0,0,0-2.278-.523,2.1,2.1,0,0,0-1.55.326,2.266,2.266,0,0,0-.593,1.655,18.7,18.7,0,0,0,3.07,11.339,9.189,9.189,0,0,0,1.14,1.874c.863.691,1.956-.476,2.657-.9A9.21,9.21,0,0,0,300.936,48.358Z" transform="translate(-264.869 -16.182)"/><path class="au" d="M282.847,41.816s.872-2.044,6.057-2.284,14.347-3.865,17.429-2.893c1.161.367,1.388,1.683,1.616,2.75.449,2.1.9,4.193,1.29,6.3a26.678,26.678,0,0,1,.81,5.9c-.029.621-.283,1.167-.34,1.794a2.935,2.935,0,0,1-.088.445c-.728,2.811-2.719,5.434-4.025,8a18.363,18.363,0,0,0-1.86,11.165,20.348,20.348,0,0,1,.295,2.305,3.67,3.67,0,0,1,.053,1.5c-.221.531-1.107.992-1.552,1.318-.619.455-1.257.884-1.907,1.292-1.253.787-2.614,1.341-3.919,2.026-1.36.714-1.905,1.872-5.155,1.85-6.494-.045-13.769-3.047-13.4-4.655C280.624,67.812,278.141,46,282.847,41.816Z" transform="translate(-277.61 -16.22)"/><path class="av" d="M308.513,42.05q-.278-1.332-.564-2.66c-.228-1.068-.455-2.383-1.616-2.75-3.082-.972-12.242,2.651-17.429,2.893s-6.057,2.284-6.057,2.284c-4.706,4.179-2.223,26-4.7,36.815-.228,1,2.5,2.538,6.148,3.568-3.121-8.225-3.474-17.384-2.022-26.087.449-2.7,1.066-5.364,1.681-8.028a6.978,6.978,0,0,1,1.187-2.965A7.042,7.042,0,0,1,289,43.2a35.941,35.941,0,0,1,6.373-1.253c2.5-.185,5.01-.351,7.521-.447a18.407,18.407,0,0,1,4.042.166C307.468,41.763,307.991,41.906,308.513,42.05Z" transform="translate(-277.61 -16.22)"/><path class="aw" d="M297.193,41.846a32.733,32.733,0,0,1-2.276,6.008c-1.083,1.735-1.484,1.79-4.277-.474a26.868,26.868,0,0,1-5.659-6.1c-1.142-1.735,4.3-3.357,5.8-4.8S297.193,41.846,297.193,41.846Z" transform="translate(-271.241 -16.402)"/><path class="ax" d="M295.5,41.637a22.441,22.441,0,0,0-2.953,3.277c-.279.738-1.6,1.234-2.873.252a9.116,9.116,0,0,1-3.3-4.152c-.621-1.848.01-2.2.01-2.2l4.548-2.988Z" transform="translate(-270.029 -16.834)"/><path class="ay" d="M303.9,33.4s.107,3.556.039,4.681a4.212,4.212,0,0,1-1.458,2.27,5.752,5.752,0,0,1-.457,2.268c-.537,1.5-.777,1.657-.777,1.657s.406,1.7-.008,2.079-1.474.059-1.474.059l-.336.853-.541.367-.281.693-.431.213s-.785,1.378-1.622,1.563-3.09-.917-3.795-1.757-5.424-7.671-5.424-7.671,5.7-13.248,8.93-11.553S302.714,27.871,303.9,33.4Z" transform="translate(-268.85 -23.36)"/><path class="az" d="M311.561,37.913a3.414,3.414,0,0,0-.107-1.226c-.24-.82-.806-.929-1.526-.525a3.633,3.633,0,0,1-.939.447,2.37,2.37,0,0,1-.675.027c-1.179-.08-2.151-.377-3.252.2a5.088,5.088,0,0,0-2.336,2.7c-.937,2.45-3.6,8.663-6.724,11.8A5.655,5.655,0,0,1,291.79,53a18.507,18.507,0,0,1-6.568-1.821,6.207,6.207,0,0,0-2.4-.629,3.589,3.589,0,0,0-2.034.56c1.286-.791,4.825-6.221,5.871-7.677A64.532,64.532,0,0,0,292.914,32.9a11.324,11.324,0,0,1,9.363-6.8c2.945-.1,5.988,3.074,6.32,3.519a13.815,13.815,0,0,1,2.233,3.123c1.171,2.727.91,3.445.9,3.847A9.942,9.942,0,0,1,311.561,37.913Z" transform="translate(-275.083 -26.098)"/><path class="ba" d="M302.725,37.063a5.37,5.37,0,0,1,.541-1.027,27.354,27.354,0,0,1-5.789-2.988,12.625,12.625,0,0,1-3.588-4.353,12.7,12.7,0,0,0-.974,1.733,64.532,64.532,0,0,1-6.254,10.535c-1.046,1.456-4.585,6.886-5.871,7.677a3.589,3.589,0,0,1,2.034-.56,6.207,6.207,0,0,1,2.4.629,18.507,18.507,0,0,0,6.568,1.821A5.655,5.655,0,0,0,296,48.858C299.127,45.725,301.788,39.513,302.725,37.063Z" transform="translate(-275.083 -23.626)"/><path class="bb" d="M307.42,31.959c.088.006.178.008.265.008-.656-1-2.6-1.017-3.627-.913a6.444,6.444,0,0,0-3.715,1.628,12.074,12.074,0,0,0-2.256,3.18q-1.426,2.6-2.7,5.286a13.157,13.157,0,0,1-2.618,4.177,6.2,6.2,0,0,1-4.081,1.649c-2.3.043-4.476-1.2-6.777-1.195a1.176,1.176,0,0,0-.187.437,3.619,3.619,0,0,1,2.6.287,18.506,18.506,0,0,0,6.568,1.821,5.655,5.655,0,0,0,4.21-1.671c3.127-3.133,5.787-9.346,6.724-11.8a5.088,5.088,0,0,1,2.336-2.7C305.269,31.582,306.241,31.879,307.42,31.959Z" transform="translate(-274.191 -21.42)"/><path class="as" d="M287.147,64.674a4.04,4.04,0,0,0,.2-1.089c.088-1.55-.64-2.582-.833-4.011-.154-1.146-.041-2.309-.082-3.461-.082-2.422.338-4.77.029-7.22a3.039,3.039,0,0,0-1.05-2.28,2.9,2.9,0,0,0-1.288-.361c-1.589-.162-3.392,0-4.448,1.2a4.828,4.828,0,0,0-1,2.368,24.147,24.147,0,0,0-.285,3.775l-.092,4.066a24.892,24.892,0,0,0,.053,3.006,17.13,17.13,0,0,0,1.48,5.571,4.589,4.589,0,0,0,2.963,2.124c1.249.15,2.727-1.558,3.73-2.329-.191-.1-.025-.375.125-.525A2.187,2.187,0,0,0,287.147,64.674Z" transform="translate(-277.475 -6.963)"/><path class="at" d="M287.6,57.826c.168-1.647.379-3.248.424-4.89.115-4.138-.037-8.417-1.944-12.155a3.868,3.868,0,0,0-.627-.949c-1.794-1.86-3.558-.1-4.554,1.6a17.11,17.11,0,0,0-1.31,2.9,16.124,16.124,0,0,0-.9,4.156q-.34,3.188-.683,6.375c-.082.787-.113,1.579-.135,2.375C280.983,59.658,284.319,59.11,287.6,57.826Z" transform="translate(-277.866 -13.78)"/><path class="bc" d="M290.38,45.137l-.058,2.33-5.678.627.058-2.33Z" transform="translate(-271.413 -7.974)"/><g transform="translate(0 25.28)"><path class="ay" d="M287.947,62.777a2.051,2.051,0,0,1,.874.662,7.265,7.265,0,0,0,3.467,2.044,7.617,7.617,0,0,1,2.243.863s.945.679.953.941a.68.68,0,0,0,.176.427s.392.3.623.068a8.638,8.638,0,0,1,.892-.681,1.263,1.263,0,0,0,.91-.158c.494-.279.634-.375.707-.683l.07-.306a.468.468,0,0,0,.673-.223c.24-.474.447-1.009.121-1.091s-.39-.48-.39-.48.49-.242.513-.461a1.359,1.359,0,0,0-.427-1.329,15.69,15.69,0,0,0-2.022-2c-.394-.137-.892-.248-.892-.248l.63-.367s-3.043-.884-3.3-.876a9.876,9.876,0,0,1-2.206-.021c-.578-.156-1.995-.712-1.995-.712S287.709,58.875,287.947,62.777Z" transform="translate(-268.29 -20.877)"/><path class="bd" d="M291.857,61.626a11.047,11.047,0,0,1,1.331,1.359,1.684,1.684,0,0,1,.244.8l.224.025a2.219,2.219,0,0,0-.027-.689A4.625,4.625,0,0,0,291.857,61.626Z" transform="translate(-264.548 -17.558)"/><path class="bd" d="M292.609,61.175s1.257,1.265,1.456,1.567a1.8,1.8,0,0,1,.234.732l.1-.412a4.587,4.587,0,0,0-.472-.7A14.793,14.793,0,0,0,292.609,61.175Z" transform="translate(-263.832 -17.987)"/><path class="bd" d="M292.937,60.457l1.607,1.649-.049-.154A9.751,9.751,0,0,0,292.937,60.457Z" transform="translate(-263.52 -18.67)"/><path class="ay" d="M300.124,54.2s-.177,1.1-.437,1.292-.615.757-.835.718-.857.435-.917.974a13.978,13.978,0,0,1-.287,1.429s1.507-.822,1.87-1.089a4.944,4.944,0,0,1,1.749-.277s.121,1.187.226,1.743-.6,1.47-.646,2.051-.226,1.318.3,1.292l.533-.025s.072.357.638.281a.855.855,0,0,0,.666-.709s.467.33.664.185a9.77,9.77,0,0,0,.878-1.245,1.165,1.165,0,0,0,.734-.308,5.006,5.006,0,0,1,.833-.718l.185-.539a3.253,3.253,0,0,0,1.072-.468c.414-.316.392-.414.4-1.212a7.427,7.427,0,0,0-.9-2.756c-.215-.457-.988-.2-1.847-.427a1.914,1.914,0,0,1-.964-.75A3.761,3.761,0,0,0,300.124,54.2Z" transform="translate(-259.036 -25.466)"/><path class="bd" d="M301.567,55.237s0,2.389-.08,2.729a1.935,1.935,0,0,1-.543.988,3.417,3.417,0,0,0-1.1,1.526c-.316.832-.25.6-.25.6a7.431,7.431,0,0,1,1.259-1.9,2.237,2.237,0,0,0,.937-1.267A15.621,15.621,0,0,0,301.567,55.237Z" transform="translate(-257.192 -23.639)"/><path class="bd" d="M302.132,55.073s-.383,1.55-.474,2.253-.314,1.823-.314,1.823-.451,1.433-.328,1.333a8.942,8.942,0,0,0,.527-1.364s.273-1.579.363-2S302.132,55.073,302.132,55.073Z" transform="translate(-255.85 -23.795)"/><path class="bd" d="M302.56,54.826s-.314,1.138-.441,1.905a3.1,3.1,0,0,0-.053.527,2.733,2.733,0,0,1-.012.658l.178-.137a2.062,2.062,0,0,1-.008-.994C302.364,56.341,302.56,54.826,302.56,54.826Z" transform="translate(-254.841 -24.031)"/><path class="ay" d="M296.509,64.766a3.923,3.923,0,0,0,.146,2.411c-.75-.265.187.289-.584.072-1.995-.558-14.306-5.456-15.2-5.959-4.134-2.338,1.29-9.916,4.962-7.312a21.039,21.039,0,0,1,1.661,1.708c.988,1.054,6.022,4.435,10.189,6.925C298.619,63.168,296.746,64.183,296.509,64.766Z" transform="translate(-276.414 -25.349)"/><path class="ay" d="M307.02,60.138s-3.482-.73-4.023,1.062a39.566,39.566,0,0,1-4.08-4.421c-1.319-1.708-2.666-3.4-4.023-5.075a5.113,5.113,0,0,1-.379-.523c.332-5.446,5.825-4.648,5.825-4.648Z" transform="translate(-262.017 -31.964)"/><path class="be" d="M280.321,58.556a82.866,82.866,0,0,1,.226-9.184,28.136,28.136,0,0,1,.531-3.855,29.151,29.151,0,0,1,2.534-6.469c-1.1.146-2.069,1.273-2.717,2.375a17.11,17.11,0,0,0-1.31,2.9,16.124,16.124,0,0,0-.9,4.156q-.34,3.188-.683,6.375c-.082.787-.113,1.579-.135,2.376A8.008,8.008,0,0,0,280.321,58.556Z" transform="translate(-277.866 -39.049)"/></g></g></g></g></svg>