<svg xmlns="http://www.w3.org/2000/svg" xmlns:xlink="http://www.w3.org/1999/xlink" width="153.62" height="156.875" viewBox="0 0 153.62 156.875"><defs><style>.a{fill:rgba(34,174,228,0.25);}.b{fill:#462b3e;}.c{fill:#ce3527;}.d{fill:#211e1e;}.e{fill:#fff;}.f{fill:#f5f9ff;}.g{fill:#1c1119;}.h{fill:#3b2534;}.i{fill:#57364d;}.j{fill:#727272;}.k{fill:#a9a9a9;}.l{fill:#e9eae7;}.m{fill:#4d4d4d;}.n{fill:#949494;}.o{fill:#dcded9;}.p{fill:#c4c4c4;}.q{fill:#c9d2db;}.r{fill:#bec6cf;}.s{fill:#b2c2d3;}.t{fill:#977961;}.u{fill:#7a614e;}.v{fill:#d3dce6;}.w{fill:url(#a);}.x{fill:url(#b);}.y{fill:#b0e9d4;}.z{fill:#4b4146;}.aa{fill:url(#c);}.ab{fill:#eaf9ff;}.ac{fill:#a3bdc4;}.ad{fill:#5c493b;}.ae{fill:#fff5c7;}.af{fill:#7eaea6;}.ag{fill:#ed6e5c;}.ah{fill:#ffd95c;}.ai{fill:url(#d);}.aj{fill:#639c7f;}.ak{fill:#daf5e2;}.al{fill:#f3f3f3;}.am{fill:#d9d9d9;}.an{fill:#b8b8b8;}.ao{fill:#363636;}.ap{fill:#3c1f33;}.aq{fill:#e77823;}.ar{fill:#dbe8e1;}.as{fill:#22aee4;}</style><linearGradient id="a" x1="-7.804" y1="0.846" x2="-8.212" y2="0.115" gradientUnits="objectBoundingBox"><stop offset="0.084" stop-color="#99dcc5"/><stop offset="0.353" stop-color="#92c9b6"/><stop offset="0.941" stop-color="#85a69a"/></linearGradient><linearGradient id="b" x1="-24.711" y1="1.254" x2="-25.175" y2="-0.197" gradientUnits="objectBoundingBox"><stop offset="0.084" stop-color="#78ccd4"/><stop offset="0.382" stop-color="#72b8be"/><stop offset="0.941" stop-color="#69989b"/></linearGradient><linearGradient id="c" x1="-16.723" y1="1.034" x2="-16.34" y2="-0.255" gradientUnits="objectBoundingBox"><stop offset="0" stop-color="#9dffd8"/><stop offset="0.941" stop-color="#cacfcd"/></linearGradient><linearGradient id="d" x1="-21.642" y1="1.41" x2="-20.604" y2="-0.38" gradientUnits="objectBoundingBox"><stop offset="0.084" stop-color="#60caa6"/><stop offset="0.439" stop-color="#5dad94"/><stop offset="0.941" stop-color="#5a8a7f"/></linearGradient></defs><circle class="a" cx="75" cy="75" r="75" transform="translate(2 6.875)"/><g transform="translate(0 0)"><g transform="translate(0 0)"><path class="b" d="M169.787,70.7a28.067,28.067,0,0,0,.514-3.153,5.338,5.338,0,0,0-.183-2.926,4.832,4.832,0,0,0-2.3-2.142,1.791,1.791,0,0,0-1.579-.031,49.752,49.752,0,0,0-1.355,7.112,39.839,39.839,0,0,0-.35,4.344,14.244,14.244,0,0,0,.067,3.91,2.8,2.8,0,0,0,1.254,1.363.885.885,0,0,0,.671.224c.333-.08.447-.484.5-.82.229.025.537.312.7.032.493-.864.35-1.884.908-2.712.489-.724,1.221-1.242,1.77-1.917a.641.641,0,0,0,.166-.323c.025-.239-.2-.432-.432-.51-.5-.17-.929-.134-.757-.784C169.527,71.818,169.663,71.262,169.787,70.7Z" transform="translate(-156.911 0.251)"/><path class="c" d="M186.87,93.511l.976.924,2.455,2.112L220.117,76.43Z" transform="translate(-136.461 13.235)"/><path class="d" d="M235.363,87.774l-11.805-9.116s6.926-3.639,7.2-3.614,3.95,1.867,3.95,1.867S240.013,81.485,235.363,87.774Z" transform="translate(-103.031 11.95)"/><path d="M223.712,114.22,175.689,90.9l-.3-11.547,48.023,23.322,2.573,6.945Z" transform="translate(-146.92 16.006)"/><path class="e" d="M202.519,115.958,183.5,113.446,165.706,97.511l-4.354-9.546,5.6-15.547L211.1,98.091Z" transform="translate(-159.712 9.689)"/><path class="f" d="M161.06,86.861l6.161-14.443,2.227,3.261-.781,15.606Z" transform="translate(-159.978 9.554)"/><path class="f" d="M178.987,94.962l9.851-9.867,6.191,1.444-9.2,27.1Z" transform="translate(-143.643 21.241)"/><g transform="translate(47.221 115.387)"><path class="g" d="M196.094,120.188l15.513-25.835-14.531-.728-.013.023c-1.936-1.061,1.883-4.835-1.061-3.152-5.944,3.4-10.779,11.616-10.8,18.355-.01,3.232,1.1,5.523,2.9,6.674l-.008.01.161.094c.044.025.086.052.132.076Z" transform="translate(-185.202 -89.613)"/><path class="h" d="M208.82,96.182,197.9,89.831a12.537,12.537,0,0,0-1.894.883c-5.944,3.4-10.779,11.616-10.8,18.355a10.766,10.766,0,0,0,.461,3.289l8.405,4.889a12.992,12.992,0,0,0,2.876-1.231,19.133,19.133,0,0,0,3.173-2.313l8.149-13.569A19.117,19.117,0,0,0,208.82,96.182Z" transform="translate(-185.202 -89.831)"/><path class="b" d="M210.8,99.414c-.021,6.739-4.854,14.957-10.8,18.355s-10.743.688-10.722-6.051,4.856-14.957,10.8-18.355S210.828,92.675,210.8,99.414Z" transform="translate(-181.482 -87.949)"/><path class="b" d="M209.08,99.375c-.019,6.007-4.329,13.331-9.627,16.36s-9.575.615-9.556-5.393,4.329-13.331,9.625-16.36S209.1,93.366,209.08,99.375Z" transform="translate(-180.924 -87.241)"/><g transform="translate(10.114 6.883)"><path class="i" d="M207.395,99.335c-.017,5.292-3.815,11.746-8.48,14.414s-8.438.541-8.421-4.751,3.813-11.746,8.48-14.414S207.41,94.043,207.395,99.335Z" transform="translate(-190.494 -93.433)"/><path class="j" d="M205.972,99.3c-.015,4.69-3.379,10.408-7.515,12.772s-7.475.48-7.459-4.21,3.379-10.408,7.513-12.772S205.987,94.613,205.972,99.3Z" transform="translate(-190.035 -92.85)"/><path class="k" d="M198.415,94.638c-4.09,2.4-7.4,8.059-7.417,12.711a7.983,7.983,0,0,0,.2,1.819l5.445,3.167a8.266,8.266,0,0,0,1.818-.776,16.409,16.409,0,0,0,7.5-12.534Z" transform="translate(-190.035 -92.334)"/><path class="l" d="M194.186,96.621a17.2,17.2,0,0,0-3.044,6.548l9.036,5.256a17.279,17.279,0,0,0,4.3-5.82Z" transform="translate(-189.904 -90.527)"/><path class="l" d="M194.186,96.621a17.2,17.2,0,0,0-3.044,6.548l9.036,5.256a17.279,17.279,0,0,0,4.3-5.82Z" transform="translate(-189.904 -90.527)"/><path class="m" d="M203.257,98.746a13.006,13.006,0,0,1-5.972,10.154c-3.289,1.881-5.944.382-5.932-3.346A13.005,13.005,0,0,1,197.326,95.4C200.614,93.519,203.27,95.018,203.257,98.746Z" transform="translate(-189.712 -92.38)"/><path class="n" d="M201.9,98.594a11.15,11.15,0,0,1-5.124,8.709c-2.821,1.613-5.1.327-5.088-2.871a11.157,11.157,0,0,1,5.124-8.711C199.635,94.11,201.913,95.395,201.9,98.594Z" transform="translate(-189.404 -91.981)"/><g transform="translate(1.753 2.877)"><path class="j" d="M193.515,96.734a.885.885,0,0,0-.275-.248,14.1,14.1,0,0,0-.849,1.208,1.13,1.13,0,0,0,.757,0A.625.625,0,0,0,193.515,96.734Z" transform="translate(-190.518 -93.527)"/><path class="j" d="M197.836,98.627c.342-.443.271-.833-.155-.87a1.864,1.864,0,0,0-1.393.738c-.34.443-.271.833.155.87A1.864,1.864,0,0,0,197.836,98.627Z" transform="translate(-187.164 -92.371)"/><path class="j" d="M193.077,100.283c.117-.535-.145-.74-.585-.461a2.646,2.646,0,0,0-1,1.472c-.117.535.147.742.585.461A2.646,2.646,0,0,0,193.077,100.283Z" transform="translate(-191.365 -90.601)"/><path class="j" d="M196.293,95.232c-.153-.434-.514-.382-.807.113a2.313,2.313,0,0,0-.256,1.678c.153.434.514.382.806-.113A2.3,2.3,0,0,0,196.293,95.232Z" transform="translate(-187.991 -94.938)"/><path class="j" d="M192.743,98.566c.4-.363.417-.787.036-.95a.841.841,0,0,0-.325-.061,13.649,13.649,0,0,0-.667,1.418A1.7,1.7,0,0,0,192.743,98.566Z" transform="translate(-191.068 -92.553)"/><path class="j" d="M192.163,102.417c.071.482.415.512.766.067a2.529,2.529,0,0,0,.508-1.68c-.071-.484-.415-.514-.766-.069A2.531,2.531,0,0,0,192.163,102.417Z" transform="translate(-190.738 -89.942)"/><path class="j" d="M192.76,99.479c.283-.491.147-.837-.3-.774a1.677,1.677,0,0,0-.722.342,10.919,10.919,0,0,0-.327,1.435c.01,0,.015,0,.027,0A2.173,2.173,0,0,0,192.76,99.479Z" transform="translate(-191.411 -91.512)"/><path class="j" d="M197.228,100.194c.43-.283.514-.721.189-.975a1.268,1.268,0,0,0-1.37.052c-.43.283-.514.719-.187.973A1.264,1.264,0,0,0,197.228,100.194Z" transform="translate(-187.539 -91.198)"/><path class="j" d="M195.426,101.89a1.308,1.308,0,0,0-.65-1.227c-.378-.151-.7.155-.719.682a1.313,1.313,0,0,0,.648,1.227C195.084,102.724,195.4,102.418,195.426,101.89Z" transform="translate(-189 -89.756)"/><path class="j" d="M193.213,101.274a1.931,1.931,0,0,0,.078,1.594c.247.346.612.2.814-.336a1.923,1.923,0,0,0-.076-1.594C193.782,100.589,193.417,100.74,193.213,101.274Z" transform="translate(-189.889 -89.642)"/><path class="j" d="M196.612,100.7a1.064,1.064,0,0,0-1.107-.644.638.638,0,0,0-.5.908,1.065,1.065,0,0,0,1.107.644A.637.637,0,0,0,196.612,100.7Z" transform="translate(-188.184 -90.287)"/><path class="j" d="M196.516,97.638a2.679,2.679,0,0,0,.8-1.6c.034-.524-.271-.654-.68-.294a2.7,2.7,0,0,0-.8,1.6C195.8,97.865,196.107,98,196.516,97.638Z" transform="translate(-187.382 -94.388)"/><path class="j" d="M193.163,96.557a1.029,1.029,0,0,0,.7.535c.415.052.7-.306.634-.8a1.248,1.248,0,0,0-.35-.7A11.993,11.993,0,0,0,193.163,96.557Z" transform="translate(-189.815 -94.342)"/><path class="j" d="M197.425,96.648a2.448,2.448,0,0,0-1.208,1.238c-.214.522-.017.812.436.65a2.436,2.436,0,0,0,1.21-1.238C198.075,96.777,197.88,96.486,197.425,96.648Z" transform="translate(-187.11 -93.42)"/><path class="j" d="M194.268,95.369c-.011.038-.031.063-.04.105a1.626,1.626,0,0,0,.336,1.464c.312.266.665.042.791-.5a1.627,1.627,0,0,0-.338-1.464c-.015-.013-.031-.011-.046-.023-.076.04-.149.073-.226.117C194.585,95.16,194.427,95.264,194.268,95.369Z" transform="translate(-188.884 -94.925)"/></g><path class="j" d="M198.815,98.539a6.9,6.9,0,0,1-3.171,5.39c-1.745,1-3.155.2-3.148-1.777a6.9,6.9,0,0,1,3.171-5.39C197.413,95.764,198.823,96.559,198.815,98.539Z" transform="translate(-188.669 -90.792)"/><path class="k" d="M196.549,96.375a3.332,3.332,0,0,0-.881.346,6.9,6.9,0,0,0-3.171,5.39,2.8,2.8,0,0,0,.289,1.323l2.874-.589c1.122-.963,1.275-2.074,1.921-3.486Z" transform="translate(-188.669 -90.752)"/><path class="o" d="M196.515,100.647a10.269,10.269,0,0,0,.558-1.258,11.838,11.838,0,0,1-3.314-1.947,7.328,7.328,0,0,0-1.16,2.425A11.253,11.253,0,0,1,196.515,100.647Z" transform="translate(-188.576 -89.779)"/><path class="p" d="M197.942,98.986a4.913,4.913,0,0,1-2.255,3.83c-1.24.709-2.242.143-2.236-1.263a4.9,4.9,0,0,1,2.253-3.83C196.945,97.014,197.946,97.579,197.942,98.986Z" transform="translate(-187.8 -89.802)"/><path class="m" d="M196.6,99.09a2.658,2.658,0,0,1-1.221,2.076c-.671.384-1.214.076-1.212-.684a2.655,2.655,0,0,1,1.221-2.076C196.064,98.022,196.607,98.328,196.6,99.09Z" transform="translate(-187.143 -89.052)"/></g><path d="M194.923,119.993l-4.717-2.743-.132-.076-.159-.094.006-.01c-1.8-1.151-2.909-3.442-2.9-6.674.021-6.739,4.856-14.957,10.8-18.355,2.943-1.684,5.605-1.865,7.542-.8l.01-.015-.529-.308-.011.019c-1.936-1.061-4.6-.879-7.542.8-5.944,3.4-10.779,11.616-10.8,18.355-.01,3.234,1.1,5.525,2.9,6.674l-.008.011.161.092c.044.027.086.052.132.076L194.919,120Z" transform="translate(-184.027 -89.426)"/><path d="M193.778,119.327l-2.314-1.345c-.044-.025-.088-.05-.132-.076l-.159-.092.006-.011c-1.8-1.149-2.909-3.442-2.9-6.674.021-6.739,4.856-14.957,10.8-18.355,2.943-1.684,5.605-1.863,7.542-.8l.01-.015-.529-.308-.011.021c-1.936-1.063-4.6-.881-7.542.8-5.944,3.4-10.779,11.616-10.8,18.355-.01,3.232,1.1,5.523,2.9,6.672l-.008.011.161.094c.044.025.086.052.132.076l2.842,1.653Z" transform="translate(-182.882 -88.76)"/></g><g transform="translate(103.005 84.185)"><path class="g" d="M225.282,104.713l15.513-25.833-8.05-4.682-.013.021c-1.936-1.061-4.6-.879-7.542.8-5.944,3.4-10.779,11.616-10.8,18.355-.01,3.232,1.1,5.525,2.9,6.674l-.008.011.161.092c.044.027.086.052.132.076Z" transform="translate(-214.39 -73.557)"/><path class="h" d="M238.008,80.214l-10.924-6.353a12.539,12.539,0,0,0-1.894.883c-5.944,3.4-10.779,11.616-10.8,18.355a10.806,10.806,0,0,0,.461,3.289l8.405,4.889a13.124,13.124,0,0,0,2.878-1.229,19.314,19.314,0,0,0,3.171-2.313l8.149-13.569A19.121,19.121,0,0,0,238.008,80.214Z" transform="translate(-214.39 -73.281)"/><path class="b" d="M239.995,83.443c-.021,6.739-4.856,14.957-10.8,18.355s-10.743.69-10.722-6.049,4.856-14.957,10.8-18.355S240.016,76.7,239.995,83.443Z" transform="translate(-210.67 -71.398)"/><path class="b" d="M238.268,83.4c-.019,6.007-4.329,13.332-9.627,16.362s-9.575.613-9.556-5.393,4.329-13.332,9.625-16.362S238.287,77.4,238.268,83.4Z" transform="translate(-210.112 -70.69)"/><g transform="translate(10.097 7.465)"><path class="i" d="M236.574,83.364c-.017,5.292-3.813,11.746-8.48,14.414s-8.436.541-8.421-4.751,3.815-11.744,8.48-14.412S236.591,78.072,236.574,83.364Z" transform="translate(-219.673 -77.463)"/><path class="j" d="M235.151,83.332c-.013,4.69-3.379,10.408-7.513,12.772s-7.477.48-7.461-4.21,3.379-10.406,7.515-12.771S235.166,78.644,235.151,83.332Z" transform="translate(-219.214 -76.881)"/><path class="k" d="M227.594,78.668c-4.09,2.4-7.4,8.059-7.417,12.711a7.969,7.969,0,0,0,.2,1.819l5.445,3.169a8.289,8.289,0,0,0,1.819-.778,16.409,16.409,0,0,0,7.5-12.532Z" transform="translate(-219.214 -76.366)"/><path class="l" d="M223.366,80.651a17.151,17.151,0,0,0-3.045,6.55l9.034,5.254a17.3,17.3,0,0,0,4.3-5.818Z" transform="translate(-219.082 -74.559)"/><path class="l" d="M223.366,80.651a17.151,17.151,0,0,0-3.045,6.55l9.034,5.254a17.3,17.3,0,0,0,4.3-5.818Z" transform="translate(-219.082 -74.559)"/><path class="m" d="M232.438,82.778a13,13,0,0,1-5.974,10.152c-3.287,1.881-5.944.382-5.932-3.346a13.016,13.016,0,0,1,5.974-10.154C229.795,77.551,232.449,79.049,232.438,82.778Z" transform="translate(-218.891 -76.411)"/><path class="n" d="M231.082,82.624a11.164,11.164,0,0,1-5.126,8.711c-2.821,1.613-5.1.327-5.088-2.873a11.155,11.155,0,0,1,5.124-8.709C228.814,78.14,231.092,79.424,231.082,82.624Z" transform="translate(-218.583 -76.012)"/><g transform="translate(1.753 2.876)"><path class="j" d="M222.7,80.764a.862.862,0,0,0-.277-.247,14.2,14.2,0,0,0-.849,1.206,1.142,1.142,0,0,0,.757,0A.627.627,0,0,0,222.7,80.764Z" transform="translate(-219.697 -77.557)"/><path class="j" d="M227.015,82.657c.342-.443.273-.833-.155-.87a1.857,1.857,0,0,0-1.391.738c-.342.445-.273.833.155.87A1.863,1.863,0,0,0,227.015,82.657Z" transform="translate(-216.343 -76.402)"/><path class="j" d="M222.258,84.313c.115-.533-.147-.74-.587-.461a2.654,2.654,0,0,0-1,1.474c-.117.533.147.74.585.461A2.657,2.657,0,0,0,222.258,84.313Z" transform="translate(-220.544 -74.631)"/><path class="j" d="M225.472,79.262c-.153-.432-.512-.382-.807.113a2.308,2.308,0,0,0-.254,1.68c.151.432.512.382.8-.113A2.3,2.3,0,0,0,225.472,79.262Z" transform="translate(-217.17 -78.968)"/><path class="j" d="M221.922,82.6c.4-.361.417-.787.038-.948a.852.852,0,0,0-.327-.063,13.866,13.866,0,0,0-.667,1.42A1.673,1.673,0,0,0,221.922,82.6Z" transform="translate(-220.247 -76.584)"/><path class="j" d="M221.342,86.447c.073.484.415.514.768.069a2.552,2.552,0,0,0,.508-1.682c-.073-.484-.417-.512-.768-.067A2.537,2.537,0,0,0,221.342,86.447Z" transform="translate(-219.916 -73.973)"/><path class="j" d="M221.939,83.508c.283-.491.149-.837-.3-.772a1.677,1.677,0,0,0-.721.34,11.065,11.065,0,0,0-.329,1.435c.011,0,.015,0,.027,0A2.155,2.155,0,0,0,221.939,83.508Z" transform="translate(-220.59 -75.542)"/><path class="j" d="M226.409,84.224c.43-.283.512-.719.187-.975a1.272,1.272,0,0,0-1.37.052c-.43.283-.514.719-.187.975A1.272,1.272,0,0,0,226.409,84.224Z" transform="translate(-216.718 -75.228)"/><path class="j" d="M224.6,85.92a1.311,1.311,0,0,0-.65-1.227c-.377-.149-.7.155-.719.682a1.313,1.313,0,0,0,.648,1.227C224.263,86.753,224.584,86.448,224.6,85.92Z" transform="translate(-218.179 -73.786)"/><path class="j" d="M222.394,85.3a1.924,1.924,0,0,0,.076,1.594c.247.348.612.2.814-.336a1.924,1.924,0,0,0-.076-1.594C222.961,84.619,222.6,84.77,222.394,85.3Z" transform="translate(-219.068 -73.673)"/><path class="j" d="M225.792,84.727a1.067,1.067,0,0,0-1.107-.644.637.637,0,0,0-.5.908,1.062,1.062,0,0,0,1.1.646A.639.639,0,0,0,225.792,84.727Z" transform="translate(-217.362 -74.318)"/><path class="j" d="M225.7,81.667a2.69,2.69,0,0,0,.8-1.6c.033-.522-.271-.654-.682-.292a2.691,2.691,0,0,0-.8,1.6C224.982,81.9,225.286,82.028,225.7,81.667Z" transform="translate(-216.561 -78.419)"/><path class="j" d="M222.342,80.587a1.029,1.029,0,0,0,.7.535c.417.054.7-.3.634-.8a1.253,1.253,0,0,0-.35-.7A12.641,12.641,0,0,0,222.342,80.587Z" transform="translate(-218.994 -78.373)"/><path class="j" d="M226.606,80.68a2.436,2.436,0,0,0-1.21,1.238c-.212.52-.017.812.436.648a2.436,2.436,0,0,0,1.21-1.238C227.255,80.806,227.059,80.516,226.606,80.68Z" transform="translate(-216.289 -77.45)"/><path class="j" d="M223.449,79.4a.9.9,0,0,0-.042.107,1.632,1.632,0,0,0,.336,1.464c.312.266.665.042.791-.5A1.632,1.632,0,0,0,224.2,79c-.017-.013-.032-.011-.048-.021-.075.038-.149.071-.225.115C223.764,79.191,223.606,79.295,223.449,79.4Z" transform="translate(-218.063 -78.955)"/></g><path class="j" d="M228,82.569a6.9,6.9,0,0,1-3.173,5.39c-1.745,1-3.153.2-3.148-1.775a6.9,6.9,0,0,1,3.171-5.391C226.592,79.794,228,80.589,228,82.569Z" transform="translate(-217.848 -74.823)"/><path class="k" d="M225.728,80.406a3.283,3.283,0,0,0-.881.344,6.9,6.9,0,0,0-3.171,5.391,2.813,2.813,0,0,0,.289,1.321l2.874-.589c1.122-.963,1.275-2.072,1.923-3.486Z" transform="translate(-217.848 -74.782)"/><path class="o" d="M225.694,84.679a10.6,10.6,0,0,0,.56-1.259,11.822,11.822,0,0,1-3.316-1.947,7.357,7.357,0,0,0-1.16,2.427A11.2,11.2,0,0,1,225.694,84.679Z" transform="translate(-217.755 -73.811)"/><path class="p" d="M227.121,83.016a4.913,4.913,0,0,1-2.253,3.83c-1.24.709-2.242.143-2.238-1.261a4.906,4.906,0,0,1,2.253-3.832C226.124,81.044,227.125,81.609,227.121,83.016Z" transform="translate(-216.979 -73.834)"/><path class="m" d="M225.784,83.12a2.655,2.655,0,0,1-1.221,2.076c-.671.384-1.214.078-1.212-.684a2.658,2.658,0,0,1,1.221-2.076C225.243,82.052,225.788,82.358,225.784,83.12Z" transform="translate(-216.322 -73.084)"/></g><path d="M224.111,104.023l-4.717-2.743c-.044-.025-.088-.05-.132-.076l-.159-.092.006-.011c-1.8-1.149-2.909-3.442-2.9-6.674.021-6.739,4.856-14.957,10.8-18.355,2.945-1.684,5.605-1.863,7.542-.8l.01-.015-.529-.308-.011.021c-1.936-1.063-4.6-.881-7.542.8-5.944,3.4-10.779,11.616-10.8,18.355-.01,3.232,1.1,5.523,2.9,6.674l-.006.01.159.094c.044.025.086.052.132.076l5.244,3.05Z" transform="translate(-213.215 -72.876)"/><path d="M222.966,103.357l-2.314-1.344-.132-.076-.159-.094.008-.01c-1.8-1.151-2.909-3.442-2.9-6.674.021-6.741,4.856-14.957,10.8-18.355,2.945-1.684,5.605-1.865,7.542-.8l.01-.017-.529-.308-.011.021c-1.936-1.061-4.6-.881-7.542.8-5.944,3.4-10.779,11.616-10.8,18.355-.01,3.232,1.1,5.525,2.9,6.674l-.006.01.159.094c.044.027.086.052.132.076l2.842,1.653Z" transform="translate(-212.07 -72.209)"/></g><path class="q" d="M202.757,94.253l-12,6.821-8.237-2.521a153.843,153.843,0,0,1,9.292-12.7l3.725,3.2Z" transform="translate(-140.423 21.863)"/><path class="r" d="M182.518,117.164l2.018,22.67s9.25-4.96,9.371-4.977a1.3,1.3,0,0,1,.518.019c.8-6.884,5.691-14.6,11.588-17.984,2.8-1.6,5.357-1.969,7.392-1.219,2.311.852,3.855,3.153,4.155,6.59.034.38.032.778.032,1.191a17.721,17.721,0,0,1-.392,3.469l1.521-.875,27.206-17.514,3.232-1.044-1.1,2.754,2.125-.787a13.045,13.045,0,0,1-.386-3.211c0-.312.019-.638.019-.984.472-7.11,5.521-15.362,11.677-18.881,4.617-2.662,8.637-1.873,10.49,1.517a1.1,1.1,0,0,1,.74.606c.7,1.315.493,2.729.522,4.178a27.643,27.643,0,0,1-.5,3.849c1.73-.944,13.264-7.622,13.264-7.622l.071-22.388a1.048,1.048,0,0,0-.445-.986c-.069-.034-.138-.069-.224-.105-.484-.174-24.157,13.25-24.9,13.352-1.416.2-3.109.526-4.09-.48a4.376,4.376,0,0,0-.568-.537l-.034.034-2.473,1.443-16.515-.969h-.017l-.241.1c-.105.069-.226.12-.363.224-2.4,1.355-6.9,3.637-7.987,3.375a.427.427,0,0,1-.172-.088l-33.818,24.668-2.427-2.1Z" transform="translate(-140.426 3.32)"/><path class="s" d="M161.061,79.969,161.2,81.4l.317,3.488.7,7.839.251,2.642.133,1.5.067.622.433,4.835,40.988,24.244-.484-5.352-.4-4.576-.983-11.119-.15-1.623Z" transform="translate(-159.977 16.57)"/><path class="b" d="M161.131,80.718l.317,3.488.7,7.839.251,2.642.133,1.5,41.005,24.347-.4-4.576-.983-11.119Z" transform="translate(-159.913 17.253)"/><path class="s" d="M166.449,84.8l.184,1.818,21,12.557-.166-2.042Z" transform="translate(-155.067 20.896)"/><path class="s" d="M166.879,86.928l.184,1.818,21,12.557-.166-2.042Z" transform="translate(-154.676 22.846)"/><path class="s" d="M167.308,89.055l.184,1.818,21,12.557-.166-2.043Z" transform="translate(-154.285 24.849)"/><path class="s" d="M167.738,91.183,167.922,93l21,12.557-.167-2.042Z" transform="translate(-153.894 26.787)"/><path class="r" d="M201.058,106.693a17.723,17.723,0,0,1-.384,3.461l1.517-.864L231.521,93.5l2.137-.787a12.152,12.152,0,0,1-.4-3.217c0-.323.054-5.348.08-5.682l-32.286,17.011C201.087,101.2,201.058,106.282,201.058,106.693Z" transform="translate(-123.883 20.071)"/><path class="r" d="M201.054,107.144c0-.409.031-5.5-.006-5.869l32.286-17.01c-.023.3-.069,4.424-.078,5.456a.972.972,0,0,0-.43.656,6.161,6.161,0,0,0-.027,2.165l-1.279.56-29.329,15.792-1.517.864A10.344,10.344,0,0,0,201.054,107.144Z" transform="translate(-123.883 20.484)"/><path class="t" d="M206.927,117.985a5.06,5.06,0,0,1-4.816-.107l-41.557-23.67-.046-2.1a2.7,2.7,0,0,1,.78-1.955l1.745-1.764.285,3.117,38.807,22.1a5.071,5.071,0,0,0,4.816.107l7.677-3.933-.782,4.665Z" transform="translate(-160.482 24.238)"/><path class="u" d="M206.934,118.214a5.06,5.06,0,0,1-4.816-.107L162.829,95.729a4.576,4.576,0,0,1-2.309-3.9l-.027-1.709,41.637,23.718a5.071,5.071,0,0,0,4.816.107l7.677-3.933-.782,4.665Z" transform="translate(-160.494 25.817)"/><path class="v" d="M164.315,84.369,174.459,59.3,218.6,84.973h.013l-10.158,25.069,0,0v0c-.925,1.59-11.557-2.867-23.746-9.955S163.39,85.961,164.315,84.369Z" transform="translate(-157.071 -2.416)"/><g transform="translate(8.484 58.279)"><path class="w" d="M169.535,86.741c2.464,1.716,5.409,3.626,8.82,5.655a3.217,3.217,0,0,1,.327.191l1.611-1.636,1.54-1.548,2.269-2.288.329-.327,1.191.677,8.424,5.015-5.506,5.592c.258.14.516.277.774.4,1.258.642,2.448,1.215,3.568,1.754.638.3,1.258.573,1.844.835.086.052.172.086.241.12.484.21.948.419,1.38.592a.173.173,0,0,1,.052.017c.258.122.533.226.793.331l.1.052c.638.245,1.24.487,1.793.678.258.088.535.176.793.262.793.262,1.483.453,2.035.577.12.017.241.034.344.052.157.017.294.036.4.036h.086v-.017l2.639-4.514L212.1,80.075l-6.219-3.593-.464-.277c-.017,0-.017,0-.017-.017l-14.026-8.157-1.172-.678-.74-.434-1.173-.677-1.567-.919-.275-.157-15.381,11,.346.122,1.449.573,1.361.541,2.93,1.63Z" transform="translate(-160.74 -55.348)"/><path class="x" d="M167.265,77.7l7.295-17.675,2.743,2.056-2.425,1.382L171.1,77.585l.071,1.017.036.646-.149-.063-.5.025-5.279,5.346a3.441,3.441,0,0,1-.346-.51Z" transform="translate(-164.933 -60.029)"/><path class="y" d="M168,69.833l1.389.5,1.166-.057.5-.025.149.063,4.067,1.6.334.126,1.449.562,1.365.539,2.938,1.636L186,77.363l1.061,2.125,1.517,3.022.05.025,1.189.673,8.424,5.017,11.335,6.764-2.632,4.522c-.038,0-.05.013-.075.011h-.013a2.513,2.513,0,0,1-.4-.038c-.111-.011-.235-.025-.359-.05a20.011,20.011,0,0,1-2.033-.566c-.248-.088-.52-.176-.793-.275-.547-.187-1.141-.426-1.785-.677a.343.343,0,0,0-.088-.05h-.025c-.26-.1-.52-.212-.782-.325-.011,0-.036-.013-.048-.013-.447-.187-.906-.386-1.389-.6-.075-.036-.161-.075-.247-.113-.583-.262-1.2-.549-1.835-.849-1.116-.526-2.3-1.1-3.57-1.749-.26-.126-.52-.262-.78-.4h-.013c-2.454-1.261-5.143-2.735-8-4.4-.633-.361-1.238-.724-1.833-1.086-3.545-2.108-6.6-4.08-9.143-5.85-4.533-3.117-7.429-5.571-8.455-6.865a3.441,3.441,0,0,1-.346-.51Z" transform="translate(-164.933 -51.096)"/><path class="z" d="M165.474,72.118a3.393,3.393,0,0,0,.346.51c1.026,1.294,3.924,3.748,8.457,6.867,2.538,1.77,5.6,3.74,9.141,5.85.594.361,1.2.722,1.835,1.086,2.861,1.659,5.55,3.132,8,4.394h.011c.262.138.522.275.782.4,1.263.65,2.454,1.225,3.568,1.751.633.3,1.254.587,1.835.849.088.038.174.075.248.113.484.212.942.413,1.388.6.013,0,.038.013.05.013.262.111.522.224.782.325h.025a.285.285,0,0,1,.086.05c.646.25,1.24.487,1.785.677.273.1.547.187.8.275a19.2,19.2,0,0,0,2.034.564c.124.027.248.038.359.052a2.492,2.492,0,0,0,.4.038h.011c.021,0,.038-.008.061-.01l-.527.908c-.038,0-.05.011-.075.011h-.013a2.513,2.513,0,0,1-.4-.038c-.111-.011-.235-.025-.359-.05a20.011,20.011,0,0,1-2.033-.566c-.248-.088-.522-.176-.793-.275-.547-.187-1.141-.426-1.785-.677a.343.343,0,0,0-.088-.05h-.025c-.26-.1-.52-.212-.782-.325-.011,0-.036-.013-.048-.013-.447-.187-.906-.386-1.389-.6-.075-.036-.161-.075-.247-.113-.583-.262-1.2-.549-1.835-.849-1.116-.526-2.3-1.1-3.57-1.749-.26-.126-.52-.262-.78-.4h-.013c-2.454-1.263-5.143-2.735-8-4.4-.633-.361-1.238-.724-1.833-1.086-3.543-2.108-6.6-4.08-9.143-5.85-4.533-3.117-7.429-5.571-8.455-6.865a3.441,3.441,0,0,1-.346-.51Z" transform="translate(-164.933 -49.014)"/><path class="aa" d="M171.938,62.487l2.425-1.382L187.4,68.692c.013,0,.025.013.036.013l.273.162-15.375,11-4.067-1.6-.036-.646-.071-1.017Z" transform="translate(-161.994 -59.049)"/><path class="c" d="M219.714,65.99,197.528,78.876l-10.147,25.071,39.078-21.714Z" transform="translate(-144.479 -54.597)"/></g><path class="ab" d="M169.588,64.571l.7-.384-.027-.015,20.648-10.588,40.439,27.2-17.512,9.483S203.294,84.8,191.1,77.713,169.6,64.508,169.588,64.571Z" transform="translate(-152.208 -7.691)"/><path class="c" d="M206.013,65.477,211.044,82.7l-2.214-.185L204.3,66.458Z" transform="translate(-120.58 3.188)"/><path class="c" d="M209.537,64.167l6.025,15.6-5.335,4.132L205.2,66.67Z" transform="translate(-119.762 1.991)"/><path class="f" d="M169.592,66.322l1.986,1.709,34.785,20.876,6.943,4.147.434-.55a2.435,2.435,0,0,1,.4-.6c1.544-2.152,6.725-5.768,16.721-12.071-10.3,10.175-8.5,17.969,13.43-10.19L230.431,77.7l-43.688-26.1s.027,2.567.01,2.6C175.666,61.168,170.374,64.7,169.592,66.322Z" transform="translate(-152.204 -9.511)"/><path class="r" d="M201.849,86.066l17.138,11.376v.017l.363-.206.242-.137h.017L268.9,70.122V70.1l-.134-23.06-.01-2.3L201.43,80.856l.151,4.679Z" transform="translate(-123.194 -15.782)"/><g transform="translate(91.751 54.407)"><path class="c" d="M208.5,102.947,236.872,88l.882-.5,24.314-14.043.346-.189.048-15.259L212.907,85.13v.035Z" transform="translate(-208.501 -58.016)"/></g><path class="ac" d="M206.569,79a2.278,2.278,0,0,1,1.718-2.343l0,7.687-.682.185c-.6.164-1.005.518-1.005-1C206.6,83.528,206.5,81.181,206.569,79Z" transform="translate(-118.534 13.42)"/><g transform="translate(34.534)"><path class="f" d="M178.578,68.507l66.79-38.854,44.238,25.778L222.266,94.61S177.64,69,178.578,68.507Z" transform="translate(-178.563 -29.653)"/><path class="v" d="M178.571,49.983l43.689,26.1.419,5.21L178.57,55.662Z" transform="translate(-178.557 -11.129)"/><path class="r" d="M192.9,99.6l25.935-15.181,1.9-1.1-5.051,2.855,60.9-38.959-.038,1.3V43.141L209.2,82.322s12.346-4.921,12.029-2.368c-.443,3.5-11.589,7.559-11.607,7.576-.466.291-.952.6-1.418.893C198.762,94.451,194.372,97.549,192.9,99.6Z" transform="translate(-165.502 -17.363)"/></g><path class="q" d="M182.966,139.722l.667,7.494,102.438-58.6.063-19.918-.1-22.4L219.078,84.654S204.947,93.16,203.4,95.314c-.206.241-1.378,1.856-1.447,2.011l-.382.482-9.76,24.083-9.292,12.706Z" transform="translate(-140.423 -14.111)"/><path class="z" d="M174.419,82.845l.644-.742a.856.856,0,0,0-.306-1.277l-5.892-3.691a1.815,1.815,0,0,0-2.546.426l-.375.665a.878.878,0,0,0,.377,1.147l5.684,3.664A1.886,1.886,0,0,0,174.419,82.845Z" transform="translate(-155.611 13.556)"/><path class="z" d="M186.672,89l.671-.8a.779.779,0,0,0-.327-1.229L179.358,83.2a2.094,2.094,0,0,0-2.676.694l-.39.7a.785.785,0,0,0,.4,1.093l7.438,3.771A2.15,2.15,0,0,0,186.672,89Z" transform="translate(-146.186 19.213)"/><g transform="translate(133.976 86.867)"><path class="t" d="M234.848,88.473l15.389-8.811-8.015-4.686-.014,4.457L230.6,86Z" transform="translate(-230.593 -74.976)"/><path class="ad" d="M248.208,78.511l-15.389,8.811,0-1.083,15.389-8.811Z" transform="translate(-228.569 -72.741)"/><path class="u" d="M234.846,84.3l-4.25-2.472,0-1.083,4.25,2.472Z" transform="translate(-230.595 -69.719)"/></g><g transform="translate(76.256 111.961)"><path class="t" d="M203.177,107.79l32.717-18.365-2.4-1.386-32.841,18.306Z" transform="translate(-200.155 -88.038)"/><path class="ad" d="M234.689,89.846l-32.717,18.365,0-1.083,32.716-18.365Z" transform="translate(-198.955 -87.377)"/><path class="u" d="M203.411,100.331l-3.017-1.836,0-1.083,3.018,1.836Z" transform="translate(-200.394 -79.497)"/></g><g transform="translate(14.517 125.058)"><path class="z" d="M169.162,100.566a2.237,2.237,0,0,1-1.072-1.7l.01-3.031c0-.594.485-.8,1.08-.451l7.972,4.637a2.237,2.237,0,0,1,1.072,1.7l-.01,3.031c0,.6-.485.8-1.078.453Z" transform="translate(-168.09 -94.599)"/><path class="ae" d="M169.163,100.246a2.24,2.24,0,0,1-1.072-1.7l.01-3.033c0-.592.485-.8,1.08-.451l7.972,4.637a2.237,2.237,0,0,1,1.072,1.7l-.01,3.031c0,.594-.485.8-1.078.453Z" transform="translate(-168.089 -94.891)"/><path class="ae" d="M177.04,104.567l-7.973-4.635a1.816,1.816,0,0,1-.87-1.384l.01-3.031c0-.484.394-.648.875-.367l7.973,4.637a1.813,1.813,0,0,1,.87,1.382l-.01,3.031C177.913,104.683,177.522,104.848,177.04,104.567Z" transform="translate(-167.992 -94.78)"/><g transform="translate(0.208 0.234)"><path class="af" d="M177.915,101.147a1.815,1.815,0,0,0-.866-1.361l-7.973-4.637c-.474-.277-.858-.117-.872.35Z" transform="translate(-168.194 -95.014)"/><path class="af" d="M168.2,96.874a1.817,1.817,0,0,0,.866,1.361l7.973,4.637c.476.277.86.118.871-.35Z" transform="translate(-168.199 -93.319)"/></g></g><g transform="translate(138.771 85.19)"><path class="ag" d="M236.89,74.452l0,1.582a.841.841,0,0,1-.426.724l-2.842,1.628a.344.344,0,0,1-.514-.3l0-.187,2.379-1.361a.844.844,0,0,0,.424-.724l0-1.4.462-.262A.343.343,0,0,1,236.89,74.452Z" transform="translate(-233.104 -74.11)"/><path class="ah" d="M235.913,74.271l0,1.4a.844.844,0,0,1-.424.724L233.1,77.751l0-1.391a.839.839,0,0,1,.424-.728Z" transform="translate(-233.103 -73.963)"/></g><g transform="translate(138.784 29.533)"><path class="ag" d="M236.9,45.407l0,1.584a.846.846,0,0,1-.426.724l-2.842,1.626a.344.344,0,0,1-.514-.3l0-.189,2.379-1.361a.844.844,0,0,0,.424-.724l0-1.4.463-.262A.343.343,0,0,1,236.9,45.407Z" transform="translate(-233.111 -45.065)"/><path class="ah" d="M235.92,45.226l0,1.4a.844.844,0,0,1-.424.724l-2.379,1.361,0-1.391a.846.846,0,0,1,.424-.728Z" transform="translate(-233.11 -44.918)"/></g><g transform="translate(80.335 62.975)"><path class="ag" d="M206.312,62.859l0,1.584a.844.844,0,0,1-.424.724l-2.844,1.626a.342.342,0,0,1-.512-.3v-.189l2.379-1.361a.84.84,0,0,0,.424-.724l0-1.4.464-.262A.342.342,0,0,1,206.312,62.859Z" transform="translate(-202.528 -62.517)"/><path class="ah" d="M205.336,62.678l0,1.4a.84.84,0,0,1-.424.724l-2.379,1.361,0-1.391a.846.846,0,0,1,.424-.728Z" transform="translate(-202.528 -62.37)"/></g><g transform="translate(80.159 118.779)"><path class="ag" d="M206.22,91.948l0,1.582a.842.842,0,0,1-.424.724l-2.842,1.628a.345.345,0,0,1-.514-.3v-.189l2.379-1.361a.836.836,0,0,0,.424-.724l.006-1.393.462-.262A.342.342,0,0,1,206.22,91.948Z" transform="translate(-202.436 -91.606)"/><path class="ah" d="M205.245,91.767l-.006,1.393a.836.836,0,0,1-.424.724l-2.379,1.361,0-1.389a.843.843,0,0,1,.424-.728Z" transform="translate(-202.436 -91.459)"/></g><path class="z" d="M208.691,89.814a6.087,6.087,0,0,0,2.916-5.218l-.086-13.069a3.046,3.046,0,0,0-4.644-2.58l-8.53,5.237a7.666,7.666,0,0,0-3.211,3.983l-4.594,13.1.554,9.2Z" transform="translate(-133.115 5.983)"/><path class="ai" d="M198.314,74.445l8.317-5.107a2.456,2.456,0,0,1,3.74,2.077l.084,12.748a5.384,5.384,0,0,1-2.6,4.64L191.436,98.75l-.484-8.014L195.4,78.059A6.93,6.93,0,0,1,198.314,74.445Z" transform="translate(-132.741 6.417)"/><path class="b" d="M192.357,84.962c.254-1.72-.164-4.438,1.269-5.756a2.024,2.024,0,0,1,1.477-.327c.615-.006,1.233-.011,1.848-.044a2.781,2.781,0,0,1,1.89.778c1.139.954.707,3.121.6,4.417-.138,1.647-.4,3.28-.6,4.921a9.185,9.185,0,0,1-.508,2.5c-.556,1.317-2.1,1.552-3.369,1.592a2.3,2.3,0,0,1-1.892-.642,1.7,1.7,0,0,1-.361-1.344c.054-.684.044-1.376.061-2.06a1.589,1.589,0,0,0-.052-.547.276.276,0,0,0-.086-.134.3.3,0,0,0-.2-.031,4.717,4.717,0,0,0-1.529.753,2.45,2.45,0,0,1-1.577.438.406.406,0,0,1-.208-.1.429.429,0,0,1-.094-.22,4,4,0,0,1,.843-3.5c.594-.721,1.389-.625,2.23-.581l.107.006a.12.12,0,0,0,.155-.126Z" transform="translate(-134.59 15.425)"/><path class="ae" d="M175.379,94.034A5.156,5.156,0,0,0,173.1,89.9a1.985,1.985,0,0,0-1.835-.247,1.7,1.7,0,0,0-.717,1.514,5.327,5.327,0,0,0,2.376,4.2C174.259,96.156,175.358,95.561,175.379,94.034Z" transform="translate(-151.33 25.196)"/><g transform="translate(35.124 119.343)"><path class="aj" d="M178.872,92.792l.312,5.091a2.239,2.239,0,0,0,1.082,1.921l4.755,2.7a.9.9,0,0,0,1.349-.772l.021-1.4-.317-3.7a2.138,2.138,0,0,0-1.1-1.919l-4.308-2.458-.432-.245a.764.764,0,0,0-.533-.105A.888.888,0,0,0,178.872,92.792Z" transform="translate(-178.872 -91.901)"/><path class="ak" d="M179.307,91.913l.378,5.837a1.409,1.409,0,0,0,.755,1.158l3.343,1.749.828.468a.531.531,0,0,0,.812-.516L185.2,95.24a2.265,2.265,0,0,0-.619-.52l-4.308-2.458-.432-.245A.764.764,0,0,0,179.307,91.913Z" transform="translate(-178.476 -91.901)"/></g><g transform="translate(35.705 128.559)"><path class="aj" d="M179.176,97.613l.086,1.181a2.236,2.236,0,0,0,1.082,1.919l4.755,2.7a.9.9,0,0,0,1.349-.772l-.071-1.181a2.255,2.255,0,0,0-.478-1.4,2.3,2.3,0,0,0-.619-.52l-4.308-2.458-.432-.243a.744.744,0,0,0-.533-.105A.884.884,0,0,0,179.176,97.613Z" transform="translate(-179.176 -96.723)"/><path class="ak" d="M179.611,96.736l.153,1.923a1.41,1.41,0,0,0,.757,1.16l3.343,1.747.828.468a.53.53,0,0,0,.812-.514v-1.458a2.3,2.3,0,0,0-.619-.52l-4.308-2.458-.432-.243A.744.744,0,0,0,179.611,96.736Z" transform="translate(-178.78 -96.723)"/></g><path class="t" d="M186.855,110.35a23.523,23.523,0,0,1,2.011-6.458c2.918-6.336,5.2-8.619,10.529-11.658,3.582-2.049,8.648-3.526,11.872-1.03,2.183,1.689,2.947,3.4,3.637,6.991-3.723-8.965-9.9-5.9-15.037-2.959a22.727,22.727,0,0,0-8.113,8.663c1.445-.982-1.846,8-1.846,8s-.415.09-1.1.227c-.164,1,1.275.694,1.273,1.655,0,.506-.652-3.6-1.061-2.991Z" transform="translate(-136.474 25.612)"/><path class="ad" d="M189.633,113.991c-.644.422-1.309.8-1.986,1.16.033-8.352,6.02-18.542,13.392-22.762s13.332-.852,13.306,7.515a20.354,20.354,0,0,1-.283,3.226l-1.517.864a17.871,17.871,0,0,0,.384-3.461c.013-4.109-1.63-6.832-4.208-7.771-2.009-.74-4.579-.388-7.4,1.217-6.427,3.679-11.67,12.574-11.693,19.872C189.625,113.9,189.631,113.943,189.633,113.991Z" transform="translate(-135.753 26.232)"/><g transform="translate(30.218 101.703)"><path class="e" d="M182.832,84.742l.456.353-2.451,3.415-.586-.225Z" transform="translate(-172.709 -80.885)"/><path class="e" d="M182.078,84.289l.456.353-2.451,3.415-.586-.225Z" transform="translate(-173.396 -81.298)"/><path class="e" d="M181.325,83.836l.456.353L179.33,87.6l-.586-.225Z" transform="translate(-174.083 -81.711)"/><path class="e" d="M180.571,83.382l.456.353-2.451,3.415-.586-.225Z" transform="translate(-174.77 -82.123)"/><path class="e" d="M179.781,82.985l.456.353-2.451,3.415-.586-.224Z" transform="translate(-175.49 -82.485)"/><path class="e" d="M178.886,82.724l.456.353-2.451,3.415-.586-.225Z" transform="translate(-176.305 -82.724)"/></g><g transform="translate(10.157 89.629)"><path class="e" d="M171.953,78.835l.379.414-2.551,2.842-.509-.314Z" transform="translate(-162.652 -74.226)"/><path class="e" d="M171.232,78.359l.379.414-2.551,2.842-.509-.314Z" transform="translate(-163.309 -74.659)"/><path class="e" d="M170.451,77.958l.379.414-2.551,2.842-.509-.313Z" transform="translate(-164.021 -75.025)"/><path class="e" d="M169.812,77.4l.379.414-2.551,2.842-.509-.314Z" transform="translate(-164.603 -75.535)"/><path class="e" d="M169.106,76.916l.379.414-2.551,2.841-.509-.314Z" transform="translate(-165.247 -75.974)"/><path class="e" d="M168.351,76.423l.379.414-2.551,2.842-.371-.465Z" transform="translate(-165.808 -76.423)"/></g><g transform="translate(73.903 3.096)"><path class="v" d="M204.2,44.8l.545-.3-.021-.011,21.912-13.2,14.894,8.589L218.414,53.317C219.51,53.978,203.085,52.786,204.2,44.8Z" transform="translate(-194.622 -31.262)"/><path class="al" d="M200.215,44.783l.545-.3-.021-.013,21.914-13.2,14.892,8.589-22.43,13.445S200.223,44.733,200.215,44.783Z" transform="translate(-198.204 -31.273)"/><path class="am" d="M201.174,38.342l-2.011,5.122,14.893,8.588,2.016-5.186Z" transform="translate(-199.163 -24.832)"/><path class="an" d="M208.972,49.212,206.956,54.4,234.47,38.469l-3.067-2.7Z" transform="translate(-192.062 -27.178)"/><path class="ao" d="M227.463,37.989l-8.079-4.617-15.672,9.453,8.079,4.558Z" transform="translate(-195.017 -29.36)"/><g transform="translate(7.486 3.054)"><path class="al" d="M206.744,47.174l-.738-.52,20.073-12,.363.363-.233.141.375.21C222.679,37.566,216.938,41.326,206.744,47.174Z" transform="translate(-200.414 -31.25)"/><path class="al" d="M205.769,46.581l-.738-.52,20.073-12,.361.361-.233.143.377.21C221.7,36.973,215.963,40.733,205.769,46.581Z" transform="translate(-201.302 -31.79)"/><path class="al" d="M204.795,45.988l-.74-.52,20.073-12,.363.361-.233.143.375.21C220.728,36.379,214.989,40.14,204.795,45.988Z" transform="translate(-202.192 -32.331)"/><path class="al" d="M203.818,45.395l-.738-.52,20.073-12,.363.361-.233.143.375.21C219.751,35.786,214.012,39.547,203.818,45.395Z" transform="translate(-203.08 -32.871)"/></g></g><path class="ap" d="M182.592,93.932l1.808-.973a2.364,2.364,0,0,1,3.476,1.917l.535,8.507a4.936,4.936,0,0,1-1.835,4.155l-2.6,2.089Z" transform="translate(-140.359 28.148)"/><g transform="translate(9.677 102.434)"><path class="s" d="M176.347,89.451l1.583,17.583L181.211,109,179.646,91.1Z" transform="translate(-155.725 -77.224)"/><path class="s" d="M165.557,83.054l1.583,17.583,3.281,1.964-1.565-17.894Z" transform="translate(-165.557 -83.054)"/></g><path class="aq" d="M183.165,94.7l.373,10.254a1.212,1.212,0,0,0,2,.873,3.738,3.738,0,0,0,1.523-2.248c.006-1.575-.671-9.3-.671-9.3S185.449,91.788,183.165,94.7Z" transform="translate(-139.837 28.708)"/><g transform="translate(2.137 99.846)"><path class="aj" d="M161.612,82.643l.313,5.091a2.237,2.237,0,0,0,1.08,1.921l4.757,2.7a.9.9,0,0,0,1.347-.772l.023-1.4-.317-3.7a2.245,2.245,0,0,0-.478-1.4,2.274,2.274,0,0,0-.621-.52l-4.308-2.458-.43-.245a.767.767,0,0,0-.535-.105A.889.889,0,0,0,161.612,82.643Z" transform="translate(-161.612 -81.752)"/><path class="ak" d="M162.047,81.764l.378,5.837a1.411,1.411,0,0,0,.757,1.158l3.343,1.749.828.468a.531.531,0,0,0,.812-.516l-.224-5.368a2.274,2.274,0,0,0-.621-.52l-4.308-2.458-.43-.245A.767.767,0,0,0,162.047,81.764Z" transform="translate(-161.216 -81.752)"/></g><g transform="translate(2.718 109.08)"><path class="aj" d="M161.916,87.464,162,88.645a2.234,2.234,0,0,0,1.082,1.919l4.755,2.7a.9.9,0,0,0,1.349-.772l-.071-1.181a2.266,2.266,0,0,0-.478-1.4,2.309,2.309,0,0,0-.621-.52l-4.308-2.458-.43-.243a.747.747,0,0,0-.535-.105A.886.886,0,0,0,161.916,87.464Z" transform="translate(-161.916 -86.574)"/><path class="ak" d="M162.351,86.587l.155,1.923a1.415,1.415,0,0,0,.755,1.16l3.343,1.747.828.468a.529.529,0,0,0,.812-.514l0-1.458a2.309,2.309,0,0,0-.621-.52l-4.308-2.458-.43-.243A.747.747,0,0,0,162.351,86.587Z" transform="translate(-161.52 -86.574)"/></g><path class="z" d="M174.891,91.513c.258.14.5.3.776.451.069.036.155.088.224.122.31.191.619.365.929.537l.384-1,2.018-5.344.313-.81L186.5,67.2l-1.172-.678-.74-.434-8.86,23.242-.313.791-.14.38Z" transform="translate(-147.376 3.76)"/><path class="ar" d="M174.114,92.09l1.912,1.128.348-.931,1.288-3.4,8.373-22.051-.741-.434-1.172-.677-9.939,26.154Z" transform="translate(-148.084 3.437)"/><path class="t" d="M228.586,75.851c5.479-3.129,11.165-1.521,13.206,2.658-.847-.642-2.714-1.791-3.49-2.372a2.192,2.192,0,0,0-2.773-.075c-1.888-.43-2.511.227-5.011,1.647-6.427,3.679-13.323,12.3-13.346,19.6a13.506,13.506,0,0,0,.094,1.615c.061.508-.556,2.855-.445,3.316,0,0,.522-6.049.524-6.955A21.519,21.519,0,0,1,228.586,75.851Z" transform="translate(-109.182 11.22)"/><path class="ad" d="M216.708,99.27a14.8,14.8,0,0,0,.2,2.546c1.292-.468,2.137-.787,2.137-.787a12.631,12.631,0,0,1-.269-1.452,13.5,13.5,0,0,1-.094-1.615c.023-7.3,5.265-16.193,11.695-19.872,2.821-1.6,5.391-1.955,7.4-1.217,2.58.938,4.222,3.662,4.208,7.771a17.833,17.833,0,0,1-.382,3.461l1.516-.864a20.589,20.589,0,0,0,.285-3.226c.025-8.365-5.934-11.723-13.308-7.515S216.733,90.918,216.708,99.27Z" transform="translate(-109.273 11.649)"/></g><g transform="translate(85.16 50.767)"><path class="as" d="M205.089,82.861l-.036-11.849,1.955-1.019.031,9.919,2.712-1.41.006,1.928Z" transform="translate(-205.053 -43.485)"/><path class="as" d="M213.585,79.271l-.612-2.678-2.739,1.426-.6,3.306-1.955,1.019,2.565-13.254,2.653-1.382,2.649,10.538Zm-.984-4.442-.57-2.462c-.034-.151-.113-.531-.231-1.143s-.191-1.024-.216-1.24c-.061.5-.138,1.051-.233,1.661s-.338,2.016-.736,4.22Z" transform="translate(-202.657 -45.567)"/><path class="as" d="M218.75,65.007l.023,7.668a7.511,7.511,0,0,1-.839,3.671,5.73,5.73,0,0,1-2.446,2.393q-1.568.817-2.391.136t-.829-2.842l-.025-7.635,1.942-1.013.025,7.8q.006,2.262,1.336,1.569a2.142,2.142,0,0,0,.956-1.074,4.4,4.4,0,0,0,.333-1.814l-.025-7.847Z" transform="translate(-198.502 -48.028)"/><path class="as" d="M224,74.355,221.606,75.6l-3.276-6.89-.094.048a10.138,10.138,0,0,1,.185,2.014l.021,6.477-1.812.942-.036-11.849,2.4-1.25,3.249,6.815.078-.042a11.453,11.453,0,0,1-.143-1.953l-.021-6.469,1.8-.936Z" transform="translate(-194.536 -50.307)"/><path class="as" d="M228.123,65.249a11.046,11.046,0,0,1-1.047,5.038,6.946,6.946,0,0,1-3.046,3.144l-2.574,1.342-.038-11.849,2.813-1.466q1.832-.955,2.857.042T228.123,65.249Zm-2.007,1.11q-.011-3.97-1.953-2.959l-.784.407.025,8.015.633-.331a3.37,3.37,0,0,0,1.579-1.831A8.988,8.988,0,0,0,226.117,66.359Z" transform="translate(-190.142 -51.689)"/><path class="as" d="M227.7,66.875l.013,4.612-1.955,1.021-.038-11.851,2.559-1.332q1.625-.846,2.4-.382t.782,2.246a5.739,5.739,0,0,1-1.336,3.84l2.037,4.142-2.093,1.089-1.674-3.746Zm-.006-1.9.5-.262a2.21,2.21,0,0,0,.994-.959,3.264,3.264,0,0,0,.3-1.475q0-.906-.325-1.126t-.99.132l-.487.254Z" transform="translate(-186.224 -53.705)"/><path class="as" d="M232.559,62.6l1.388-5.407,2.049-1.066-2.473,8.4.015,4.751-1.926,1-.015-4.661-2.511-5.892,2.064-1.074Z" transform="translate(-183.156 -56.123)"/></g></g></svg>