<svg xmlns="http://www.w3.org/2000/svg" xmlns:xlink="http://www.w3.org/1999/xlink" width="122" height="144" viewBox="0 0 122 144"><defs><style>.a,.e,.h,.i,.l,.m,.n,.s,.v,.y{fill:none;}.b{clip-path:url(#a);}.c{fill:#d38a7a;}.d{fill:#2a3045;}.e{stroke:#090909;stroke-width:2.004px;}.e,.h,.i,.l,.m,.n,.v,.y{stroke-miterlimit:10;}.f{fill:#191c26;}.g{fill:#1c1c1c;}.h,.l,.s,.y{stroke:#000;}.h,.i{stroke-width:2.154px;}.i{stroke:#4c2a3d;}.j{fill:#260d11;}.k{fill:#ba675a;}.l{stroke-width:1.077px;}.m,.n,.v{stroke:#ba675a;}.m{stroke-width:1.523px;}.n{stroke-width:0.609px;}.o{fill:#ca7e6e;}.p{fill:#5764a1;}.q,.r{fill:#242a3c;}.r{opacity:0.4;}.s,.v{stroke-linecap:round;}.s{stroke-linejoin:round;stroke-width:1.775px;}.t{fill:#f8f5ec;}.u{fill:#fff;}.v{stroke-width:0.642px;mix-blend-mode:multiply;isolation:isolate;}.w,.x{fill:#39446d;font-family:ArialRoundedMTBold, Arial Rounded MT;}.w{font-size:13px;}.x{font-size:21px;}.y{stroke-width:0.75px;}</style><clipPath id="a"><rect class="a" width="122" height="144" transform="translate(0 0)"/></clipPath></defs><g transform="translate(0)"><g class="b"><g transform="translate(4.773 17.662)"><g transform="translate(11.774)"><path class="c" d="M101.579,701.027c-.032.679-.483,13.187-.117,17.017s-8.342.427-8.342.427,2.278-4.932,1.706-15.99S101.579,701.027,101.579,701.027Z" transform="translate(-83.13 -512.973)"/><path class="c" d="M268.418,707.221c.068.677,1.455,13.115,2.378,16.851s-9.6,1.353-9.6,1.353,2.943-4.924.757-15.779S268.418,707.221,268.418,707.221Z" transform="translate(-202.362 -517.902)"/><path class="d" d="M100.762,761.031c-3.282-2.026-3.275-2.854-3.679-5.869s-.163-6.995-2.37-6.618c-2.983.51-4.188,1.23-4.75,4.219-.726,3.86-1.82.006-1.82.006s-.32-.923-.747-.534-1.889,5.359-2.172,8.478-2.408,4.79.919,6.58,15.37.991,16.555-1S101.955,761.768,100.762,761.031Z" transform="translate(-76.87 -549.436)"/><path class="e" d="M116.654,788.852a7.405,7.405,0,0,0-6.926.716" transform="translate(-94.912 -577.682)"/><path class="e" d="M116.176,785.656c-.031-.127-.195-.157-.326-.162l-.982-.036a11.5,11.5,0,0,0-2.5.091,3.856,3.856,0,0,0-2.191,1.12" transform="translate(-95.231 -575.643)"/><path class="e" d="M114.954,781.9a7.931,7.931,0,0,0-5.97,1.065" transform="translate(-94.384 -573.005)"/><path class="e" d="M112.539,777.911a7.392,7.392,0,0,0-5.679,1.338" transform="translate(-92.877 -570.221)"/><path class="e" d="M105.328,776.3a.385.385,0,0,1,.553.232.337.337,0,0,1-.445.341.438.438,0,0,1-.207-.574.632.632,0,0,1,.553-.34c.263-.011.56.164.565.427s-.44.411-.529.164a7.842,7.842,0,0,1,4.648.656c.278.133.584.477.363.69a.454.454,0,0,1-.171.092,3.685,3.685,0,0,1-2.508-.192c-.8-.31-1.535-.761-2.329-1.081a7.714,7.714,0,0,0-3.025-.555,4.179,4.179,0,0,0-3.167,1.265,1.217,1.217,0,0,0-.341.964c.11.582.817.825,1.41.847a4.949,4.949,0,0,0,3.129-.982c.679-.511,1.215-1.191,1.882-1.716" transform="translate(-87.496 -568.918)"/><path class="e" d="M121.779,777.85a2.284,2.284,0,0,0,.115,1.022,8.589,8.589,0,0,0,.885,2.163,4.325,4.325,0,0,0,1.659,1.617" transform="translate(-103.445 -570.259)"/><path class="e" d="M112.093,778.309a15.108,15.108,0,0,1-1.112,3.109,5.087,5.087,0,0,1-2.289,2.308" transform="translate(-94.177 -570.585)"/><path class="f" d="M91.1,780.944a1.068,1.068,0,0,1,.189.9,1,1,0,0,1-.761.5,4.17,4.17,0,0,1-1.034.1.566.566,0,0,1-.274-.057.488.488,0,0,1-.2-.393,2.683,2.683,0,0,1,.233-1.062c.2-.6.127-1.881.485-2.306C90.2,779.378,90.656,780.171,91.1,780.944Z" transform="translate(-80.222 -570.807)"/><path class="g" d="M113.354,409.156s6.223,11.328,7.688,17.905,5.18,18.995,5.912,26.3,5.436,25.951,7.633,27.413l1.464,5.116s6.589,1.462,9.518-.731l-.732-5.846s.1-14.267-1.508-23.661c-1.614-9.452-1.47-12.647-3.642-18.61s-5.833-37.389-7.3-44.7-41,.731-41,.731-.732,33.618,0,40.2-3.661,13.886-5.125,19.732,1.465,26.31,2.2,28.5l.732,5.116s5.125.731,7.322-.731l.732-6.578s7.322-19,6.59-32.156S113.354,409.156,113.354,409.156Z" transform="translate(-77.98 -294.397)"/><path class="h" d="M178.382,425.179q.056-5.419-.037-10.84a3,3,0,0,0-.871-2.526" transform="translate(-142.972 -310.396)"/><path class="h" d="M180.507,451.648A4.7,4.7,0,0,1,182.7,450.4a23.515,23.515,0,0,1,6.417-1.164" transform="translate(-145.123 -336.961)"/><path class="h" d="M182.6,456.666a18.77,18.77,0,0,1,5.425-.091,1.031,1.031,0,0,1,.837.488.278.278,0,0,1,.019.18.317.317,0,0,1-.2.183,1.879,1.879,0,0,1-.838.078q-2.03-.126-4.042-.449" transform="translate(-146.61 -342.056)"/><path class="h" d="M153.759,450.081a31.753,31.753,0,0,0-10.432-2.135" transform="translate(-118.747 -336.048)"/><path class="h" d="M165.068,456.879a26.487,26.487,0,0,0-3.251.218,2.806,2.806,0,0,0-2.291,1.159.235.235,0,0,0-.034.13c.012.106.139.151.244.167,1.54.229,3.009-1.019,4.551-.81" transform="translate(-130.214 -342.39)"/><path class="i" d="M267.249,703.822a16.985,16.985,0,0,1-8.392.89" transform="translate(-200.705 -517.704)"/><path class="i" d="M103.269,701.733c-2.388,1.523-5.418,1.476-8.249,1.379" transform="translate(-84.478 -516.221)"/><path class="h" d="M240.507,407.308c-1.86,12.7,3.732,25.182,5.562,37.887,1.062,7.376.878,15.027,3.407,22.038a44.388,44.388,0,0,1,2.327,6.74c1.166,6.233-2.379,12.769-.658,18.872" transform="translate(-187.422 -307.197)"/><path class="h" d="M252.315,565.619a15.538,15.538,0,0,1-4.45,6.788" transform="translate(-192.907 -419.588)"/><path class="h" d="M259.677,569.781c.181,2.692-.7,5.33-1.573,7.884" transform="translate(-200.171 -422.543)"/><path class="h" d="M143.726,509.127c-1.357,7.113-6.084,13.342-6.855,20.543a43.358,43.358,0,0,0-.067,5.82,172.34,172.34,0,0,1-.507,18.82" transform="translate(-113.761 -379.482)"/><path class="h" d="M127.375,582.478a2.652,2.652,0,0,1-.992,1.827A6.913,6.913,0,0,1,123.128,586" transform="translate(-104.418 -431.557)"/><path class="h" d="M124.268,583.152a20.184,20.184,0,0,1-1.817,4.818,6.9,6.9,0,0,1-3.848,3.263" transform="translate(-101.207 -432.035)"/><g transform="translate(23.301)"><path class="c" d="M168.158,160.541a5.382,5.382,0,0,1-.9,1.347,4.377,4.377,0,0,1-.942.925,3.684,3.684,0,0,1-1,.415,23.484,23.484,0,0,1-2.708.61c-.139.019-.279.044-.424.063a10.561,10.561,0,0,1-4.44-.157,6.156,6.156,0,0,1-1.289-.545c-.379-.213-.773-.354-1.158-.555a6.8,6.8,0,0,1-2.066-1.745,26.274,26.274,0,0,1-1.873-2.985s1.394-1.477,1.957-2.231a7.837,7.837,0,0,0,1.1-2.409,32.412,32.412,0,0,0,1.123-6.168q.1-.919.16-1.841a2.974,2.974,0,0,0,.044-.719s7.823,5.091,9.863,7.444c-.052.315-.1.591-.128.831-.017.113-.029.214-.035.314-.006.069-.017.138-.017.208a6.947,6.947,0,0,0-.006,1.346,6.121,6.121,0,0,0,.093.629,9.129,9.129,0,0,0,.959,2.624,1.406,1.406,0,0,0,.343.447,1.629,1.629,0,0,0,.343.17C167.484,158.685,168.367,160.032,168.158,160.541Z" transform="translate(-147.745 -120.653)"/><path class="j" d="M147.51,79.71a4.136,4.136,0,0,1,.868,2.013c.861-2.639,2.1-6.36,2.35-7.643,2.7.4,8.329,1.123,9.47.418.354-.219,2.631.5,3.226.479a4.081,4.081,0,0,0,2.88-1.131,7.588,7.588,0,0,0,1.724-6.83,2.835,2.835,0,0,0-1-1.7,1.313,1.313,0,0,0-1.794.206c.586-1.158-.442-2.563-1.656-3.028a4.326,4.326,0,0,0-4.389.85,3.16,3.16,0,0,0-3.063-1.136c-1.286.18-2.312,1.1-3.539,1.049a15.684,15.684,0,0,0-2.743-.131,7.214,7.214,0,0,0-5.267,3.462c-.606.9-3.285-.066-4.79,4.225s-1.882,15.5,6.054,17.16a6.13,6.13,0,0,0,4.25-1.347L148.3,84.071Z" transform="translate(-138.926 -62.174)"/><g transform="translate(4.501 5.22)"><path class="c" d="M175.79,95.888c-.01.454-.026.954-.053,1.5-.038.8-.105,1.679-.2,2.6-.017.177-.034.365-.057.554a34.482,34.482,0,0,1-.617,3.572c-.139.6-.3,1.2-.482,1.793-1.06,3.391-2.907,6.291-6.1,6.846-5.144.528-10.346-7.55-10.518-7.684-.707.309-4.034-.8-3.214-3.821.721-2.665,3.749-.946,3.749-.946-.142-1.59.078-6.921.078-6.921l7.8-4.4,9.589,4.331S175.818,94.321,175.79,95.888Z" transform="translate(-154.416 -86.422)"/><path class="k" d="M160.133,132.668a.211.211,0,0,0,.036-.121,8.47,8.47,0,0,0,0-1.844,1.235,1.235,0,0,0-1.234-1.284,2.128,2.128,0,0,0-.834.036c-1.166.331-.848,1.868-.2,2.54a2.488,2.488,0,0,0,2.129.725A.186.186,0,0,0,160.133,132.668Z" transform="translate(-156.476 -115.116)"/><path class="j" d="M181.089,86.9a2.825,2.825,0,0,1-2.064,1.087c-.516-.019-1.024-.162-1.54-.143-.991.039-1.875.673-2.863.766a3.521,3.521,0,0,1-2.916-1.367c-.187-.225-.459-.494-.722-.366a.745.745,0,0,0-.223.213,1.878,1.878,0,0,1-2.292.412c-.555-.316-.912-.9-1.46-1.232-1.916-1.15-1.752,3.262-1.942,4.287-.216,1.164-.807,4.348-2.672,3.481-2.722-1.266-2.147-5.967-2.147-5.967s1.075-3.664,1.172-4.06,4.644-3.234,4.644-3.234l4.744-.613,3.746.133,6.3,6.156S181.172,86.808,181.089,86.9Z" transform="translate(-158.518 -80.168)"/><g transform="translate(8.616 9.145)"><path d="M195.857,123.945a1,1,0,1,1-.994-1.14A1.076,1.076,0,0,1,195.857,123.945Z" transform="translate(-191.026 -119.582)"/><path d="M219.927,127.22a1,1,0,1,1-.994-1.14A1.076,1.076,0,0,1,219.927,127.22Z" transform="translate(-208.102 -121.907)"/><path class="l" d="M194.361,112.964c-1.455-1.434-2.339-1.484-4.319-.975" transform="translate(-188.305 -111.695)"/><path class="l" d="M217.375,115.652a2.251,2.251,0,0,1,2.723-.218" transform="translate(-207.695 -114.095)"/><path class="m" d="M207.636,129.141s-.21,2.725.494,3.5l-1.509.742" transform="translate(-200.066 -124.081)"/><path class="n" d="M192.94,128.084a1.4,1.4,0,0,1-.762-1.209" transform="translate(-189.82 -122.472)"/><path class="n" d="M220.231,134.392a.56.56,0,0,1-.561.332.875.875,0,0,1-.593-.332" transform="translate(-208.903 -127.808)"/><path class="o" d="M187.529,136.485c-.086.522-.93.817-1.884.66s-1.659-.707-1.573-1.228.93-.817,1.884-.66S187.615,135.963,187.529,136.485Z" transform="translate(-184.065 -128.392)"/><path class="o" d="M218.87,140.714c-.139.6-.3,1.2-.482,1.793-.118-.006-.236-.023-.354-.04-.957-.155-1.661-.706-1.575-1.225s.929-.817,1.885-.661A2.852,2.852,0,0,1,218.87,140.714Z" transform="translate(-207.04 -132.173)"/></g></g><path class="k" d="M181.585,159.435a2.873,2.873,0,0,0-.034.294c-.006.065-.017.13-.017.195a5.99,5.99,0,0,0,0,1.26c-4.63-.935-6.438-2.966-7.509-6.472C175.823,158.911,180.723,159.386,181.585,159.435Z" transform="translate(-163.825 -127.871)"/></g><path class="p" d="M125.967,203.045a30.181,30.181,0,0,1-4.871,7.516,27.041,27.041,0,0,1-5.424,4.2s-1.4-1.623-2.48-.946-2.808,15.43-2.13,18.543.576,4.433.373,5.144,1.627,1.32,1.22,2.741a5.17,5.17,0,0,0,.305,3.35c.305,1.015,1.476,12.949.561,14.269,0,0-10.833,2.339-17.342,1.222S81.106,258.9,79.072,259s-8.238-1.015-8.136-1.523,1.221-11.532.814-13.054,0-8.122,1.017-9.238-.1-2.132-.61-3.553.1-4.568.814-5.787-2.95-11.167-2.95-11.167l-1,2.383A57.057,57.057,0,0,0,62.7,210.31c-2.543-2.03-3.745-2.9-3.949-3.507s5.319-9.474,12.306-13.142c4.061-2.132,15.021-3.2,15.021-3.2a13.044,13.044,0,0,0,1.357,1.939,9.688,9.688,0,0,0,2.531,2.132,9.027,9.027,0,0,0,6.294.836,8.207,8.207,0,0,0,3.794-1.679,24.855,24.855,0,0,0,2.44-2.825s4.059.737,5.23,1.068a44.884,44.884,0,0,1,5.315,1.913C119.378,196.536,125.967,203.045,125.967,203.045Z" transform="translate(-58.743 -153.247)"/><path class="q" d="M168.59,360.934a9.486,9.486,0,0,0-4.29.922c-1.216.755-1.714,2.53-.538,3.333a3.6,3.6,0,0,0,1.625.474,21.787,21.787,0,0,0,11.862-1.99,19,19,0,0,0,5.174-3.693c.814-.823,6.2-5.678.464-3.014a47.627,47.627,0,0,1-6.805,2.647A38.413,38.413,0,0,1,168.59,360.934Z" transform="translate(-132.77 -270.896)"/><path class="q" d="M121,320.951a18.677,18.677,0,0,0,4.134,1.817,15.882,15.882,0,0,0,3.578.413c.944.025,2.105.159,2.457,1.034a1.531,1.531,0,0,1-.649,1.747,3.031,3.031,0,0,1-1.939.4,10.8,10.8,0,0,1-3.191-.886,46.357,46.357,0,0,1-12.412-7.491,7.717,7.717,0,0,1-2.332-2.617c1.488.054,3.659,1.9,4.99,2.639Q118.312,319.494,121,320.951Z" transform="translate(-95.565 -241.923)"/><path class="r" d="M174.637,198.865a3.66,3.66,0,0,1-1.564,1.781,9.281,9.281,0,0,1-2.315,1.057,10.581,10.581,0,0,1-5.172.254,10.1,10.1,0,0,1-2.761-.987c-.352-.188-.666.347-.313.535a11.025,11.025,0,0,0,10.781-.264,4.4,4.4,0,0,0,1.945-2.212c.131-.378-.469-.54-.6-.164Z" transform="translate(-132.246 -159.064)"/><path class="r" d="M155.23,199.634c-.043-.029-.085-.059-.127-.09l-.062-.046c-.024-.018.016.014-.023-.018-.081-.065-.16-.132-.237-.2a4.622,4.622,0,0,1-.43-.449c-.033-.04-.066-.08-.1-.121.02.026,0,0-.008-.011l-.055-.075q-.086-.12-.165-.245a4.713,4.713,0,0,1-.3-.562.312.312,0,0,0-.425-.111.319.319,0,0,0-.112.424,4.954,4.954,0,0,0,1.728,2.041.312.312,0,0,0,.425-.111.317.317,0,0,0-.111-.424Z" transform="translate(-125.717 -158.362)"/><path class="q" d="M89.069,254.821a2,2,0,0,0-.937-1.052.314.314,0,0,0-.29,0,.3.3,0,0,0-.1.162,1.635,1.635,0,0,0,.529,1.523,5.124,5.124,0,0,1,1.079,1.293.281.281,0,0,1,0,.3,2.292,2.292,0,0,0-1.209-1c-.4-.193-.906-.376-1.245-.095a.735.735,0,0,0,.236.67,2.176,2.176,0,0,0,.632.385l1.373.633c.348.161.844.567.908.017a4.064,4.064,0,0,0-.374-1.4A11.324,11.324,0,0,0,89.069,254.821Z" transform="translate(-78.703 -198.168)"/><path class="q" d="M246.406,258.839a2.952,2.952,0,0,1,2.177-1.139.649.649,0,0,1,.514.236.55.55,0,0,1,.046.448,1.429,1.429,0,0,1-.664.763c-.691.437-1.511.635-2.209,1.061-.141.086-.291.265-.185.392a.288.288,0,0,0,.169.079,2.691,2.691,0,0,0,.622.053,1.732,1.732,0,0,1,.484.016.413.413,0,0,1,.326.32c.025.22-.2.39-.422.429a2.841,2.841,0,0,1-1.209-.248c-.634-.175-2.043.934-.849-.751A14.182,14.182,0,0,1,246.406,258.839Z" transform="translate(-190.69 -200.982)"/><g transform="translate(56.439 198.672)"><path class="d" d="M271.681,754.779a26.957,26.957,0,0,0,4.925.741c1.389.16,4.4-.067,5.026,1.182a3.023,3.023,0,0,1-.429,3.044c-.635.871-3.012,2.091-3.949,2.625a16.243,16.243,0,0,1-8.107,2.519,11.987,11.987,0,0,0-1.809.013,11.517,11.517,0,0,0-1.871.536c-3.694,1.17-7.706.371-11.437-.674a1.157,1.157,0,0,1-.484-.222,1.07,1.07,0,0,1-.261-.483,6.932,6.932,0,0,1-.22-3.29,13.8,13.8,0,0,1,.695-2.317,23.258,23.258,0,0,1,1.073-3.011,2.96,2.96,0,0,1,.653-.92c.7-.582,1.377-.025,2.025.329a26.985,26.985,0,0,0,5.094,2,2.6,2.6,0,0,0,.994.165.9.9,0,0,0,.788-.546,1.026,1.026,0,0,0-.122-.787c-.332-.628-.842-.836-1.28-1.32a4.987,4.987,0,0,1-1.049-2.272,1.929,1.929,0,0,1-.019-.886c.16-.6.75-.959,1.291-1.261a4.815,4.815,0,0,1,1.635-.663c1.6-.224,1.931,1.477,2.615,2.556A8.472,8.472,0,0,0,271.681,754.779Z" transform="translate(-252.961 -748.633)"/><path class="f" d="M253.569,788.283a1.069,1.069,0,0,1-.261-.483,6.929,6.929,0,0,1-.257-2.966,10.949,10.949,0,0,1,1.455.782,9.881,9.881,0,0,0,4.968,1.117,48.185,48.185,0,0,0,5.126-.485c2.792-.317,5.609-.4,8.392-.788a50.775,50.775,0,0,0,5.531-1.485c1.065-.321,2.081-.955,3.136-1.275a3.655,3.655,0,0,1-.431.787c-.635.871-3.012,2.091-3.949,2.625a16.244,16.244,0,0,1-8.107,2.52,12.028,12.028,0,0,0-1.809.013,11.505,11.505,0,0,0-1.871.536c-3.694,1.17-7.706.371-11.437-.674A1.152,1.152,0,0,1,253.569,788.283Z" transform="translate(-252.984 -772.373)"/><path class="s" d="M296.636,752.7a9.344,9.344,0,0,0,1.156-4.035,2.181,2.181,0,0,0-.215-.978,1.071,1.071,0,0,0-.78-.581,1.207,1.207,0,0,0-.8.24,2.09,2.09,0,0,0-.775.987,2.791,2.791,0,0,0,.078,1.936,8.308,8.308,0,0,0,.978,1.717l.535.786a8.992,8.992,0,0,1-4.092-.516,1.853,1.853,0,0,1-.93-.615.736.736,0,0,1,.122-1.008.991.991,0,0,1,.638-.088,4.971,4.971,0,0,1,2.494,1,5.931,5.931,0,0,0,1.751,1.223" transform="translate(-280.404 -747.1)"/><path class="s" d="M307.073,766.372a7.608,7.608,0,0,1-.532,1.3,1.76,1.76,0,0,0-.1,1.366" transform="translate(-290.827 -760.782)"/><path class="s" d="M312.718,767.571a4.96,4.96,0,0,0-1.485,3.386" transform="translate(-294.299 -761.633)"/><path class="s" d="M318.258,768.8a9.364,9.364,0,0,0-1.352,3.464" transform="translate(-298.324 -762.505)"/></g><path class="f" d="M85.875,803.586c-2.245-1.208-2.006-2.363-1.527-3.944,9.366,4.886,16.855,1.49,18.332.717a2.836,2.836,0,0,1-.25,2.231C101.245,804.577,89.2,805.376,85.875,803.586Z" transform="translate(-76.681 -585.73)"/><path class="t" d="M196.63,150.272c-1.293-.153-2.979-2.049-2.247-3.335a.687.687,0,0,1,.289-.3.875.875,0,0,1,.5-.019c.649.1,1.3.221,1.95.3,1.758.209,2.856.154,2.766.907S198.388,150.481,196.63,150.272Z" transform="translate(-154.841 -122.105)"/></g><g transform="translate(0 43.433)"><rect class="u" width="90.701" height="64.873" transform="matrix(0.996, -0.092, 0.092, 0.996, 1.563, 8.301)"/><g transform="translate(0 12.661)"><path class="c" d="M18.73,264.986s-1-2.27-.183-3.336,3.786-.333,5,.591,2.188,3.5-.408,3.2S18.73,264.986,18.73,264.986Z" transform="translate(-18.227 -259.509)"/><path class="c" d="M18.525,258.384a3.115,3.115,0,0,1,.668-2.415c.8-.721,2.712-.432,3.786.388s1.759,2.694-.545,2.43S18.525,258.384,18.525,258.384Z" transform="translate(-18.421 -255.558)"/><path class="v" d="M19.328,261.65c.815-1.066,3.786-.333,5,.591s2.188,3.5-.408,3.2" transform="translate(-19.008 -259.509)"/><path class="c" d="M19.548,273.333s-1.08-2.46-.2-3.615,4.1-.361,5.414.64,2.371,3.789-.442,3.466S19.548,273.333,19.548,273.333Z" transform="translate(-18.778 -265.206)"/><path class="v" d="M20.2,269.719c.883-1.155,4.1-.361,5.414.64s2.371,3.789-.442,3.466" transform="translate(-19.624 -265.206)"/><path class="c" d="M22.978,282.646s1.921.254,4.047.566,1.49-1.335-.042-2.363a10.588,10.588,0,0,0-4.465-1.637c-1.279-.171-1.556.8-1.787,1.253s.127,3.836,2.365,4.787A19.635,19.635,0,0,1,22.978,282.646Z" transform="translate(-19.96 -272.337)"/><path class="v" d="M27.13,280.85a10.588,10.588,0,0,0-4.465-1.637c-1.279-.171-1.556.8-1.787,1.253" transform="translate(-20.108 -272.337)"/></g><g transform="translate(88.549 11.74)"><path class="c" d="M332.863,261.421s.678-2.385-.275-3.33-3.8.186-4.869,1.266-1.69,3.762.842,3.113S332.863,261.421,332.863,261.421Z" transform="translate(-325.669 -256.184)"/><path class="c" d="M334.481,254.938a3.115,3.115,0,0,0-.992-2.3c-.887-.606-2.746-.059-3.7.9s-1.374,2.909.872,2.333S334.481,254.938,334.481,254.938Z" transform="translate(-327.255 -252.383)"/><path class="v" d="M332.588,258.091c-.953-.945-3.8.186-4.869,1.266s-1.69,3.762.842,3.113" transform="translate(-325.669 -256.184)"/><path class="c" d="M331.959,269.845s.734-2.584-.3-3.608-4.113.2-5.276,1.372-1.831,4.076.912,3.373S331.959,269.845,331.959,269.845Z" transform="translate(-324.668 -261.947)"/><path class="v" d="M331.66,266.237c-1.032-1.024-4.113.2-5.276,1.372s-1.831,4.076.912,3.373" transform="translate(-324.668 -261.947)"/><path class="c" d="M328.3,279.456s-1.869.514-3.932,1.112-1.658-1.12-.281-2.346a10.578,10.578,0,0,1,4.2-2.231c1.244-.344,1.651.58,1.941,1s.4,3.817-1.688,5.064A19.628,19.628,0,0,0,328.3,279.456Z" transform="translate(-322.94 -269.09)"/><path class="v" d="M326.9,278.222a10.579,10.579,0,0,1,4.2-2.231c1.244-.344,1.651.58,1.941,1" transform="translate(-325.747 -269.09)"/></g><text class="w" transform="translate(44.295 32.383) rotate(-5.439)"><tspan x="-34.068" y="0">WELCOME</tspan></text><text class="x" transform="translate(50.196 52.97) rotate(-5.439)"><tspan x="-30.649" y="0">BACK</tspan></text></g><path class="y" d="M23.756,240.341c.139,1.063.022,2.3.294,4.274" transform="translate(-22.149 -188.661)"/><path class="y" d="M24.032,237.58l13.11-1.117" transform="translate(-22.345 -185.908)"/><path class="y" d="M28.613,291.1c.871,16.43,3.624,33.048,5.3,49.5" transform="translate(-25.595 -224.697)"/><path class="y" d="M47.07,459.088c5.371-.585,10.868-1.212,16.5-1.471" transform="translate(-38.688 -342.914)"/></g></g></g></svg>