<svg xmlns="http://www.w3.org/2000/svg" xmlns:xlink="http://www.w3.org/1999/xlink" width="60" height="60" viewBox="0 0 60 60"><defs><style>.a,.d{fill:#fff;stroke:#707070;}.b{fill:#22aee4;}.c{clip-path:url(#c);}.d{stroke-width:0.031px;}.e{filter:url(#a);}</style><filter id="a" x="0" y="0" width="60" height="60" filterUnits="userSpaceOnUse"><feOffset input="SourceAlpha"/><feGaussianBlur stdDeviation="5" result="b"/><feFlood flood-opacity="0.102"/><feComposite operator="in" in2="b"/><feComposite in="SourceGraphic"/></filter><clipPath id="c"><rect class="a" width="14" height="14"/></clipPath></defs><g transform="translate(15 15)"><g class="e" transform="matrix(1, 0, 0, 1, -15, -15)"><circle class="b" cx="15" cy="15" r="15" transform="translate(15 15)"/></g><g class="c" transform="translate(22 8) rotate(90)"><g transform="translate(0 3.01)"><path class="d" d="M7,0a.978.978,0,0,0-.693.287L.287,6.307A.98.98,0,0,0,1.674,7.693L7,2.367l5.326,5.326a.98.98,0,0,0,1.386-1.387L7.693.287A.978.978,0,0,0,7,0Z"/></g></g></g></svg>