<svg xmlns="http://www.w3.org/2000/svg" xmlns:xlink="http://www.w3.org/1999/xlink" width="60" height="60" viewBox="0 0 60 60"><defs><style>.a,.d{fill:#fff;stroke:#707070;}.b{fill:#22aee4;}.c{clip-path:url(#c);}.d{stroke-width:0.031px;}.e{filter:url(#a);}</style><filter id="a" x="0" y="0" width="60" height="60" filterUnits="userSpaceOnUse"><feOffset input="SourceAlpha"/><feGaussianBlur stdDeviation="5" result="b"/><feFlood flood-opacity="0.102"/><feComposite operator="in" in2="b"/><feComposite in="SourceGraphic"/></filter><clipPath id="c"><rect class="a" width="14" height="14" transform="translate(7541 -171)"/></clipPath></defs><g transform="translate(-185 -189)"><g class="e" transform="matrix(1, 0, 0, 1, 185, 189)"><circle class="b" cx="15" cy="15" r="15" transform="translate(15 15)"/></g><g class="c" transform="translate(51 -7329) rotate(90)"><g transform="translate(7541 -171)"><path class="d" d="M7,10.99a.978.978,0,0,1-.693-.287L.287,4.683A.98.98,0,0,1,1.674,3.3L7,8.623,12.326,3.3a.98.98,0,1,1,1.386,1.387L7.693,10.7A.978.978,0,0,1,7,10.99Z"/></g></g></g></svg>