<svg xmlns="http://www.w3.org/2000/svg" xmlns:xlink="http://www.w3.org/1999/xlink" width="50" height="50" viewBox="0 0 50 50"><defs><style>.a{fill:#22aee4;}.b{clip-path:url(#a);}</style><clipPath id="a"><rect class="a" width="50" height="50" transform="translate(231 1627)"/></clipPath></defs><g class="b" transform="translate(-231 -1627)"><g transform="translate(231 1632.357)"><path class="a" d="M8.929,0a2.679,2.679,0,1,0,0,5.357H41.071a2.679,2.679,0,1,0,0-5.357Zm0,0"/><path class="a" d="M.893,14.286H49.107a.893.893,0,0,0,0-1.786H.893a.893.893,0,1,0,0,1.786Zm0,0"/><path class="a" d="M47.185,16.071H2.815L6.131,39.286H43.869ZM9.821,25.893a.893.893,0,0,1-1.786,0V22.321a.893.893,0,0,1,1.786,0ZM12.5,34.821a.893.893,0,1,1-1.786,0V31.25a.893.893,0,0,1,1.786,0Zm2.679-8.929a.893.893,0,0,1-1.786,0V22.321a.893.893,0,0,1,1.786,0Zm2.679,8.929a.893.893,0,1,1-1.786,0V31.25a.893.893,0,0,1,1.786,0Zm2.679-8.929a.893.893,0,0,1-1.786,0V22.321a.893.893,0,1,1,1.786,0Zm2.679,8.929a.893.893,0,1,1-1.786,0V31.25a.893.893,0,1,1,1.786,0Zm2.679-8.929a.893.893,0,0,1-1.786,0V22.321a.893.893,0,1,1,1.786,0Zm2.679,8.929a.893.893,0,1,1-1.786,0V31.25a.893.893,0,0,1,1.786,0Zm2.679-8.929a.893.893,0,0,1-1.786,0V22.321a.893.893,0,0,1,1.786,0Zm2.679,8.929a.893.893,0,1,1-1.786,0V31.25a.893.893,0,0,1,1.786,0Zm2.679-8.929a.893.893,0,0,1-1.786,0V22.321a.893.893,0,0,1,1.786,0Zm2.679,8.929a.893.893,0,1,1-1.786,0V31.25a.893.893,0,0,1,1.786,0Zm2.679-8.929a.893.893,0,0,1-1.786,0V22.321a.893.893,0,0,1,1.786,0Zm0,0"/><path class="a" d="M41.071,7.143H8.929A2.679,2.679,0,0,0,6.25,9.821a2.518,2.518,0,0,0,.163.893H43.586a2.518,2.518,0,0,0,.163-.893,2.679,2.679,0,0,0-2.679-2.679Zm0,0"/></g></g></svg>