<svg xmlns="http://www.w3.org/2000/svg" xmlns:xlink="http://www.w3.org/1999/xlink" width="60" height="60" viewBox="0 0 60 60">
  <defs>
    <clipPath id="clip-path">
      <rect id="Rectangle_64" data-name="Rectangle 64" width="60" height="60" transform="translate(159 1218)" fill="#fff" stroke="#707070" stroke-width="1"/>
    </clipPath>
  </defs>
  <g id="Mask_Group_22" data-name="Mask Group 22" transform="translate(-159 -1218)" clip-path="url(#clip-path)">
    <g id="delivery-truck" transform="translate(159 1226.916)">
      <path id="Path_1443" data-name="Path 1443" d="M2.105,34.04V8.512A2.569,2.569,0,0,1,4.674,5.944H30.189a2.568,2.568,0,0,1,2.568,2.569V34.04a.856.856,0,0,1-.856.856H2.961A.856.856,0,0,1,2.105,34.04Zm20.6,8.745a5.327,5.327,0,1,1-5.327-5.327A5.327,5.327,0,0,1,22.709,42.785Zm-2.664,0a2.664,2.664,0,1,0-2.664,2.664A2.664,2.664,0,0,0,20.045,42.785Zm-7.252-5.327H.856A.856.856,0,0,0,0,38.314v2.6a.856.856,0,0,0,.856.856h9.568A7.027,7.027,0,0,1,12.794,37.458Zm37.789,5.327a5.327,5.327,0,1,1-5.327-5.327A5.327,5.327,0,0,1,50.582,42.785Zm-2.664,0a2.664,2.664,0,1,0-2.664,2.664A2.664,2.664,0,0,0,47.919,42.785ZM60,38.314v2.6a.856.856,0,0,1-.856.856H52.212a7.03,7.03,0,0,0-13.915,0H24.339a7.028,7.028,0,0,0-2.369-4.31H35.205V12.969a1.712,1.712,0,0,1,1.712-1.712H45a6.849,6.849,0,0,1,5.676,3.017l5.211,7.718a6.85,6.85,0,0,1,1.173,3.833V37.458h2.084A.856.856,0,0,1,60,38.314ZM51.315,22.188l-4.167-5.921a.856.856,0,0,0-.7-.363h-6.5a.856.856,0,0,0-.856.856v5.921a.856.856,0,0,0,.856.856H50.615A.856.856,0,0,0,51.315,22.188Z" transform="translate(0 -5.944)" fill="#fff"/>
    </g>
  </g>
</svg>
