<svg xmlns="http://www.w3.org/2000/svg" xmlns:xlink="http://www.w3.org/1999/xlink" width="50" height="50" viewBox="0 0 50 50"><defs><style>.a{fill:#22aee4;}.b{clip-path:url(#a);}</style><clipPath id="a"><rect class="a" width="50" height="50" transform="translate(875 1752)"/></clipPath></defs><g class="b" transform="translate(-875 -1752)"><g transform="translate(875 1752)"><path class="a" d="M1.754,30.843V9.57a2.14,2.14,0,0,1,2.14-2.14H25.157A2.14,2.14,0,0,1,27.3,9.57V30.843a.713.713,0,0,1-.713.713H2.468A.713.713,0,0,1,1.754,30.843Zm17.17,7.288a4.439,4.439,0,1,1-4.439-4.439A4.439,4.439,0,0,1,18.924,38.131Zm-2.22,0a2.22,2.22,0,1,0-2.22,2.22A2.22,2.22,0,0,0,16.7,38.131Zm-6.043-4.439H.713A.713.713,0,0,0,0,34.405V36.57a.713.713,0,0,0,.713.713H8.687A5.856,5.856,0,0,1,10.661,33.692Zm31.49,4.439a4.439,4.439,0,1,1-4.439-4.439A4.439,4.439,0,0,1,42.152,38.131Zm-2.22,0a2.22,2.22,0,1,0-2.22,2.22A2.22,2.22,0,0,0,39.932,38.131ZM50,34.405V36.57a.713.713,0,0,1-.713.713H43.51a5.858,5.858,0,0,0-11.6,0H20.283a5.856,5.856,0,0,0-1.974-3.592H29.338V13.284a1.427,1.427,0,0,1,1.427-1.427H37.5a5.708,5.708,0,0,1,4.73,2.514L46.573,20.8A5.708,5.708,0,0,1,47.55,24v9.7h1.736A.713.713,0,0,1,50,34.405ZM42.762,20.967,39.29,16.033a.714.714,0,0,0-.583-.3H33.29a.714.714,0,0,0-.713.713v4.934a.713.713,0,0,0,.713.713h8.889A.713.713,0,0,0,42.762,20.967Z"/></g></g></svg>