<svg xmlns="http://www.w3.org/2000/svg" xmlns:xlink="http://www.w3.org/1999/xlink" width="27" height="27" viewBox="0 0 27 27"><defs><style>.a,.c{fill:rgba(112,112,112,0.4);}.a{stroke:#707070;}.b{clip-path:url(#a);}</style><clipPath id="a"><rect class="a" width="27" height="27" transform="translate(7668 875)"/></clipPath></defs><g class="b" transform="translate(-7668 -875)"><g transform="translate(7668 875)"><g transform="translate(7.351 5.063)"><path class="c" d="M21.992,3.938v8.438a5.069,5.069,0,0,1-5.062,5.062h-7.5L5.717,20.617a3.332,3.332,0,0,0,1.087.2h8.125l5.668,4.86a.85.85,0,0,0,.55.2A.832.832,0,0,0,21.5,25.8a.841.841,0,0,0,.491-.766V20.813a3.378,3.378,0,0,0,3.375-3.375V7.313A3.378,3.378,0,0,0,21.992,3.938Z" transform="translate(-5.717 -3.938)"/></g><path class="c" d="M18.563,0H3.375A3.378,3.378,0,0,0,0,3.375V13.5a3.378,3.378,0,0,0,3.375,3.375v4.219a.844.844,0,0,0,1.392.641l5.67-4.86h8.125A3.378,3.378,0,0,0,21.938,13.5V3.375A3.378,3.378,0,0,0,18.563,0ZM12.656,10.125H5.906a.844.844,0,1,1,0-1.687h6.75a.844.844,0,1,1,0,1.687ZM16.031,6.75H5.906a.844.844,0,0,1,0-1.688H16.031a.844.844,0,0,1,0,1.688Z"/></g></g></svg>