<svg xmlns="http://www.w3.org/2000/svg" xmlns:xlink="http://www.w3.org/1999/xlink" width="60" height="60" viewBox="0 0 60 60">
  <defs>
    <clipPath id="clip-path">
      <rect id="Rectangle_64" data-name="Rectangle 64" width="60" height="60" transform="translate(918 1363)" fill="#fff" stroke="#707070" stroke-width="1"/>
    </clipPath>
  </defs>
  <g id="Mask_Group_35" data-name="Mask Group 35" transform="translate(-918 -1363)" clip-path="url(#clip-path)">
    <g id="distance" transform="translate(917.578 1362.577)">
      <path id="Path_1782" data-name="Path 1782" d="M52.373,19.646a3.558,3.558,0,0,0,3.553-3.553V14.908a3.554,3.554,0,1,0-7.107,0v1.184a3.558,3.558,0,0,0,3.554,3.553Z" fill="#fff"/>
      <path id="Path_1783" data-name="Path 1783" d="M59.6,21.224a3.644,3.644,0,0,0-2.473-1.331c-.036,0-.132-.013-2.724-.019h0a.594.594,0,0,0-.488.255L52.49,22.17l-1.342-2.029a.594.594,0,0,0-.5-.266H48.2a3.674,3.674,0,0,0-3.669,3.669c0,.1.015,7.943.016,8.276a2.227,2.227,0,0,0,2.227,2.226H46.8a2.169,2.169,0,0,0,1.058-.289l.37,13.942a1.833,1.833,0,0,0,1.842,1.792h4.858a1.832,1.832,0,0,0,1.842-1.8l.345-13.916a2.217,2.217,0,0,0,1.171.266,2.249,2.249,0,0,0,2.121-2.272V23.883a3.644,3.644,0,0,0-.81-2.658Z" fill="#fff"/>
      <path id="Path_1784" data-name="Path 1784" d="M8.264,19.646a3.558,3.558,0,0,0,3.553-3.553V14.908a3.554,3.554,0,0,0-7.107,0v1.184A3.558,3.558,0,0,0,8.264,19.646Z" fill="#fff"/>
      <path id="Path_1785" data-name="Path 1785" d="M13.013,19.893c-.036,0-.132-.013-2.724-.019h0a.594.594,0,0,0-.487.255L8.38,22.17,7.039,20.141a.594.594,0,0,0-.5-.266H4.092A3.669,3.669,0,0,0,.422,23.544c0,.1.016,8.277.016,8.276a2.229,2.229,0,0,0,2.227,2.226H2.69a2.17,2.17,0,0,0,1.064-.293L4.118,47.7A1.833,1.833,0,0,0,5.96,49.491h4.858a1.833,1.833,0,0,0,1.842-1.8l.323-13.927a2.218,2.218,0,0,0,1.192.278A2.249,2.249,0,0,0,16.3,31.772V23.883a3.669,3.669,0,0,0-3.283-3.989Z" fill="#fff"/>
      <path id="Path_1786" data-name="Path 1786" d="M29.142,29.828h-.058a.594.594,0,0,0,0,1.188h.058a.594.594,0,1,0,0-1.188Z" fill="#fff"/>
      <path id="Path_1787" data-name="Path 1787" d="M26.833,29.828h-.027a.594.594,0,0,0,0,1.188h.027a.594.594,0,0,0,0-1.188Z" fill="#fff"/>
      <path id="Path_1788" data-name="Path 1788" d="M24.6,29.828H20.421l.978-.978a.594.594,0,1,0-.84-.84L18.566,30a.594.594,0,0,0,0,.84l1.993,1.992a.594.594,0,1,0,.84-.84l-.978-.978H24.6a.594.594,0,1,0,0-1.188Z" fill="#fff"/>
      <path id="Path_1789" data-name="Path 1789" d="M40.286,28.01a.594.594,0,1,0-.84.84l.978.978H36.241a.594.594,0,1,0,0,1.188h4.182l-.978.978a.594.594,0,1,0,.841.84l1.993-1.993a.594.594,0,0,0,0-.84Z" fill="#fff"/>
      <path id="Path_1790" data-name="Path 1790" d="M31.76,29.828H31.7a.594.594,0,0,0,0,1.188h.058a.594.594,0,0,0,0-1.188Z" fill="#fff"/>
      <path id="Path_1791" data-name="Path 1791" d="M34.038,29.828h-.027a.594.594,0,1,0,0,1.188h.027a.594.594,0,1,0,0-1.188Z" fill="#fff"/>
      <path id="Path_1792" data-name="Path 1792" d="M29.142,20.915h-.058a.594.594,0,0,0,0,1.188h.058a.594.594,0,0,0,0-1.188Z" fill="#fff"/>
      <path id="Path_1793" data-name="Path 1793" d="M26.833,20.915h-.027a.594.594,0,0,0,0,1.188h.027a.594.594,0,0,0,0-1.188Z" fill="#fff"/>
      <path id="Path_1794" data-name="Path 1794" d="M24.6,20.915H20.421l.978-.978a.594.594,0,1,0-.84-.84L18.566,21.09a.594.594,0,0,0,0,.84l1.993,1.992a.594.594,0,1,0,.84-.84l-.978-.978H24.6a.594.594,0,1,0,0-1.188Z" fill="#fff"/>
      <path id="Path_1795" data-name="Path 1795" d="M40.286,19.1a.594.594,0,1,0-.84.84l.978.978H36.241a.594.594,0,1,0,0,1.188h4.182l-.978.978a.594.594,0,1,0,.841.84l1.993-1.993a.594.594,0,0,0,0-.84Z" fill="#fff"/>
      <path id="Path_1796" data-name="Path 1796" d="M31.76,20.915H31.7a.594.594,0,0,0,0,1.188h.058a.594.594,0,0,0,0-1.188Z" fill="#fff"/>
      <path id="Path_1797" data-name="Path 1797" d="M34.038,20.915h-.027a.594.594,0,1,0,0,1.188h.027a.594.594,0,1,0,0-1.188Z" fill="#fff"/>
      <path id="Path_1798" data-name="Path 1798" d="M29.142,38.741h-.058a.594.594,0,0,0,0,1.188h.058a.594.594,0,1,0,0-1.188Z" fill="#fff"/>
      <path id="Path_1799" data-name="Path 1799" d="M26.833,38.741h-.027a.594.594,0,0,0,0,1.188h.027a.594.594,0,1,0,0-1.188Z" fill="#fff"/>
      <path id="Path_1800" data-name="Path 1800" d="M24.6,38.741H20.421l.978-.978a.594.594,0,1,0-.84-.84l-1.992,1.993a.594.594,0,0,0,0,.84l1.993,1.992a.594.594,0,1,0,.84-.84l-.978-.978H24.6a.594.594,0,1,0,0-1.188Z" fill="#fff"/>
      <path id="Path_1801" data-name="Path 1801" d="M40.286,36.923a.594.594,0,1,0-.84.84l.978.978H36.241a.594.594,0,1,0,0,1.188h4.182l-.978.978a.594.594,0,1,0,.841.84l1.993-1.993a.594.594,0,0,0,0-.84Z" fill="#fff"/>
      <path id="Path_1802" data-name="Path 1802" d="M31.76,38.741H31.7a.594.594,0,0,0,0,1.188h.058a.594.594,0,1,0,0-1.188Z" fill="#fff"/>
      <path id="Path_1803" data-name="Path 1803" d="M34.038,38.741h-.027a.594.594,0,1,0,0,1.188h.027a.594.594,0,1,0,0-1.188Z" fill="#fff"/>
    </g>
  </g>
</svg>
