<svg xmlns="http://www.w3.org/2000/svg" xmlns:xlink="http://www.w3.org/1999/xlink" width="60" height="60" viewBox="0 0 60 60"><defs><style>.a,.c{fill:#22aee4;}.a{stroke:#707070;}.b{clip-path:url(#a);}</style><clipPath id="a"><rect class="a" width="60" height="60" transform="translate(323 1164)"/></clipPath></defs><g class="b" transform="translate(-323 -1164)"><g transform="translate(322.661 1158.683)"><path class="c" d="M22.4,24.018H38.273L30.339,10.133Z"/><path class="c" d="M42.732,24.018h17.6a2.571,2.571,0,0,0-.213-.316L50.47,11.637Z"/><path class="c" d="M40.5,22.82l7.921-12.673a2.506,2.506,0,0,0-.385-.034h-14.8Z"/><path class="c" d="M21.845,26.546l8.494,33.975,8.494-33.975Z"/><path class="c" d="M41.439,26.546,33.491,58.339,60.079,26.916a2.533,2.533,0,0,0,.259-.369Z"/><path class="c" d="M19.239,26.546H.339a2.533,2.533,0,0,0,.259.369L27.187,58.339Z"/><path class="c" d="M20.177,22.82l7.261-12.707h-14.8a2.506,2.506,0,0,0-.385.032Z"/><path class="c" d="M17.945,24.018,10.208,11.637.554,23.7a2.57,2.57,0,0,0-.213.316Z"/></g></g></svg>