<svg xmlns="http://www.w3.org/2000/svg" xmlns:xlink="http://www.w3.org/1999/xlink" width="60" height="60" viewBox="0 0 60 60"><defs><style>.a,.c{fill:#22aee4;}.a{stroke:#707070;}.b{clip-path:url(#a);}</style><clipPath id="a"><rect class="a" width="60" height="60" transform="translate(159 1294)"/></clipPath></defs><g class="b" transform="translate(-159 -1294)"><g transform="translate(159 1294)"><path class="c" d="M21.172,27.894c2.021-.5,3.516-1.8,3.516-3.292s-1.495-2.8-3.516-3.292Z" transform="translate(10.586 10.655)"/><path class="c" d="M26.445,7.109A19.336,19.336,0,1,0,45.781,26.445,19.358,19.358,0,0,0,26.445,7.109ZM35.234,31.7c0,3.4-3.024,6.236-7.031,6.889v1.917a1.758,1.758,0,0,1-3.516,0V38.591c-4.007-.653-7.031-3.493-7.031-6.889a1.758,1.758,0,0,1,3.516,0c0,1.495,1.495,2.8,3.516,3.292v-6.95c-4.007-.653-7.031-3.493-7.031-6.889s3.024-6.236,7.031-6.889v-1.9a1.758,1.758,0,1,1,3.516,0v1.9c4.007.653,7.031,3.493,7.031,6.889a1.758,1.758,0,0,1-3.516,0c0-1.495-1.495-2.8-3.516-3.292v6.95c4.007.653,7.031,3.493,7.031,6.889Z" transform="translate(3.555 3.555)"/><path class="c" d="M20,14.278c-2.021.5-3.516,1.8-3.516,3.292s1.495,2.8,3.516,3.292Z" transform="translate(8.242 7.139)"/><path class="c" d="M30,0A30,30,0,1,0,60,30,30.117,30.117,0,0,0,30,0Zm0,52.852A22.852,22.852,0,1,1,52.852,30,22.878,22.878,0,0,1,30,52.852Z"/></g></g></svg>