<svg xmlns="http://www.w3.org/2000/svg" xmlns:xlink="http://www.w3.org/1999/xlink" width="30" height="30" viewBox="0 0 30 30"><defs><style>.a,.c{fill:rgba(0,0,0,0.4);}.a{stroke:#707070;}.b{clip-path:url(#a);}</style><clipPath id="a"><rect class="a" width="30" height="30" transform="translate(10265 338)"/></clipPath></defs><g class="b" transform="translate(-10265 -338)"><g transform="translate(10265 338)"><path class="c" d="M28.719,1.011,28.683.978a3.738,3.738,0,0,0-5.281.239L10.044,15.842a1.289,1.289,0,0,0-.271.462L8.2,21.013A1.791,1.791,0,0,0,9.9,23.37h0a1.784,1.784,0,0,0,.719-.151l4.548-1.99a1.289,1.289,0,0,0,.435-.312L28.959,6.292A3.742,3.742,0,0,0,28.719,1.011ZM11.211,20.143l.922-2.763.078-.085,1.747,1.6-.078.085ZM27.054,4.553,15.7,16.985l-1.747-1.6L25.307,2.957a1.158,1.158,0,0,1,1.637-.074l.036.033A1.16,1.16,0,0,1,27.054,4.553Z"/><path class="c" d="M26.128,11.9a1.29,1.29,0,0,0-1.29,1.29V24.14a3.284,3.284,0,0,1-3.28,3.28H5.925a3.284,3.284,0,0,1-3.28-3.28V8.634a3.284,3.284,0,0,1,3.28-3.28H17.24a1.29,1.29,0,0,0,0-2.58H5.925a5.867,5.867,0,0,0-5.86,5.86V24.14A5.867,5.867,0,0,0,5.925,30H21.558a5.867,5.867,0,0,0,5.86-5.86V13.19A1.29,1.29,0,0,0,26.128,11.9Z"/></g></g></svg>