<svg xmlns="http://www.w3.org/2000/svg" xmlns:xlink="http://www.w3.org/1999/xlink" width="20" height="20" viewBox="0 0 20 20"><defs><style>.a{fill:#fff;}.b{clip-path:url(#a);}</style><clipPath id="a"><rect class="a" width="20" height="20" transform="translate(2202 5268)"/></clipPath></defs><g class="b" transform="translate(-2202 -5268)"><g transform="translate(2202 5270.143)"><g transform="translate(0 0)"><path class="a" d="M18.368,20.794a1.709,1.709,0,0,0,1.17-.442l-5.666-5.667-.392.282q-.636.469-1.032.731a6.361,6.361,0,0,1-1.055.536,3.215,3.215,0,0,1-1.228.273h-.022a3.214,3.214,0,0,1-1.228-.273A6.341,6.341,0,0,1,7.86,15.7q-.4-.262-1.032-.731l-.391-.284L.769,20.353a1.71,1.71,0,0,0,1.17.442Z" transform="translate(-0.154 -5.08)"/><path class="a" d="M1.127,9.983A5.917,5.917,0,0,1,0,9.012v8.621l4.994-4.994Q3.5,11.593,1.127,9.983Z" transform="translate(0 -3.945)"/><path class="a" d="M22.636,9.983q-2.28,1.543-3.876,2.658l4.992,4.992V9.012A6.159,6.159,0,0,1,22.636,9.983Z" transform="translate(-3.752 -3.945)"/><path class="a" d="M18.214,2.679H1.786a1.594,1.594,0,0,0-1.322.58A2.252,2.252,0,0,0,0,4.71,2.608,2.608,0,0,0,.614,6.233,5.537,5.537,0,0,0,1.92,7.522q.379.268,2.288,1.59c.687.476,1.284.891,1.8,1.249.438.3.815.569,1.126.788l.167.119.308.222q.363.262.6.424t.58.363a3.386,3.386,0,0,0,.642.3,1.776,1.776,0,0,0,.558.1h.022a1.776,1.776,0,0,0,.558-.1,3.378,3.378,0,0,0,.642-.3q.34-.2.58-.363t.6-.424l.308-.222.167-.119L14,10.365l4.094-2.842a5.308,5.308,0,0,0,1.362-1.373A2.953,2.953,0,0,0,20,4.464a1.8,1.8,0,0,0-1.786-1.786Z" transform="translate(0 -2.679)"/></g></g></g></svg>