<svg xmlns="http://www.w3.org/2000/svg" xmlns:xlink="http://www.w3.org/1999/xlink" width="19" height="19" viewBox="0 0 19 19"><defs><style>.a{fill:#22aee4;}.b{clip-path:url(#a);}</style><clipPath id="a"><rect class="a" width="19" height="19" transform="translate(774 -64)"/></clipPath></defs><g class="b" transform="translate(-774 64)"><g transform="translate(774 -61.615)"><path class="a" d="M8.551,9.026a1.872,1.872,0,0,0,1.863,0h0L18.87,3.388a2.05,2.05,0,0,0-1.935-1.38H2.029A2.05,2.05,0,0,0,.094,3.388L8.551,9.026h0Z" transform="translate(0.018 -2.008)"/><path class="a" d="M11.049,9.535h0a2.98,2.98,0,0,1-3.1,0h0L0,4.234v9.54a2.049,2.049,0,0,0,2.047,2.047H16.953A2.049,2.049,0,0,0,19,13.774V4.234Z" transform="translate(0 -1.591)"/></g></g></svg>