<svg xmlns="http://www.w3.org/2000/svg" xmlns:xlink="http://www.w3.org/1999/xlink" width="21" height="21" viewBox="0 0 21 21"><defs><style>.a{fill:rgba(0,0,0,0.3);}.b{clip-path:url(#a);}</style><clipPath id="a"><rect class="a" width="21" height="21" transform="translate(-69 32)"/></clipPath></defs><g class="b" transform="translate(69 -32)"><path class="a" d="M21,10.5A10.5,10.5,0,1,0,10.5,21c.062,0,.123,0,.185,0v-8.17H8.429V10.2h2.256V8.261a3.159,3.159,0,0,1,3.371-3.466,18.325,18.325,0,0,1,2.022.1V7.243H14.7c-1.087,0-1.3.517-1.3,1.276v1.673H16l-.34,2.629H13.4v7.772A10.5,10.5,0,0,0,21,10.5Z" transform="translate(-69 32)"/></g></svg>