<svg xmlns="http://www.w3.org/2000/svg" xmlns:xlink="http://www.w3.org/1999/xlink" width="27" height="27" viewBox="0 0 27 27"><defs><style>.a,.c{fill:#22aee4;}.a{stroke:#707070;}.b{clip-path:url(#a);}</style><clipPath id="a"><rect class="a" width="27" height="27" transform="translate(7668 833)"/></clipPath></defs><g class="b" transform="translate(-7668 -833)"><path class="c" d="M26.272,11.744l0,0L15.256.728a2.485,2.485,0,0,0-3.515,0L.733,11.736l-.011.011a2.485,2.485,0,0,0,1.654,4.235q.038,0,.077,0h.439v8.105A2.912,2.912,0,0,0,5.8,27H10.11a.791.791,0,0,0,.791-.791V19.854a1.329,1.329,0,0,1,1.327-1.327H14.77A1.329,1.329,0,0,1,16.1,19.854v6.354a.791.791,0,0,0,.791.791H21.2a2.912,2.912,0,0,0,2.909-2.909V15.986h.407a2.486,2.486,0,0,0,1.759-4.242Zm0,0" transform="translate(7668.001 833)"/></g></svg>