<svg xmlns="http://www.w3.org/2000/svg" xmlns:xlink="http://www.w3.org/1999/xlink" width="21" height="21" viewBox="0 0 21 21"><defs><style>.a{fill:rgba(0,0,0,0.3);}.b{clip-path:url(#a);}</style><clipPath id="a"><rect class="a" width="21" height="21" transform="translate(-69 80)"/></clipPath></defs><g class="b" transform="translate(69 -80)"><g transform="translate(-69 80)"><path class="a" d="M10.488,8.479a2.01,2.01,0,1,1-2.01-2.01A2.01,2.01,0,0,1,10.488,8.479Zm0,0" transform="translate(2.021 2.021)"/><path class="a" d="M13.877,5.621a2,2,0,0,0-1.144-1.144,3.336,3.336,0,0,0-1.119-.207c-.636-.029-.827-.035-2.436-.035s-1.8.006-2.436.035a3.338,3.338,0,0,0-1.119.208A2,2,0,0,0,4.477,5.621a3.337,3.337,0,0,0-.207,1.12c-.029.636-.035.826-.035,2.436s.006,1.8.035,2.436a3.336,3.336,0,0,0,.207,1.119,2,2,0,0,0,1.144,1.144,3.332,3.332,0,0,0,1.12.208c.636.029.826.035,2.436.035s1.8-.006,2.436-.035a3.332,3.332,0,0,0,1.12-.208,2,2,0,0,0,1.144-1.144,3.339,3.339,0,0,0,.208-1.119c.029-.636.035-.827.035-2.436s-.006-1.8-.035-2.436a3.332,3.332,0,0,0-.208-1.12Zm-4.7,6.652a3.1,3.1,0,1,1,3.1-3.1A3.1,3.1,0,0,1,9.177,12.273ZM12.4,6.682a.724.724,0,1,1,.724-.724A.724.724,0,0,1,12.4,6.682Zm0,0" transform="translate(1.323 1.323)"/><path class="a" d="M10.5,0A10.5,10.5,0,1,0,21,10.5,10.5,10.5,0,0,0,10.5,0Zm5.993,12.986a4.424,4.424,0,0,1-.28,1.464,3.083,3.083,0,0,1-1.763,1.763,4.427,4.427,0,0,1-1.463.28c-.643.029-.848.036-2.486.036s-1.843-.007-2.486-.036a4.427,4.427,0,0,1-1.463-.28,3.083,3.083,0,0,1-1.763-1.763,4.423,4.423,0,0,1-.28-1.463c-.03-.643-.037-.849-.037-2.486s.007-1.843.036-2.486a4.424,4.424,0,0,1,.28-1.464A3.085,3.085,0,0,1,6.551,4.787a4.428,4.428,0,0,1,1.464-.28c.643-.029.848-.036,2.486-.036s1.843.007,2.486.037a4.429,4.429,0,0,1,1.464.28,3.084,3.084,0,0,1,1.763,1.764,4.423,4.423,0,0,1,.28,1.464c.029.643.036.848.036,2.486S16.522,12.343,16.493,12.986Zm0,0"/></g></g></svg>