<svg xmlns="http://www.w3.org/2000/svg" xmlns:xlink="http://www.w3.org/1999/xlink" width="27" height="27" viewBox="0 0 27 27"><defs><style>.a,.c{fill:rgba(255,0,0,0.6);}.a{stroke:#707070;}.b{clip-path:url(#a);}</style><clipPath id="a"><rect class="a" width="27" height="27" transform="translate(36 693)"/></clipPath></defs><g class="b" transform="translate(-36 -693)"><g transform="translate(36 693)"><path class="c" d="M16.875,14.625A1.125,1.125,0,0,0,15.75,15.75v4.5a1.126,1.126,0,0,1-1.125,1.125H11.25V4.5A2.267,2.267,0,0,0,9.718,2.361L9.385,2.25h5.24A1.126,1.126,0,0,1,15.75,3.375V6.75a1.125,1.125,0,1,0,2.25,0V3.375A3.379,3.379,0,0,0,14.625,0H2.531a.884.884,0,0,0-.12.025C2.357.02,2.305,0,2.25,0A2.252,2.252,0,0,0,0,2.25V22.5a2.267,2.267,0,0,0,1.532,2.139L8.3,26.9A2.329,2.329,0,0,0,9,27a2.252,2.252,0,0,0,2.25-2.25V23.625h3.375A3.379,3.379,0,0,0,18,20.25v-4.5a1.125,1.125,0,0,0-1.125-1.125Zm0,0"/><path class="c" d="M26.67,10.455l-4.5-4.5a1.125,1.125,0,0,0-1.92.8v3.375h-4.5a1.125,1.125,0,1,0,0,2.25h4.5V15.75a1.125,1.125,0,0,0,1.92.8l4.5-4.5a1.124,1.124,0,0,0,0-1.591Zm0,0"/></g></g></svg>