<svg xmlns="http://www.w3.org/2000/svg" xmlns:xlink="http://www.w3.org/1999/xlink" width="27" height="27" viewBox="0 0 27 27"><defs><style>.a,.c{fill:#22aee4;}.a{stroke:#707070;}.b{clip-path:url(#a);}</style><clipPath id="a"><rect class="a" width="27" height="27" transform="translate(36 483)"/></clipPath></defs><g class="b" transform="translate(-36 -483)"><g transform="translate(36 483)"><path class="c" d="M14.78,1.244A12.257,12.257,0,0,0,2.515,12.685H.81A.808.808,0,0,0,.11,13.9l1.9,3.289,1.9,3.289a.808.808,0,0,0,1.4,0l1.9-3.289,1.9-3.289a.808.808,0,0,0-.7-1.212H6.384a8.4,8.4,0,1,1,4.962,8.5,1.93,1.93,0,0,0-1.574,3.525A12.258,12.258,0,1,0,14.78,1.244Z"/><path class="c" d="M17.93,12.971H17a2.384,2.384,0,0,0-1.446-1.446v-.963a.791.791,0,1,0-1.582,0v.963a2.373,2.373,0,0,0,.791,4.61h.014A2.377,2.377,0,0,0,17,14.553h.927a.791.791,0,0,0,0-1.582Zm-3.15,1.581h-.014a.791.791,0,0,1,0-1.582h.014a.79.79,0,0,1,0,1.581Z"/></g></g></svg>