<svg xmlns="http://www.w3.org/2000/svg" xmlns:xlink="http://www.w3.org/1999/xlink" width="27" height="27" viewBox="0 0 27 27"><defs><style>.a,.c{fill:rgba(112,112,112,0.4);}.a{stroke:#707070;}.b{clip-path:url(#a);}</style><clipPath id="a"><rect class="a" width="27" height="27" transform="translate(7668 959)"/></clipPath></defs><g class="b" transform="translate(-7668 -959)"><g transform="translate(7668 960.679)"><g transform="translate(8.675 0)"><path class="c" d="M13.19,1.306H9.954A3.27,3.27,0,0,0,6.747,3.957H8.428A1.648,1.648,0,0,1,9.954,2.926H13.19a1.648,1.648,0,0,1,1.526,1.031H16.4A3.27,3.27,0,0,0,13.19,1.306Z" transform="translate(-6.747 -1.306)"/></g><g transform="translate(0 4.271)"><path class="c" d="M24.512,4.628H2.488A2.491,2.491,0,0,0,0,7.116V21.511A2.491,2.491,0,0,0,2.488,24H24.512A2.491,2.491,0,0,0,27,21.511V7.116A2.491,2.491,0,0,0,24.512,4.628ZM13.5,13.5a2.667,2.667,0,0,1,.81,5.209v.914a.81.81,0,0,1-1.62,0v-.788H11.642a.81.81,0,1,1,0-1.62H13.5a1.048,1.048,0,1,0,0-2.1,2.667,2.667,0,0,1-.81-5.209V9a.81.81,0,0,1,1.62,0v.788h1.048a.81.81,0,1,1,0,1.62H13.5a1.048,1.048,0,1,0,0,2.1Z" transform="translate(0 -4.628)"/></g></g></g></svg>