<svg xmlns="http://www.w3.org/2000/svg" xmlns:xlink="http://www.w3.org/1999/xlink" width="20" height="20" viewBox="0 0 20 20"><defs><style>.a{fill:#fff;}.b{clip-path:url(#a);}</style><clipPath id="a"><rect class="a" width="20" height="20" transform="translate(2162 5268)"/></clipPath></defs><g class="b" transform="translate(-2162 -5268)"><g transform="translate(2162 5268.022)"><g transform="translate(0 0)"><path class="a" d="M19.552,15.812l-3.089-3.089a1.61,1.61,0,0,0-2.271.043l-1.556,1.556-.307-.171a15.485,15.485,0,0,1-3.743-2.707,15.572,15.572,0,0,1-2.713-3.75c-.058-.1-.113-.2-.167-.3L6.751,6.351l.513-.514a1.609,1.609,0,0,0,.041-2.271L4.217.476A1.609,1.609,0,0,0,1.946.519l-.87.875.024.024A5.034,5.034,0,0,0,.382,2.684,5.246,5.246,0,0,0,.063,3.967C-.345,7.348,1.2,10.438,5.393,14.631c5.8,5.8,10.467,5.358,10.669,5.337a5.219,5.219,0,0,0,1.287-.323,5.017,5.017,0,0,0,1.261-.714l.019.017.882-.864A1.612,1.612,0,0,0,19.552,15.812Z" transform="translate(0 -0.028)"/></g></g></g></svg>