<svg xmlns="http://www.w3.org/2000/svg" xmlns:xlink="http://www.w3.org/1999/xlink" width="19" height="19" viewBox="0 0 19 19"><defs><style>.a{fill:#22aee4;}.b{clip-path:url(#a);}</style><clipPath id="a"><rect class="a" width="19" height="19" transform="translate(734 -64)"/></clipPath></defs><g class="b" transform="translate(-734 64)"><g transform="translate(734.02 -64)"><path class="a" d="M18.48,13.944l-2.652-2.652a1.764,1.764,0,0,0-2.936.663,1.8,1.8,0,0,1-2.083,1.136A8.176,8.176,0,0,1,5.885,8.168,1.716,1.716,0,0,1,7.021,6.084a1.764,1.764,0,0,0,.663-2.936L5.033.5A1.891,1.891,0,0,0,2.476.5L.677,2.3c-1.8,1.894.189,6.913,4.64,11.364s9.47,6.534,11.364,4.64l1.8-1.8A1.891,1.891,0,0,0,18.48,13.944Z" transform="translate(-0.017 0)"/></g></g></svg>