<svg xmlns="http://www.w3.org/2000/svg" xmlns:xlink="http://www.w3.org/1999/xlink" width="30" height="30" viewBox="0 0 30 30"><defs><style>.a{fill:#22aee4;}.b{clip-path:url(#a);}</style><clipPath id="a"><rect class="a" width="30" height="30" transform="translate(8749 151)"/></clipPath></defs><g class="b" transform="translate(-8749 -151)"><path class="a" d="M15,0A15,15,0,1,0,30,15,15.017,15.017,0,0,0,15,0Zm6.563,16.25H16.25v5.313a1.25,1.25,0,0,1-2.5,0V16.25H8.438a1.25,1.25,0,1,1,0-2.5H13.75V8.438a1.25,1.25,0,1,1,2.5,0V13.75h5.313a1.25,1.25,0,1,1,0,2.5Zm0,0" transform="translate(8749 151)"/></g></svg>