<svg xmlns="http://www.w3.org/2000/svg" xmlns:xlink="http://www.w3.org/1999/xlink" width="27" height="27" viewBox="0 0 27 27"><defs><style>.a,.c{fill:#22aee4;}.a{stroke:#707070;}.b{clip-path:url(#a);}</style><clipPath id="a"><rect class="a" width="27" height="27" transform="translate(36 408)"/></clipPath></defs><g class="b" transform="translate(-36 -408)"><g transform="translate(36 408)"><path class="c" d="M13.5,2.282A13.5,13.5,0,0,0,3.061,24.341c.3-2.362,2.654-4.36,5.963-5.306a6.447,6.447,0,0,0,8.871.082c3.337,1.029,5.646,3.143,5.721,5.6A13.5,13.5,0,0,0,13.5,2.282Zm0,16.964a4.823,4.823,0,0,1-2.395-.647,6.111,6.111,0,0,1-2.934-5.348c0-3.306,2.391-6,5.329-6s5.329,2.69,5.329,6a6.1,6.1,0,0,1-3.015,5.392A4.811,4.811,0,0,1,13.5,19.246Z"/></g></g></svg>