<svg xmlns="http://www.w3.org/2000/svg" xmlns:xlink="http://www.w3.org/1999/xlink" width="60" height="60" viewBox="0 0 60 60"><defs><style>.a,.c{fill:#22aee4;}.a{stroke:#707070;}.b{clip-path:url(#a);}</style><clipPath id="a"><rect class="a" width="60" height="60" transform="translate(366 1363)"/></clipPath></defs><g class="b" transform="translate(-366 -1363)"><g transform="translate(365.751 1362.757)"><path class="c" d="M22.79.243h9.6V5.036h-9.6V.243Z"/><path class="c" d="M40.531,16.148l-4.968-3.9H22.79v-2.4h12v-2.4H20.387v3.6a1.265,1.265,0,0,1-.284.783l-1.89,2.2a38.9,38.9,0,0,0-3.173,46.215H42.61l2.646-3.294a28.913,28.913,0,0,0-4.725-40.8Zm-3.24,30.716A13.8,13.8,0,1,1,25.774,25.45c.419,0,.837.027,1.256.054a1.17,1.17,0,0,1,.716.324c5,4.739,8.249,11.517,9.707,20.158a1.114,1.114,0,0,1-.162.878Zm9.37.189a3.557,3.557,0,0,1-6.778-2.16,17.6,17.6,0,0,0-2.889-15.378l-.621-.81a3.853,3.853,0,0,1,6.089-4.712l.486.621a23.606,23.606,0,0,1,3.713,22.439Z"/><path class="c" d="M33.942,36.265a4.885,4.885,0,0,0-.689-.27,6.547,6.547,0,0,0-1.094-.257,8.93,8.93,0,0,0-1.364-.027,9.669,9.669,0,0,0-1.526.284,7.819,7.819,0,0,0-1.539.621,8.965,8.965,0,0,0-1.431.932,12.765,12.765,0,0,0-1.229,1.188,12.2,12.2,0,0,0-.986,1.377,8.258,8.258,0,0,0-.7,1.485,8.732,8.732,0,0,0-.54,2.943,9.819,9.819,0,0,0,.081,1.3,8.3,8.3,0,0,0,.23,1.053,1.886,1.886,0,0,0,.122.392c.081-.162.162-.324.243-.5A24.574,24.574,0,0,1,25.4,43.636c.378-.54.81-1.067,1.215-1.539.216-.23.432-.446.621-.648.216-.189.419-.378.594-.54.2-.149.378-.284.54-.405a3.876,3.876,0,0,1,.446-.284c.243-.149.392-.23.392-.23l-.365.257a4.669,4.669,0,0,0-.419.311c-.149.135-.324.284-.5.446s-.351.378-.54.581-.365.446-.567.689c-.365.5-.729,1.026-1.067,1.593a27.036,27.036,0,0,0-1.593,3.213c-.108.257-.189.486-.27.689a4.918,4.918,0,0,0,.581-.162c.27-.095.635-.189.972-.338s.729-.3,1.107-.473.756-.392,1.148-.608.743-.473,1.107-.729a12.35,12.35,0,0,0,1.013-.837,11.75,11.75,0,0,0,.9-.932,11.09,11.09,0,0,0,1.431-2.066,10.492,10.492,0,0,0,.54-1.107c.162-.351.311-.756.446-1.121s.27-.716.392-1.067.243-.675.324-.945c.108-.257.176-.527.23-.689s.081-.27.081-.27A.576.576,0,0,0,33.942,36.265Z"/><path class="c" d="M21.494,44.311c-.54-.378-1.067-.81-1.539-1.215-.23-.216-.446-.432-.648-.621-.189-.216-.378-.419-.54-.594-.149-.2-.284-.378-.405-.54a3.877,3.877,0,0,1-.284-.446c-.149-.243-.23-.392-.23-.392l.257.365a4.67,4.67,0,0,0,.311.419c.135.149.284.324.446.5s.378.351.581.54.446.365.689.567c.5.365,1.026.729,1.593,1.067.23.135.473.257.7.392a14.09,14.09,0,0,1,.729-3.645,10.106,10.106,0,0,0-.689-.824,11.751,11.751,0,0,0-.932-.9,11.46,11.46,0,0,0-2.052-1.431,10.494,10.494,0,0,0-1.107-.54c-.351-.162-.756-.311-1.121-.446s-.716-.27-1.067-.392-.675-.243-.945-.324c-.257-.108-.527-.176-.689-.23s-.27-.081-.27-.081a1.565,1.565,0,0,0-.122.243,4.886,4.886,0,0,0-.27.689,6.547,6.547,0,0,0-.257,1.094,8.929,8.929,0,0,0-.027,1.364,9.669,9.669,0,0,0,.284,1.526,7.819,7.819,0,0,0,.621,1.539,8.965,8.965,0,0,0,.932,1.431,12.913,12.913,0,0,0,1.188,1.242,12.2,12.2,0,0,0,1.377.986,8.142,8.142,0,0,0,1.472.7,8.732,8.732,0,0,0,2.943.54h.108a11.825,11.825,0,0,1-.122-1.958C22.1,44.716,21.8,44.527,21.494,44.311Z"/></g></g></svg>