<svg xmlns="http://www.w3.org/2000/svg" xmlns:xlink="http://www.w3.org/1999/xlink" width="60" height="60" viewBox="0 0 60 60"><defs><style>.a,.c{fill:#22aee4;}.a{stroke:#707070;}.b{clip-path:url(#a);}</style><clipPath id="a"><rect class="a" width="60" height="60" transform="translate(159 1446)"/></clipPath></defs><g class="b" transform="translate(-159 -1446)"><g transform="translate(159 1449.081)"><path class="c" d="M59.79,13.725a1.159,1.159,0,0,0-1.617-.286L43.252,23.866l-11-20.151a2.825,2.825,0,0,0-2.408-1.66,2.815,2.815,0,0,0-2.409,1.672L16.627,23.76,1.826,13.438a1.161,1.161,0,1,0-1.33,1.9l15.02,10.474L1.6,51.618a2.954,2.954,0,0,0-.1,2.958,2.954,2.954,0,0,0,2.649,1.316h51.72a2.969,2.969,0,0,0,2.582-1.236.926.926,0,0,0,.371-1.1,3.308,3.308,0,0,0-.418-1.929L44.372,25.918,59.5,15.343a1.162,1.162,0,0,0,.286-1.618Zm-30.31-8.9a1.409,1.409,0,0,1,.351-.455,1,1,0,0,1,.384.454L41.337,25.205l-11.306,7.9L18.544,25.1ZM28,34.523,4.654,50.838l12.78-23.685Zm2.03,1.416L55.317,53.569H4.8Zm25.21,14.748L32.06,34.521l10.4-7.265Z" transform="translate(0 -2.054)"/></g></g></svg>