<svg xmlns="http://www.w3.org/2000/svg" xmlns:xlink="http://www.w3.org/1999/xlink" width="21" height="21" viewBox="0 0 21 21"><defs><style>.a{fill:rgba(0,0,0,0.3);}.b{clip-path:url(#a);}.c{fill:#55acee;}.d{fill:#f1f2f2;}</style><clipPath id="a"><rect class="a" width="21" height="21" transform="translate(1171 -30)"/></clipPath></defs><g class="b" transform="translate(-1171 30)"><g transform="translate(1171 -30)"><circle class="c" cx="10.5" cy="10.5" r="10.5" transform="translate(0 0)"/><g transform="translate(4.698 6.369)"><path class="d" d="M15.813,6.03a5.008,5.008,0,0,1-1.442.395,2.517,2.517,0,0,0,1.1-1.388,5.024,5.024,0,0,1-1.594.609A2.512,2.512,0,0,0,9.6,7.934,7.125,7.125,0,0,1,4.431,5.312a2.513,2.513,0,0,0,.777,3.351,2.492,2.492,0,0,1-1.137-.314c0,.011,0,.021,0,.032a2.511,2.511,0,0,0,2.013,2.461,2.52,2.52,0,0,1-1.133.043A2.512,2.512,0,0,0,7.3,12.627,5.066,5.066,0,0,1,3.58,13.667,7.137,7.137,0,0,0,14.568,7.653c0-.109,0-.217-.007-.325a5.09,5.09,0,0,0,1.253-1.3Z" transform="translate(-3.58 -4.853)"/></g></g></g></svg>