<svg xmlns="http://www.w3.org/2000/svg" xmlns:xlink="http://www.w3.org/1999/xlink" width="50" height="50" viewBox="0 0 50 50"><defs><style>.a{fill:#22aee4;}.b{clip-path:url(#a);}</style><clipPath id="a"><rect class="a" width="50" height="50" transform="translate(231 1752)"/></clipPath></defs><g class="b" transform="translate(-231 -1752)"><g transform="translate(231 1752)"><path class="a" d="M44.531,12.012V6.25A6.25,6.25,0,0,0,38.281,0H11.719a6.25,6.25,0,0,0-6.25,6.25v5.762a.488.488,0,0,0,.488.488H44.043A.488.488,0,0,0,44.531,12.012ZM28.906,6.25H37.5a1.563,1.563,0,0,1,0,3.125H28.906a1.563,1.563,0,0,1,0-3.125Zm-10.089.067a2.115,2.115,0,1,1-.619,1.5A2.1,2.1,0,0,1,18.817,6.317Zm-7.031,0a2.115,2.115,0,1,1-.619,1.5A2.1,2.1,0,0,1,11.786,6.317Z"/><path class="a" d="M29.706,35.963a7.815,7.815,0,0,1,0-9.425,7.823,7.823,0,0,1,1.516-1.512.488.488,0,0,0,.034-.752,9.375,9.375,0,1,0,0,13.954.488.488,0,0,0-.034-.752,7.824,7.824,0,0,1-1.516-1.512Z"/><path class="a" d="M33.73,27.827a.488.488,0,0,0-.762-.2,4.676,4.676,0,0,0,0,7.243.488.488,0,0,0,.762-.2,9.251,9.251,0,0,0,.312-.938,9.431,9.431,0,0,0,0-4.968,9.233,9.233,0,0,0-.312-.94Z"/><path class="a" d="M5.469,16.113V48.438A1.562,1.562,0,0,0,7.031,50H42.969a1.562,1.562,0,0,0,1.563-1.562V16.113a.488.488,0,0,0-.488-.488H5.957A.488.488,0,0,0,5.469,16.113ZM37.055,34.562A12.556,12.556,0,1,1,37.5,31.25,12.523,12.523,0,0,1,37.055,34.562Z"/></g></g></svg>